<?xml version="1.0" encoding="UTF-8" standalone="no"?>
<!DOCTYPE svg PUBLIC "-//W3C//DTD SVG 1.1//EN"
 "http://www.w3.org/Graphics/SVG/1.1/DTD/svg11.dtd">
<!-- Generated by graphviz version 2.43.0 (0)
 -->
<!-- Title: %3 Pages: 1 -->
<svg width="668pt" height="1698pt"
 viewBox="0.00 0.00 668.29 1697.63" xmlns="http://www.w3.org/2000/svg" xmlns:xlink="http://www.w3.org/1999/xlink">
<g id="graph0" class="graph" transform="scale(1 1) rotate(0) translate(4 1693.63)">
<title>%3</title>
<polygon fill="white" stroke="transparent" points="-4,4 -4,-1693.63 664.29,-1693.63 664.29,4 -4,4"/>
<!-- &#45;1 -->
<g id="node1" class="node">
<title>&#45;1</title>
<polygon fill="lightgray" stroke="black" points="120.99,-1669.64 94.99,-1669.64 94.99,-1651.64 120.99,-1651.64 120.99,-1669.64"/>
<text text-anchor="middle" x="107.99" y="-1658.44" font-family="Times,serif" font-size="9.00">&#45;1</text>
</g>
<!-- 7181 -->
<g id="node10" class="node">
<title>7181</title>
<ellipse fill="white" stroke="black" cx="195.99" cy="-1562.41" rx="28.98" ry="28.98"/>
<text text-anchor="middle" x="195.99" y="-1560.21" font-family="Times,serif" font-size="9.00">7181</text>
</g>
<!-- &#45;1&#45;&gt;7181 -->
<g id="edge33" class="edge">
<title>&#45;1&#45;&gt;7181</title>
<path fill="none" stroke="red" stroke-width="0.5" d="M113.94,-1651.62C118.26,-1645.93 124.3,-1638.17 129.99,-1631.65 142.11,-1617.76 156.23,-1602.99 168.29,-1590.76"/>
<polygon fill="red" stroke="red" stroke-width="0.5" points="170.94,-1593.06 175.5,-1583.5 165.97,-1588.13 170.94,-1593.06"/>
</g>
<!-- 5775 -->
<g id="node11" class="node">
<title>5775</title>
<ellipse fill="white" stroke="black" cx="138.99" cy="-1464.19" rx="28.98" ry="28.98"/>
<text text-anchor="middle" x="138.99" y="-1461.99" font-family="Times,serif" font-size="9.00">5775</text>
</g>
<!-- &#45;1&#45;&gt;5775 -->
<g id="edge32" class="edge">
<title>&#45;1&#45;&gt;5775</title>
<path fill="none" stroke="green" stroke-width="0.26" d="M109.65,-1651.37C112.07,-1639.2 116.65,-1615.72 119.99,-1595.65 125.16,-1564.59 130.26,-1529.25 133.87,-1503.19"/>
<polygon fill="green" stroke="green" stroke-width="0.26" points="137.38,-1503.36 135.28,-1492.98 130.45,-1502.41 137.38,-1503.36"/>
</g>
<!-- 12193 -->
<g id="node15" class="node">
<title>12193</title>
<ellipse fill="white" stroke="black" cx="77.99" cy="-1562.41" rx="33.47" ry="33.47"/>
<text text-anchor="middle" x="77.99" y="-1560.21" font-family="Times,serif" font-size="9.00">12193</text>
</g>
<!-- &#45;1&#45;&gt;12193 -->
<g id="edge54" class="edge">
<title>&#45;1&#45;&gt;12193</title>
<path fill="none" stroke="green" stroke-width="0.31" d="M105.43,-1651.44C102.13,-1640.85 96.16,-1621.69 90.62,-1603.93"/>
<polygon fill="green" stroke="green" stroke-width="0.31" points="93.93,-1602.79 87.62,-1594.28 87.25,-1604.87 93.93,-1602.79"/>
</g>
<!-- 4653 -->
<g id="node16" class="node">
<title>4653</title>
<ellipse fill="white" stroke="black" cx="28.99" cy="-720.81" rx="28.98" ry="28.98"/>
<text text-anchor="middle" x="28.99" y="-718.61" font-family="Times,serif" font-size="9.00">4653</text>
</g>
<!-- &#45;1&#45;&gt;4653 -->
<g id="edge31" class="edge">
<title>&#45;1&#45;&gt;4653</title>
<path fill="none" stroke="green" stroke-width="0.29" d="M94.81,-1652.03C78.1,-1641.62 49.8,-1621.26 35.99,-1595.65 8.19,-1544.07 16.99,-1523.78 16.99,-1465.19 16.99,-1465.19 16.99,-1465.19 16.99,-912.02 16.99,-859.24 21.65,-798.39 25.16,-760.02"/>
<polygon fill="green" stroke="green" stroke-width="0.29" points="28.67,-760.1 26.12,-749.82 21.7,-759.45 28.67,-760.1"/>
</g>
<!-- &#45;2 -->
<g id="node2" class="node">
<title>&#45;2</title>
<polygon fill="lightgray" stroke="black" points="316.99,-1379.21 290.99,-1379.21 290.99,-1361.21 316.99,-1361.21 316.99,-1379.21"/>
<text text-anchor="middle" x="303.99" y="-1368.01" font-family="Times,serif" font-size="9.00">&#45;2</text>
</g>
<!-- 2 -->
<g id="node5" class="node">
<title>2</title>
<ellipse fill="lightblue" stroke="black" cx="98.99" cy="-1288.95" rx="16.03" ry="16.03"/>
<text text-anchor="middle" x="98.99" y="-1286.75" font-family="Times,serif" font-size="9.00">2</text>
</g>
<!-- &#45;2&#45;&gt;2 -->
<g id="edge10" class="edge">
<title>&#45;2&#45;&gt;2</title>
<path fill="none" stroke="green" stroke-width="0.15" d="M290.85,-1364.5C252.86,-1350.9 144.6,-1312.01 128.99,-1305.21 126.65,-1304.19 124.23,-1303.08 121.83,-1301.92"/>
<polygon fill="green" stroke="green" stroke-width="0.15" points="123.38,-1298.79 112.87,-1297.45 120.25,-1305.05 123.38,-1298.79"/>
</g>
<!-- 3421 -->
<g id="node26" class="node">
<title>3421</title>
<ellipse fill="white" stroke="black" cx="340.99" cy="-622.59" rx="28.98" ry="28.98"/>
<text text-anchor="middle" x="340.99" y="-620.39" font-family="Times,serif" font-size="9.00">3421</text>
</g>
<!-- &#45;2&#45;&gt;3421 -->
<g id="edge4" class="edge">
<title>&#45;2&#45;&gt;3421</title>
<path fill="none" stroke="green" stroke-width="0.22" stroke-dasharray="1,5" d="M308.96,-1361.2C322.67,-1338.33 359.99,-1270.38 359.99,-1208.7 359.99,-1208.7 359.99,-1208.7 359.99,-813.79 359.99,-760.86 352.62,-700.05 347.05,-661.73"/>
<polygon fill="green" stroke="green" stroke-width="0.22" points="350.47,-660.92 345.54,-651.54 343.55,-661.94 350.47,-660.92"/>
</g>
<!-- 2546 -->
<g id="node31" class="node">
<title>2546</title>
<ellipse fill="white" stroke="black" cx="357.99" cy="-524.36" rx="28.98" ry="28.98"/>
<text text-anchor="middle" x="357.99" y="-522.16" font-family="Times,serif" font-size="9.00">2546</text>
</g>
<!-- &#45;2&#45;&gt;2546 -->
<g id="edge3" class="edge">
<title>&#45;2&#45;&gt;2546</title>
<path fill="none" stroke="green" stroke-width="0.25" d="M313,-1361.16C336.53,-1339.23 397.99,-1275.54 397.99,-1208.7 397.99,-1208.7 397.99,-1208.7 397.99,-719.81 397.99,-661.22 392.4,-646.39 378.99,-589.35 376.83,-580.16 373.94,-570.39 371,-561.34"/>
<polygon fill="green" stroke="green" stroke-width="0.25" points="374.32,-560.21 367.82,-551.84 367.68,-562.44 374.32,-560.21"/>
</g>
<!-- 6131 -->
<g id="node32" class="node">
<title>6131</title>
<ellipse fill="white" stroke="black" cx="114.99" cy="-622.59" rx="28.98" ry="28.98"/>
<text text-anchor="middle" x="114.99" y="-620.39" font-family="Times,serif" font-size="9.00">6131</text>
</g>
<!-- &#45;2&#45;&gt;6131 -->
<g id="edge27" class="edge">
<title>&#45;2&#45;&gt;6131</title>
<path fill="none" stroke="green" stroke-width="0.18" d="M298.04,-1361.04C277.55,-1332.51 209.24,-1234.08 173.99,-1142.7 136.55,-1045.64 123.99,-1018.06 123.99,-914.02 123.99,-914.02 123.99,-914.02 123.99,-813.79 123.99,-761.06 120.5,-700.2 117.86,-661.81"/>
<polygon fill="green" stroke="green" stroke-width="0.18" points="121.34,-661.34 117.15,-651.61 114.36,-661.83 121.34,-661.34"/>
</g>
<!-- 0 -->
<g id="node3" class="node">
<title>0</title>
<ellipse fill="lightblue" stroke="black" cx="435.99" cy="-131.46" rx="16.03" ry="16.03"/>
<text text-anchor="middle" x="435.99" y="-129.26" font-family="Times,serif" font-size="9.00">0</text>
</g>
<!-- 0&#45;&gt;0 -->
<g id="edge1" class="edge">
<title>0&#45;&gt;0</title>
<path fill="none" stroke="red" stroke-width="0.4" d="M446.16,-144.4C457.41,-153.02 470.25,-148.71 470.25,-131.46 470.25,-118.93 463.47,-113.22 455.45,-114.35"/>
<polygon fill="red" stroke="red" stroke-width="0.4" points="453.85,-111.23 446.16,-118.52 456.72,-117.62 453.85,-111.23"/>
</g>
<!-- 8218 -->
<g id="node14" class="node">
<title>8218</title>
<ellipse fill="white" stroke="black" cx="466.99" cy="-33.23" rx="28.98" ry="28.98"/>
<text text-anchor="middle" x="466.99" y="-31.03" font-family="Times,serif" font-size="9.00">8218</text>
</g>
<!-- 0&#45;&gt;8218 -->
<g id="edge22" class="edge">
<title>0&#45;&gt;8218</title>
<path fill="none" stroke="red" stroke-width="0.22" d="M435.86,-115C438.36,-102.5 443.72,-84.45 449.43,-68.57"/>
<polygon fill="red" stroke="red" stroke-width="0.22" points="452.77,-69.63 453.01,-59.04 446.22,-67.17 452.77,-69.63"/>
</g>
<!-- 10434 -->
<g id="node23" class="node">
<title>10434</title>
<ellipse fill="white" stroke="black" cx="386.99" cy="-33.23" rx="33.47" ry="33.47"/>
<text text-anchor="middle" x="386.99" y="-31.03" font-family="Times,serif" font-size="9.00">10434</text>
</g>
<!-- 0&#45;&gt;10434 -->
<g id="edge38" class="edge">
<title>0&#45;&gt;10434</title>
<path fill="none" stroke="green" stroke-width="0.27" stroke-dasharray="1,5" d="M428.97,-116.67C423.04,-105.03 414.26,-87.79 406.27,-72.09"/>
<polygon fill="green" stroke="green" stroke-width="0.27" points="409.33,-70.39 401.67,-63.07 403.09,-73.57 409.33,-70.39"/>
</g>
<!-- 8047 -->
<g id="node30" class="node">
<title>8047</title>
<ellipse fill="white" stroke="black" cx="262.99" cy="-33.23" rx="28.98" ry="28.98"/>
<text text-anchor="middle" x="262.99" y="-31.03" font-family="Times,serif" font-size="9.00">8047</text>
</g>
<!-- 0&#45;&gt;8047 -->
<g id="edge21" class="edge">
<title>0&#45;&gt;8047</title>
<path fill="none" stroke="green" stroke-width="0.12" d="M422.13,-122.75C395.29,-107.82 335.56,-74.6 297.39,-53.37"/>
<polygon fill="green" stroke="green" stroke-width="0.12" points="298.62,-50.05 288.18,-48.25 295.22,-56.17 298.62,-50.05"/>
</g>
<!-- 1 -->
<g id="node4" class="node">
<title>1</title>
<ellipse fill="lightblue" stroke="black" cx="85.99" cy="-426.14" rx="16.03" ry="16.03"/>
<text text-anchor="middle" x="85.99" y="-423.94" font-family="Times,serif" font-size="9.00">1</text>
</g>
<!-- 1&#45;&gt;1 -->
<g id="edge2" class="edge">
<title>1&#45;&gt;1</title>
<path fill="none" stroke="green" stroke-width="0.34" stroke-dasharray="1,5" d="M95.81,-439.63C107.14,-449.2 120.25,-444.7 120.25,-426.14 120.25,-412.5 113.18,-406.45 104.94,-408"/>
<polygon fill="green" stroke="green" stroke-width="0.34" points="103.13,-404.99 95.81,-412.65 106.31,-411.22 103.13,-404.99"/>
</g>
<!-- 8854 -->
<g id="node12" class="node">
<title>8854</title>
<ellipse fill="white" stroke="black" cx="142.99" cy="-323.67" rx="28.98" ry="28.98"/>
<text text-anchor="middle" x="142.99" y="-321.47" font-family="Times,serif" font-size="9.00">8854</text>
</g>
<!-- 1&#45;&gt;8854 -->
<g id="edge28" class="edge">
<title>1&#45;&gt;8854</title>
<path fill="none" stroke="green" stroke-width="0.49" d="M93.68,-411.59C101.43,-397.93 113.68,-376.33 124.04,-358.07"/>
<polygon fill="green" stroke="green" stroke-width="0.49" points="127.2,-359.59 129.09,-349.16 121.12,-356.13 127.2,-359.59"/>
</g>
<!-- 7354 -->
<g id="node20" class="node">
<title>7354</title>
<ellipse fill="white" stroke="black" cx="218.99" cy="-225.44" rx="28.98" ry="28.98"/>
<text text-anchor="middle" x="218.99" y="-223.24" font-family="Times,serif" font-size="9.00">7354</text>
</g>
<!-- 1&#45;&gt;7354 -->
<g id="edge16" class="edge">
<title>1&#45;&gt;7354</title>
<path fill="none" stroke="green" stroke-width="0.19" stroke-dasharray="1,5" d="M84.04,-409.86C81.45,-383.14 79.8,-327.28 104.99,-290.43 123.11,-263.93 156,-247.18 181.82,-237.5"/>
<polygon fill="green" stroke="green" stroke-width="0.19" points="183.06,-240.77 191.32,-234.13 180.72,-234.17 183.06,-240.77"/>
</g>
<!-- 9913 -->
<g id="node19" class="node">
<title>9913</title>
<ellipse fill="white" stroke="black" cx="85.99" cy="-1207.7" rx="28.98" ry="28.98"/>
<text text-anchor="middle" x="85.99" y="-1205.5" font-family="Times,serif" font-size="9.00">9913</text>
</g>
<!-- 2&#45;&gt;9913 -->
<g id="edge42" class="edge">
<title>2&#45;&gt;9913</title>
<path fill="none" stroke="green" stroke-width="0.28" stroke-dasharray="1,5" d="M96.48,-1272.67C95.25,-1265.14 93.7,-1255.69 92.17,-1246.39"/>
<polygon fill="green" stroke="green" stroke-width="0.28" points="95.62,-1245.75 90.54,-1236.44 88.71,-1246.88 95.62,-1245.75"/>
</g>
<!-- 9088 -->
<g id="node6" class="node">
<title>9088</title>
<ellipse fill="white" stroke="black" cx="205.99" cy="-131.46" rx="28.98" ry="28.98"/>
<text text-anchor="middle" x="205.99" y="-129.26" font-family="Times,serif" font-size="9.00">9088</text>
</g>
<!-- 9088&#45;&gt;8047 -->
<g id="edge30" class="edge">
<title>9088&#45;&gt;8047</title>
<path fill="none" stroke="green" stroke-width="0.25" d="M220.37,-106.18C227.33,-94.44 235.78,-80.17 243.32,-67.44"/>
<polygon fill="green" stroke="green" stroke-width="0.25" points="246.53,-68.9 248.61,-58.51 240.5,-65.33 246.53,-68.9"/>
</g>
<!-- 11265 -->
<g id="node7" class="node">
<title>11265</title>
<ellipse fill="white" stroke="black" cx="374.99" cy="-426.14" rx="33.47" ry="33.47"/>
<text text-anchor="middle" x="374.99" y="-423.94" font-family="Times,serif" font-size="9.00">11265</text>
</g>
<!-- 10676 -->
<g id="node17" class="node">
<title>10676</title>
<ellipse fill="white" stroke="black" cx="497.99" cy="-323.67" rx="33.47" ry="33.47"/>
<text text-anchor="middle" x="497.99" y="-321.47" font-family="Times,serif" font-size="9.00">10676</text>
</g>
<!-- 11265&#45;&gt;10676 -->
<g id="edge46" class="edge">
<title>11265&#45;&gt;10676</title>
<path fill="none" stroke="green" stroke-width="0.17" d="M400.48,-404.32C419.11,-389.1 444.56,-368.31 464.79,-351.79"/>
<polygon fill="green" stroke="green" stroke-width="0.17" points="467.01,-354.49 472.54,-345.46 462.58,-349.07 467.01,-354.49"/>
</g>
<!-- 11265&#45;&gt;2546 -->
<g id="edge45" class="edge">
<title>11265&#45;&gt;2546</title>
<path fill="none" stroke="green" stroke-width="0.34" d="M375.71,-459.39C374.52,-468.35 372.84,-478.14 370.92,-487.31"/>
<polygon fill="green" stroke="green" stroke-width="0.34" points="367.45,-486.8 368.67,-497.32 374.28,-488.33 367.45,-486.8"/>
</g>
<!-- 7689 -->
<g id="node8" class="node">
<title>7689</title>
<ellipse fill="white" stroke="black" cx="187.99" cy="-1370.21" rx="28.98" ry="28.98"/>
<text text-anchor="middle" x="187.99" y="-1368.01" font-family="Times,serif" font-size="9.00">7689</text>
</g>
<!-- 7689&#45;&gt;2 -->
<g id="edge18" class="edge">
<title>7689&#45;&gt;2</title>
<path fill="none" stroke="green" stroke-width="0.25" stroke-dasharray="1,5" d="M166.45,-1350.02C151.83,-1337 132.65,-1319.92 118.48,-1307.31"/>
<polygon fill="green" stroke="green" stroke-width="0.25" points="120.59,-1304.5 110.79,-1300.46 115.93,-1309.72 120.59,-1304.5"/>
</g>
<!-- 9739 -->
<g id="node9" class="node">
<title>9739</title>
<ellipse fill="white" stroke="black" cx="614.99" cy="-426.14" rx="28.98" ry="28.98"/>
<text text-anchor="middle" x="614.99" y="-423.94" font-family="Times,serif" font-size="9.00">9739</text>
</g>
<!-- 8727 -->
<g id="node13" class="node">
<title>8727</title>
<ellipse fill="white" stroke="black" cx="556.99" cy="-225.44" rx="28.98" ry="28.98"/>
<text text-anchor="middle" x="556.99" y="-223.24" font-family="Times,serif" font-size="9.00">8727</text>
</g>
<!-- 9739&#45;&gt;8727 -->
<g id="edge35" class="edge">
<title>9739&#45;&gt;8727</title>
<path fill="none" stroke="green" stroke-width="0.4" stroke-dasharray="1,5" d="M607.05,-397.92C596.88,-363.09 579.22,-302.6 567.83,-263.56"/>
<polygon fill="green" stroke="green" stroke-width="0.4" points="571.09,-262.26 564.93,-253.64 564.37,-264.22 571.09,-262.26"/>
</g>
<!-- 9739&#45;&gt;10676 -->
<g id="edge60" class="edge">
<title>9739&#45;&gt;10676</title>
<path fill="none" stroke="red" stroke-width="0.29" stroke-dasharray="1,5" d="M593.26,-406.47C575.64,-391.34 550.54,-369.79 530.52,-352.6"/>
<polygon fill="red" stroke="red" stroke-width="0.29" points="532.72,-349.87 522.85,-346.02 528.16,-355.19 532.72,-349.87"/>
</g>
<!-- 7181&#45;&gt;5775 -->
<g id="edge14" class="edge">
<title>7181&#45;&gt;5775</title>
<path fill="none" stroke="green" stroke-width="0.14" d="M181.61,-1537.13C174.65,-1525.39 166.2,-1511.12 158.66,-1498.4"/>
<polygon fill="green" stroke="green" stroke-width="0.14" points="161.48,-1496.28 153.37,-1489.46 155.46,-1499.85 161.48,-1496.28"/>
</g>
<!-- 5775&#45;&gt;2 -->
<g id="edge11" class="edge">
<title>5775&#45;&gt;2</title>
<path fill="none" stroke="red" stroke-width="0.12" d="M115.02,-1447.28C100.14,-1435.88 82.31,-1419.06 73.99,-1399.2 64.04,-1375.43 68.19,-1366.32 73.99,-1341.21 76.31,-1331.15 80.89,-1320.78 85.5,-1312.02"/>
<polygon fill="red" stroke="red" stroke-width="0.12" points="88.59,-1313.68 90.42,-1303.24 82.48,-1310.26 88.59,-1313.68"/>
</g>
<!-- 5775&#45;&gt;7689 -->
<g id="edge17" class="edge">
<title>5775&#45;&gt;7689</title>
<path fill="none" stroke="green" stroke-width="0.19" d="M152.38,-1438.05C157.78,-1427.91 164.1,-1416.06 169.9,-1405.17"/>
<polygon fill="green" stroke="green" stroke-width="0.19" points="173.01,-1406.78 174.62,-1396.31 166.83,-1403.49 173.01,-1406.78"/>
</g>
<!-- 8854&#45;&gt;7354 -->
<g id="edge29" class="edge">
<title>8854&#45;&gt;7354</title>
<path fill="none" stroke="green" stroke-width="0.16" stroke-dasharray="1,5" d="M160.62,-300.35C170.88,-287.35 183.96,-270.8 195.14,-256.65"/>
<polygon fill="green" stroke="green" stroke-width="0.16" points="198.01,-258.66 201.46,-248.64 192.52,-254.32 198.01,-258.66"/>
</g>
<!-- 8727&#45;&gt;0 -->
<g id="edge26" class="edge">
<title>8727&#45;&gt;0</title>
<path fill="none" stroke="red" stroke-width="0.36" d="M534.23,-207.14C511.97,-190.22 478.36,-164.66 456.79,-148.27"/>
<polygon fill="red" stroke="red" stroke-width="0.36" points="458.7,-145.33 448.62,-142.06 454.47,-150.9 458.7,-145.33"/>
</g>
<!-- 8218&#45;&gt;0 -->
<g id="edge23" class="edge">
<title>8218&#45;&gt;0</title>
<path fill="none" stroke="red" stroke-width="0.28" d="M464.13,-62.36C460.3,-76.87 454.54,-94.33 449.06,-107.94"/>
<polygon fill="red" stroke="red" stroke-width="0.28" points="445.7,-106.91 444.96,-117.48 452.13,-109.68 445.7,-106.91"/>
</g>
<!-- 8218&#45;&gt;10676 -->
<g id="edge43" class="edge">
<title>8218&#45;&gt;10676</title>
<path fill="none" stroke="green" stroke-width="0.25" stroke-dasharray="1,5" d="M472.45,-62.04C474.73,-74.38 477.24,-89.11 478.99,-102.47 487.06,-164.11 492.52,-235.92 495.45,-280.34"/>
<polygon fill="green" stroke="green" stroke-width="0.25" points="491.97,-280.73 496.1,-290.48 498.95,-280.28 491.97,-280.73"/>
</g>
<!-- 12193&#45;&gt;5775 -->
<g id="edge55" class="edge">
<title>12193&#45;&gt;5775</title>
<path fill="none" stroke="red" stroke-width="0.35" d="M95.47,-1533.84C102.6,-1522.6 110.89,-1509.52 118.31,-1497.81"/>
<polygon fill="red" stroke="red" stroke-width="0.35" points="121.39,-1499.49 123.79,-1489.17 115.48,-1495.74 121.39,-1499.49"/>
</g>
<!-- 4653&#45;&gt;1 -->
<g id="edge9" class="edge">
<title>4653&#45;&gt;1</title>
<path fill="none" stroke="green" stroke-width="0.25" d="M34.35,-692.28C45.4,-635.58 70.52,-506.56 81.13,-452.11"/>
<polygon fill="green" stroke="green" stroke-width="0.25" points="84.57,-452.75 83.05,-442.26 77.7,-451.41 84.57,-452.75"/>
</g>
<!-- 4653&#45;&gt;6131 -->
<g id="edge15" class="edge">
<title>4653&#45;&gt;6131</title>
<path fill="none" stroke="green" stroke-width="0.19" d="M48.08,-698.46C60.1,-685 75.79,-667.45 88.95,-652.73"/>
<polygon fill="green" stroke="green" stroke-width="0.19" points="91.9,-654.67 95.96,-644.88 86.69,-650.01 91.9,-654.67"/>
</g>
<!-- 10676&#45;&gt;8727 -->
<g id="edge40" class="edge">
<title>10676&#45;&gt;8727</title>
<path fill="none" stroke="red" stroke-width="0.23" stroke-dasharray="1,5" d="M515.06,-294.84C521.89,-283.69 529.82,-270.77 536.92,-259.17"/>
<polygon fill="red" stroke="red" stroke-width="0.23" points="539.92,-260.97 542.17,-250.62 533.96,-257.31 539.92,-260.97"/>
</g>
<!-- 10676&#45;&gt;7354 -->
<g id="edge53" class="edge">
<title>10676&#45;&gt;7354</title>
<path fill="none" stroke="red" stroke-width="0.4" d="M466.8,-311.91C414.99,-294.04 311.44,-258.33 256.02,-239.21"/>
<polygon fill="red" stroke="red" stroke-width="0.4" points="256.85,-235.8 246.25,-235.84 254.56,-242.41 256.85,-235.8"/>
</g>
<!-- 12215 -->
<g id="node18" class="node">
<title>12215</title>
<ellipse fill="white" stroke="black" cx="496.99" cy="-426.14" rx="33.47" ry="33.47"/>
<text text-anchor="middle" x="496.99" y="-423.94" font-family="Times,serif" font-size="9.00">12215</text>
</g>
<!-- 12215&#45;&gt;10676 -->
<g id="edge57" class="edge">
<title>12215&#45;&gt;10676</title>
<path fill="none" stroke="green" stroke-width="0.49" d="M497.31,-392.79C497.39,-384.64 497.48,-375.76 497.57,-367.18"/>
<polygon fill="green" stroke="green" stroke-width="0.49" points="501.07,-366.98 497.67,-356.95 494.07,-366.91 501.07,-366.98"/>
</g>
<!-- 8548 -->
<g id="node28" class="node">
<title>8548</title>
<ellipse fill="white" stroke="black" cx="211.99" cy="-1113.71" rx="28.98" ry="28.98"/>
<text text-anchor="middle" x="211.99" y="-1111.51" font-family="Times,serif" font-size="9.00">8548</text>
</g>
<!-- 9913&#45;&gt;8548 -->
<g id="edge37" class="edge">
<title>9913&#45;&gt;8548</title>
<path fill="none" stroke="green" stroke-width="0.32" stroke-dasharray="1,5" d="M109.1,-1189.83C129.26,-1175.11 158.68,-1153.63 180.9,-1137.41"/>
<polygon fill="green" stroke="green" stroke-width="0.32" points="183.01,-1140.2 189.03,-1131.48 178.89,-1134.55 183.01,-1140.2"/>
</g>
<!-- 7354&#45;&gt;8047 -->
<g id="edge52" class="edge">
<title>7354&#45;&gt;8047</title>
<path fill="none" stroke="red" stroke-width="0.25" stroke-dasharray="1,5" d="M230.55,-198.73C235.33,-187.22 240.55,-173.36 243.99,-160.45 251.74,-131.41 256.62,-97.72 259.48,-72.45"/>
<polygon fill="red" stroke="red" stroke-width="0.25" points="263,-72.49 260.59,-62.17 256.04,-71.74 263,-72.49"/>
</g>
<!-- 1342 -->
<g id="node21" class="node">
<title>1342</title>
<ellipse fill="white" stroke="black" cx="302.99" cy="-720.81" rx="28.98" ry="28.98"/>
<text text-anchor="middle" x="302.99" y="-718.61" font-family="Times,serif" font-size="9.00">1342</text>
</g>
<!-- 1342&#45;&gt;3421 -->
<g id="edge12" class="edge">
<title>1342&#45;&gt;3421</title>
<path fill="none" stroke="green" stroke-width="0.2" stroke-dasharray="1,5" d="M313.38,-693.52C317.52,-683.02 322.36,-670.76 326.83,-659.46"/>
<polygon fill="green" stroke="green" stroke-width="0.2" points="330.2,-660.44 330.62,-649.85 323.69,-657.86 330.2,-660.44"/>
</g>
<!-- 7871 -->
<g id="node22" class="node">
<title>7871</title>
<ellipse fill="white" stroke="black" cx="294.99" cy="-426.14" rx="28.98" ry="28.98"/>
<text text-anchor="middle" x="294.99" y="-423.94" font-family="Times,serif" font-size="9.00">7871</text>
</g>
<!-- 7871&#45;&gt;2546 -->
<g id="edge20" class="edge">
<title>7871&#45;&gt;2546</title>
<path fill="none" stroke="red" stroke-width="0.31" d="M314.34,-448.02C323.16,-459.89 333.37,-475.05 341.78,-488.65"/>
<polygon fill="red" stroke="red" stroke-width="0.31" points="338.85,-490.57 347.02,-497.32 344.84,-486.95 338.85,-490.57"/>
</g>
<!-- 11593 -->
<g id="node24" class="node">
<title>11593</title>
<ellipse fill="white" stroke="black" cx="260.99" cy="-622.59" rx="33.47" ry="33.47"/>
<text text-anchor="middle" x="260.99" y="-620.39" font-family="Times,serif" font-size="9.00">11593</text>
</g>
<!-- 11593&#45;&gt;7354 -->
<g id="edge48" class="edge">
<title>11593&#45;&gt;7354</title>
<path fill="none" stroke="red" stroke-width="0.23" stroke-dasharray="1,5" d="M257.55,-589.25C249.86,-516.9 231.3,-342.23 223.05,-264.66"/>
<polygon fill="red" stroke="red" stroke-width="0.23" points="226.5,-263.96 221.96,-254.38 219.54,-264.7 226.5,-263.96"/>
</g>
<!-- 11734 -->
<g id="node25" class="node">
<title>11734</title>
<ellipse fill="white" stroke="black" cx="222.99" cy="-1015.49" rx="33.47" ry="33.47"/>
<text text-anchor="middle" x="222.99" y="-1013.29" font-family="Times,serif" font-size="9.00">11734</text>
</g>
<!-- 12516 -->
<g id="node29" class="node">
<title>12516</title>
<ellipse fill="white" stroke="black" cx="260.99" cy="-913.02" rx="33.47" ry="33.47"/>
<text text-anchor="middle" x="260.99" y="-910.82" font-family="Times,serif" font-size="9.00">12516</text>
</g>
<!-- 11734&#45;&gt;12516 -->
<g id="edge58" class="edge">
<title>11734&#45;&gt;12516</title>
<path fill="none" stroke="green" stroke-width="0.3" d="M234.5,-984.07C238.1,-974.53 242.14,-963.85 245.96,-953.77"/>
<polygon fill="green" stroke="green" stroke-width="0.3" points="249.26,-954.92 249.53,-944.33 242.71,-952.45 249.26,-954.92"/>
</g>
<!-- 2942 -->
<g id="node34" class="node">
<title>2942</title>
<ellipse fill="white" stroke="black" cx="245.99" cy="-814.79" rx="28.98" ry="28.98"/>
<text text-anchor="middle" x="245.99" y="-812.59" font-family="Times,serif" font-size="9.00">2942</text>
</g>
<!-- 11734&#45;&gt;2942 -->
<g id="edge51" class="edge">
<title>11734&#45;&gt;2942</title>
<path fill="none" stroke="red" stroke-width="0.11" d="M217.99,-982.57C214.64,-955.06 211.99,-914.41 218.99,-879.79 221,-869.87 224.59,-859.59 228.51,-850.24"/>
<polygon fill="red" stroke="red" stroke-width="0.11" points="231.8,-851.45 232.66,-840.89 225.4,-848.61 231.8,-851.45"/>
</g>
<!-- 3421&#45;&gt;2546 -->
<g id="edge56" class="edge">
<title>3421&#45;&gt;2546</title>
<path fill="none" stroke="red" stroke-width="0.11" d="M345.91,-593.75C347.6,-584.18 349.52,-573.29 351.33,-563.07"/>
<polygon fill="red" stroke="red" stroke-width="0.11" points="354.79,-563.59 353.09,-553.13 347.9,-562.37 354.79,-563.59"/>
</g>
<!-- 9569 -->
<g id="node27" class="node">
<title>9569</title>
<ellipse fill="white" stroke="black" cx="167.99" cy="-1660.64" rx="28.98" ry="28.98"/>
<text text-anchor="middle" x="167.99" y="-1658.44" font-family="Times,serif" font-size="9.00">9569</text>
</g>
<!-- 8548&#45;&gt;11734 -->
<g id="edge50" class="edge">
<title>8548&#45;&gt;11734</title>
<path fill="none" stroke="green" stroke-width="0.31" stroke-dasharray="1,5" d="M215.17,-1084.88C216.1,-1076.74 217.14,-1067.66 218.15,-1058.83"/>
<polygon fill="green" stroke="green" stroke-width="0.31" points="221.65,-1059 219.31,-1048.67 214.7,-1058.21 221.65,-1059"/>
</g>
<!-- 8548&#45;&gt;2942 -->
<g id="edge49" class="edge">
<title>8548&#45;&gt;2942</title>
<path fill="none" stroke="red" stroke-width="0.1" d="M231.83,-1092.43C242.72,-1080.46 255.83,-1064.59 264.99,-1048.72 289.27,-1006.65 294.41,-994.06 302.99,-946.25 308.21,-917.18 313.5,-907.39 302.99,-879.79 297.36,-864.99 286.55,-851.43 275.85,-840.64"/>
<polygon fill="red" stroke="red" stroke-width="0.1" points="278.17,-838.02 268.53,-833.64 273.34,-843.08 278.17,-838.02"/>
</g>
<!-- 12516&#45;&gt;2942 -->
<g id="edge59" class="edge">
<title>12516&#45;&gt;2942</title>
<path fill="none" stroke="red" stroke-width="0.1" stroke-dasharray="1,5" d="M256,-879.98C254.67,-871.49 253.23,-862.25 251.87,-853.49"/>
<polygon fill="red" stroke="red" stroke-width="0.1" points="255.31,-852.85 250.31,-843.51 248.39,-853.93 255.31,-852.85"/>
</g>
<!-- 2546&#45;&gt;11265 -->
<g id="edge44" class="edge">
<title>2546&#45;&gt;11265</title>
<path fill="none" stroke="green" stroke-width="0.3" stroke-dasharray="1,5" d="M356.75,-495.27C357.79,-486.55 359.36,-476.77 361.21,-467.39"/>
<polygon fill="green" stroke="green" stroke-width="0.3" points="364.67,-467.95 363.32,-457.45 357.82,-466.51 364.67,-467.95"/>
</g>
<!-- 2546&#45;&gt;7871 -->
<g id="edge19" class="edge">
<title>2546&#45;&gt;7871</title>
<path fill="none" stroke="green" stroke-width="0.29" d="M338.64,-502.48C329.81,-490.6 319.6,-475.42 311.18,-461.8"/>
<polygon fill="green" stroke="green" stroke-width="0.29" points="314.1,-459.88 305.94,-453.13 308.11,-463.5 314.1,-459.88"/>
</g>
<!-- 2546&#45;&gt;2546 -->
<g id="edge5" class="edge">
<title>2546&#45;&gt;2546</title>
<path fill="none" stroke="red" stroke-width="0.16" d="M381.2,-541.98C393.65,-544.97 404.98,-539.1 404.98,-524.36 404.98,-513.77 399.13,-507.75 391.21,-506.32"/>
<polygon fill="red" stroke="red" stroke-width="0.16" points="391.05,-502.83 381.2,-506.74 391.34,-509.82 391.05,-502.83"/>
</g>
<!-- 6131&#45;&gt;9913 -->
<g id="edge36" class="edge">
<title>6131&#45;&gt;9913</title>
<path fill="none" stroke="red" stroke-width="0.12" d="M108.19,-650.79C99.62,-687.53 85.99,-755.17 85.99,-813.79 85.99,-1016.49 85.99,-1016.49 85.99,-1016.49 85.99,-1069.16 85.99,-1130.04 85.99,-1168.45"/>
<polygon fill="red" stroke="red" stroke-width="0.12" points="82.49,-1168.66 85.99,-1178.66 89.49,-1168.66 82.49,-1168.66"/>
</g>
<!-- 6131&#45;&gt;8548 -->
<g id="edge24" class="edge">
<title>6131&#45;&gt;8548</title>
<path fill="none" stroke="green" stroke-width="0.21" stroke-dasharray="1,5" d="M125.66,-649.55C139.52,-685.71 161.99,-753.59 161.99,-813.79 161.99,-914.02 161.99,-914.02 161.99,-914.02 161.99,-974.48 163.38,-990.88 180.99,-1048.72 184.09,-1058.91 188.62,-1069.49 193.27,-1079.05"/>
<polygon fill="green" stroke="green" stroke-width="0.21" points="190.27,-1080.87 197.9,-1088.22 196.51,-1077.72 190.27,-1080.87"/>
</g>
<!-- 7027 -->
<g id="node33" class="node">
<title>7027</title>
<ellipse fill="white" stroke="black" cx="111.99" cy="-1370.21" rx="28.98" ry="28.98"/>
<text text-anchor="middle" x="111.99" y="-1368.01" font-family="Times,serif" font-size="9.00">7027</text>
</g>
<!-- 7027&#45;&gt;2 -->
<g id="edge13" class="edge">
<title>7027&#45;&gt;2</title>
<path fill="none" stroke="green" stroke-width="0.15" stroke-dasharray="1,5" d="M107.44,-1341.49C106.04,-1332.95 104.51,-1323.6 103.14,-1315.23"/>
<polygon fill="green" stroke="green" stroke-width="0.15" points="106.58,-1314.6 101.51,-1305.3 99.67,-1315.74 106.58,-1314.6"/>
</g>
<!-- 2942&#45;&gt;4653 -->
<g id="edge8" class="edge">
<title>2942&#45;&gt;4653</title>
<path fill="none" stroke="green" stroke-width="0.18" stroke-dasharray="1,5" d="M219.38,-802.52C180.56,-786.06 108.29,-755.42 64.82,-737"/>
<polygon fill="green" stroke="green" stroke-width="0.18" points="66.05,-733.72 55.48,-733.04 63.32,-740.16 66.05,-733.72"/>
</g>
<!-- 2942&#45;&gt;7354 -->
<g id="edge41" class="edge">
<title>2942&#45;&gt;7354</title>
<path fill="none" stroke="red" stroke-width="0.27" d="M235.44,-787.51C221.86,-751.24 199.99,-683.55 199.99,-623.59 199.99,-623.59 199.99,-623.59 199.99,-425.14 199.99,-368.99 207.6,-304.33 213.19,-264.41"/>
<polygon fill="red" stroke="red" stroke-width="0.27" points="216.68,-264.73 214.63,-254.33 209.75,-263.73 216.68,-264.73"/>
</g>
<!-- 2942&#45;&gt;1342 -->
<g id="edge6" class="edge">
<title>2942&#45;&gt;1342</title>
<path fill="none" stroke="green" stroke-width="0.36" stroke-dasharray="1,5" d="M260.97,-789.63C267.64,-778.85 275.61,-766 282.8,-754.39"/>
<polygon fill="green" stroke="green" stroke-width="0.36" points="285.82,-756.16 288.12,-745.82 279.87,-752.47 285.82,-756.16"/>
</g>
<!-- 2942&#45;&gt;11593 -->
<g id="edge47" class="edge">
<title>2942&#45;&gt;11593</title>
<path fill="none" stroke="red" stroke-width="0.5" stroke-dasharray="1,5" d="M248.2,-785.73C250.69,-754.22 254.75,-702.74 257.63,-666.24"/>
<polygon fill="red" stroke="red" stroke-width="0.5" points="261.15,-666.15 258.44,-655.91 254.17,-665.6 261.15,-666.15"/>
</g>
<!-- 4351 -->
<g id="node35" class="node">
<title>4351</title>
<ellipse fill="white" stroke="black" cx="585.99" cy="-524.36" rx="28.98" ry="28.98"/>
<text text-anchor="middle" x="585.99" y="-522.16" font-family="Times,serif" font-size="9.00">4351</text>
</g>
<!-- 4351&#45;&gt;0 -->
<g id="edge7" class="edge">
<title>4351&#45;&gt;0</title>
<path fill="none" stroke="green" stroke-width="0.14" stroke-dasharray="1,5" d="M557.43,-518.16C526.44,-510.87 478.27,-494.35 454.99,-459.37 391.39,-363.8 416.3,-215.6 429.66,-157.26"/>
<polygon fill="green" stroke="green" stroke-width="0.14" points="433.09,-157.98 432,-147.44 426.28,-156.36 433.09,-157.98"/>
</g>
<!-- 4351&#45;&gt;9739 -->
<g id="edge34" class="edge">
<title>4351&#45;&gt;9739</title>
<path fill="none" stroke="green" stroke-width="0.14" stroke-dasharray="1,5" d="M594.15,-496.3C597.2,-486.17 600.72,-474.49 603.99,-463.65"/>
<polygon fill="green" stroke="green" stroke-width="0.14" points="607.36,-464.58 606.9,-453.99 600.66,-462.56 607.36,-464.58"/>
</g>
<!-- 4351&#45;&gt;8727 -->
<g id="edge25" class="edge">
<title>4351&#45;&gt;8727</title>
<path fill="none" stroke="red" stroke-width="0.11" d="M610.01,-508.12C625.47,-496.78 644.26,-479.78 652.99,-459.37 664.61,-432.21 660.09,-421.58 652.99,-392.9 640.05,-340.58 605.21,-288 581.26,-256.33"/>
<polygon fill="red" stroke="red" stroke-width="0.11" points="584,-254.14 575.13,-248.35 578.45,-258.41 584,-254.14"/>
</g>
<!-- 4351&#45;&gt;10676 -->
<g id="edge39" class="edge">
<title>4351&#45;&gt;10676</title>
<path fill="none" stroke="red" stroke-width="0.34" d="M577.93,-496.26C569.57,-469.43 555.41,-427.48 538.99,-392.9 533.86,-382.09 527.5,-370.78 521.34,-360.55"/>
<polygon fill="red" stroke="red" stroke-width="0.34" points="524.23,-358.56 516.01,-351.88 518.26,-362.23 524.23,-358.56"/>
</g>
</g>
</svg>
