<?xml version="1.0" encoding="UTF-8" standalone="no"?>
<!DOCTYPE svg PUBLIC "-//W3C//DTD SVG 1.1//EN"
 "http://www.w3.org/Graphics/SVG/1.1/DTD/svg11.dtd">
<!-- Generated by graphviz version 2.43.0 (0)
 -->
<!-- Title: %3 Pages: 1 -->
<svg width="1539pt" height="1247pt"
 viewBox="0.00 0.00 1539.00 1247.13" xmlns="http://www.w3.org/2000/svg" xmlns:xlink="http://www.w3.org/1999/xlink">
<g id="graph0" class="graph" transform="scale(1 1) rotate(0) translate(4 1243.13)">
<title>%3</title>
<polygon fill="white" stroke="transparent" points="-4,4 -4,-1243.13 1535,-1243.13 1535,4 -4,4"/>
<!-- &#45;1 -->
<g id="node1" class="node">
<title>&#45;1</title>
<polygon fill="lightgray" stroke="black" points="720,-1066.91 694,-1066.91 694,-1048.91 720,-1048.91 720,-1066.91"/>
<text text-anchor="middle" x="707" y="-1055.71" font-family="Times,serif" font-size="9.00">&#45;1</text>
</g>
<!-- 50329 -->
<g id="node19" class="node">
<title>50329</title>
<ellipse fill="white" stroke="black" cx="646" cy="-955.45" rx="33.47" ry="33.47"/>
<text text-anchor="middle" x="646" y="-953.25" font-family="Times,serif" font-size="9.00">50329</text>
</g>
<!-- &#45;1&#45;&gt;50329 -->
<g id="edge85" class="edge">
<title>&#45;1&#45;&gt;50329</title>
<path fill="none" stroke="green" stroke-width="0.26" d="M702.01,-1048.69C694.67,-1036.61 680.52,-1013.3 668.28,-993.14"/>
<polygon fill="green" stroke="green" stroke-width="0.26" points="671.18,-991.17 663,-984.44 665.2,-994.8 671.18,-991.17"/>
</g>
<!-- 717 -->
<g id="node27" class="node">
<title>717</title>
<ellipse fill="white" stroke="black" cx="1011" cy="-852.98" rx="25" ry="25"/>
<text text-anchor="middle" x="1011" y="-850.78" font-family="Times,serif" font-size="9.00">717</text>
</g>
<!-- &#45;1&#45;&gt;717 -->
<g id="edge1" class="edge">
<title>&#45;1&#45;&gt;717</title>
<path fill="none" stroke="green" stroke-width="0.14" stroke-dasharray="1,5" d="M715.6,-1048.91C739.55,-1026.88 809.55,-964.2 875,-922.21 909.01,-900.39 950.93,-880.29 979.17,-867.64"/>
<polygon fill="green" stroke="green" stroke-width="0.14" points="980.82,-870.73 988.55,-863.48 977.99,-864.33 980.82,-870.73"/>
</g>
<!-- 718 -->
<g id="node28" class="node">
<title>718</title>
<ellipse fill="white" stroke="black" cx="669" cy="-545.57" rx="25" ry="25"/>
<text text-anchor="middle" x="669" y="-543.37" font-family="Times,serif" font-size="9.00">718</text>
</g>
<!-- &#45;1&#45;&gt;718 -->
<g id="edge2" class="edge">
<title>&#45;1&#45;&gt;718</title>
<path fill="none" stroke="red" stroke-width="0.14" d="M706.4,-1048.9C702.39,-995.01 679.27,-684.52 671.53,-580.52"/>
<polygon fill="red" stroke="red" stroke-width="0.14" points="675,-579.98 670.76,-570.27 668.02,-580.5 675,-579.98"/>
</g>
<!-- &#45;2 -->
<g id="node2" class="node">
<title>&#45;2</title>
<polygon fill="lightgray" stroke="black" points="249,-1239.13 223,-1239.13 223,-1221.13 249,-1221.13 249,-1239.13"/>
<text text-anchor="middle" x="236" y="-1227.93" font-family="Times,serif" font-size="9.00">&#45;2</text>
</g>
<!-- 0 -->
<g id="node9" class="node">
<title>0</title>
<ellipse fill="lightblue" stroke="black" cx="436" cy="-443.11" rx="16.03" ry="16.03"/>
<text text-anchor="middle" x="436" y="-440.91" font-family="Times,serif" font-size="9.00">0</text>
</g>
<!-- &#45;2&#45;&gt;0 -->
<g id="edge45" class="edge">
<title>&#45;2&#45;&gt;0</title>
<path fill="none" stroke="green" stroke-width="0.54" d="M222.63,-1228.27C196.01,-1225.89 135.76,-1217.09 99,-1185.13 51.98,-1144.25 38,-1121.22 38,-1058.91 38,-1058.91 38,-1058.91 38,-647.04 38,-479.89 320.06,-450.35 409.28,-445.19"/>
<polygon fill="green" stroke="green" stroke-width="0.54" points="409.6,-448.67 419.41,-444.66 409.24,-441.68 409.6,-448.67"/>
</g>
<!-- 26241 -->
<g id="node13" class="node">
<title>26241</title>
<ellipse fill="white" stroke="black" cx="137" cy="-852.98" rx="33.47" ry="33.47"/>
<text text-anchor="middle" x="137" y="-850.78" font-family="Times,serif" font-size="9.00">26241</text>
</g>
<!-- &#45;2&#45;&gt;26241 -->
<g id="edge77" class="edge">
<title>&#45;2&#45;&gt;26241</title>
<path fill="none" stroke="green" stroke-width="0.14" d="M233.28,-1221.06C230.35,-1212.27 225.63,-1197.77 222,-1185.13 192.28,-1081.64 162,-958.54 146.88,-895.59"/>
<polygon fill="green" stroke="green" stroke-width="0.14" points="150.23,-894.55 144.49,-885.64 143.42,-896.19 150.23,-894.55"/>
</g>
<!-- 24139 -->
<g id="node26" class="node">
<title>24139</title>
<ellipse fill="white" stroke="black" cx="99" cy="-750.51" rx="33.47" ry="33.47"/>
<text text-anchor="middle" x="99" y="-748.31" font-family="Times,serif" font-size="9.00">24139</text>
</g>
<!-- &#45;2&#45;&gt;24139 -->
<g id="edge71" class="edge">
<title>&#45;2&#45;&gt;24139</title>
<path fill="none" stroke="green" stroke-width="0.35" stroke-dasharray="1,5" d="M222.91,-1223.13C184.69,-1204.63 76,-1144.49 76,-1058.91 76,-1058.91 76,-1058.91 76,-954.45 76,-898.39 84.77,-834.17 91.48,-793.25"/>
<polygon fill="green" stroke="green" stroke-width="0.35" points="94.94,-793.81 93.14,-783.37 88.03,-792.65 94.94,-793.81"/>
</g>
<!-- &#45;2&#45;&gt;718 -->
<g id="edge3" class="edge">
<title>&#45;2&#45;&gt;718</title>
<path fill="none" stroke="red" stroke-width="0.18" stroke-dasharray="1,5" d="M239.11,-1221.12C248.19,-1197.01 274,-1122.8 274,-1058.91 274,-1058.91 274,-1058.91 274,-954.45 274,-893.99 264.52,-873.08 293,-819.74 357.33,-699.26 407.93,-689.92 522,-614.81 558.9,-590.51 605.83,-570.35 636.61,-558.39"/>
<polygon fill="red" stroke="red" stroke-width="0.18" points="637.91,-561.64 646,-554.8 635.41,-555.11 637.91,-561.64"/>
</g>
<!-- 7892 -->
<g id="node29" class="node">
<title>7892</title>
<ellipse fill="white" stroke="black" cx="255" cy="-648.04" rx="28.98" ry="28.98"/>
<text text-anchor="middle" x="255" y="-645.84" font-family="Times,serif" font-size="9.00">7892</text>
</g>
<!-- &#45;2&#45;&gt;7892 -->
<g id="edge30" class="edge">
<title>&#45;2&#45;&gt;7892</title>
<path fill="none" stroke="green" stroke-width="0.24" stroke-dasharray="1,5" d="M236,-1220.98C236,-1196.47 236,-1121.27 236,-1058.91 236,-1058.91 236,-1058.91 236,-851.98 236,-794.2 243.73,-727.56 249.33,-686.88"/>
<polygon fill="green" stroke="green" stroke-width="0.24" points="252.81,-687.26 250.74,-676.87 245.88,-686.28 252.81,-687.26"/>
</g>
<!-- 19801 -->
<g id="node33" class="node">
<title>19801</title>
<ellipse fill="white" stroke="black" cx="335" cy="-852.98" rx="33.47" ry="33.47"/>
<text text-anchor="middle" x="335" y="-850.78" font-family="Times,serif" font-size="9.00">19801</text>
</g>
<!-- &#45;2&#45;&gt;19801 -->
<g id="edge42" class="edge">
<title>&#45;2&#45;&gt;19801</title>
<path fill="none" stroke="green" stroke-width="0.23" stroke-dasharray="1,5" d="M249.05,-1221.91C261.27,-1214.41 278.96,-1201.49 288,-1185.13 314.95,-1136.35 327.91,-974.51 332.71,-896.61"/>
<polygon fill="green" stroke="green" stroke-width="0.23" points="336.23,-896.38 333.33,-886.19 329.24,-895.97 336.23,-896.38"/>
</g>
<!-- 1113 -->
<g id="node34" class="node">
<title>1113</title>
<ellipse fill="white" stroke="black" cx="1088" cy="-1156.14" rx="28.98" ry="28.98"/>
<text text-anchor="middle" x="1088" y="-1153.94" font-family="Times,serif" font-size="9.00">1113</text>
</g>
<!-- &#45;2&#45;&gt;1113 -->
<g id="edge61" class="edge">
<title>&#45;2&#45;&gt;1113</title>
<path fill="none" stroke="red" stroke-width="0.14" stroke-dasharray="1,5" d="M249.04,-1228.03C341.25,-1220.24 895.62,-1173.4 1048.81,-1160.45"/>
<polygon fill="red" stroke="red" stroke-width="0.14" points="1049.46,-1163.91 1059.13,-1159.58 1048.87,-1156.93 1049.46,-1163.91"/>
</g>
<!-- &#45;3 -->
<g id="node3" class="node">
<title>&#45;3</title>
<polygon fill="lightgray" stroke="black" points="872,-1066.91 846,-1066.91 846,-1048.91 872,-1048.91 872,-1066.91"/>
<text text-anchor="middle" x="859" y="-1055.71" font-family="Times,serif" font-size="9.00">&#45;3</text>
</g>
<!-- 1 -->
<g id="node10" class="node">
<title>1</title>
<ellipse fill="lightblue" stroke="black" cx="792" cy="-648.04" rx="16.03" ry="16.03"/>
<text text-anchor="middle" x="792" y="-645.84" font-family="Times,serif" font-size="9.00">1</text>
</g>
<!-- &#45;3&#45;&gt;1 -->
<g id="edge41" class="edge">
<title>&#45;3&#45;&gt;1</title>
<path fill="none" stroke="red" stroke-width="0.19" stroke-dasharray="1,5" d="M857.66,-1048.77C849.79,-1000.83 809.39,-754.92 796.18,-674.52"/>
<polygon fill="red" stroke="red" stroke-width="0.19" points="799.58,-673.61 794.51,-664.31 792.67,-674.74 799.58,-673.61"/>
</g>
<!-- 50834 -->
<g id="node17" class="node">
<title>50834</title>
<ellipse fill="white" stroke="black" cx="958" cy="-955.45" rx="33.47" ry="33.47"/>
<text text-anchor="middle" x="958" y="-953.25" font-family="Times,serif" font-size="9.00">50834</text>
</g>
<!-- &#45;3&#45;&gt;50834 -->
<g id="edge86" class="edge">
<title>&#45;3&#45;&gt;50834</title>
<path fill="none" stroke="green" stroke-width="0.33" stroke-dasharray="1,5" d="M867.1,-1048.69C880.24,-1035.36 906.84,-1008.37 927.88,-987.01"/>
<polygon fill="green" stroke="green" stroke-width="0.33" points="930.54,-989.3 935.06,-979.72 925.55,-984.39 930.54,-989.3"/>
</g>
<!-- 1432 -->
<g id="node18" class="node">
<title>1432</title>
<ellipse fill="white" stroke="black" cx="1076" cy="-955.45" rx="28.98" ry="28.98"/>
<text text-anchor="middle" x="1076" y="-953.25" font-family="Times,serif" font-size="9.00">1432</text>
</g>
<!-- &#45;3&#45;&gt;1432 -->
<g id="edge29" class="edge">
<title>&#45;3&#45;&gt;1432</title>
<path fill="none" stroke="green" stroke-width="0.11" stroke-dasharray="1,5" d="M872.25,-1050.78C905.2,-1035.52 991.74,-995.46 1040.78,-972.75"/>
<polygon fill="green" stroke="green" stroke-width="0.11" points="1042.46,-975.83 1050.06,-968.46 1039.52,-969.48 1042.46,-975.83"/>
</g>
<!-- &#45;3&#45;&gt;717 -->
<g id="edge4" class="edge">
<title>&#45;3&#45;&gt;717</title>
<path fill="none" stroke="green" stroke-width="0.41" d="M860.78,-1048.84C866.01,-1026.61 883.03,-963.48 916,-922.21 933.48,-900.34 959.69,-882.23 980.15,-870.18"/>
<polygon fill="green" stroke="green" stroke-width="0.41" points="982.15,-873.07 989.1,-865.08 978.68,-866.99 982.15,-873.07"/>
</g>
<!-- &#45;3&#45;&gt;718 -->
<g id="edge5" class="edge">
<title>&#45;3&#45;&gt;718</title>
<path fill="none" stroke="red" stroke-width="0.26" stroke-dasharray="1,5" d="M854.09,-1048.74C834.85,-1016.35 763.77,-893.47 726,-783.74 701.01,-711.16 709.31,-689.11 690,-614.81 686.94,-603.05 683.15,-590.3 679.63,-579.03"/>
<polygon fill="red" stroke="red" stroke-width="0.26" points="682.87,-577.65 676.51,-569.18 676.19,-579.77 682.87,-577.65"/>
</g>
<!-- 19304 -->
<g id="node37" class="node">
<title>19304</title>
<ellipse fill="white" stroke="black" cx="608" cy="-750.51" rx="33.47" ry="33.47"/>
<text text-anchor="middle" x="608" y="-748.31" font-family="Times,serif" font-size="9.00">19304</text>
</g>
<!-- &#45;3&#45;&gt;19304 -->
<g id="edge36" class="edge">
<title>&#45;3&#45;&gt;19304</title>
<path fill="none" stroke="green" stroke-width="0.11" d="M845.72,-1048.82C827.15,-1037.1 793.03,-1014 769,-988.68 737.21,-955.19 666.91,-845.63 630.63,-787.88"/>
<polygon fill="green" stroke="green" stroke-width="0.11" points="633.39,-785.69 625.12,-779.08 627.46,-789.41 633.39,-785.69"/>
</g>
<!-- &#45;4 -->
<g id="node4" class="node">
<title>&#45;4</title>
<polygon fill="lightgray" stroke="black" points="541,-1066.91 515,-1066.91 515,-1048.91 541,-1048.91 541,-1066.91"/>
<text text-anchor="middle" x="528" y="-1055.71" font-family="Times,serif" font-size="9.00">&#45;4</text>
</g>
<!-- &#45;4&#45;&gt;50329 -->
<g id="edge83" class="edge">
<title>&#45;4&#45;&gt;50329</title>
<path fill="none" stroke="green" stroke-width="0.14" d="M537.66,-1048.69C554.02,-1034.76 587.9,-1005.91 613.44,-984.17"/>
<polygon fill="green" stroke="green" stroke-width="0.14" points="615.73,-986.82 621.07,-977.67 611.19,-981.49 615.73,-986.82"/>
</g>
<!-- 35113 -->
<g id="node21" class="node">
<title>35113</title>
<ellipse fill="white" stroke="black" cx="608" cy="-852.98" rx="33.47" ry="33.47"/>
<text text-anchor="middle" x="608" y="-850.78" font-family="Times,serif" font-size="9.00">35113</text>
</g>
<!-- &#45;4&#45;&gt;35113 -->
<g id="edge79" class="edge">
<title>&#45;4&#45;&gt;35113</title>
<path fill="none" stroke="red" stroke-width="0.26" stroke-dasharray="1,5" d="M530.01,-1048.83C535.41,-1027.61 551.17,-968.73 571,-922.21 575.45,-911.77 580.98,-900.82 586.39,-890.81"/>
<polygon fill="red" stroke="red" stroke-width="0.26" points="589.52,-892.38 591.3,-881.94 583.39,-889 589.52,-892.38"/>
</g>
<!-- 9029 -->
<g id="node25" class="node">
<title>9029</title>
<ellipse fill="white" stroke="black" cx="764" cy="-750.51" rx="28.98" ry="28.98"/>
<text text-anchor="middle" x="764" y="-748.31" font-family="Times,serif" font-size="9.00">9029</text>
</g>
<!-- &#45;4&#45;&gt;9029 -->
<g id="edge60" class="edge">
<title>&#45;4&#45;&gt;9029</title>
<path fill="none" stroke="red" stroke-width="0.21" stroke-dasharray="1,5" d="M526.51,-1048.69C520.97,-1015.35 504.87,-888.71 566,-819.74 576.95,-807.38 672.1,-778.2 726.41,-762.3"/>
<polygon fill="red" stroke="red" stroke-width="0.21" points="727.42,-765.65 736.04,-759.49 725.46,-758.93 727.42,-765.65"/>
</g>
<!-- &#45;4&#45;&gt;717 -->
<g id="edge6" class="edge">
<title>&#45;4&#45;&gt;717</title>
<path fill="none" stroke="green" stroke-width="0.35" stroke-dasharray="1,5" d="M533.57,-1048.68C542.05,-1036.01 558.52,-1010.9 571,-988.68 587.15,-959.92 577.51,-941.86 604,-922.21 662.98,-878.48 888.39,-861.04 975.94,-855.82"/>
<polygon fill="green" stroke="green" stroke-width="0.35" points="976.37,-859.3 986.15,-855.23 975.97,-852.31 976.37,-859.3"/>
</g>
<!-- &#45;4&#45;&gt;718 -->
<g id="edge7" class="edge">
<title>&#45;4&#45;&gt;718</title>
<path fill="none" stroke="green" stroke-width="0.15" stroke-dasharray="1,5" d="M526.21,-1048.56C523.57,-1035.75 518.74,-1010.45 517,-988.68 514.64,-959.23 515.28,-951.7 517,-922.21 519.67,-876.44 518.48,-864.37 529,-819.74 552.13,-721.66 573.67,-700.93 626,-614.81 633.88,-601.84 642.79,-587.62 650.46,-575.54"/>
<polygon fill="green" stroke="green" stroke-width="0.15" points="653.62,-577.09 656.03,-566.77 647.71,-573.33 653.62,-577.09"/>
</g>
<!-- &#45;4&#45;&gt;7892 -->
<g id="edge52" class="edge">
<title>&#45;4&#45;&gt;7892</title>
<path fill="none" stroke="red" stroke-width="0.22" stroke-dasharray="1,5" d="M517.45,-1048.85C502.46,-1036.98 474.87,-1013.52 457,-988.68 408.48,-921.25 417.85,-892.08 377,-819.74 350.12,-772.15 341.1,-761.52 309,-717.28 299.63,-704.36 288.8,-690.49 279.31,-678.64"/>
<polygon fill="red" stroke="red" stroke-width="0.22" points="281.99,-676.39 272.99,-670.81 276.54,-680.79 281.99,-676.39"/>
</g>
<!-- &#45;5 -->
<g id="node5" class="node">
<title>&#45;5</title>
<polygon fill="lightgray" stroke="black" points="208,-964.45 182,-964.45 182,-946.45 208,-946.45 208,-964.45"/>
<text text-anchor="middle" x="195" y="-953.25" font-family="Times,serif" font-size="9.00">&#45;5</text>
</g>
<!-- &#45;5&#45;&gt;26241 -->
<g id="edge97" class="edge">
<title>&#45;5&#45;&gt;26241</title>
<path fill="none" stroke="green" stroke-width="0.47" d="M190.25,-946.22C183.32,-934.22 170,-911.15 158.42,-891.08"/>
<polygon fill="green" stroke="green" stroke-width="0.47" points="161.45,-889.32 153.42,-882.41 155.38,-892.82 161.45,-889.32"/>
</g>
<!-- &#45;5&#45;&gt;717 -->
<g id="edge8" class="edge">
<title>&#45;5&#45;&gt;717</title>
<path fill="none" stroke="green" stroke-width="0.11" stroke-dasharray="1,5" d="M208.15,-952.83C298.95,-941.65 833.57,-875.82 976.1,-858.28"/>
<polygon fill="green" stroke="green" stroke-width="0.11" points="976.92,-861.7 986.42,-857 976.07,-854.75 976.92,-861.7"/>
</g>
<!-- &#45;5&#45;&gt;718 -->
<g id="edge9" class="edge">
<title>&#45;5&#45;&gt;718</title>
<path fill="none" stroke="green" stroke-width="0.21" d="M194.21,-946.2C189.91,-899.13 171.04,-664.86 217,-614.81 245.29,-584 533.44,-557.67 634.34,-549.32"/>
<polygon fill="green" stroke="green" stroke-width="0.21" points="634.64,-552.81 644.32,-548.51 634.07,-545.83 634.64,-552.81"/>
</g>
<!-- &#45;6 -->
<g id="node6" class="node">
<title>&#45;6</title>
<polygon fill="lightgray" stroke="black" points="1330,-1239.13 1304,-1239.13 1304,-1221.13 1330,-1221.13 1330,-1239.13"/>
<text text-anchor="middle" x="1317" y="-1227.93" font-family="Times,serif" font-size="9.00">&#45;6</text>
</g>
<!-- &#45;6&#45;&gt;717 -->
<g id="edge10" class="edge">
<title>&#45;6&#45;&gt;717</title>
<path fill="none" stroke="green" stroke-width="0.25" d="M1312.91,-1220.97C1290.92,-1177.31 1185.85,-971.45 1135,-922.21 1108.59,-896.64 1070.69,-877.65 1043.76,-866.28"/>
<polygon fill="green" stroke="green" stroke-width="0.25" points="1044.95,-862.99 1034.37,-862.44 1042.3,-869.47 1044.95,-862.99"/>
</g>
<!-- &#45;6&#45;&gt;718 -->
<g id="edge11" class="edge">
<title>&#45;6&#45;&gt;718</title>
<path fill="none" stroke="green" stroke-width="0.24" stroke-dasharray="1,5" d="M1330.16,-1226.36C1351.28,-1221.34 1393.08,-1208.99 1420,-1185.13 1468.5,-1142.15 1493,-1123.72 1493,-1058.91 1493,-1058.91 1493,-1058.91 1493,-749.51 1493,-646.72 1401.04,-651.43 1305,-614.81 1193.44,-572.27 820.55,-553.05 704.07,-547.99"/>
<polygon fill="green" stroke="green" stroke-width="0.24" points="704.07,-544.49 693.93,-547.56 703.77,-551.48 704.07,-544.49"/>
</g>
<!-- &#45;6&#45;&gt;1113 -->
<g id="edge28" class="edge">
<title>&#45;6&#45;&gt;1113</title>
<path fill="none" stroke="red" stroke-width="0.11" stroke-dasharray="1,5" d="M1303.9,-1225.66C1277.46,-1218.58 1215.93,-1201.74 1165,-1185.13 1151.64,-1180.77 1137.12,-1175.61 1124.33,-1170.91"/>
<polygon fill="red" stroke="red" stroke-width="0.11" points="1125.52,-1167.62 1114.93,-1167.43 1123.09,-1174.19 1125.52,-1167.62"/>
</g>
<!-- 24419 -->
<g id="node35" class="node">
<title>24419</title>
<ellipse fill="white" stroke="black" cx="1194" cy="-750.51" rx="33.47" ry="33.47"/>
<text text-anchor="middle" x="1194" y="-748.31" font-family="Times,serif" font-size="9.00">24419</text>
</g>
<!-- &#45;6&#45;&gt;24419 -->
<g id="edge76" class="edge">
<title>&#45;6&#45;&gt;24419</title>
<path fill="none" stroke="red" stroke-width="0.3" d="M1330.23,-1221.47C1364.77,-1200.35 1455,-1137.66 1455,-1058.91 1455,-1058.91 1455,-1058.91 1455,-954.45 1455,-844.81 1309.69,-785.8 1235.92,-762.91"/>
<polygon fill="red" stroke="red" stroke-width="0.3" points="1236.59,-759.45 1226,-759.91 1234.57,-766.16 1236.59,-759.45"/>
</g>
<!-- &#45;7 -->
<g id="node7" class="node">
<title>&#45;7</title>
<polygon fill="lightgray" stroke="black" points="1354,-1066.91 1328,-1066.91 1328,-1048.91 1354,-1048.91 1354,-1066.91"/>
<text text-anchor="middle" x="1341" y="-1055.71" font-family="Times,serif" font-size="9.00">&#45;7</text>
</g>
<!-- &#45;7&#45;&gt;1 -->
<g id="edge38" class="edge">
<title>&#45;7&#45;&gt;1</title>
<path fill="none" stroke="green" stroke-width="0.48" d="M1345.62,-1048.8C1357.66,-1026.48 1387.2,-963.12 1360,-922.21 1271.94,-789.76 1172.79,-853.81 1030,-783.74 948.34,-743.68 855.62,-688.14 814.12,-662.73"/>
<polygon fill="green" stroke="green" stroke-width="0.48" points="815.73,-659.61 805.38,-657.36 812.07,-665.58 815.73,-659.61"/>
</g>
<!-- 8848 -->
<g id="node16" class="node">
<title>8848</title>
<ellipse fill="white" stroke="black" cx="1304" cy="-955.45" rx="28.98" ry="28.98"/>
<text text-anchor="middle" x="1304" y="-953.25" font-family="Times,serif" font-size="9.00">8848</text>
</g>
<!-- &#45;7&#45;&gt;8848 -->
<g id="edge32" class="edge">
<title>&#45;7&#45;&gt;8848</title>
<path fill="none" stroke="green" stroke-width="0.5" stroke-dasharray="1,5" d="M1337.97,-1048.69C1333.49,-1036.53 1324.83,-1013 1317.37,-992.74"/>
<polygon fill="green" stroke="green" stroke-width="0.5" points="1320.57,-991.3 1313.83,-983.13 1314,-993.72 1320.57,-991.3"/>
</g>
<!-- &#45;7&#45;&gt;717 -->
<g id="edge12" class="edge">
<title>&#45;7&#45;&gt;717</title>
<path fill="none" stroke="green" stroke-width="0.17" d="M1331.98,-1048.81C1301.23,-1021.23 1201.54,-932.2 1185,-922.21 1139.49,-894.75 1080.97,-874.49 1044.73,-863.46"/>
<polygon fill="green" stroke="green" stroke-width="0.17" points="1045.26,-859.97 1034.68,-860.47 1043.26,-866.68 1045.26,-859.97"/>
</g>
<!-- &#45;7&#45;&gt;718 -->
<g id="edge13" class="edge">
<title>&#45;7&#45;&gt;718</title>
<path fill="none" stroke="red" stroke-width="0.14" stroke-dasharray="1,5" d="M1346.47,-1048.82C1363.89,-1022.21 1417,-934.49 1417,-853.98 1417,-853.98 1417,-853.98 1417,-749.51 1417,-599.86 852.29,-557.06 704.21,-548.41"/>
<polygon fill="red" stroke="red" stroke-width="0.14" points="704.07,-544.89 693.89,-547.82 703.67,-551.88 704.07,-544.89"/>
</g>
<!-- &#45;8 -->
<g id="node8" class="node">
<title>&#45;8</title>
<polygon fill="lightgray" stroke="black" points="720,-1165.14 694,-1165.14 694,-1147.14 720,-1147.14 720,-1165.14"/>
<text text-anchor="middle" x="707" y="-1153.94" font-family="Times,serif" font-size="9.00">&#45;8</text>
</g>
<!-- &#45;8&#45;&gt;717 -->
<g id="edge14" class="edge">
<title>&#45;8&#45;&gt;717</title>
<path fill="none" stroke="red" stroke-width="0.26" d="M720.29,-1152.8C769.57,-1143.32 942.03,-1102.61 1000,-988.68 1015.95,-957.34 1016.99,-916.54 1015.12,-888.08"/>
<polygon fill="red" stroke="red" stroke-width="0.26" points="1018.58,-887.51 1014.28,-877.83 1011.61,-888.08 1018.58,-887.51"/>
</g>
<!-- &#45;8&#45;&gt;718 -->
<g id="edge15" class="edge">
<title>&#45;8&#45;&gt;718</title>
<path fill="none" stroke="red" stroke-width="0.33" stroke-dasharray="1,5" d="M693.71,-1153.45C659.88,-1148.62 568.72,-1132.41 506,-1091.15 455.61,-1057.99 438.11,-1045.19 417,-988.68 361.73,-840.76 525.86,-681.57 582,-614.81 598.46,-595.24 621.34,-577.56 639.51,-565.1"/>
<polygon fill="red" stroke="red" stroke-width="0.33" points="641.64,-567.89 648,-559.42 637.74,-562.07 641.64,-567.89"/>
</g>
<!-- 20950 -->
<g id="node31" class="node">
<title>20950</title>
<ellipse fill="white" stroke="black" cx="1118" cy="-1057.91" rx="33.47" ry="33.47"/>
<text text-anchor="middle" x="1118" y="-1055.71" font-family="Times,serif" font-size="9.00">20950</text>
</g>
<!-- &#45;8&#45;&gt;20950 -->
<g id="edge47" class="edge">
<title>&#45;8&#45;&gt;20950</title>
<path fill="none" stroke="red" stroke-width="0.12" d="M720.23,-1153.36C764.87,-1147.19 913.76,-1125.2 1033,-1091.15 1048.04,-1086.85 1064.18,-1081.05 1078.31,-1075.55"/>
<polygon fill="red" stroke="red" stroke-width="0.12" points="1079.73,-1078.76 1087.73,-1071.82 1077.15,-1072.25 1079.73,-1078.76"/>
</g>
<!-- &#45;8&#45;&gt;19801 -->
<g id="edge46" class="edge">
<title>&#45;8&#45;&gt;19801</title>
<path fill="none" stroke="red" stroke-width="0.19" d="M693.67,-1154.45C638.17,-1151.31 426.22,-1136.47 381,-1091.15 354.26,-1064.34 342.35,-957.37 337.66,-896.65"/>
<polygon fill="red" stroke="red" stroke-width="0.19" points="341.15,-896.31 336.92,-886.6 334.17,-896.83 341.15,-896.31"/>
</g>
<!-- 0&#45;&gt;0 -->
<g id="edge24" class="edge">
<title>0&#45;&gt;0</title>
<path fill="none" stroke="red" stroke-width="0.12" stroke-dasharray="1,5" d="M445.47,-456.83C456.87,-467.21 470.26,-462.63 470.26,-443.11 470.26,-428.46 462.73,-422.23 454.16,-424.4"/>
<polygon fill="red" stroke="red" stroke-width="0.12" points="452.41,-421.37 445.47,-429.38 455.89,-427.44 452.41,-421.37"/>
</g>
<!-- 1&#45;&gt;1 -->
<g id="edge25" class="edge">
<title>1&#45;&gt;1</title>
<path fill="none" stroke="red" stroke-width="0.2" stroke-dasharray="1,5" d="M801.47,-661.77C812.87,-672.14 826.26,-667.57 826.26,-648.04 826.26,-633.4 818.73,-627.17 810.16,-629.34"/>
<polygon fill="red" stroke="red" stroke-width="0.2" points="808.41,-626.31 801.47,-634.31 811.89,-632.38 808.41,-626.31"/>
</g>
<!-- 1&#45;&gt;718 -->
<g id="edge59" class="edge">
<title>1&#45;&gt;718</title>
<path fill="none" stroke="red" stroke-width="0.21" stroke-dasharray="1,5" d="M778.02,-638.82C757.18,-624.19 718.46,-593.1 693.09,-571.07"/>
<polygon fill="red" stroke="red" stroke-width="0.21" points="695.19,-568.25 685.37,-564.26 690.56,-573.5 695.19,-568.25"/>
</g>
<!-- 2 -->
<g id="node11" class="node">
<title>2</title>
<ellipse fill="lightblue" stroke="black" cx="865" cy="-135.7" rx="16.03" ry="16.03"/>
<text text-anchor="middle" x="865" y="-133.5" font-family="Times,serif" font-size="9.00">2</text>
</g>
<!-- 21560 -->
<g id="node24" class="node">
<title>21560</title>
<ellipse fill="white" stroke="black" cx="846" cy="-340.64" rx="33.47" ry="33.47"/>
<text text-anchor="middle" x="846" y="-338.44" font-family="Times,serif" font-size="9.00">21560</text>
</g>
<!-- 2&#45;&gt;21560 -->
<g id="edge50" class="edge">
<title>2&#45;&gt;21560</title>
<path fill="none" stroke="green" stroke-width="0.11" d="M863.55,-152.21C860.68,-182.88 854.19,-252.19 849.96,-297.39"/>
<polygon fill="green" stroke="green" stroke-width="0.11" points="846.46,-297.2 849.01,-307.48 853.43,-297.85 846.46,-297.2"/>
</g>
<!-- 19668 -->
<g id="node30" class="node">
<title>19668</title>
<ellipse fill="white" stroke="black" cx="945" cy="-238.17" rx="33.47" ry="33.47"/>
<text text-anchor="middle" x="945" y="-235.97" font-family="Times,serif" font-size="9.00">19668</text>
</g>
<!-- 2&#45;&gt;19668 -->
<g id="edge39" class="edge">
<title>2&#45;&gt;19668</title>
<path fill="none" stroke="green" stroke-width="0.34" stroke-dasharray="1,5" d="M877.47,-146.97C889.68,-159.61 908.04,-181.74 922.64,-200.92"/>
<polygon fill="green" stroke="green" stroke-width="0.34" points="919.84,-203.01 928.64,-208.92 925.44,-198.82 919.84,-203.01"/>
</g>
<!-- 21717 -->
<g id="node32" class="node">
<title>21717</title>
<ellipse fill="white" stroke="black" cx="196" cy="-33.23" rx="33.47" ry="33.47"/>
<text text-anchor="middle" x="196" y="-31.03" font-family="Times,serif" font-size="9.00">21717</text>
</g>
<!-- 2&#45;&gt;21717 -->
<g id="edge53" class="edge">
<title>2&#45;&gt;21717</title>
<path fill="none" stroke="green" stroke-width="0.27" stroke-dasharray="1,5" d="M848.79,-132.27C763.99,-119.53 370.2,-60.39 238.8,-40.66"/>
<polygon fill="green" stroke="green" stroke-width="0.27" points="239.13,-37.17 228.72,-39.15 238.09,-44.09 239.13,-37.17"/>
</g>
<!-- 3 -->
<g id="node12" class="node">
<title>3</title>
<ellipse fill="lightblue" stroke="black" cx="1029" cy="-340.64" rx="16.03" ry="16.03"/>
<text text-anchor="middle" x="1029" y="-338.44" font-family="Times,serif" font-size="9.00">3</text>
</g>
<!-- 3&#45;&gt;3 -->
<g id="edge26" class="edge">
<title>3&#45;&gt;3</title>
<path fill="none" stroke="red" stroke-width="0.18" stroke-dasharray="1,5" d="M1038.47,-354.37C1049.87,-364.74 1063.26,-360.16 1063.26,-340.64 1063.26,-326 1055.73,-319.76 1047.16,-321.93"/>
<polygon fill="red" stroke="red" stroke-width="0.18" points="1045.41,-318.9 1038.47,-326.91 1048.89,-324.98 1045.41,-318.9"/>
</g>
<!-- 23399 -->
<g id="node36" class="node">
<title>23399</title>
<ellipse fill="white" stroke="black" cx="1029" cy="-238.17" rx="33.47" ry="33.47"/>
<text text-anchor="middle" x="1029" y="-235.97" font-family="Times,serif" font-size="9.00">23399</text>
</g>
<!-- 3&#45;&gt;23399 -->
<g id="edge63" class="edge">
<title>3&#45;&gt;23399</title>
<path fill="none" stroke="green" stroke-width="0.25" d="M1024.04,-324.81C1022.6,-313.37 1022.03,-296.94 1022.32,-281.53"/>
<polygon fill="green" stroke="green" stroke-width="0.25" points="1025.84,-281.2 1022.67,-271.09 1018.84,-280.97 1025.84,-281.2"/>
</g>
<!-- 26241&#45;&gt;24139 -->
<g id="edge78" class="edge">
<title>26241&#45;&gt;24139</title>
<path fill="none" stroke="green" stroke-width="0.15" stroke-dasharray="1,5" d="M125.5,-821.56C121.89,-812.02 117.85,-801.34 114.03,-791.26"/>
<polygon fill="green" stroke="green" stroke-width="0.15" points="117.28,-789.94 110.47,-781.82 110.73,-792.41 117.28,-789.94"/>
</g>
<!-- 26241&#45;&gt;718 -->
<g id="edge81" class="edge">
<title>26241&#45;&gt;718</title>
<path fill="none" stroke="red" stroke-width="0.25" stroke-dasharray="1,5" d="M138.89,-819.66C142.98,-761.44 154.8,-642.42 184,-614.81 216.78,-583.81 528.49,-557.32 634.16,-549.16"/>
<polygon fill="red" stroke="red" stroke-width="0.25" points="634.6,-552.64 644.3,-548.38 634.06,-545.66 634.6,-552.64"/>
</g>
<!-- 55941 -->
<g id="node14" class="node">
<title>55941</title>
<ellipse fill="white" stroke="black" cx="852" cy="-443.11" rx="33.47" ry="33.47"/>
<text text-anchor="middle" x="852" y="-440.91" font-family="Times,serif" font-size="9.00">55941</text>
</g>
<!-- 55941&#45;&gt;1 -->
<g id="edge96" class="edge">
<title>55941&#45;&gt;1</title>
<path fill="none" stroke="red" stroke-width="0.14" d="M842.79,-475.27C830.86,-515.62 810.3,-585.16 799.35,-622.17"/>
<polygon fill="red" stroke="red" stroke-width="0.14" points="795.89,-621.54 796.41,-632.12 802.6,-623.52 795.89,-621.54"/>
</g>
<!-- 23947 -->
<g id="node15" class="node">
<title>23947</title>
<ellipse fill="white" stroke="black" cx="1133" cy="-648.04" rx="33.47" ry="33.47"/>
<text text-anchor="middle" x="1133" y="-645.84" font-family="Times,serif" font-size="9.00">23947</text>
</g>
<!-- 23947&#45;&gt;3 -->
<g id="edge70" class="edge">
<title>23947&#45;&gt;3</title>
<path fill="none" stroke="green" stroke-width="0.18" d="M1138.08,-614.91C1144.01,-567.14 1149,-475.94 1114,-409.87 1100.39,-384.18 1072.49,-364.74 1052.36,-353.31"/>
<polygon fill="green" stroke="green" stroke-width="0.18" points="1053.93,-350.18 1043.47,-348.49 1050.59,-356.34 1053.93,-350.18"/>
</g>
<!-- 8848&#45;&gt;8848 -->
<g id="edge58" class="edge">
<title>8848&#45;&gt;8848</title>
<path fill="none" stroke="red" stroke-width="0.27" d="M1326.73,-973.66C1339.36,-977.06 1350.99,-970.99 1350.99,-955.45 1350.99,-944.28 1344.98,-938 1336.91,-936.62"/>
<polygon fill="red" stroke="red" stroke-width="0.27" points="1336.49,-933.13 1326.73,-937.24 1336.92,-940.12 1336.49,-933.13"/>
</g>
<!-- 8848&#45;&gt;717 -->
<g id="edge33" class="edge">
<title>8848&#45;&gt;717</title>
<path fill="none" stroke="red" stroke-width="0.38" stroke-dasharray="1,5" d="M1277.54,-943.39C1261.8,-936.95 1241.37,-928.82 1223,-922.21 1160.48,-899.74 1086.37,-876.69 1044.41,-863.97"/>
<polygon fill="red" stroke="red" stroke-width="0.38" points="1045.29,-860.58 1034.7,-861.04 1043.26,-867.28 1045.29,-860.58"/>
</g>
<!-- 50834&#45;&gt;717 -->
<g id="edge87" class="edge">
<title>50834&#45;&gt;717</title>
<path fill="none" stroke="green" stroke-width="0.6" stroke-dasharray="1,5" d="M973.19,-925.66C980.03,-912.68 988.11,-897.37 995.04,-884.23"/>
<polygon fill="green" stroke="green" stroke-width="0.6" points="998.28,-885.59 999.85,-875.11 992.09,-882.32 998.28,-885.59"/>
</g>
<!-- 1432&#45;&gt;717 -->
<g id="edge65" class="edge">
<title>1432&#45;&gt;717</title>
<path fill="none" stroke="red" stroke-width="0.24" stroke-dasharray="1,5" d="M1060.6,-930.64C1051.31,-916.28 1039.41,-897.89 1029.6,-882.73"/>
<polygon fill="red" stroke="red" stroke-width="0.24" points="1032.47,-880.72 1024.1,-874.23 1026.59,-884.52 1032.47,-880.72"/>
</g>
<!-- 50329&#45;&gt;35113 -->
<g id="edge84" class="edge">
<title>50329&#45;&gt;35113</title>
<path fill="none" stroke="green" stroke-width="0.16" stroke-dasharray="1,5" d="M634.5,-924.03C630.89,-914.49 626.85,-903.81 623.03,-893.72"/>
<polygon fill="green" stroke="green" stroke-width="0.16" points="626.28,-892.41 619.47,-884.29 619.73,-894.88 626.28,-892.41"/>
</g>
<!-- 23708 -->
<g id="node20" class="node">
<title>23708</title>
<ellipse fill="white" stroke="black" cx="135" cy="-135.7" rx="33.47" ry="33.47"/>
<text text-anchor="middle" x="135" y="-133.5" font-family="Times,serif" font-size="9.00">23708</text>
</g>
<!-- 23708&#45;&gt;21717 -->
<g id="edge67" class="edge">
<title>23708&#45;&gt;21717</title>
<path fill="none" stroke="green" stroke-width="0.21" d="M151.83,-106.98C158.57,-95.87 166.44,-82.91 173.66,-71.04"/>
<polygon fill="green" stroke="green" stroke-width="0.21" points="176.81,-72.58 179.01,-62.21 170.83,-68.94 176.81,-72.58"/>
</g>
<!-- 35113&#45;&gt;9029 -->
<g id="edge80" class="edge">
<title>35113&#45;&gt;9029</title>
<path fill="none" stroke="red" stroke-width="0.15" stroke-dasharray="1,5" d="M635.53,-834.25C662.21,-817.07 702.69,-791 731.06,-772.72"/>
<polygon fill="red" stroke="red" stroke-width="0.15" points="733.3,-775.44 739.82,-767.09 729.51,-769.56 733.3,-775.44"/>
</g>
<!-- 35113&#45;&gt;19304 -->
<g id="edge89" class="edge">
<title>35113&#45;&gt;19304</title>
<path fill="none" stroke="red" stroke-width="0.32" d="M608,-819.64C608,-811.48 608,-802.6 608,-794.03"/>
<polygon fill="red" stroke="red" stroke-width="0.32" points="611.5,-793.79 608,-783.79 604.5,-793.79 611.5,-793.79"/>
</g>
<!-- 53166 -->
<g id="node22" class="node">
<title>53166</title>
<ellipse fill="white" stroke="black" cx="196" cy="-545.57" rx="33.47" ry="33.47"/>
<text text-anchor="middle" x="196" y="-543.37" font-family="Times,serif" font-size="9.00">53166</text>
</g>
<!-- 53166&#45;&gt;21717 -->
<g id="edge93" class="edge">
<title>53166&#45;&gt;21717</title>
<path fill="none" stroke="red" stroke-width="0.3" d="M196,-512.24C196,-472.19 196,-401.88 196,-341.64 196,-341.64 196,-341.64 196,-237.17 196,-181.75 196,-117.81 196,-76.75"/>
<polygon fill="red" stroke="red" stroke-width="0.3" points="199.5,-76.57 196,-66.57 192.5,-76.57 199.5,-76.57"/>
</g>
<!-- 21429 -->
<g id="node23" class="node">
<title>21429</title>
<ellipse fill="white" stroke="black" cx="1072" cy="-443.11" rx="33.47" ry="33.47"/>
<text text-anchor="middle" x="1072" y="-440.91" font-family="Times,serif" font-size="9.00">21429</text>
</g>
<!-- 21429&#45;&gt;3 -->
<g id="edge49" class="edge">
<title>21429&#45;&gt;3</title>
<path fill="none" stroke="red" stroke-width="0.22" stroke-dasharray="1,5" d="M1059.22,-412.23C1052.8,-397.25 1045.14,-379.35 1039.14,-365.32"/>
<polygon fill="red" stroke="red" stroke-width="0.22" points="1042.25,-363.71 1035.1,-355.89 1035.82,-366.46 1042.25,-363.71"/>
</g>
<!-- 21560&#45;&gt;19668 -->
<g id="edge51" class="edge">
<title>21560&#45;&gt;19668</title>
<path fill="none" stroke="green" stroke-width="0.16" d="M868.96,-316.34C882.71,-302.39 900.33,-284.51 915.14,-269.47"/>
<polygon fill="green" stroke="green" stroke-width="0.16" points="917.64,-271.93 922.16,-262.35 912.65,-267.01 917.64,-271.93"/>
</g>
<!-- 9029&#45;&gt;1 -->
<g id="edge35" class="edge">
<title>9029&#45;&gt;1</title>
<path fill="none" stroke="red" stroke-width="0.17" stroke-dasharray="1,5" d="M771.58,-722.32C775.8,-707.17 781.02,-688.45 785.12,-673.72"/>
<polygon fill="red" stroke="red" stroke-width="0.17" points="788.57,-674.38 787.88,-663.81 781.83,-672.5 788.57,-674.38"/>
</g>
<!-- 24139&#45;&gt;0 -->
<g id="edge72" class="edge">
<title>24139&#45;&gt;0</title>
<path fill="none" stroke="green" stroke-width="0.18" stroke-dasharray="1,5" d="M102.55,-717.22C107.46,-687.13 119.02,-642.81 146,-614.81 176.46,-583.19 199.16,-599.29 238,-578.81 306.83,-542.52 380.83,-487.3 415.67,-460.22"/>
<polygon fill="green" stroke="green" stroke-width="0.18" points="417.94,-462.89 423.65,-453.97 413.62,-457.38 417.94,-462.89"/>
</g>
<!-- 717&#45;&gt;0 -->
<g id="edge16" class="edge">
<title>717&#45;&gt;0</title>
<path fill="none" stroke="green" stroke-width="0.13" stroke-dasharray="1,5" d="M996.34,-832.93C985.87,-819.28 971.49,-800.44 959,-783.74 859.68,-650.96 851.94,-585.23 703,-512.34 620.5,-471.96 511.58,-453.77 462.26,-447.2"/>
<polygon fill="green" stroke="green" stroke-width="0.13" points="462.5,-443.7 452.13,-445.9 461.61,-450.64 462.5,-443.7"/>
</g>
<!-- 717&#45;&gt;1 -->
<g id="edge17" class="edge">
<title>717&#45;&gt;1</title>
<path fill="none" stroke="red" stroke-width="0.14" stroke-dasharray="1,5" d="M987.65,-843.56C960.28,-832.84 914.62,-812.23 883,-783.74 873.18,-774.9 829.03,-706.92 806.03,-671.05"/>
<polygon fill="red" stroke="red" stroke-width="0.14" points="808.75,-668.8 800.41,-662.27 802.86,-672.57 808.75,-668.8"/>
</g>
<!-- 717&#45;&gt;2 -->
<g id="edge18" class="edge">
<title>717&#45;&gt;2</title>
<path fill="none" stroke="red" stroke-width="0.11" d="M1006.23,-828.59C984.23,-720.82 892.76,-272.71 870.1,-161.68"/>
<polygon fill="red" stroke="red" stroke-width="0.11" points="873.5,-160.83 868.07,-151.73 866.64,-162.23 873.5,-160.83"/>
</g>
<!-- 717&#45;&gt;3 -->
<g id="edge19" class="edge">
<title>717&#45;&gt;3</title>
<path fill="none" stroke="green" stroke-width="0.3" d="M1011,-827.92C1011,-789.93 1011,-713.69 1011,-649.04 1011,-649.04 1011,-649.04 1011,-544.57 1011,-480.51 1020.01,-405.52 1025.28,-367.12"/>
<polygon fill="green" stroke="green" stroke-width="0.3" points="1028.8,-367.26 1026.72,-356.87 1021.86,-366.29 1028.8,-367.26"/>
</g>
<!-- 717&#45;&gt;23947 -->
<g id="edge69" class="edge">
<title>717&#45;&gt;23947</title>
<path fill="none" stroke="red" stroke-width="0.17" stroke-dasharray="1,5" d="M1034.07,-843.4C1058.24,-833.13 1095.23,-813.49 1114,-783.74 1131.27,-756.38 1135.49,-719.73 1135.69,-691.56"/>
<polygon fill="red" stroke="red" stroke-width="0.17" points="1139.19,-691.19 1135.59,-681.22 1132.19,-691.26 1139.19,-691.19"/>
</g>
<!-- 717&#45;&gt;9029 -->
<g id="edge34" class="edge">
<title>717&#45;&gt;9029</title>
<path fill="none" stroke="red" stroke-width="0.31" stroke-dasharray="1,5" d="M988.21,-842.71C945.23,-825.23 851.93,-787.28 800.26,-766.26"/>
<polygon fill="red" stroke="red" stroke-width="0.31" points="801.4,-762.94 790.82,-762.42 798.76,-769.43 801.4,-762.94"/>
</g>
<!-- 717&#45;&gt;717 -->
<g id="edge27" class="edge">
<title>717&#45;&gt;717</title>
<path fill="none" stroke="green" stroke-width="0.43" stroke-dasharray="1,5" d="M1029.01,-870.24C1041.48,-875.47 1053.75,-869.71 1053.75,-852.98 1053.75,-840.82 1047.27,-834.46 1038.95,-833.89"/>
<polygon fill="green" stroke="green" stroke-width="0.43" points="1038.21,-830.47 1029.01,-835.72 1039.48,-837.36 1038.21,-830.47"/>
</g>
<!-- 717&#45;&gt;24419 -->
<g id="edge74" class="edge">
<title>717&#45;&gt;24419</title>
<path fill="none" stroke="red" stroke-width="0.4" d="M1033.64,-841.78C1061.04,-829.17 1108.32,-806.57 1147,-783.74 1150.84,-781.48 1154.79,-779.01 1158.69,-776.48"/>
<polygon fill="red" stroke="red" stroke-width="0.4" points="1160.68,-779.35 1167.07,-770.9 1156.81,-773.53 1160.68,-779.35"/>
</g>
<!-- 52970 -->
<g id="node39" class="node">
<title>52970</title>
<ellipse fill="white" stroke="black" cx="1072" cy="-750.51" rx="33.47" ry="33.47"/>
<text text-anchor="middle" x="1072" y="-748.31" font-family="Times,serif" font-size="9.00">52970</text>
</g>
<!-- 717&#45;&gt;52970 -->
<g id="edge90" class="edge">
<title>717&#45;&gt;52970</title>
<path fill="none" stroke="red" stroke-width="0.15" d="M1023.64,-831.16C1031.15,-818.79 1040.9,-802.73 1049.67,-788.28"/>
<polygon fill="red" stroke="red" stroke-width="0.15" points="1052.78,-789.91 1054.98,-779.54 1046.8,-786.27 1052.78,-789.91"/>
</g>
<!-- 718&#45;&gt;0 -->
<g id="edge20" class="edge">
<title>718&#45;&gt;0</title>
<path fill="none" stroke="red" stroke-width="0.26" d="M646.23,-534.76C602.05,-515.71 505.08,-473.89 459.96,-454.44"/>
<polygon fill="red" stroke="red" stroke-width="0.26" points="461.23,-451.17 450.66,-450.43 458.46,-457.6 461.23,-451.17"/>
</g>
<!-- 718&#45;&gt;1 -->
<g id="edge21" class="edge">
<title>718&#45;&gt;1</title>
<path fill="none" stroke="red" stroke-width="0.23" stroke-dasharray="1,5" d="M689.87,-559.75C713.77,-577.28 752.05,-608.36 774.47,-628.32"/>
<polygon fill="red" stroke="red" stroke-width="0.23" points="772.21,-630.99 781.96,-635.12 776.91,-625.81 772.21,-630.99"/>
</g>
<!-- 718&#45;&gt;2 -->
<g id="edge22" class="edge">
<title>718&#45;&gt;2</title>
<path fill="none" stroke="red" stroke-width="0.11" d="M669.29,-520.45C670.32,-492.88 674.2,-446.82 688,-409.87 727.21,-304.91 811.87,-198.66 848.04,-156.09"/>
<polygon fill="red" stroke="red" stroke-width="0.11" points="850.75,-158.31 854.61,-148.45 845.44,-153.76 850.75,-158.31"/>
</g>
<!-- 718&#45;&gt;3 -->
<g id="edge23" class="edge">
<title>718&#45;&gt;3</title>
<path fill="none" stroke="green" stroke-width="0.22" stroke-dasharray="1,5" d="M691.27,-533.77C713.74,-522.04 748.4,-501.55 772,-476.34 795.26,-451.5 783.47,-431.18 810,-409.87 840.36,-385.48 952.16,-358.53 1003.24,-347.17"/>
<polygon fill="green" stroke="green" stroke-width="0.22" points="1004.15,-350.55 1013.17,-344.99 1002.65,-343.72 1004.15,-350.55"/>
</g>
<!-- 718&#45;&gt;55941 -->
<g id="edge95" class="edge">
<title>718&#45;&gt;55941</title>
<path fill="none" stroke="green" stroke-width="0.3" stroke-dasharray="1,5" d="M691.64,-534.37C719.04,-521.76 766.32,-499.16 805,-476.34 808.84,-474.07 812.79,-471.6 816.69,-469.08"/>
<polygon fill="green" stroke="green" stroke-width="0.3" points="818.68,-471.95 825.07,-463.5 814.81,-466.12 818.68,-471.95"/>
</g>
<!-- 21866 -->
<g id="node38" class="node">
<title>21866</title>
<ellipse fill="white" stroke="black" cx="730" cy="-443.11" rx="33.47" ry="33.47"/>
<text text-anchor="middle" x="730" y="-440.91" font-family="Times,serif" font-size="9.00">21866</text>
</g>
<!-- 718&#45;&gt;21866 -->
<g id="edge56" class="edge">
<title>718&#45;&gt;21866</title>
<path fill="none" stroke="red" stroke-width="0.19" stroke-dasharray="1,5" d="M681.64,-523.76C689.15,-511.38 698.9,-495.33 707.67,-480.88"/>
<polygon fill="red" stroke="red" stroke-width="0.19" points="710.78,-482.5 712.98,-472.14 704.8,-478.87 710.78,-482.5"/>
</g>
<!-- 7892&#45;&gt;23708 -->
<g id="edge66" class="edge">
<title>7892&#45;&gt;23708</title>
<path fill="none" stroke="red" stroke-width="0.17" d="M228.36,-636.55C204.74,-625.77 171.38,-606.63 154,-578.81 121.97,-527.53 135,-504.57 135,-444.11 135,-444.11 135,-444.11 135,-339.64 135,-284.22 135,-220.28 135,-179.22"/>
<polygon fill="red" stroke="red" stroke-width="0.17" points="138.5,-179.04 135,-169.04 131.5,-179.04 138.5,-179.04"/>
</g>
<!-- 7892&#45;&gt;53166 -->
<g id="edge92" class="edge">
<title>7892&#45;&gt;53166</title>
<path fill="none" stroke="green" stroke-width="0.56" d="M240.72,-622.72C233.79,-610.93 225.32,-596.5 217.62,-583.4"/>
<polygon fill="green" stroke="green" stroke-width="0.56" points="220.53,-581.43 212.45,-574.58 214.49,-584.98 220.53,-581.43"/>
</g>
<!-- 7892&#45;&gt;718 -->
<g id="edge31" class="edge">
<title>7892&#45;&gt;718</title>
<path fill="none" stroke="green" stroke-width="0.34" stroke-dasharray="1,5" d="M276.53,-627.87C283.05,-622.94 290.48,-618.1 298,-614.81 413.89,-564.08 566.12,-551.06 633.87,-547.72"/>
<polygon fill="green" stroke="green" stroke-width="0.34" points="634.16,-551.21 643.99,-547.26 633.85,-544.22 634.16,-551.21"/>
</g>
<!-- 7892&#45;&gt;21717 -->
<g id="edge55" class="edge">
<title>7892&#45;&gt;21717</title>
<path fill="none" stroke="red" stroke-width="0.12" stroke-dasharray="1,5" d="M227.23,-639.47C161.13,-619.57 0,-559.24 0,-444.11 0,-444.11 0,-444.11 0,-237.17 0,-147.85 99.44,-82.81 156.67,-52.78"/>
<polygon fill="red" stroke="red" stroke-width="0.12" points="158.5,-55.77 165.8,-48.09 155.31,-49.54 158.5,-55.77"/>
</g>
<!-- 19668&#45;&gt;2 -->
<g id="edge40" class="edge">
<title>19668&#45;&gt;2</title>
<path fill="none" stroke="green" stroke-width="0.19" stroke-dasharray="1,5" d="M921.31,-214.62C906.82,-198.12 889.07,-175.83 877.26,-159.31"/>
<polygon fill="green" stroke="green" stroke-width="0.19" points="879.94,-157.04 871.37,-150.81 874.18,-161.02 879.94,-157.04"/>
</g>
<!-- 20950&#45;&gt;1432 -->
<g id="edge88" class="edge">
<title>20950&#45;&gt;1432</title>
<path fill="none" stroke="green" stroke-width="0.17" stroke-dasharray="1,5" d="M1105.51,-1027.04C1100.9,-1016.02 1095.63,-1003.41 1090.84,-991.94"/>
<polygon fill="green" stroke="green" stroke-width="0.17" points="1094.03,-990.5 1086.94,-982.62 1087.57,-993.2 1094.03,-990.5"/>
</g>
<!-- 20950&#45;&gt;717 -->
<g id="edge48" class="edge">
<title>20950&#45;&gt;717</title>
<path fill="none" stroke="red" stroke-width="0.27" stroke-dasharray="1,5" d="M1124.86,-1025.36C1129.38,-996.6 1131.63,-953.9 1114,-922.21 1098.88,-895.03 1067.83,-876.75 1043.76,-866"/>
<polygon fill="red" stroke="red" stroke-width="0.27" points="1044.84,-862.66 1034.27,-861.99 1042.12,-869.11 1044.84,-862.66"/>
</g>
<!-- 20950&#45;&gt;19668 -->
<g id="edge62" class="edge">
<title>20950&#45;&gt;19668</title>
<path fill="none" stroke="green" stroke-width="0.35" d="M1141.03,-1033.71C1169.27,-1005.8 1219.17,-958.21 1266,-922.21 1377.08,-836.83 1531,-891.61 1531,-751.51 1531,-751.51 1531,-751.51 1531,-442.11 1531,-188.7 1211.84,-388.27 987,-271.4 984.06,-269.88 981.12,-268.14 978.24,-266.29"/>
<polygon fill="green" stroke="green" stroke-width="0.35" points="980.02,-263.27 969.8,-260.46 976.04,-269.02 980.02,-263.27"/>
</g>
<!-- 21717&#45;&gt;19668 -->
<g id="edge54" class="edge">
<title>21717&#45;&gt;19668</title>
<path fill="none" stroke="green" stroke-width="0.28" d="M229.25,-35.51C360.29,-40.78 836.49,-62.58 890,-102.47 919.2,-124.24 932.96,-164.22 939.4,-194.99"/>
<polygon fill="green" stroke="green" stroke-width="0.28" points="936.01,-195.87 941.32,-205.04 942.88,-194.56 936.01,-195.87"/>
</g>
<!-- 19801&#45;&gt;1 -->
<g id="edge94" class="edge">
<title>19801&#45;&gt;1</title>
<path fill="none" stroke="red" stroke-width="0.18" d="M361.98,-833.41C404,-805.15 488.32,-751.09 566,-717.28 635.98,-686.81 723.74,-664.56 766.38,-654.7"/>
<polygon fill="red" stroke="red" stroke-width="0.18" points="767.23,-658.09 776.21,-652.46 765.68,-651.27 767.23,-658.09"/>
</g>
<!-- 19801&#45;&gt;7892 -->
<g id="edge43" class="edge">
<title>19801&#45;&gt;7892</title>
<path fill="none" stroke="green" stroke-width="0.35" d="M323.02,-821.6C308.6,-785 284.4,-723.62 269.09,-684.78"/>
<polygon fill="green" stroke="green" stroke-width="0.35" points="272.32,-683.45 265.4,-675.43 265.81,-686.01 272.32,-683.45"/>
</g>
<!-- 1113&#45;&gt;1432 -->
<g id="edge44" class="edge">
<title>1113&#45;&gt;1432</title>
<path fill="none" stroke="green" stroke-width="0.12" d="M1081.67,-1127.58C1079.4,-1116.35 1077.12,-1103.19 1076,-1091.15 1072.99,-1058.77 1073.25,-1021.83 1074.12,-994.83"/>
<polygon fill="green" stroke="green" stroke-width="0.12" points="1077.62,-994.76 1074.49,-984.64 1070.62,-994.5 1077.62,-994.76"/>
</g>
<!-- 1113&#45;&gt;20950 -->
<g id="edge68" class="edge">
<title>1113&#45;&gt;20950</title>
<path fill="none" stroke="green" stroke-width="0.28" stroke-dasharray="1,5" d="M1096.36,-1128.34C1099.11,-1119.5 1102.24,-1109.47 1105.24,-1099.83"/>
<polygon fill="green" stroke="green" stroke-width="0.28" points="1108.67,-1100.58 1108.31,-1090 1101.99,-1098.5 1108.67,-1100.58"/>
</g>
<!-- 24419&#45;&gt;23947 -->
<g id="edge75" class="edge">
<title>24419&#45;&gt;23947</title>
<path fill="none" stroke="red" stroke-width="0.44" d="M1177.17,-721.79C1170.43,-710.68 1162.56,-697.72 1155.34,-685.84"/>
<polygon fill="red" stroke="red" stroke-width="0.44" points="1158.17,-683.75 1149.99,-677.02 1152.19,-687.38 1158.17,-683.75"/>
</g>
<!-- 23399&#45;&gt;3 -->
<g id="edge64" class="edge">
<title>23399&#45;&gt;3</title>
<path fill="none" stroke="green" stroke-width="0.35" d="M1035.33,-271.09C1036,-285.16 1035.87,-301.44 1034.93,-314.6"/>
<polygon fill="green" stroke="green" stroke-width="0.35" points="1031.42,-314.53 1033.96,-324.81 1038.39,-315.19 1031.42,-314.53"/>
</g>
<!-- 19304&#45;&gt;718 -->
<g id="edge37" class="edge">
<title>19304&#45;&gt;718</title>
<path fill="none" stroke="green" stroke-width="0.23" stroke-dasharray="1,5" d="M617.4,-718.25C628.75,-680.48 647.75,-617.28 659.25,-579"/>
<polygon fill="green" stroke="green" stroke-width="0.23" points="662.62,-579.96 662.15,-569.37 655.92,-577.94 662.62,-579.96"/>
</g>
<!-- 19304&#45;&gt;7892 -->
<g id="edge73" class="edge">
<title>19304&#45;&gt;7892</title>
<path fill="none" stroke="green" stroke-width="0.13" stroke-dasharray="1,5" d="M576.05,-740.42C510.7,-721.82 362.05,-679.51 292.37,-659.68"/>
<polygon fill="green" stroke="green" stroke-width="0.13" points="293.25,-656.29 282.68,-656.92 291.34,-663.02 293.25,-656.29"/>
</g>
<!-- 21866&#45;&gt;3 -->
<g id="edge57" class="edge">
<title>21866&#45;&gt;3</title>
<path fill="none" stroke="red" stroke-width="0.49" d="M755.91,-422.06C762.53,-417.58 769.81,-413.19 777,-409.87 817.97,-390.94 947.72,-360.17 1003.31,-347.44"/>
<polygon fill="red" stroke="red" stroke-width="0.49" points="1004.12,-350.84 1013.09,-345.21 1002.56,-344.02 1004.12,-350.84"/>
</g>
<!-- 21866&#45;&gt;21560 -->
<g id="edge82" class="edge">
<title>21866&#45;&gt;21560</title>
<path fill="none" stroke="red" stroke-width="0.34" stroke-dasharray="1,5" d="M754.88,-420.55C772.01,-405.72 794.93,-385.87 813.5,-369.79"/>
<polygon fill="red" stroke="red" stroke-width="0.34" points="815.89,-372.35 821.16,-363.16 811.31,-367.06 815.89,-372.35"/>
</g>
<!-- 52970&#45;&gt;23947 -->
<g id="edge91" class="edge">
<title>52970&#45;&gt;23947</title>
<path fill="none" stroke="red" stroke-width="0.1" stroke-dasharray="1,5" d="M1088.83,-721.79C1095.57,-710.68 1103.44,-697.72 1110.66,-685.84"/>
<polygon fill="red" stroke="red" stroke-width="0.1" points="1113.81,-687.38 1116.01,-677.02 1107.83,-683.75 1113.81,-687.38"/>
</g>
</g>
</svg>
