<?xml version="1.0" encoding="UTF-8" standalone="no"?>
<!DOCTYPE svg PUBLIC "-//W3C//DTD SVG 1.1//EN"
 "http://www.w3.org/Graphics/SVG/1.1/DTD/svg11.dtd">
<!-- Generated by graphviz version 2.43.0 (0)
 -->
<!-- Title: %3 Pages: 1 -->
<svg width="1102pt" height="573pt"
 viewBox="0.00 0.00 1102.00 572.93" xmlns="http://www.w3.org/2000/svg" xmlns:xlink="http://www.w3.org/1999/xlink">
<g id="graph0" class="graph" transform="scale(1 1) rotate(0) translate(4 568.93)">
<title>%3</title>
<polygon fill="white" stroke="transparent" points="-4,4 -4,-568.93 1098,-568.93 1098,4 -4,4"/>
<!-- &#45;1 -->
<g id="node1" class="node">
<title>&#45;1</title>
<polygon fill="lightgray" stroke="black" points="145,-490.93 119,-490.93 119,-472.93 145,-472.93 145,-490.93"/>
<text text-anchor="middle" x="132" y="-479.73" font-family="Times,serif" font-size="9.00">&#45;1</text>
</g>
<!-- 1 -->
<g id="node8" class="node">
<title>1</title>
<ellipse fill="lightblue" stroke="black" cx="266" cy="-97.52" rx="16.03" ry="16.03"/>
<text text-anchor="middle" x="266" y="-95.32" font-family="Times,serif" font-size="9.00">1</text>
</g>
<!-- &#45;1&#45;&gt;1 -->
<g id="edge57" class="edge">
<title>&#45;1&#45;&gt;1</title>
<path fill="none" stroke="red" stroke-width="0.29" stroke-dasharray="1,5" d="M131.63,-472.85C130.88,-453.16 129.93,-401.24 138,-358.96 156.4,-262.6 220.86,-162.16 250.67,-119.58"/>
<polygon fill="red" stroke="red" stroke-width="0.29" points="253.7,-121.35 256.64,-111.17 248,-117.3 253.7,-121.35"/>
</g>
<!-- 3 -->
<g id="node10" class="node">
<title>3</title>
<ellipse fill="lightblue" stroke="black" cx="704" cy="-16.26" rx="16.03" ry="16.03"/>
<text text-anchor="middle" x="704" y="-14.06" font-family="Times,serif" font-size="9.00">3</text>
</g>
<!-- &#45;1&#45;&gt;3 -->
<g id="edge40" class="edge">
<title>&#45;1&#45;&gt;3</title>
<path fill="none" stroke="green" stroke-width="0.17" d="M120.29,-472.8C87.98,-449.3 0,-377.72 0,-294.97 0,-294.97 0,-294.97 0,-194.74 0,-114.53 56.15,-102.09 129,-68.53 228.58,-22.65 577.97,-17.75 677.41,-17.29"/>
<polygon fill="green" stroke="green" stroke-width="0.17" points="677.52,-20.79 687.51,-17.26 677.5,-13.79 677.52,-20.79"/>
</g>
<!-- 8242 -->
<g id="node16" class="node">
<title>8242</title>
<ellipse fill="white" stroke="black" cx="57" cy="-293.97" rx="28.98" ry="28.98"/>
<text text-anchor="middle" x="57" y="-291.77" font-family="Times,serif" font-size="9.00">8242</text>
</g>
<!-- &#45;1&#45;&gt;8242 -->
<g id="edge44" class="edge">
<title>&#45;1&#45;&gt;8242</title>
<path fill="none" stroke="green" stroke-width="0.36" stroke-dasharray="1,5" d="M127.52,-472.81C121.01,-460.8 108.73,-437.53 100,-416.94 88.05,-388.79 76.64,-356.05 68.58,-331.59"/>
<polygon fill="green" stroke="green" stroke-width="0.36" points="71.88,-330.41 65.45,-321.99 65.22,-332.58 71.88,-330.41"/>
</g>
<!-- 372 -->
<g id="node17" class="node">
<title>372</title>
<ellipse fill="white" stroke="black" cx="395" cy="-195.74" rx="25" ry="25"/>
<text text-anchor="middle" x="395" y="-193.54" font-family="Times,serif" font-size="9.00">372</text>
</g>
<!-- &#45;1&#45;&gt;372 -->
<g id="edge1" class="edge">
<title>&#45;1&#45;&gt;372</title>
<path fill="none" stroke="green" stroke-width="0.13" d="M132.71,-472.55C135.83,-440.76 151.16,-326.34 214,-264.98 254.47,-225.45 320.05,-208.4 360.17,-201.36"/>
<polygon fill="green" stroke="green" stroke-width="0.13" points="360.98,-204.77 370.28,-199.7 359.85,-197.87 360.98,-204.77"/>
</g>
<!-- 373 -->
<g id="node18" class="node">
<title>373</title>
<ellipse fill="white" stroke="black" cx="471" cy="-387.95" rx="25" ry="25"/>
<text text-anchor="middle" x="471" y="-385.75" font-family="Times,serif" font-size="9.00">373</text>
</g>
<!-- &#45;1&#45;&gt;373 -->
<g id="edge2" class="edge">
<title>&#45;1&#45;&gt;373</title>
<path fill="none" stroke="red" stroke-width="0.17" stroke-dasharray="1,5" d="M145.29,-477.33C194.06,-464.1 364.15,-417.94 437.22,-398.12"/>
<polygon fill="red" stroke="red" stroke-width="0.17" points="438.54,-401.39 447.27,-395.39 436.7,-394.63 438.54,-401.39"/>
</g>
<!-- 375 -->
<g id="node20" class="node">
<title>375</title>
<ellipse fill="white" stroke="black" cx="767" cy="-293.97" rx="25" ry="25"/>
<text text-anchor="middle" x="767" y="-291.77" font-family="Times,serif" font-size="9.00">375</text>
</g>
<!-- &#45;1&#45;&gt;375 -->
<g id="edge3" class="edge">
<title>&#45;1&#45;&gt;375</title>
<path fill="none" stroke="red" stroke-width="0.4" d="M145.06,-474.67C186.71,-454.91 320.46,-393.23 437,-358.96 542.37,-327.98 671.16,-307.96 731.99,-299.54"/>
<polygon fill="red" stroke="red" stroke-width="0.4" points="732.76,-302.97 742.19,-298.14 731.81,-296.03 732.76,-302.97"/>
</g>
<!-- &#45;2 -->
<g id="node2" class="node">
<title>&#45;2</title>
<polygon fill="lightgray" stroke="black" points="730,-490.93 704,-490.93 704,-472.93 730,-472.93 730,-490.93"/>
<text text-anchor="middle" x="717" y="-479.73" font-family="Times,serif" font-size="9.00">&#45;2</text>
</g>
<!-- &#45;2&#45;&gt;372 -->
<g id="edge4" class="edge">
<title>&#45;2&#45;&gt;372</title>
<path fill="none" stroke="green" stroke-width="0.3" d="M715.91,-472.67C712.92,-452.14 703.21,-397.68 680,-358.96 649.63,-308.29 635.93,-296.55 586,-264.98 545.72,-239.51 529.88,-245.01 485,-228.98 466.06,-222.21 444.87,-214.62 427.82,-208.51"/>
<polygon fill="green" stroke="green" stroke-width="0.3" points="428.9,-205.18 418.31,-205.1 426.54,-211.77 428.9,-205.18"/>
</g>
<!-- &#45;2&#45;&gt;373 -->
<g id="edge5" class="edge">
<title>&#45;2&#45;&gt;373</title>
<path fill="none" stroke="red" stroke-width="0.23" stroke-dasharray="1,5" d="M712.61,-472.92C708.76,-466.6 702.59,-458.04 695,-452.94 679.05,-442.23 563.28,-412.14 504.73,-397.36"/>
<polygon fill="red" stroke="red" stroke-width="0.23" points="505.39,-393.92 494.83,-394.87 503.68,-400.71 505.39,-393.92"/>
</g>
<!-- &#45;2&#45;&gt;375 -->
<g id="edge6" class="edge">
<title>&#45;2&#45;&gt;375</title>
<path fill="none" stroke="green" stroke-width="0.46" d="M726.02,-472.92C737.84,-461.75 758,-440.23 766,-416.94 775.81,-388.38 775,-353.78 772.36,-328.74"/>
<polygon fill="green" stroke="green" stroke-width="0.46" points="775.81,-328.15 771.14,-318.64 768.86,-328.99 775.81,-328.15"/>
</g>
<!-- &#45;3 -->
<g id="node3" class="node">
<title>&#45;3</title>
<polygon fill="lightgray" stroke="black" points="841,-564.93 815,-564.93 815,-546.93 841,-546.93 841,-564.93"/>
<text text-anchor="middle" x="828" y="-553.73" font-family="Times,serif" font-size="9.00">&#45;3</text>
</g>
<!-- 6809 -->
<g id="node15" class="node">
<title>6809</title>
<ellipse fill="white" stroke="black" cx="999" cy="-387.95" rx="28.98" ry="28.98"/>
<text text-anchor="middle" x="999" y="-385.75" font-family="Times,serif" font-size="9.00">6809</text>
</g>
<!-- &#45;3&#45;&gt;6809 -->
<g id="edge38" class="edge">
<title>&#45;3&#45;&gt;6809</title>
<path fill="none" stroke="green" stroke-width="0.37" stroke-dasharray="1,5" d="M841.01,-551.51C860.65,-545.83 898.21,-532.83 923,-510.93 926.88,-507.49 957.74,-457.14 978.92,-422.21"/>
<polygon fill="green" stroke="green" stroke-width="0.37" points="982.15,-423.63 984.34,-413.26 976.17,-420 982.15,-423.63"/>
</g>
<!-- &#45;3&#45;&gt;372 -->
<g id="edge7" class="edge">
<title>&#45;3&#45;&gt;372</title>
<path fill="none" stroke="green" stroke-width="0.52" stroke-dasharray="1,5" d="M814.78,-554.57C739.46,-552.46 366.64,-540.57 326,-510.93 233.24,-443.27 185.1,-361.67 247,-264.98 271.92,-226.05 325.31,-209.02 360.68,-201.79"/>
<polygon fill="green" stroke="green" stroke-width="0.52" points="361.41,-205.21 370.59,-199.92 360.11,-198.33 361.41,-205.21"/>
</g>
<!-- &#45;3&#45;&gt;373 -->
<g id="edge8" class="edge">
<title>&#45;3&#45;&gt;373</title>
<path fill="none" stroke="red" stroke-width="0.24" d="M814.95,-555.22C758.65,-556.19 537.24,-556.99 490,-510.93 467.01,-488.5 464.42,-450.54 466.23,-422.91"/>
<polygon fill="red" stroke="red" stroke-width="0.24" points="469.72,-423.14 467.11,-412.88 462.75,-422.53 469.72,-423.14"/>
</g>
<!-- &#45;3&#45;&gt;375 -->
<g id="edge9" class="edge">
<title>&#45;3&#45;&gt;375</title>
<path fill="none" stroke="red" stroke-width="0.3" d="M826.37,-546.67C820.98,-519.63 803.09,-431.27 785,-358.96 782.46,-348.82 779.47,-337.85 776.66,-327.9"/>
<polygon fill="red" stroke="red" stroke-width="0.3" points="779.94,-326.64 773.82,-317.99 773.21,-328.56 779.94,-326.64"/>
</g>
<!-- 9503 -->
<g id="node23" class="node">
<title>9503</title>
<ellipse fill="white" stroke="black" cx="999" cy="-481.93" rx="28.98" ry="28.98"/>
<text text-anchor="middle" x="999" y="-479.73" font-family="Times,serif" font-size="9.00">9503</text>
</g>
<!-- &#45;3&#45;&gt;9503 -->
<g id="edge54" class="edge">
<title>&#45;3&#45;&gt;9503</title>
<path fill="none" stroke="green" stroke-width="0.11" d="M841.14,-551.57C864.8,-545.26 915.88,-530.51 956,-510.93 959.59,-509.17 963.24,-507.18 966.82,-505.07"/>
<polygon fill="green" stroke="green" stroke-width="0.11" points="968.84,-507.94 975.51,-499.71 965.16,-501.99 968.84,-507.94"/>
</g>
<!-- &#45;4 -->
<g id="node4" class="node">
<title>&#45;4</title>
<polygon fill="lightgray" stroke="black" points="361,-490.93 335,-490.93 335,-472.93 361,-472.93 361,-490.93"/>
<text text-anchor="middle" x="348" y="-479.73" font-family="Times,serif" font-size="9.00">&#45;4</text>
</g>
<!-- &#45;4&#45;&gt;1 -->
<g id="edge46" class="edge">
<title>&#45;4&#45;&gt;1</title>
<path fill="none" stroke="red" stroke-width="0.19" stroke-dasharray="1,5" d="M340.31,-472.92C319.98,-451.09 265.14,-387.86 247,-322.96 227.29,-252.46 246.57,-165.05 258.35,-123.16"/>
<polygon fill="red" stroke="red" stroke-width="0.19" points="261.79,-123.87 261.23,-113.29 255.07,-121.92 261.79,-123.87"/>
</g>
<!-- &#45;4&#45;&gt;373 -->
<g id="edge10" class="edge">
<title>&#45;4&#45;&gt;373</title>
<path fill="none" stroke="red" stroke-width="0.19" d="M358.92,-472.77C377.7,-458.73 416.67,-429.58 443.33,-409.64"/>
<polygon fill="red" stroke="red" stroke-width="0.19" points="445.6,-412.32 451.51,-403.53 441.41,-406.71 445.6,-412.32"/>
</g>
<!-- &#45;4&#45;&gt;375 -->
<g id="edge11" class="edge">
<title>&#45;4&#45;&gt;375</title>
<path fill="none" stroke="red" stroke-width="0.36" stroke-dasharray="1,5" d="M361.23,-478.45C390.2,-472.44 460.24,-454.73 505,-416.94 528.18,-397.38 516.42,-376.74 541,-358.96 596.2,-319.04 624.77,-342.63 690,-322.96 704.9,-318.47 721.14,-312.7 734.84,-307.57"/>
<polygon fill="red" stroke="red" stroke-width="0.36" points="736.21,-310.79 744.31,-303.97 733.72,-304.25 736.21,-310.79"/>
</g>
<!-- 3068 -->
<g id="node22" class="node">
<title>3068</title>
<ellipse fill="white" stroke="black" cx="285" cy="-293.97" rx="28.98" ry="28.98"/>
<text text-anchor="middle" x="285" y="-291.77" font-family="Times,serif" font-size="9.00">3068</text>
</g>
<!-- &#45;4&#45;&gt;3068 -->
<g id="edge32" class="edge">
<title>&#45;4&#45;&gt;3068</title>
<path fill="none" stroke="red" stroke-width="0.11" stroke-dasharray="1,5" d="M345.13,-472.46C336.8,-447.89 312.29,-375.53 297.26,-331.15"/>
<polygon fill="red" stroke="red" stroke-width="0.11" points="300.54,-329.94 294.02,-321.59 293.91,-332.19 300.54,-329.94"/>
</g>
<!-- &#45;5 -->
<g id="node5" class="node">
<title>&#45;5</title>
<polygon fill="lightgray" stroke="black" points="686,-490.93 660,-490.93 660,-472.93 686,-472.93 686,-490.93"/>
<text text-anchor="middle" x="673" y="-479.73" font-family="Times,serif" font-size="9.00">&#45;5</text>
</g>
<!-- &#45;5&#45;&gt;372 -->
<g id="edge12" class="edge">
<title>&#45;5&#45;&gt;372</title>
<path fill="none" stroke="red" stroke-width="0.24" d="M674.18,-472.72C676.72,-451.83 680.75,-395.74 657,-358.96 628.5,-314.82 489.5,-242.92 426.34,-211.84"/>
<polygon fill="red" stroke="red" stroke-width="0.24" points="427.76,-208.64 417.24,-207.39 424.68,-214.93 427.76,-208.64"/>
</g>
<!-- &#45;5&#45;&gt;373 -->
<g id="edge13" class="edge">
<title>&#45;5&#45;&gt;373</title>
<path fill="none" stroke="green" stroke-width="0.29" stroke-dasharray="1,5" d="M659.75,-474.9C628.1,-460.49 547.43,-423.75 502.47,-403.28"/>
<polygon fill="green" stroke="green" stroke-width="0.29" points="503.73,-400.01 493.18,-399.05 500.83,-406.38 503.73,-400.01"/>
</g>
<!-- &#45;5&#45;&gt;375 -->
<g id="edge14" class="edge">
<title>&#45;5&#45;&gt;375</title>
<path fill="none" stroke="green" stroke-width="0.36" stroke-dasharray="1,5" d="M677.28,-472.46C690.27,-446.78 729.64,-368.89 751.66,-325.31"/>
<polygon fill="green" stroke="green" stroke-width="0.36" points="754.83,-326.81 756.21,-316.31 748.58,-323.65 754.83,-326.81"/>
</g>
<!-- &#45;6 -->
<g id="node6" class="node">
<title>&#45;6</title>
<polygon fill="lightgray" stroke="black" points="525,-490.93 499,-490.93 499,-472.93 525,-472.93 525,-490.93"/>
<text text-anchor="middle" x="512" y="-479.73" font-family="Times,serif" font-size="9.00">&#45;6</text>
</g>
<!-- 2 -->
<g id="node9" class="node">
<title>2</title>
<ellipse fill="lightblue" stroke="black" cx="524" cy="-97.52" rx="16.03" ry="16.03"/>
<text text-anchor="middle" x="524" y="-95.32" font-family="Times,serif" font-size="9.00">2</text>
</g>
<!-- &#45;6&#45;&gt;2 -->
<g id="edge31" class="edge">
<title>&#45;6&#45;&gt;2</title>
<path fill="none" stroke="red" stroke-width="0.16" d="M498.91,-474.44C481.04,-464.74 449.76,-444.61 437,-416.94 426.21,-393.54 433.19,-384.45 437,-358.96 450.58,-268.01 493.1,-166.24 513.23,-121.6"/>
<polygon fill="red" stroke="red" stroke-width="0.16" points="516.42,-123.04 517.39,-112.49 510.05,-120.13 516.42,-123.04"/>
</g>
<!-- 7879 -->
<g id="node12" class="node">
<title>7879</title>
<ellipse fill="white" stroke="black" cx="885" cy="-387.95" rx="28.98" ry="28.98"/>
<text text-anchor="middle" x="885" y="-385.75" font-family="Times,serif" font-size="9.00">7879</text>
</g>
<!-- &#45;6&#45;&gt;7879 -->
<g id="edge41" class="edge">
<title>&#45;6&#45;&gt;7879</title>
<path fill="none" stroke="red" stroke-width="0.26" stroke-dasharray="1,5" d="M525.28,-477.66C576.92,-464.92 765.62,-418.39 847.11,-398.3"/>
<polygon fill="red" stroke="red" stroke-width="0.26" points="848.09,-401.66 856.96,-395.87 846.41,-394.86 848.09,-401.66"/>
</g>
<!-- 6416 -->
<g id="node14" class="node">
<title>6416</title>
<ellipse fill="white" stroke="black" cx="619" cy="-387.95" rx="28.98" ry="28.98"/>
<text text-anchor="middle" x="619" y="-385.75" font-family="Times,serif" font-size="9.00">6416</text>
</g>
<!-- &#45;6&#45;&gt;6416 -->
<g id="edge33" class="edge">
<title>&#45;6&#45;&gt;6416</title>
<path fill="none" stroke="red" stroke-width="0.3" stroke-dasharray="1,5" d="M521.5,-472.77C536.59,-459.79 566.69,-433.92 589.48,-414.33"/>
<polygon fill="red" stroke="red" stroke-width="0.3" points="591.89,-416.87 597.2,-407.7 587.33,-411.56 591.89,-416.87"/>
</g>
<!-- &#45;6&#45;&gt;372 -->
<g id="edge15" class="edge">
<title>&#45;6&#45;&gt;372</title>
<path fill="none" stroke="red" stroke-width="0.16" stroke-dasharray="1,5" d="M498.75,-473.55C481.57,-463.23 452.05,-442.84 437,-416.94 402.69,-357.91 395.68,-276.38 394.67,-230.9"/>
<polygon fill="red" stroke="red" stroke-width="0.16" points="398.16,-230.64 394.53,-220.69 391.17,-230.74 398.16,-230.64"/>
</g>
<!-- &#45;6&#45;&gt;373 -->
<g id="edge16" class="edge">
<title>&#45;6&#45;&gt;373</title>
<path fill="none" stroke="red" stroke-width="0.39" d="M508.36,-472.77C503.15,-461.09 493.29,-438.96 485.01,-420.37"/>
<polygon fill="red" stroke="red" stroke-width="0.39" points="488.12,-418.76 480.85,-411.05 481.72,-421.61 488.12,-418.76"/>
</g>
<!-- &#45;6&#45;&gt;375 -->
<g id="edge17" class="edge">
<title>&#45;6&#45;&gt;375</title>
<path fill="none" stroke="green" stroke-width="0.28" stroke-dasharray="1,5" d="M515.65,-472.81C526.83,-448.23 561.07,-375.33 581,-358.96 620.43,-326.58 641.8,-339.68 690,-322.96 704.6,-317.9 720.67,-312.09 734.34,-307.08"/>
<polygon fill="green" stroke="green" stroke-width="0.28" points="735.64,-310.34 743.81,-303.6 733.22,-303.77 735.64,-310.34"/>
</g>
<!-- &#45;6&#45;&gt;3068 -->
<g id="edge28" class="edge">
<title>&#45;6&#45;&gt;3068</title>
<path fill="none" stroke="red" stroke-width="0.32" d="M498.94,-477.91C471.65,-471.06 407.63,-452.14 366,-416.94 342.47,-397.05 345.04,-384.63 328,-358.96 321,-348.42 313.31,-336.94 306.39,-326.65"/>
<polygon fill="red" stroke="red" stroke-width="0.32" points="309.28,-324.67 300.79,-318.33 303.47,-328.58 309.28,-324.67"/>
</g>
<!-- 0 -->
<g id="node7" class="node">
<title>0</title>
<ellipse fill="lightblue" stroke="black" cx="395" cy="-97.52" rx="16.03" ry="16.03"/>
<text text-anchor="middle" x="395" y="-95.32" font-family="Times,serif" font-size="9.00">0</text>
</g>
<!-- 12866 -->
<g id="node11" class="node">
<title>12866</title>
<ellipse fill="white" stroke="black" cx="785" cy="-195.74" rx="33.47" ry="33.47"/>
<text text-anchor="middle" x="785" y="-193.54" font-family="Times,serif" font-size="9.00">12866</text>
</g>
<!-- 6617 -->
<g id="node21" class="node">
<title>6617</title>
<ellipse fill="white" stroke="black" cx="733" cy="-97.52" rx="28.98" ry="28.98"/>
<text text-anchor="middle" x="733" y="-95.32" font-family="Times,serif" font-size="9.00">6617</text>
</g>
<!-- 12866&#45;&gt;6617 -->
<g id="edge53" class="edge">
<title>12866&#45;&gt;6617</title>
<path fill="none" stroke="green" stroke-width="0.34" stroke-dasharray="1,5" d="M769.54,-166.13C763.79,-155.49 757.2,-143.31 751.22,-132.24"/>
<polygon fill="green" stroke="green" stroke-width="0.34" points="754.21,-130.4 746.38,-123.27 748.05,-133.73 754.21,-130.4"/>
</g>
<!-- 7879&#45;&gt;375 -->
<g id="edge42" class="edge">
<title>7879&#45;&gt;375</title>
<path fill="none" stroke="green" stroke-width="0.2" stroke-dasharray="1,5" d="M862.53,-369.43C843.13,-354.32 815.06,-332.43 794.36,-316.3"/>
<polygon fill="green" stroke="green" stroke-width="0.2" points="796.3,-313.37 786.27,-309.99 792,-318.9 796.3,-313.37"/>
</g>
<!-- 5320 -->
<g id="node13" class="node">
<title>5320</title>
<ellipse fill="white" stroke="black" cx="885" cy="-481.93" rx="28.98" ry="28.98"/>
<text text-anchor="middle" x="885" y="-479.73" font-family="Times,serif" font-size="9.00">5320</text>
</g>
<!-- 5320&#45;&gt;2 -->
<g id="edge30" class="edge">
<title>5320&#45;&gt;2</title>
<path fill="none" stroke="green" stroke-width="0.3" stroke-dasharray="1,5" d="M902.3,-458.6C910.29,-446.89 918.9,-431.89 923,-416.94 929.82,-392.09 928.81,-384.07 923,-358.96 901.1,-264.28 903.64,-222.26 827,-162.51 805.01,-145.37 619.77,-114 550.23,-102.71"/>
<polygon fill="green" stroke="green" stroke-width="0.3" points="550.54,-99.21 540.11,-101.07 549.42,-106.12 550.54,-99.21"/>
</g>
<!-- 5320&#45;&gt;7879 -->
<g id="edge43" class="edge">
<title>5320&#45;&gt;7879</title>
<path fill="none" stroke="green" stroke-width="0.34" d="M885,-452.84C885,-444.8 885,-435.9 885,-427.35"/>
<polygon fill="green" stroke="green" stroke-width="0.34" points="888.5,-427.19 885,-417.19 881.5,-427.19 888.5,-427.19"/>
</g>
<!-- 6416&#45;&gt;3068 -->
<g id="edge34" class="edge">
<title>6416&#45;&gt;3068</title>
<path fill="none" stroke="red" stroke-width="0.33" stroke-dasharray="1,5" d="M591.1,-379.27C531.3,-362.8 390.72,-324.08 322.91,-305.41"/>
<polygon fill="red" stroke="red" stroke-width="0.33" points="323.63,-301.98 313.06,-302.7 321.77,-308.73 323.63,-301.98"/>
</g>
<!-- 6809&#45;&gt;375 -->
<g id="edge39" class="edge">
<title>6809&#45;&gt;375</title>
<path fill="none" stroke="green" stroke-width="0.21" d="M972.39,-376.4C929.59,-359.43 845.59,-326.13 799.38,-307.81"/>
<polygon fill="green" stroke="green" stroke-width="0.21" points="800.43,-304.46 789.85,-304.03 797.85,-310.97 800.43,-304.46"/>
</g>
<!-- 8242&#45;&gt;3 -->
<g id="edge45" class="edge">
<title>8242&#45;&gt;3</title>
<path fill="none" stroke="green" stroke-width="0.29" d="M60.76,-265.03C65.73,-236.78 76.74,-193.06 100,-162.51 145.62,-102.58 170.23,-94.29 241,-68.53 322.36,-38.91 591.51,-22.98 677.41,-18.55"/>
<polygon fill="green" stroke="green" stroke-width="0.29" points="677.8,-22.04 687.61,-18.04 677.45,-15.05 677.8,-22.04"/>
</g>
<!-- 372&#45;&gt;0 -->
<g id="edge18" class="edge">
<title>372&#45;&gt;0</title>
<path fill="none" stroke="red" stroke-width="0.36" d="M395,-170.96C395,-156.77 395,-138.74 395,-124.22"/>
<polygon fill="red" stroke="red" stroke-width="0.36" points="398.5,-123.93 395,-113.93 391.5,-123.93 398.5,-123.93"/>
</g>
<!-- 372&#45;&gt;1 -->
<g id="edge19" class="edge">
<title>372&#45;&gt;1</title>
<path fill="none" stroke="red" stroke-width="0.6" d="M376.58,-179.05C370.15,-173.7 362.83,-167.75 356,-162.51 332.99,-144.86 305.76,-125.73 287.32,-113.03"/>
<polygon fill="red" stroke="red" stroke-width="0.6" points="289.26,-110.11 279.03,-107.34 285.3,-115.89 289.26,-110.11"/>
</g>
<!-- 372&#45;&gt;2 -->
<g id="edge20" class="edge">
<title>372&#45;&gt;2</title>
<path fill="none" stroke="red" stroke-width="0.13" d="M413.42,-179.05C419.85,-173.7 427.17,-167.75 434,-162.51 457.01,-144.86 484.24,-125.73 502.68,-113.03"/>
<polygon fill="red" stroke="red" stroke-width="0.13" points="504.7,-115.89 510.97,-107.34 500.74,-110.11 504.7,-115.89"/>
</g>
<!-- 372&#45;&gt;3 -->
<g id="edge21" class="edge">
<title>372&#45;&gt;3</title>
<path fill="none" stroke="green" stroke-width="0.13" d="M406.46,-173.77C423.06,-145.43 456.51,-95.36 499,-68.53 555.95,-32.56 636.65,-21.82 677.75,-18.61"/>
<polygon fill="green" stroke="green" stroke-width="0.13" points="678.03,-22.1 687.77,-17.92 677.55,-15.12 678.03,-22.1"/>
</g>
<!-- 373&#45;&gt;1 -->
<g id="edge22" class="edge">
<title>373&#45;&gt;1</title>
<path fill="none" stroke="red" stroke-width="0.11" stroke-dasharray="1,5" d="M456.91,-367.13C419.71,-314.79 319.12,-173.26 280.96,-119.56"/>
<polygon fill="red" stroke="red" stroke-width="0.11" points="283.63,-117.28 274.98,-111.16 277.93,-121.34 283.63,-117.28"/>
</g>
<!-- 373&#45;&gt;2 -->
<g id="edge23" class="edge">
<title>373&#45;&gt;2</title>
<path fill="none" stroke="red" stroke-width="0.17" d="M475.34,-363.35C485.21,-309.61 509.29,-178.57 519.41,-123.52"/>
<polygon fill="red" stroke="red" stroke-width="0.17" points="522.87,-124.04 521.23,-113.57 515.98,-122.78 522.87,-124.04"/>
</g>
<!-- 373&#45;&gt;3 -->
<g id="edge24" class="edge">
<title>373&#45;&gt;3</title>
<path fill="none" stroke="green" stroke-width="0.34" d="M483.86,-366.55C524.23,-302.49 648.26,-105.71 690.07,-39.36"/>
<polygon fill="green" stroke="green" stroke-width="0.34" points="693.25,-40.88 695.62,-30.55 687.33,-37.15 693.25,-40.88"/>
</g>
<!-- 373&#45;&gt;375 -->
<g id="edge48" class="edge">
<title>373&#45;&gt;375</title>
<path fill="none" stroke="red" stroke-width="0.31" stroke-dasharray="1,5" d="M489.46,-371.26C495.65,-366.69 502.81,-362.08 510,-358.96 584.82,-326.44 611.44,-344.96 690,-322.96 704.99,-318.76 721.24,-313.04 734.92,-307.86"/>
<polygon fill="red" stroke="red" stroke-width="0.31" points="736.31,-311.08 744.38,-304.22 733.79,-304.54 736.31,-311.08"/>
</g>
<!-- 13302 -->
<g id="node19" class="node">
<title>13302</title>
<ellipse fill="white" stroke="black" cx="1033" cy="-195.74" rx="33.47" ry="33.47"/>
<text text-anchor="middle" x="1033" y="-193.54" font-family="Times,serif" font-size="9.00">13302</text>
</g>
<!-- 13302&#45;&gt;3 -->
<g id="edge56" class="edge">
<title>13302&#45;&gt;3</title>
<path fill="none" stroke="red" stroke-width="0.36" d="M1029.85,-162.45C1025.23,-133.42 1013.88,-91.87 986,-68.53 947.31,-36.13 792.91,-22.89 730.44,-18.79"/>
<polygon fill="red" stroke="red" stroke-width="0.36" points="730.43,-15.28 720.23,-18.14 729.99,-22.27 730.43,-15.28"/>
</g>
<!-- 375&#45;&gt;0 -->
<g id="edge25" class="edge">
<title>375&#45;&gt;0</title>
<path fill="none" stroke="green" stroke-width="0.51" stroke-dasharray="1,5" d="M748.37,-277.66C742.17,-273.11 735.04,-268.42 728,-264.98 677.21,-240.15 657.61,-252.05 606,-228.98 532.06,-195.93 452.88,-141.03 416.07,-114.22"/>
<polygon fill="green" stroke="green" stroke-width="0.51" points="417.78,-111.14 407.65,-108.04 413.64,-116.78 417.78,-111.14"/>
</g>
<!-- 375&#45;&gt;2 -->
<g id="edge26" class="edge">
<title>375&#45;&gt;2</title>
<path fill="none" stroke="red" stroke-width="0.23" stroke-dasharray="1,5" d="M747.93,-277.71C702.94,-241.71 590.51,-151.74 544.31,-114.77"/>
<polygon fill="red" stroke="red" stroke-width="0.23" points="546.23,-111.83 536.24,-108.31 541.86,-117.29 546.23,-111.83"/>
</g>
<!-- 375&#45;&gt;3 -->
<g id="edge27" class="edge">
<title>375&#45;&gt;3</title>
<path fill="none" stroke="red" stroke-width="0.35" stroke-dasharray="1,5" d="M786.77,-278.65C800.96,-267.07 818.93,-249.37 827,-228.98 837.86,-201.51 834.84,-190.99 827,-162.51 814.09,-115.63 803.34,-104.84 771,-68.53 757.9,-53.81 740.06,-40.41 726.09,-31"/>
<polygon fill="red" stroke="red" stroke-width="0.35" points="727.84,-27.96 717.55,-25.42 724.01,-33.82 727.84,-27.96"/>
</g>
<!-- 375&#45;&gt;12866 -->
<g id="edge52" class="edge">
<title>375&#45;&gt;12866</title>
<path fill="none" stroke="green" stroke-width="0.31" stroke-dasharray="1,5" d="M771.45,-269.18C773.19,-259.9 775.23,-248.99 777.19,-238.48"/>
<polygon fill="green" stroke="green" stroke-width="0.31" points="780.64,-239.08 779.04,-228.61 773.76,-237.79 780.64,-239.08"/>
</g>
<!-- 375&#45;&gt;372 -->
<g id="edge49" class="edge">
<title>375&#45;&gt;372</title>
<path fill="none" stroke="red" stroke-width="0.12" d="M748.65,-277.03C742.46,-272.44 735.27,-267.89 728,-264.98 621.35,-222.24 582.79,-259.41 472,-228.98 456.59,-224.75 440.18,-218.18 426.48,-212.08"/>
<polygon fill="red" stroke="red" stroke-width="0.12" points="427.58,-208.74 417.04,-207.75 424.67,-215.1 427.58,-208.74"/>
</g>
<!-- 375&#45;&gt;6617 -->
<g id="edge35" class="edge">
<title>375&#45;&gt;6617</title>
<path fill="none" stroke="green" stroke-width="0.27" stroke-dasharray="1,5" d="M757.09,-271.23C752,-259.06 746.2,-243.46 743,-228.98 736.25,-198.47 733.87,-163.08 733.11,-136.87"/>
<polygon fill="green" stroke="green" stroke-width="0.27" points="736.6,-136.51 732.88,-126.59 729.6,-136.67 736.6,-136.51"/>
</g>
<!-- 6617&#45;&gt;3 -->
<g id="edge36" class="edge">
<title>6617&#45;&gt;3</title>
<path fill="none" stroke="red" stroke-width="0.12" d="M723.34,-70.13C719.94,-60.84 716.14,-50.45 712.82,-41.36"/>
<polygon fill="red" stroke="red" stroke-width="0.12" points="716.03,-39.96 709.31,-31.77 709.46,-42.36 716.03,-39.96"/>
</g>
<!-- 3068&#45;&gt;0 -->
<g id="edge29" class="edge">
<title>3068&#45;&gt;0</title>
<path fill="none" stroke="red" stroke-width="0.31" d="M298.93,-268.34C320.48,-230.25 361.56,-157.63 382.32,-120.93"/>
<polygon fill="red" stroke="red" stroke-width="0.31" points="385.49,-122.43 387.37,-112.01 379.4,-118.99 385.49,-122.43"/>
</g>
<!-- 3068&#45;&gt;1 -->
<g id="edge37" class="edge">
<title>3068&#45;&gt;1</title>
<path fill="none" stroke="green" stroke-width="0.22" d="M282.24,-264.69C278.54,-226.89 272.05,-160.44 268.5,-124.07"/>
<polygon fill="green" stroke="green" stroke-width="0.22" points="271.95,-123.43 267.5,-113.82 264.98,-124.11 271.95,-123.43"/>
</g>
<!-- 9503&#45;&gt;3 -->
<g id="edge47" class="edge">
<title>9503&#45;&gt;3</title>
<path fill="none" stroke="green" stroke-width="0.17" stroke-dasharray="1,5" d="M1019.76,-461.56C1031.49,-449.64 1045.63,-433.52 1055,-416.94 1082.99,-367.39 1094,-351.88 1094,-294.97 1094,-294.97 1094,-294.97 1094,-194.74 1094,-170.86 1079.27,-110.23 1017,-68.53 970.09,-37.11 797.46,-23.13 730.65,-18.81"/>
<polygon fill="green" stroke="green" stroke-width="0.17" points="730.72,-15.31 720.52,-18.18 730.28,-22.3 730.72,-15.31"/>
</g>
<!-- 9503&#45;&gt;6416 -->
<g id="edge51" class="edge">
<title>9503&#45;&gt;6416</title>
<path fill="none" stroke="red" stroke-width="0.17" d="M972.23,-469.99C957.81,-464.37 939.62,-457.73 923,-452.94 829.12,-425.93 715.91,-405.11 657.71,-395.24"/>
<polygon fill="red" stroke="red" stroke-width="0.17" points="658.28,-391.79 647.84,-393.58 657.12,-398.69 658.28,-391.79"/>
</g>
<!-- 9503&#45;&gt;6809 -->
<g id="edge50" class="edge">
<title>9503&#45;&gt;6809</title>
<path fill="none" stroke="green" stroke-width="0.39" d="M999,-452.84C999,-444.8 999,-435.9 999,-427.35"/>
<polygon fill="green" stroke="green" stroke-width="0.39" points="1002.5,-427.19 999,-417.19 995.5,-427.19 1002.5,-427.19"/>
</g>
<!-- 9503&#45;&gt;13302 -->
<g id="edge55" class="edge">
<title>9503&#45;&gt;13302</title>
<path fill="none" stroke="green" stroke-width="0.29" d="M1016.3,-458.6C1024.29,-446.89 1032.9,-431.89 1037,-416.94 1053.58,-356.57 1047.31,-283.34 1040.64,-238.4"/>
<polygon fill="green" stroke="green" stroke-width="0.29" points="1044.09,-237.77 1039.09,-228.43 1037.17,-238.85 1044.09,-237.77"/>
</g>
</g>
</svg>
