<?xml version="1.0" encoding="UTF-8" standalone="no"?>
<!DOCTYPE svg PUBLIC "-//W3C//DTD SVG 1.1//EN"
 "http://www.w3.org/Graphics/SVG/1.1/DTD/svg11.dtd">
<!-- Generated by graphviz version 2.43.0 (0)
 -->
<!-- Title: %3 Pages: 1 -->
<svg width="1292pt" height="598pt"
 viewBox="0.00 0.00 1292.39 598.38" xmlns="http://www.w3.org/2000/svg" xmlns:xlink="http://www.w3.org/1999/xlink">
<g id="graph0" class="graph" transform="scale(1 1) rotate(0) translate(4 594.38)">
<title>%3</title>
<polygon fill="white" stroke="transparent" points="-4,4 -4,-594.38 1288.39,-594.38 1288.39,4 -4,4"/>
<!-- &#45;1 -->
<g id="node1" class="node">
<title>&#45;1</title>
<polygon fill="lightgray" stroke="black" points="613.64,-590.38 587.64,-590.38 587.64,-572.38 613.64,-572.38 613.64,-590.38"/>
<text text-anchor="middle" x="600.64" y="-579.18" font-family="Times,serif" font-size="9.00">&#45;1</text>
</g>
<!-- 2 -->
<g id="node9" class="node">
<title>2</title>
<ellipse fill="lightblue" stroke="black" cx="156.64" cy="-118.73" rx="16.03" ry="16.03"/>
<text text-anchor="middle" x="156.64" y="-116.53" font-family="Times,serif" font-size="9.00">2</text>
</g>
<!-- &#45;1&#45;&gt;2 -->
<g id="edge47" class="edge">
<title>&#45;1&#45;&gt;2</title>
<path fill="none" stroke="red" stroke-width="0.12" stroke-dasharray="1,5" d="M587.64,-580.31C506.49,-579.74 71.69,-574.9 28.64,-536.38 -13.92,-498.31 4.64,-467.27 4.64,-410.17 4.64,-410.17 4.64,-410.17 4.64,-305.7 4.64,-244.89 -9.74,-218.16 28.64,-170.99 53.94,-139.91 100.9,-127.56 130.36,-122.73"/>
<polygon fill="red" stroke="red" stroke-width="0.12" points="130.97,-126.18 140.36,-121.27 129.96,-119.25 130.97,-126.18"/>
</g>
<!-- 152 -->
<g id="node12" class="node">
<title>152</title>
<ellipse fill="white" stroke="black" cx="720.64" cy="-409.17" rx="25" ry="25"/>
<text text-anchor="middle" x="720.64" y="-406.97" font-family="Times,serif" font-size="9.00">152</text>
</g>
<!-- &#45;1&#45;&gt;152 -->
<g id="edge1" class="edge">
<title>&#45;1&#45;&gt;152</title>
<path fill="none" stroke="red" stroke-width="0.17" d="M606.43,-572.17C623.27,-548.28 672.84,-477.97 700.82,-438.27"/>
<polygon fill="red" stroke="red" stroke-width="0.17" points="703.88,-440.01 706.78,-429.82 698.16,-435.98 703.88,-440.01"/>
</g>
<!-- 154 -->
<g id="node14" class="node">
<title>154</title>
<ellipse fill="white" stroke="black" cx="530.64" cy="-507.39" rx="25" ry="25"/>
<text text-anchor="middle" x="530.64" y="-505.19" font-family="Times,serif" font-size="9.00">154</text>
</g>
<!-- &#45;1&#45;&gt;154 -->
<g id="edge2" class="edge">
<title>&#45;1&#45;&gt;154</title>
<path fill="none" stroke="green" stroke-width="0.38" d="M592.61,-572.12C583.4,-562.65 567.86,-546.67 554.65,-533.09"/>
<polygon fill="green" stroke="green" stroke-width="0.38" points="557.09,-530.57 547.61,-525.84 552.07,-535.45 557.09,-530.57"/>
</g>
<!-- 155 -->
<g id="node15" class="node">
<title>155</title>
<ellipse fill="white" stroke="black" cx="796.64" cy="-204.23" rx="25" ry="25"/>
<text text-anchor="middle" x="796.64" y="-202.03" font-family="Times,serif" font-size="9.00">155</text>
</g>
<!-- &#45;1&#45;&gt;155 -->
<g id="edge3" class="edge">
<title>&#45;1&#45;&gt;155</title>
<path fill="none" stroke="red" stroke-width="0.19" stroke-dasharray="1,5" d="M602.16,-572.22C605.6,-554.63 614.77,-512 628.64,-478.4 668.54,-381.75 740.32,-279.88 775.72,-232.48"/>
<polygon fill="red" stroke="red" stroke-width="0.19" points="778.68,-234.37 781.9,-224.27 773.09,-230.16 778.68,-234.37"/>
</g>
<!-- 1852 -->
<g id="node17" class="node">
<title>1852</title>
<ellipse fill="white" stroke="black" cx="914.64" cy="-409.17" rx="28.98" ry="28.98"/>
<text text-anchor="middle" x="914.64" y="-406.97" font-family="Times,serif" font-size="9.00">1852</text>
</g>
<!-- &#45;1&#45;&gt;1852 -->
<g id="edge50" class="edge">
<title>&#45;1&#45;&gt;1852</title>
<path fill="none" stroke="green" stroke-width="0.15" d="M613.73,-573.28C659.18,-548.65 811.12,-466.28 880.08,-428.9"/>
<polygon fill="green" stroke="green" stroke-width="0.15" points="882.11,-431.78 889.24,-423.94 878.78,-425.62 882.11,-431.78"/>
</g>
<!-- 9698 -->
<g id="node24" class="node">
<title>9698</title>
<ellipse fill="white" stroke="black" cx="872.64" cy="-507.39" rx="28.98" ry="28.98"/>
<text text-anchor="middle" x="872.64" y="-505.19" font-family="Times,serif" font-size="9.00">9698</text>
</g>
<!-- &#45;1&#45;&gt;9698 -->
<g id="edge53" class="edge">
<title>&#45;1&#45;&gt;9698</title>
<path fill="none" stroke="red" stroke-width="0.57" d="M613.76,-576.91C653.46,-566.4 773.4,-534.66 835.09,-518.33"/>
<polygon fill="red" stroke="red" stroke-width="0.57" points="836.06,-521.69 844.83,-515.75 834.27,-514.93 836.06,-521.69"/>
</g>
<!-- &#45;2 -->
<g id="node2" class="node">
<title>&#45;2</title>
<polygon fill="lightgray" stroke="black" points="717.64,-590.38 691.64,-590.38 691.64,-572.38 717.64,-572.38 717.64,-590.38"/>
<text text-anchor="middle" x="704.64" y="-579.18" font-family="Times,serif" font-size="9.00">&#45;2</text>
</g>
<!-- &#45;2&#45;&gt;152 -->
<g id="edge4" class="edge">
<title>&#45;2&#45;&gt;152</title>
<path fill="none" stroke="green" stroke-width="0.12" d="M705.41,-572.17C707.55,-549.43 713.64,-484.65 717.44,-444.23"/>
<polygon fill="green" stroke="green" stroke-width="0.12" points="720.95,-444.31 718.4,-434.03 713.98,-443.65 720.95,-444.31"/>
</g>
<!-- 153 -->
<g id="node13" class="node">
<title>153</title>
<ellipse fill="white" stroke="black" cx="1096.64" cy="-507.39" rx="25" ry="25"/>
<text text-anchor="middle" x="1096.64" y="-505.19" font-family="Times,serif" font-size="9.00">153</text>
</g>
<!-- &#45;2&#45;&gt;153 -->
<g id="edge5" class="edge">
<title>&#45;2&#45;&gt;153</title>
<path fill="none" stroke="green" stroke-width="0.13" d="M717.68,-577.99C771.83,-568.04 979.9,-529.83 1062.53,-514.65"/>
<polygon fill="green" stroke="green" stroke-width="0.13" points="1063.22,-518.09 1072.42,-512.84 1061.96,-511.2 1063.22,-518.09"/>
</g>
<!-- &#45;2&#45;&gt;154 -->
<g id="edge6" class="edge">
<title>&#45;2&#45;&gt;154</title>
<path fill="none" stroke="green" stroke-width="0.25" d="M691.56,-574.97C664.38,-563.73 601.13,-537.55 562.51,-521.58"/>
<polygon fill="green" stroke="green" stroke-width="0.25" points="563.84,-518.34 553.26,-517.75 561.16,-524.81 563.84,-518.34"/>
</g>
<!-- &#45;3 -->
<g id="node3" class="node">
<title>&#45;3</title>
<polygon fill="lightgray" stroke="black" points="961.64,-590.38 935.64,-590.38 935.64,-572.38 961.64,-572.38 961.64,-590.38"/>
<text text-anchor="middle" x="948.64" y="-579.18" font-family="Times,serif" font-size="9.00">&#45;3</text>
</g>
<!-- &#45;3&#45;&gt;152 -->
<g id="edge7" class="edge">
<title>&#45;3&#45;&gt;152</title>
<path fill="none" stroke="red" stroke-width="0.3" d="M947.9,-572.26C945.75,-553.21 937.79,-505.23 910.64,-478.4 868.01,-436.27 797.55,-419.98 755.46,-413.8"/>
<polygon fill="red" stroke="red" stroke-width="0.3" points="755.79,-410.32 745.41,-412.44 754.85,-417.25 755.79,-410.32"/>
</g>
<!-- &#45;3&#45;&gt;153 -->
<g id="edge8" class="edge">
<title>&#45;3&#45;&gt;153</title>
<path fill="none" stroke="red" stroke-width="0.28" stroke-dasharray="1,5" d="M961.85,-576.19C982.83,-569.3 1024.74,-554.49 1057.64,-536.38 1061.42,-534.3 1065.26,-531.92 1068.99,-529.44"/>
<polygon fill="red" stroke="red" stroke-width="0.28" points="1071.2,-532.17 1077.4,-523.58 1067.19,-526.43 1071.2,-532.17"/>
</g>
<!-- &#45;3&#45;&gt;154 -->
<g id="edge9" class="edge">
<title>&#45;3&#45;&gt;154</title>
<path fill="none" stroke="red" stroke-width="0.6" stroke-dasharray="1,5" d="M935.21,-578.07C877.73,-568.17 651.54,-529.21 564.77,-514.27"/>
<polygon fill="red" stroke="red" stroke-width="0.6" points="565.35,-510.82 554.91,-512.57 564.17,-517.72 565.35,-510.82"/>
</g>
<!-- &#45;3&#45;&gt;155 -->
<g id="edge10" class="edge">
<title>&#45;3&#45;&gt;155</title>
<path fill="none" stroke="red" stroke-width="0.23" stroke-dasharray="1,5" d="M952.69,-572.33C971.07,-534.56 1042.81,-372.61 974.64,-273.46 942.49,-226.7 873.55,-211.97 831.53,-207.34"/>
<polygon fill="red" stroke="red" stroke-width="0.23" points="831.75,-203.85 821.46,-206.37 831.08,-210.81 831.75,-203.85"/>
</g>
<!-- &#45;3&#45;&gt;1852 -->
<g id="edge45" class="edge">
<title>&#45;3&#45;&gt;1852</title>
<path fill="none" stroke="red" stroke-width="0.18" stroke-dasharray="1,5" d="M949.19,-572.32C950.19,-554.91 951.48,-512.61 943.64,-478.4 941.02,-466.97 936.59,-455.03 931.97,-444.4"/>
<polygon fill="red" stroke="red" stroke-width="0.18" points="935.05,-442.7 927.72,-435.05 928.67,-445.6 935.05,-442.7"/>
</g>
<!-- &#45;3&#45;&gt;9698 -->
<g id="edge48" class="edge">
<title>&#45;3&#45;&gt;9698</title>
<path fill="none" stroke="green" stroke-width="0.36" stroke-dasharray="1,5" d="M939.92,-572.12C930.38,-563.09 914.59,-548.13 900.71,-534.98"/>
<polygon fill="green" stroke="green" stroke-width="0.36" points="902.91,-532.24 893.24,-527.9 898.09,-537.32 902.91,-532.24"/>
</g>
<!-- &#45;4 -->
<g id="node4" class="node">
<title>&#45;4</title>
<polygon fill="lightgray" stroke="black" points="673.64,-590.38 647.64,-590.38 647.64,-572.38 673.64,-572.38 673.64,-590.38"/>
<text text-anchor="middle" x="660.64" y="-579.18" font-family="Times,serif" font-size="9.00">&#45;4</text>
</g>
<!-- &#45;4&#45;&gt;2 -->
<g id="edge42" class="edge">
<title>&#45;4&#45;&gt;2</title>
<path fill="none" stroke="red" stroke-width="0.21" stroke-dasharray="1,5" d="M647.51,-577.47C567.45,-559.67 146.61,-465.57 92.64,-442.4 68.34,-431.97 42.64,-436.6 42.64,-410.17 42.64,-410.17 42.64,-410.17 42.64,-305.7 42.64,-239.98 65.79,-224.73 103.64,-170.99 112.8,-157.98 125.56,-145.52 136.27,-136.14"/>
<polygon fill="red" stroke="red" stroke-width="0.21" points="138.6,-138.75 143.96,-129.61 134.07,-133.42 138.6,-138.75"/>
</g>
<!-- &#45;4&#45;&gt;152 -->
<g id="edge11" class="edge">
<title>&#45;4&#45;&gt;152</title>
<path fill="none" stroke="green" stroke-width="0.19" stroke-dasharray="1,5" d="M663.53,-572.17C671.67,-549.09 695.07,-482.7 709.27,-442.43"/>
<polygon fill="green" stroke="green" stroke-width="0.19" points="712.64,-443.39 712.66,-432.79 706.04,-441.06 712.64,-443.39"/>
</g>
<!-- &#45;4&#45;&gt;153 -->
<g id="edge12" class="edge">
<title>&#45;4&#45;&gt;153</title>
<path fill="none" stroke="green" stroke-width="0.28" stroke-dasharray="1,5" d="M674,-575.05C676.82,-574.06 679.8,-573.11 682.64,-572.38 691.89,-570.01 964.79,-528.43 1062.37,-513.6"/>
<polygon fill="green" stroke="green" stroke-width="0.28" points="1062.96,-517.05 1072.32,-512.08 1061.9,-510.13 1062.96,-517.05"/>
</g>
<!-- &#45;4&#45;&gt;154 -->
<g id="edge13" class="edge">
<title>&#45;4&#45;&gt;154</title>
<path fill="none" stroke="red" stroke-width="0.21" stroke-dasharray="1,5" d="M647.22,-572.95C626.93,-561.72 587.95,-540.13 560.67,-525.02"/>
<polygon fill="red" stroke="red" stroke-width="0.21" points="562.35,-521.95 551.91,-520.17 558.96,-528.08 562.35,-521.95"/>
</g>
<!-- &#45;4&#45;&gt;155 -->
<g id="edge14" class="edge">
<title>&#45;4&#45;&gt;155</title>
<path fill="none" stroke="red" stroke-width="0.15" stroke-dasharray="1,5" d="M668.63,-572.36C676.89,-563.83 689.93,-549.77 699.64,-536.38 728.05,-497.2 737.94,-487.82 754.64,-442.4 780.15,-373.04 790.45,-286.41 794.39,-239.41"/>
<polygon fill="red" stroke="red" stroke-width="0.15" points="797.9,-239.42 795.2,-229.18 790.92,-238.87 797.9,-239.42"/>
</g>
<!-- &#45;5 -->
<g id="node5" class="node">
<title>&#45;5</title>
<polygon fill="lightgray" stroke="black" points="1109.64,-590.38 1083.64,-590.38 1083.64,-572.38 1109.64,-572.38 1109.64,-590.38"/>
<text text-anchor="middle" x="1096.64" y="-579.18" font-family="Times,serif" font-size="9.00">&#45;5</text>
</g>
<!-- 0 -->
<g id="node7" class="node">
<title>0</title>
<ellipse fill="lightblue" stroke="black" cx="749.64" cy="-118.73" rx="16.03" ry="16.03"/>
<text text-anchor="middle" x="749.64" y="-116.53" font-family="Times,serif" font-size="9.00">0</text>
</g>
<!-- &#45;5&#45;&gt;0 -->
<g id="edge41" class="edge">
<title>&#45;5&#45;&gt;0</title>
<path fill="none" stroke="green" stroke-width="0.19" d="M1109.8,-575.64C1151.76,-559.58 1279.64,-503.02 1279.64,-410.17 1279.64,-410.17 1279.64,-410.17 1279.64,-305.7 1279.64,-244.72 1298.64,-212.14 1253.64,-170.99 1218.1,-138.49 874.4,-124.08 775.9,-120.6"/>
<polygon fill="green" stroke="green" stroke-width="0.19" points="776,-117.1 765.89,-120.25 775.76,-124.09 776,-117.1"/>
</g>
<!-- &#45;5&#45;&gt;152 -->
<g id="edge15" class="edge">
<title>&#45;5&#45;&gt;152</title>
<path fill="none" stroke="green" stroke-width="0.35" stroke-dasharray="1,5" d="M1086.12,-572.14C1061.57,-553.23 998.06,-506.25 938.64,-478.4 876.31,-449.19 798.27,-428.22 754.49,-417.74"/>
<polygon fill="green" stroke="green" stroke-width="0.35" points="755.18,-414.31 744.65,-415.43 753.58,-421.13 755.18,-414.31"/>
</g>
<!-- &#45;5&#45;&gt;153 -->
<g id="edge16" class="edge">
<title>&#45;5&#45;&gt;153</title>
<path fill="none" stroke="green" stroke-width="0.14" d="M1096.64,-572.12C1096.64,-564.71 1096.64,-553.33 1096.64,-542.22"/>
<polygon fill="green" stroke="green" stroke-width="0.14" points="1100.14,-542.22 1096.64,-532.22 1093.14,-542.22 1100.14,-542.22"/>
</g>
<!-- &#45;5&#45;&gt;154 -->
<g id="edge17" class="edge">
<title>&#45;5&#45;&gt;154</title>
<path fill="none" stroke="green" stroke-width="0.11" stroke-dasharray="1,5" d="M1083.48,-578.71C1012.64,-569.7 675.77,-526.85 565.59,-512.84"/>
<polygon fill="green" stroke="green" stroke-width="0.11" points="565.72,-509.32 555.36,-511.53 564.84,-516.27 565.72,-509.32"/>
</g>
<!-- &#45;5&#45;&gt;155 -->
<g id="edge18" class="edge">
<title>&#45;5&#45;&gt;155</title>
<path fill="none" stroke="green" stroke-width="0.11" d="M1105.61,-572.32C1113.92,-564.19 1125.71,-550.82 1130.64,-536.38 1138.96,-511.99 1137.83,-503.15 1130.64,-478.4 1100.56,-374.82 1085.58,-339.95 1000.64,-273.46 949.84,-233.7 874.7,-216.53 831.21,-209.57"/>
<polygon fill="green" stroke="green" stroke-width="0.11" points="831.54,-206.08 821.13,-208.05 830.49,-213 831.54,-206.08"/>
</g>
<!-- &#45;6 -->
<g id="node6" class="node">
<title>&#45;6</title>
<polygon fill="lightgray" stroke="black" points="856.64,-590.38 830.64,-590.38 830.64,-572.38 856.64,-572.38 856.64,-590.38"/>
<text text-anchor="middle" x="843.64" y="-579.18" font-family="Times,serif" font-size="9.00">&#45;6</text>
</g>
<!-- &#45;6&#45;&gt;153 -->
<g id="edge19" class="edge">
<title>&#45;6&#45;&gt;153</title>
<path fill="none" stroke="red" stroke-width="0.27" stroke-dasharray="1,5" d="M856.89,-576.61C895.17,-565.72 1006.83,-533.95 1063.22,-517.9"/>
<polygon fill="red" stroke="red" stroke-width="0.27" points="1064.42,-521.2 1073.08,-515.09 1062.5,-514.47 1064.42,-521.2"/>
</g>
<!-- &#45;6&#45;&gt;154 -->
<g id="edge20" class="edge">
<title>&#45;6&#45;&gt;154</title>
<path fill="none" stroke="green" stroke-width="0.11" d="M830.59,-577.38C785.14,-566.93 632.86,-531.9 564.43,-516.16"/>
<polygon fill="green" stroke="green" stroke-width="0.11" points="565.12,-512.73 554.59,-513.9 563.55,-519.55 565.12,-512.73"/>
</g>
<!-- &#45;6&#45;&gt;155 -->
<g id="edge21" class="edge">
<title>&#45;6&#45;&gt;155</title>
<path fill="none" stroke="red" stroke-width="0.17" d="M841.77,-572.31C839.78,-563.52 836.65,-549.01 834.64,-536.38 817.42,-428.29 804.9,-299.15 799.54,-239.07"/>
<polygon fill="red" stroke="red" stroke-width="0.17" points="803.01,-238.67 798.65,-229.02 796.04,-239.29 803.01,-238.67"/>
</g>
<!-- &#45;6&#45;&gt;9698 -->
<g id="edge69" class="edge">
<title>&#45;6&#45;&gt;9698</title>
<path fill="none" stroke="red" stroke-width="0.17" d="M846.97,-572.12C849.79,-565.11 854.05,-554.53 858.29,-544"/>
<polygon fill="red" stroke="red" stroke-width="0.17" points="861.65,-545.03 862.14,-534.44 855.16,-542.41 861.65,-545.03"/>
</g>
<!-- 1 -->
<g id="node8" class="node">
<title>1</title>
<ellipse fill="lightblue" stroke="black" cx="628.64" cy="-118.73" rx="16.03" ry="16.03"/>
<text text-anchor="middle" x="628.64" y="-116.53" font-family="Times,serif" font-size="9.00">1</text>
</g>
<!-- 17930 -->
<g id="node11" class="node">
<title>17930</title>
<ellipse fill="white" stroke="black" cx="453.64" cy="-33.23" rx="33.47" ry="33.47"/>
<text text-anchor="middle" x="453.64" y="-31.03" font-family="Times,serif" font-size="9.00">17930</text>
</g>
<!-- 1&#45;&gt;17930 -->
<g id="edge72" class="edge">
<title>1&#45;&gt;17930</title>
<path fill="none" stroke="red" stroke-width="0.12" d="M614.32,-110.9C588.05,-98.37 531.35,-71.31 492.83,-52.94"/>
<polygon fill="red" stroke="red" stroke-width="0.12" points="494,-49.61 483.46,-48.46 490.98,-55.93 494,-49.61"/>
</g>
<!-- 3 -->
<g id="node10" class="node">
<title>3</title>
<ellipse fill="lightblue" stroke="black" cx="527.64" cy="-118.73" rx="16.03" ry="16.03"/>
<text text-anchor="middle" x="527.64" y="-116.53" font-family="Times,serif" font-size="9.00">3</text>
</g>
<!-- 152&#45;&gt;0 -->
<g id="edge22" class="edge">
<title>152&#45;&gt;0</title>
<path fill="none" stroke="green" stroke-width="0.13" d="M723.06,-384.07C728.49,-330.12 741.56,-200.06 747.1,-145.01"/>
<polygon fill="green" stroke="green" stroke-width="0.13" points="750.58,-145.35 748.1,-135.05 743.62,-144.65 750.58,-145.35"/>
</g>
<!-- 152&#45;&gt;2 -->
<g id="edge23" class="edge">
<title>152&#45;&gt;2</title>
<path fill="none" stroke="red" stroke-width="0.12" d="M696.25,-404.36C627.26,-393.44 431.81,-361.45 370.64,-339.93 278.28,-307.45 232.8,-316.95 175.64,-237.46 156.18,-210.4 153.68,-170.81 154.51,-145.16"/>
<polygon fill="red" stroke="red" stroke-width="0.12" points="158.01,-145.26 155.02,-135.09 151.01,-144.9 158.01,-145.26"/>
</g>
<!-- 152&#45;&gt;3 -->
<g id="edge24" class="edge">
<title>152&#45;&gt;3</title>
<path fill="none" stroke="green" stroke-width="0.14" stroke-dasharray="1,5" d="M707.07,-387.88C671.87,-335.27 577.87,-194.8 541.91,-141.05"/>
<polygon fill="green" stroke="green" stroke-width="0.14" points="544.74,-139 536.27,-132.63 538.92,-142.89 544.74,-139"/>
</g>
<!-- 153&#45;&gt;0 -->
<g id="edge25" class="edge">
<title>153&#45;&gt;0</title>
<path fill="none" stroke="green" stroke-width="0.36" d="M1116.72,-492.62C1132.25,-480.96 1153.14,-462.91 1165.64,-442.4 1229.76,-337.14 1304.96,-262.73 1222.64,-170.99 1192.62,-137.55 871.8,-123.92 776.3,-120.59"/>
<polygon fill="green" stroke="green" stroke-width="0.36" points="776.17,-117.08 766.05,-120.24 775.93,-124.08 776.17,-117.08"/>
</g>
<!-- 153&#45;&gt;1 -->
<g id="edge26" class="edge">
<title>153&#45;&gt;1</title>
<path fill="none" stroke="red" stroke-width="0.28" d="M1106.05,-484.46C1129.85,-425.22 1184.95,-260.4 1103.64,-170.99 1075.18,-139.7 766.6,-140.32 724.64,-134.99 700.88,-131.98 673.95,-127.62 654.68,-124.33"/>
<polygon fill="red" stroke="red" stroke-width="0.28" points="655.01,-120.83 644.56,-122.58 653.82,-127.73 655.01,-120.83"/>
</g>
<!-- 153&#45;&gt;2 -->
<g id="edge27" class="edge">
<title>153&#45;&gt;2</title>
<path fill="none" stroke="green" stroke-width="0.22" d="M1092.13,-483C1082.41,-437.89 1055.78,-337.67 1000.64,-273.46 943.16,-206.54 914.68,-197.84 830.64,-170.99 768.1,-151.02 299.87,-126.79 183.01,-121.01"/>
<polygon fill="green" stroke="green" stroke-width="0.22" points="182.98,-117.51 172.82,-120.51 182.64,-124.5 182.98,-117.51"/>
</g>
<!-- 153&#45;&gt;3 -->
<g id="edge28" class="edge">
<title>153&#45;&gt;3</title>
<path fill="none" stroke="red" stroke-width="0.16" d="M1098.2,-482.47C1102.18,-413.12 1109.47,-214.2 1065.64,-170.99 1028.97,-134.85 654.64,-142.08 603.64,-134.99 586.69,-132.64 567.83,-128.86 553.14,-125.65"/>
<polygon fill="red" stroke="red" stroke-width="0.16" points="553.79,-122.21 543.27,-123.44 552.26,-129.04 553.79,-122.21"/>
</g>
<!-- 153&#45;&gt;152 -->
<g id="edge57" class="edge">
<title>153&#45;&gt;152</title>
<path fill="none" stroke="green" stroke-width="0.2" d="M1073.98,-497.31C1058.77,-491.42 1038.2,-483.87 1019.64,-478.4 969.83,-463.72 822.33,-431.8 754.93,-417.43"/>
<polygon fill="green" stroke="green" stroke-width="0.2" points="755.34,-413.94 744.83,-415.28 753.88,-420.78 755.34,-413.94"/>
</g>
<!-- 153&#45;&gt;1852 -->
<g id="edge39" class="edge">
<title>153&#45;&gt;1852</title>
<path fill="none" stroke="red" stroke-width="0.1" stroke-dasharray="1,5" d="M1075.05,-494.97C1043.88,-478.5 985.99,-447.89 948.94,-428.3"/>
<polygon fill="red" stroke="red" stroke-width="0.1" points="950.47,-425.15 939.99,-423.57 947.2,-431.34 950.47,-425.15"/>
</g>
<!-- 1151 -->
<g id="node26" class="node">
<title>1151</title>
<ellipse fill="white" stroke="black" cx="1184.64" cy="-204.23" rx="28.98" ry="28.98"/>
<text text-anchor="middle" x="1184.64" y="-202.03" font-family="Times,serif" font-size="9.00">1151</text>
</g>
<!-- 153&#45;&gt;1151 -->
<g id="edge37" class="edge">
<title>153&#45;&gt;1151</title>
<path fill="none" stroke="red" stroke-width="0.12" d="M1112.55,-488.35C1122.44,-476.18 1134.56,-459.31 1141.64,-442.4 1169.41,-376 1179.27,-291.77 1182.76,-243.64"/>
<polygon fill="red" stroke="red" stroke-width="0.12" points="1186.27,-243.57 1183.44,-233.36 1179.29,-243.1 1186.27,-243.57"/>
</g>
<!-- 154&#45;&gt;0 -->
<g id="edge29" class="edge">
<title>154&#45;&gt;0</title>
<path fill="none" stroke="red" stroke-width="0.25" stroke-dasharray="1,5" d="M543.31,-486.05C551.04,-473.53 561.05,-457.12 569.64,-442.4 634.76,-330.78 708.86,-195.01 737.48,-142.23"/>
<polygon fill="red" stroke="red" stroke-width="0.25" points="740.59,-143.82 742.28,-133.36 734.44,-140.49 740.59,-143.82"/>
</g>
<!-- 154&#45;&gt;1 -->
<g id="edge30" class="edge">
<title>154&#45;&gt;1</title>
<path fill="none" stroke="green" stroke-width="0.38" stroke-dasharray="1,5" d="M536.55,-483.07C553.91,-414.59 604.63,-214.44 622.4,-144.33"/>
<polygon fill="green" stroke="green" stroke-width="0.38" points="625.81,-145.15 624.87,-134.6 619.02,-143.43 625.81,-145.15"/>
</g>
<!-- 154&#45;&gt;2 -->
<g id="edge31" class="edge">
<title>154&#45;&gt;2</title>
<path fill="none" stroke="green" stroke-width="0.13" d="M505.95,-505.64C428.38,-502.8 191.39,-490.29 134.64,-442.4 45.82,-367.45 115,-202.77 144.76,-142.45"/>
<polygon fill="green" stroke="green" stroke-width="0.13" points="147.95,-143.89 149.33,-133.38 141.7,-140.74 147.95,-143.89"/>
</g>
<!-- 154&#45;&gt;3 -->
<g id="edge32" class="edge">
<title>154&#45;&gt;3</title>
<path fill="none" stroke="green" stroke-width="0.2" stroke-dasharray="1,5" d="M505.83,-505.23C467.33,-501.95 394.04,-489.5 359.64,-442.4 332.75,-405.58 355.75,-385.51 354.64,-339.93 352.8,-264.4 324.02,-227.98 373.64,-170.99 406.03,-133.79 466.13,-123.5 500.9,-120.71"/>
<polygon fill="green" stroke="green" stroke-width="0.2" points="501.48,-124.18 511.23,-120.04 501.03,-117.19 501.48,-124.18"/>
</g>
<!-- 154&#45;&gt;17930 -->
<g id="edge58" class="edge">
<title>154&#45;&gt;17930</title>
<path fill="none" stroke="green" stroke-width="0.3" d="M505.91,-506.38C464.14,-504.86 380.5,-495.01 342.64,-442.4 272.18,-344.49 301.06,-284.59 341.64,-170.99 357.24,-127.33 393.43,-87.57 420.48,-62.31"/>
<polygon fill="green" stroke="green" stroke-width="0.3" points="423.17,-64.6 428.2,-55.27 418.45,-59.43 423.17,-64.6"/>
</g>
<!-- 18622 -->
<g id="node18" class="node">
<title>18622</title>
<ellipse fill="white" stroke="black" cx="526.64" cy="-306.7" rx="33.47" ry="33.47"/>
<text text-anchor="middle" x="526.64" y="-304.5" font-family="Times,serif" font-size="9.00">18622</text>
</g>
<!-- 154&#45;&gt;18622 -->
<g id="edge67" class="edge">
<title>154&#45;&gt;18622</title>
<path fill="none" stroke="green" stroke-width="0.3" d="M530.16,-482.42C529.5,-449.67 528.3,-390.38 527.49,-350.05"/>
<polygon fill="green" stroke="green" stroke-width="0.3" points="530.99,-349.9 527.29,-339.97 523.99,-350.04 530.99,-349.9"/>
</g>
<!-- 6975 -->
<g id="node19" class="node">
<title>6975</title>
<ellipse fill="white" stroke="black" cx="137.64" cy="-306.7" rx="28.98" ry="28.98"/>
<text text-anchor="middle" x="137.64" y="-304.5" font-family="Times,serif" font-size="9.00">6975</text>
</g>
<!-- 154&#45;&gt;6975 -->
<g id="edge43" class="edge">
<title>154&#45;&gt;6975</title>
<path fill="none" stroke="red" stroke-width="0.17" stroke-dasharray="1,5" d="M505.72,-505.49C431.9,-502.31 216.49,-489.12 167.64,-442.4 141.93,-417.81 135.95,-376.43 135.46,-346"/>
<polygon fill="red" stroke="red" stroke-width="0.17" points="138.96,-345.76 135.5,-335.74 131.97,-345.73 138.96,-345.76"/>
</g>
<!-- 17738 -->
<g id="node20" class="node">
<title>17738</title>
<ellipse fill="white" stroke="black" cx="415.64" cy="-204.23" rx="33.47" ry="33.47"/>
<text text-anchor="middle" x="415.64" y="-202.03" font-family="Times,serif" font-size="9.00">17738</text>
</g>
<!-- 154&#45;&gt;17738 -->
<g id="edge55" class="edge">
<title>154&#45;&gt;17738</title>
<path fill="none" stroke="green" stroke-width="0.32" stroke-dasharray="1,5" d="M506.76,-500.45C478.26,-492.15 431.01,-474.38 403.64,-442.4 353.9,-384.27 348.65,-346.74 370.64,-273.46 374.37,-261.02 381.19,-248.75 388.41,-238.13"/>
<polygon fill="green" stroke="green" stroke-width="0.32" points="391.26,-240.15 394.23,-229.98 385.57,-236.08 391.26,-240.15"/>
</g>
<!-- 18767 -->
<g id="node22" class="node">
<title>18767</title>
<ellipse fill="white" stroke="black" cx="209.64" cy="-409.17" rx="33.47" ry="33.47"/>
<text text-anchor="middle" x="209.64" y="-406.97" font-family="Times,serif" font-size="9.00">18767</text>
</g>
<!-- 154&#45;&gt;18767 -->
<g id="edge70" class="edge">
<title>154&#45;&gt;18767</title>
<path fill="none" stroke="green" stroke-width="0.3" d="M506.08,-503.24C457.77,-496.47 347.62,-478.17 261.64,-442.4 256.17,-440.13 250.62,-437.31 245.28,-434.31"/>
<polygon fill="green" stroke="green" stroke-width="0.3" points="246.93,-431.22 236.55,-429.12 243.36,-437.24 246.93,-431.22"/>
</g>
<!-- 9943 -->
<g id="node23" class="node">
<title>9943</title>
<ellipse fill="white" stroke="black" cx="408.64" cy="-306.7" rx="28.98" ry="28.98"/>
<text text-anchor="middle" x="408.64" y="-304.5" font-family="Times,serif" font-size="9.00">9943</text>
</g>
<!-- 154&#45;&gt;9943 -->
<g id="edge51" class="edge">
<title>154&#45;&gt;9943</title>
<path fill="none" stroke="red" stroke-width="0.17" d="M507.15,-498.57C483.01,-489.23 446.37,-471.15 427.64,-442.4 408.98,-413.76 405.34,-374.45 405.71,-345.69"/>
<polygon fill="red" stroke="red" stroke-width="0.17" points="409.21,-345.71 406.01,-335.61 402.22,-345.5 409.21,-345.71"/>
</g>
<!-- 18402 -->
<g id="node25" class="node">
<title>18402</title>
<ellipse fill="white" stroke="black" cx="469.64" cy="-409.17" rx="33.47" ry="33.47"/>
<text text-anchor="middle" x="469.64" y="-406.97" font-family="Times,serif" font-size="9.00">18402</text>
</g>
<!-- 154&#45;&gt;18402 -->
<g id="edge64" class="edge">
<title>154&#45;&gt;18402</title>
<path fill="none" stroke="green" stroke-width="0.24" d="M517.7,-485.98C510.42,-474.49 501.1,-459.79 492.61,-446.41"/>
<polygon fill="green" stroke="green" stroke-width="0.24" points="495.5,-444.42 487.19,-437.84 489.58,-448.16 495.5,-444.42"/>
</g>
<!-- 155&#45;&gt;0 -->
<g id="edge33" class="edge">
<title>155&#45;&gt;0</title>
<path fill="none" stroke="green" stroke-width="0.32" stroke-dasharray="1,5" d="M784.78,-182.16C777.89,-169.92 769.21,-154.5 762.2,-142.05"/>
<polygon fill="green" stroke="green" stroke-width="0.32" points="765.18,-140.21 757.23,-133.21 759.08,-143.64 765.18,-140.21"/>
</g>
<!-- 155&#45;&gt;1 -->
<g id="edge34" class="edge">
<title>155&#45;&gt;1</title>
<path fill="none" stroke="green" stroke-width="0.22" d="M774.68,-192.31C743.08,-176.61 685.02,-147.76 652.44,-131.56"/>
<polygon fill="green" stroke="green" stroke-width="0.22" points="653.71,-128.28 643.2,-126.97 650.6,-134.55 653.71,-128.28"/>
</g>
<!-- 155&#45;&gt;2 -->
<g id="edge35" class="edge">
<title>155&#45;&gt;2</title>
<path fill="none" stroke="green" stroke-width="0.19" d="M771.94,-200.01C670.55,-186.78 286.7,-136.7 182.74,-123.14"/>
<polygon fill="green" stroke="green" stroke-width="0.19" points="183.15,-119.66 172.78,-121.84 182.24,-126.6 183.15,-119.66"/>
</g>
<!-- 155&#45;&gt;3 -->
<g id="edge36" class="edge">
<title>155&#45;&gt;3</title>
<path fill="none" stroke="green" stroke-width="0.19" stroke-dasharray="1,5" d="M773.24,-195.97C722.89,-180.34 604.67,-143.64 552.79,-127.54"/>
<polygon fill="green" stroke="green" stroke-width="0.19" points="553.64,-124.14 543.06,-124.52 551.57,-130.82 553.64,-124.14"/>
</g>
<!-- 18081 -->
<g id="node16" class="node">
<title>18081</title>
<ellipse fill="white" stroke="black" cx="217.64" cy="-204.23" rx="33.47" ry="33.47"/>
<text text-anchor="middle" x="217.64" y="-202.03" font-family="Times,serif" font-size="9.00">18081</text>
</g>
<!-- 18081&#45;&gt;1 -->
<g id="edge66" class="edge">
<title>18081&#45;&gt;1</title>
<path fill="none" stroke="green" stroke-width="0.22" d="M250.2,-196.45C281.75,-189.89 330.96,-179.69 373.64,-170.99 384.93,-168.69 540.44,-137.45 602.92,-124.9"/>
<polygon fill="green" stroke="green" stroke-width="0.22" points="603.67,-128.32 612.78,-122.92 602.29,-121.45 603.67,-128.32"/>
</g>
<!-- 18081&#45;&gt;2 -->
<g id="edge61" class="edge">
<title>18081&#45;&gt;2</title>
<path fill="none" stroke="red" stroke-width="0.17" stroke-dasharray="1,5" d="M198.34,-176.81C189.75,-165.05 179.78,-151.4 171.74,-140.4"/>
<polygon fill="red" stroke="red" stroke-width="0.17" points="174.5,-138.24 165.77,-132.23 168.84,-142.37 174.5,-138.24"/>
</g>
<!-- 1852&#45;&gt;2 -->
<g id="edge40" class="edge">
<title>1852&#45;&gt;2</title>
<path fill="none" stroke="green" stroke-width="0.34" stroke-dasharray="1,5" d="M886.42,-401.89C854.54,-394.94 801.03,-383.69 754.64,-375.93 694.94,-365.95 534.87,-373.71 484.64,-339.93 456.4,-320.94 471.43,-296.78 446.64,-273.46 420.29,-248.68 405.51,-254.58 373.64,-237.46 321.97,-209.71 311.25,-198.85 259.64,-170.99 232.78,-156.5 201.29,-141.05 180.26,-130.94"/>
<polygon fill="green" stroke="green" stroke-width="0.34" points="181.65,-127.73 171.12,-126.57 178.63,-134.04 181.65,-127.73"/>
</g>
<!-- 1852&#45;&gt;155 -->
<g id="edge46" class="edge">
<title>1852&#45;&gt;155</title>
<path fill="none" stroke="red" stroke-width="0.14" stroke-dasharray="1,5" d="M932.39,-386.02C952.61,-357.91 980,-308.82 956.64,-273.46 928.95,-231.55 869.68,-215.29 831.57,-209.05"/>
<polygon fill="red" stroke="red" stroke-width="0.14" points="831.83,-205.55 821.42,-207.54 830.8,-212.48 831.83,-205.55"/>
</g>
<!-- 18255 -->
<g id="node21" class="node">
<title>18255</title>
<ellipse fill="white" stroke="black" cx="914.64" cy="-306.7" rx="33.47" ry="33.47"/>
<text text-anchor="middle" x="914.64" y="-304.5" font-family="Times,serif" font-size="9.00">18255</text>
</g>
<!-- 1852&#45;&gt;18255 -->
<g id="edge62" class="edge">
<title>1852&#45;&gt;18255</title>
<path fill="none" stroke="green" stroke-width="0.25" stroke-dasharray="1,5" d="M914.64,-379.91C914.64,-370.69 914.64,-360.25 914.64,-350.22"/>
<polygon fill="green" stroke="green" stroke-width="0.25" points="918.14,-349.99 914.64,-339.99 911.14,-349.99 918.14,-349.99"/>
</g>
<!-- 18622&#45;&gt;1 -->
<g id="edge68" class="edge">
<title>18622&#45;&gt;1</title>
<path fill="none" stroke="red" stroke-width="0.21" stroke-dasharray="1,5" d="M542.35,-277.05C562.6,-240.14 597.39,-176.71 616.01,-142.76"/>
<polygon fill="red" stroke="red" stroke-width="0.21" points="619.28,-144.08 621.02,-133.62 613.14,-140.71 619.28,-144.08"/>
</g>
<!-- 6975&#45;&gt;2 -->
<g id="edge44" class="edge">
<title>6975&#45;&gt;2</title>
<path fill="none" stroke="green" stroke-width="0.23" d="M136.82,-277.66C136.45,-250.29 137.05,-207.54 142.64,-170.99 144.01,-162.05 146.38,-152.43 148.79,-143.97"/>
<polygon fill="green" stroke="green" stroke-width="0.23" points="152.16,-144.93 151.69,-134.34 145.46,-142.91 152.16,-144.93"/>
</g>
<!-- 6975&#45;&gt;18081 -->
<g id="edge60" class="edge">
<title>6975&#45;&gt;18081</title>
<path fill="none" stroke="green" stroke-width="0.28" d="M155.39,-283.4C165.88,-270.23 179.36,-253.3 191.09,-238.57"/>
<polygon fill="green" stroke="green" stroke-width="0.28" points="193.91,-240.65 197.4,-230.65 188.43,-236.29 193.91,-240.65"/>
</g>
<!-- 17738&#45;&gt;3 -->
<g id="edge56" class="edge">
<title>17738&#45;&gt;3</title>
<path fill="none" stroke="green" stroke-width="0.13" d="M441.9,-183.65C461.68,-168.91 488.43,-148.96 506.77,-135.29"/>
<polygon fill="green" stroke="green" stroke-width="0.13" points="509.1,-137.92 515.02,-129.14 504.91,-132.31 509.1,-137.92"/>
</g>
<!-- 18255&#45;&gt;155 -->
<g id="edge63" class="edge">
<title>18255&#45;&gt;155</title>
<path fill="none" stroke="green" stroke-width="0.2" stroke-dasharray="1,5" d="M889.61,-284.39C869.99,-267.68 842.77,-244.5 822.85,-227.54"/>
<polygon fill="green" stroke="green" stroke-width="0.2" points="824.95,-224.74 815.07,-220.92 820.41,-230.07 824.95,-224.74"/>
</g>
<!-- 18767&#45;&gt;6975 -->
<g id="edge71" class="edge">
<title>18767&#45;&gt;6975</title>
<path fill="none" stroke="red" stroke-width="0.17" d="M190.72,-381.77C181.34,-368.67 169.94,-352.76 160.11,-339.05"/>
<polygon fill="red" stroke="red" stroke-width="0.17" points="162.9,-336.93 154.23,-330.84 157.21,-341.01 162.9,-336.93"/>
</g>
<!-- 9943&#45;&gt;0 -->
<g id="edge54" class="edge">
<title>9943&#45;&gt;0</title>
<path fill="none" stroke="red" stroke-width="0.39" stroke-dasharray="1,5" d="M433.85,-291.58C478.03,-266.89 572.39,-214.35 652.64,-170.99 677.73,-157.44 706.65,-142.21 726.33,-131.9"/>
<polygon fill="red" stroke="red" stroke-width="0.39" points="728.22,-134.86 735.46,-127.12 724.98,-128.66 728.22,-134.86"/>
</g>
<!-- 9943&#45;&gt;3 -->
<g id="edge52" class="edge">
<title>9943&#45;&gt;3</title>
<path fill="none" stroke="red" stroke-width="0.2" d="M425.7,-282.99C435.36,-269.87 447.49,-252.96 457.64,-237.46 478.82,-205.11 501.33,-166.36 514.94,-142.39"/>
<polygon fill="red" stroke="red" stroke-width="0.2" points="518.16,-143.81 520.03,-133.38 512.07,-140.37 518.16,-143.81"/>
</g>
<!-- 9698&#45;&gt;155 -->
<g id="edge59" class="edge">
<title>9698&#45;&gt;155</title>
<path fill="none" stroke="red" stroke-width="0.22" stroke-dasharray="1,5" d="M869.9,-478.18C865.04,-433.76 853.13,-345.17 829.64,-273.46 825.37,-260.44 819.12,-246.72 813.19,-235.02"/>
<polygon fill="red" stroke="red" stroke-width="0.22" points="816.29,-233.38 808.56,-226.13 810.08,-236.61 816.29,-233.38"/>
</g>
<!-- 9698&#45;&gt;1852 -->
<g id="edge49" class="edge">
<title>9698&#45;&gt;1852</title>
<path fill="none" stroke="red" stroke-width="0.24" d="M883.89,-480.6C888.6,-469.82 894.15,-457.11 899.23,-445.48"/>
<polygon fill="red" stroke="red" stroke-width="0.24" points="902.56,-446.59 903.35,-436.02 896.14,-443.79 902.56,-446.59"/>
</g>
<!-- 18402&#45;&gt;9943 -->
<g id="edge65" class="edge">
<title>18402&#45;&gt;9943</title>
<path fill="none" stroke="red" stroke-width="0.2" d="M452.81,-380.45C445.3,-368.08 436.4,-353.42 428.57,-340.52"/>
<polygon fill="red" stroke="red" stroke-width="0.2" points="431.52,-338.64 423.34,-331.91 425.54,-342.27 431.52,-338.64"/>
</g>
<!-- 1151&#45;&gt;1 -->
<g id="edge38" class="edge">
<title>1151&#45;&gt;1</title>
<path fill="none" stroke="green" stroke-width="0.18" d="M1163.74,-183.92C1157.13,-178.86 1149.48,-173.99 1141.64,-170.99 967.85,-104.65 909.28,-157.61 724.64,-134.99 700.86,-132.08 673.94,-127.71 654.67,-124.39"/>
<polygon fill="green" stroke="green" stroke-width="0.18" points="655.01,-120.89 644.56,-122.62 653.81,-127.79 655.01,-120.89"/>
</g>
</g>
</svg>
