<?xml version="1.0" encoding="UTF-8" standalone="no"?>
<!DOCTYPE svg PUBLIC "-//W3C//DTD SVG 1.1//EN"
 "http://www.w3.org/Graphics/SVG/1.1/DTD/svg11.dtd">
<!-- Generated by graphviz version 2.43.0 (0)
 -->
<!-- Title: %3 Pages: 1 -->
<svg width="358pt" height="1017pt"
 viewBox="0.00 0.00 357.50 1016.74" xmlns="http://www.w3.org/2000/svg" xmlns:xlink="http://www.w3.org/1999/xlink">
<g id="graph0" class="graph" transform="scale(1 1) rotate(0) translate(4 1012.74)">
<title>%3</title>
<polygon fill="white" stroke="transparent" points="-4,4 -4,-1012.74 353.5,-1012.74 353.5,4 -4,4"/>
<!-- input -->
<g id="node1" class="node">
<title>input</title>
<polygon fill="lightgray" stroke="black" points="294.5,-1008.74 253.5,-1008.74 253.5,-990.74 294.5,-990.74 294.5,-1008.74"/>
<text text-anchor="middle" x="274" y="-997.54" font-family="Times,serif" font-size="9.00">input</text>
</g>
<!-- output -->
<g id="node3" class="node">
<title>output</title>
<ellipse fill="lightblue" stroke="black" cx="145" cy="-127.22" rx="33.47" ry="33.47"/>
<text text-anchor="middle" x="145" y="-125.02" font-family="Times,serif" font-size="9.00">output</text>
</g>
<!-- input&#45;&gt;output -->
<g id="edge1" class="edge">
<title>input&#45;&gt;output</title>
<path fill="none" stroke="green" stroke-width="1.21" d="M276.98,-990.68C285.94,-965.7 312,-887.28 312,-820.04 312,-820.04 312,-820.04 312,-314.18 312,-237.38 232.18,-177.89 182.91,-148.48"/>
<polygon fill="green" stroke="green" stroke-width="1.21" points="184.49,-145.35 174.09,-143.34 180.97,-151.4 184.49,-145.35"/>
</g>
<!-- 18690 -->
<g id="node7" class="node">
<title>18690</title>
<ellipse fill="white" stroke="black" cx="164" cy="-921.51" rx="33.47" ry="33.47"/>
<text text-anchor="middle" x="164" y="-919.31" font-family="Times,serif" font-size="9.00">18690</text>
</g>
<!-- input&#45;&gt;18690 -->
<g id="edge16" class="edge">
<title>input&#45;&gt;18690</title>
<path fill="none" stroke="green" stroke-width="0.38" d="M262.23,-990.58C247.35,-980.27 221.08,-962.07 199.45,-947.07"/>
<polygon fill="green" stroke="green" stroke-width="0.38" points="201.33,-944.12 191.12,-941.3 197.35,-949.87 201.33,-944.12"/>
</g>
<!-- 8934 -->
<g id="node9" class="node">
<title>8934</title>
<ellipse fill="white" stroke="black" cx="145" cy="-413.41" rx="28.98" ry="28.98"/>
<text text-anchor="middle" x="145" y="-411.21" font-family="Times,serif" font-size="9.00">8934</text>
</g>
<!-- input&#45;&gt;8934 -->
<g id="edge5" class="edge">
<title>input&#45;&gt;8934</title>
<path fill="none" stroke="red" stroke-width="0.94" d="M274,-990.55C274,-965.2 274,-885.81 274,-820.04 274,-820.04 274,-820.04 274,-613.1 274,-540.72 213.04,-473.96 174.93,-439.3"/>
<polygon fill="red" stroke="red" stroke-width="0.94" points="176.97,-436.43 167.18,-432.39 172.32,-441.66 176.97,-436.43"/>
</g>
<!-- gate -->
<g id="node2" class="node">
<title>gate</title>
<polygon fill="lightgray" stroke="black" points="349.5,-1008.74 312.5,-1008.74 312.5,-990.74 349.5,-990.74 349.5,-1008.74"/>
<text text-anchor="middle" x="331" y="-997.54" font-family="Times,serif" font-size="9.00">gate</text>
</g>
<!-- 5630 -->
<g id="node13" class="node">
<title>5630</title>
<ellipse fill="white" stroke="black" cx="145" cy="-28.99" rx="28.98" ry="28.98"/>
<text text-anchor="middle" x="145" y="-26.79" font-family="Times,serif" font-size="9.00">5630</text>
</g>
<!-- output&#45;&gt;5630 -->
<g id="edge3" class="edge">
<title>output&#45;&gt;5630</title>
<path fill="none" stroke="red" stroke-width="0.1" d="M138.61,-94.44C138.22,-85.86 138.15,-76.5 138.39,-67.64"/>
<polygon fill="red" stroke="red" stroke-width="0.1" points="141.9,-67.68 138.83,-57.53 134.9,-67.37 141.9,-67.68"/>
</g>
<!-- 13345 -->
<g id="node4" class="node">
<title>13345</title>
<ellipse fill="white" stroke="black" cx="95" cy="-819.04" rx="33.47" ry="33.47"/>
<text text-anchor="middle" x="95" y="-816.84" font-family="Times,serif" font-size="9.00">13345</text>
</g>
<!-- 16995 -->
<g id="node6" class="node">
<title>16995</title>
<ellipse fill="white" stroke="black" cx="145" cy="-511.63" rx="33.47" ry="33.47"/>
<text text-anchor="middle" x="145" y="-509.43" font-family="Times,serif" font-size="9.00">16995</text>
</g>
<!-- 13345&#45;&gt;16995 -->
<g id="edge19" class="edge">
<title>13345&#45;&gt;16995</title>
<path fill="none" stroke="red" stroke-width="0.18" d="M88.91,-786.36C81.32,-739.95 71.95,-651.31 95,-580.87 99.33,-567.63 107.31,-554.84 115.65,-543.98"/>
<polygon fill="red" stroke="red" stroke-width="0.18" points="118.47,-546.05 122.04,-536.07 113.03,-541.65 118.47,-546.05"/>
</g>
<!-- 13157 -->
<g id="node8" class="node">
<title>13157</title>
<ellipse fill="white" stroke="black" cx="84" cy="-315.18" rx="33.47" ry="33.47"/>
<text text-anchor="middle" x="84" y="-312.98" font-family="Times,serif" font-size="9.00">13157</text>
</g>
<!-- 13345&#45;&gt;13157 -->
<g id="edge11" class="edge">
<title>13345&#45;&gt;13157</title>
<path fill="none" stroke="red" stroke-width="0.3" d="M74.39,-792.9C46.45,-756.21 0,-684.73 0,-615.1 0,-615.1 0,-615.1 0,-510.63 0,-450.71 34.03,-388.3 58.77,-350.83"/>
<polygon fill="red" stroke="red" stroke-width="0.3" points="61.82,-352.57 64.52,-342.32 56.02,-348.65 61.82,-352.57"/>
</g>
<!-- 14918 -->
<g id="node10" class="node">
<title>14918</title>
<ellipse fill="white" stroke="black" cx="175" cy="-716.57" rx="33.47" ry="33.47"/>
<text text-anchor="middle" x="175" y="-714.37" font-family="Times,serif" font-size="9.00">14918</text>
</g>
<!-- 13345&#45;&gt;14918 -->
<g id="edge13" class="edge">
<title>13345&#45;&gt;14918</title>
<path fill="none" stroke="green" stroke-width="0.94" d="M115.39,-792.42C125.36,-779.91 137.49,-764.68 148.19,-751.24"/>
<polygon fill="green" stroke="green" stroke-width="0.94" points="151.15,-753.14 154.64,-743.13 145.68,-748.78 151.15,-753.14"/>
</g>
<!-- 9666 -->
<g id="node5" class="node">
<title>9666</title>
<ellipse fill="white" stroke="black" cx="133" cy="-614.1" rx="28.98" ry="28.98"/>
<text text-anchor="middle" x="133" y="-611.9" font-family="Times,serif" font-size="9.00">9666</text>
</g>
<!-- 9666&#45;&gt;13345 -->
<g id="edge15" class="edge">
<title>9666&#45;&gt;13345</title>
<path fill="none" stroke="red" stroke-width="0.25" d="M127.84,-642.68C121.39,-677.12 110.29,-736.36 102.81,-776.35"/>
<polygon fill="red" stroke="red" stroke-width="0.25" points="99.34,-775.86 100.94,-786.33 106.22,-777.14 99.34,-775.86"/>
</g>
<!-- 16995&#45;&gt;8934 -->
<g id="edge14" class="edge">
<title>16995&#45;&gt;8934</title>
<path fill="none" stroke="green" stroke-width="0.1" d="M145,-478.32C145,-470.09 145,-461.17 145,-452.68"/>
<polygon fill="green" stroke="green" stroke-width="0.1" points="148.5,-452.6 145,-442.6 141.5,-452.6 148.5,-452.6"/>
</g>
<!-- 18690&#45;&gt;13345 -->
<g id="edge23" class="edge">
<title>18690&#45;&gt;13345</title>
<path fill="none" stroke="green" stroke-width="0.14" d="M145.51,-893.58C137.47,-881.87 127.93,-867.99 119.32,-855.45"/>
<polygon fill="green" stroke="green" stroke-width="0.14" points="122.09,-853.3 113.54,-847.04 116.32,-857.26 122.09,-853.3"/>
</g>
<!-- 13157&#45;&gt;5630 -->
<g id="edge20" class="edge">
<title>13157&#45;&gt;5630</title>
<path fill="none" stroke="green" stroke-width="0.38" d="M81.93,-281.81C80.2,-237.94 80.9,-157.8 103,-93.98 107.15,-82.01 114.03,-70.09 121.03,-59.83"/>
<polygon fill="green" stroke="green" stroke-width="0.38" points="123.92,-61.81 126.89,-51.64 118.22,-57.74 123.92,-61.81"/>
</g>
<!-- 927 -->
<g id="node14" class="node">
<title>927</title>
<ellipse fill="white" stroke="black" cx="145" cy="-221.2" rx="25" ry="25"/>
<text text-anchor="middle" x="145" y="-219" font-family="Times,serif" font-size="9.00">927</text>
</g>
<!-- 13157&#45;&gt;927 -->
<g id="edge9" class="edge">
<title>13157&#45;&gt;927</title>
<path fill="none" stroke="red" stroke-width="0.22" stroke-dasharray="1,5" d="M101.97,-287.08C109.53,-275.68 118.34,-262.4 126.01,-250.84"/>
<polygon fill="red" stroke="red" stroke-width="0.22" points="129,-252.66 131.61,-242.39 123.16,-248.79 129,-252.66"/>
</g>
<!-- 8934&#45;&gt;13345 -->
<g id="edge10" class="edge">
<title>8934&#45;&gt;13345</title>
<path fill="none" stroke="red" stroke-width="0.44" d="M127.57,-436.7C119.07,-448.52 109.34,-463.62 103,-478.4 55.2,-589.75 61.42,-629.63 77,-749.8 78.17,-758.81 80.17,-768.32 82.42,-777.28"/>
<polygon fill="red" stroke="red" stroke-width="0.44" points="79.08,-778.36 85.04,-787.12 85.85,-776.56 79.08,-778.36"/>
</g>
<!-- 8934&#45;&gt;13157 -->
<g id="edge8" class="edge">
<title>8934&#45;&gt;13157</title>
<path fill="none" stroke="red" stroke-width="0.11" stroke-dasharray="1,5" d="M129.92,-388.62C122.99,-377.69 114.63,-364.49 106.94,-352.37"/>
<polygon fill="red" stroke="red" stroke-width="0.11" points="109.81,-350.36 101.5,-343.78 103.9,-354.1 109.81,-350.36"/>
</g>
<!-- 22513 -->
<g id="node11" class="node">
<title>22513</title>
<ellipse fill="white" stroke="black" cx="206" cy="-315.18" rx="33.47" ry="33.47"/>
<text text-anchor="middle" x="206" y="-312.98" font-family="Times,serif" font-size="9.00">22513</text>
</g>
<!-- 8934&#45;&gt;22513 -->
<g id="edge21" class="edge">
<title>8934&#45;&gt;22513</title>
<path fill="none" stroke="green" stroke-width="0.3" d="M160.08,-388.62C167.01,-377.69 175.37,-364.49 183.06,-352.37"/>
<polygon fill="green" stroke="green" stroke-width="0.3" points="186.1,-354.1 188.5,-343.78 180.19,-350.36 186.1,-354.1"/>
</g>
<!-- 8934&#45;&gt;927 -->
<g id="edge6" class="edge">
<title>8934&#45;&gt;927</title>
<path fill="none" stroke="green" stroke-width="1.11" stroke-dasharray="1,5" d="M145,-384.34C145,-350.29 145,-292.92 145,-256.34"/>
<polygon fill="green" stroke="green" stroke-width="1.11" points="148.5,-256.16 145,-246.16 141.5,-256.16 148.5,-256.16"/>
</g>
<!-- 14918&#45;&gt;9666 -->
<g id="edge17" class="edge">
<title>14918&#45;&gt;9666</title>
<path fill="none" stroke="red" stroke-width="0.26" d="M162.51,-685.7C157.9,-674.67 152.63,-662.07 147.84,-650.59"/>
<polygon fill="red" stroke="red" stroke-width="0.26" points="151.03,-649.15 143.94,-641.28 144.57,-651.85 151.03,-649.15"/>
</g>
<!-- 13523 -->
<g id="node12" class="node">
<title>13523</title>
<ellipse fill="white" stroke="black" cx="213" cy="-614.1" rx="33.47" ry="33.47"/>
<text text-anchor="middle" x="213" y="-611.9" font-family="Times,serif" font-size="9.00">13523</text>
</g>
<!-- 14918&#45;&gt;13523 -->
<g id="edge12" class="edge">
<title>14918&#45;&gt;13523</title>
<path fill="none" stroke="red" stroke-width="0.14" d="M186.5,-685.15C190.11,-675.61 194.15,-664.93 197.97,-654.85"/>
<polygon fill="red" stroke="red" stroke-width="0.14" points="201.27,-656.01 201.53,-645.41 194.72,-653.53 201.27,-656.01"/>
</g>
<!-- 22513&#45;&gt;927 -->
<g id="edge22" class="edge">
<title>22513&#45;&gt;927</title>
<path fill="none" stroke="green" stroke-width="1.21" d="M188.03,-287.08C180.47,-275.68 171.66,-262.4 163.99,-250.84"/>
<polygon fill="green" stroke="green" stroke-width="1.21" points="166.84,-248.79 158.39,-242.39 161,-252.66 166.84,-248.79"/>
</g>
<!-- 13523&#45;&gt;16995 -->
<g id="edge18" class="edge">
<title>13523&#45;&gt;16995</title>
<path fill="none" stroke="red" stroke-width="0.2" d="M194.78,-586.18C186.85,-574.47 177.45,-560.58 168.97,-548.05"/>
<polygon fill="red" stroke="red" stroke-width="0.2" points="171.78,-545.95 163.27,-539.63 165.98,-549.87 171.78,-545.95"/>
</g>
<!-- 5630&#45;&gt;output -->
<g id="edge4" class="edge">
<title>5630&#45;&gt;output</title>
<path fill="none" stroke="red" stroke-width="1.86" d="M151.17,-57.53C151.67,-65.9 151.85,-75.29 151.7,-84.38"/>
<polygon fill="red" stroke="red" stroke-width="1.86" points="148.2,-84.34 151.39,-94.44 155.2,-84.55 148.2,-84.34"/>
</g>
<!-- 927&#45;&gt;output -->
<g id="edge2" class="edge">
<title>927&#45;&gt;output</title>
<path fill="none" stroke="green" stroke-width="1.47" d="M145,-196.03C145,-188.23 145,-179.33 145,-170.61"/>
<polygon fill="green" stroke="green" stroke-width="1.47" points="148.5,-170.53 145,-160.53 141.5,-170.53 148.5,-170.53"/>
</g>
<!-- 927&#45;&gt;927 -->
<g id="edge7" class="edge">
<title>927&#45;&gt;927</title>
<path fill="none" stroke="green" stroke-width="1.22" stroke-dasharray="1,5" d="M164.34,-237.23C176.34,-241.1 187.75,-235.75 187.75,-221.2 187.75,-210.85 181.98,-205.16 174.34,-204.12"/>
<polygon fill="green" stroke="green" stroke-width="1.22" points="173.93,-200.65 164.34,-205.17 174.65,-207.61 173.93,-200.65"/>
</g>
</g>
</svg>
