<?xml version="1.0" encoding="UTF-8" standalone="no"?>
<!DOCTYPE svg PUBLIC "-//W3C//DTD SVG 1.1//EN"
 "http://www.w3.org/Graphics/SVG/1.1/DTD/svg11.dtd">
<!-- Generated by graphviz version 2.43.0 (0)
 -->
<!-- Title: %3 Pages: 1 -->
<svg width="1247pt" height="641pt"
 viewBox="0.00 0.00 1246.82 640.81" xmlns="http://www.w3.org/2000/svg" xmlns:xlink="http://www.w3.org/1999/xlink">
<g id="graph0" class="graph" transform="scale(1 1) rotate(0) translate(4 636.81)">
<title>%3</title>
<polygon fill="white" stroke="transparent" points="-4,4 -4,-636.81 1242.82,-636.81 1242.82,4 -4,4"/>
<!-- &#45;1 -->
<g id="node1" class="node">
<title>&#45;1</title>
<polygon fill="lightgray" stroke="black" points="105,-452.11 79,-452.11 79,-434.11 105,-434.11 105,-452.11"/>
<text text-anchor="middle" x="92" y="-440.91" font-family="Times,serif" font-size="9.00">&#45;1</text>
</g>
<!-- 0 -->
<g id="node9" class="node">
<title>0</title>
<ellipse fill="lightblue" stroke="black" cx="557" cy="-238.17" rx="16.03" ry="16.03"/>
<text text-anchor="middle" x="557" y="-235.97" font-family="Times,serif" font-size="9.00">0</text>
</g>
<!-- &#45;1&#45;&gt;0 -->
<g id="edge1" class="edge">
<title>&#45;1&#45;&gt;0</title>
<path fill="none" stroke="red" stroke-width="0.3" stroke-dasharray="1,5" d="M94.59,-434.1C102.71,-410.37 130.12,-339.99 179,-307.4 237.31,-268.54 454.64,-247.5 530.59,-241.21"/>
<polygon fill="red" stroke="red" stroke-width="0.3" points="531.05,-244.69 540.74,-240.39 530.49,-237.71 531.05,-244.69"/>
</g>
<!-- 1 -->
<g id="node10" class="node">
<title>1</title>
<ellipse fill="lightblue" stroke="black" cx="1048" cy="-340.64" rx="16.03" ry="16.03"/>
<text text-anchor="middle" x="1048" y="-338.44" font-family="Times,serif" font-size="9.00">1</text>
</g>
<!-- &#45;1&#45;&gt;1 -->
<g id="edge2" class="edge">
<title>&#45;1&#45;&gt;1</title>
<path fill="none" stroke="red" stroke-width="0.15" stroke-dasharray="1,5" d="M105.11,-440.04C140.5,-434.53 240.99,-419.23 325,-409.87 513.84,-388.85 561.87,-392.12 751,-373.87 851.25,-364.2 970.3,-350.65 1021.95,-344.68"/>
<polygon fill="red" stroke="red" stroke-width="0.15" points="1022.39,-348.15 1031.92,-343.52 1021.58,-341.2 1022.39,-348.15"/>
</g>
<!-- 12738 -->
<g id="node12" class="node">
<title>12738</title>
<ellipse fill="white" stroke="black" cx="423" cy="-33.23" rx="33.47" ry="33.47"/>
<text text-anchor="middle" x="423" y="-31.03" font-family="Times,serif" font-size="9.00">12738</text>
</g>
<!-- &#45;1&#45;&gt;12738 -->
<g id="edge27" class="edge">
<title>&#45;1&#45;&gt;12738</title>
<path fill="none" stroke="green" stroke-width="0.37" d="M78.93,-434.67C61.44,-423.87 31.23,-402.04 19,-373.87 7.24,-346.77 5.15,-333.5 19,-307.4 97.39,-159.76 295.16,-77.37 381.55,-47.4"/>
<polygon fill="green" stroke="green" stroke-width="0.37" points="382.94,-50.63 391.27,-44.09 380.68,-44 382.94,-50.63"/>
</g>
<!-- 15869 -->
<g id="node26" class="node">
<title>15869</title>
<ellipse fill="white" stroke="black" cx="61" cy="-340.64" rx="33.47" ry="33.47"/>
<text text-anchor="middle" x="61" y="-338.44" font-family="Times,serif" font-size="9.00">15869</text>
</g>
<!-- &#45;1&#45;&gt;15869 -->
<g id="edge30" class="edge">
<title>&#45;1&#45;&gt;15869</title>
<path fill="none" stroke="red" stroke-width="0.28" d="M89.46,-433.88C85.99,-422.63 79.51,-401.64 73.62,-382.52"/>
<polygon fill="red" stroke="red" stroke-width="0.28" points="76.9,-381.28 70.6,-372.76 70.21,-383.35 76.9,-381.28"/>
</g>
<!-- &#45;2 -->
<g id="node2" class="node">
<title>&#45;2</title>
<polygon fill="lightgray" stroke="black" points="360,-452.11 334,-452.11 334,-434.11 360,-434.11 360,-452.11"/>
<text text-anchor="middle" x="347" y="-440.91" font-family="Times,serif" font-size="9.00">&#45;2</text>
</g>
<!-- &#45;2&#45;&gt;0 -->
<g id="edge3" class="edge">
<title>&#45;2&#45;&gt;0</title>
<path fill="none" stroke="green" stroke-width="0.27" d="M359.13,-434.09C376.42,-422.29 408.54,-398.9 431,-373.87 454.5,-347.69 450.58,-333.66 474,-307.4 492.51,-286.66 517.59,-266.95 535.33,-254.09"/>
<polygon fill="green" stroke="green" stroke-width="0.27" points="537.74,-256.67 543.86,-248.02 533.68,-250.97 537.74,-256.67"/>
</g>
<!-- &#45;2&#45;&gt;1 -->
<g id="edge4" class="edge">
<title>&#45;2&#45;&gt;1</title>
<path fill="none" stroke="green" stroke-width="0.14" stroke-dasharray="1,5" d="M360.07,-440.23C443.86,-428.22 905.85,-362.01 1021.66,-345.41"/>
<polygon fill="green" stroke="green" stroke-width="0.14" points="1022.36,-348.85 1031.77,-343.96 1021.37,-341.92 1022.36,-348.85"/>
</g>
<!-- 2 -->
<g id="node11" class="node">
<title>2</title>
<ellipse fill="lightblue" stroke="black" cx="884" cy="-135.7" rx="16.03" ry="16.03"/>
<text text-anchor="middle" x="884" y="-133.5" font-family="Times,serif" font-size="9.00">2</text>
</g>
<!-- &#45;2&#45;&gt;2 -->
<g id="edge5" class="edge">
<title>&#45;2&#45;&gt;2</title>
<path fill="none" stroke="green" stroke-width="0.15" stroke-dasharray="1,5" d="M333.94,-441.44C301.09,-438.96 215.04,-427.41 179,-373.87 162.5,-349.37 161.26,-331.03 179,-307.4 263.62,-194.73 739.01,-148.61 857.33,-138.78"/>
<polygon fill="green" stroke="green" stroke-width="0.15" points="857.96,-142.24 867.64,-137.94 857.39,-135.26 857.96,-142.24"/>
</g>
<!-- 18754 -->
<g id="node13" class="node">
<title>18754</title>
<ellipse fill="white" stroke="black" cx="305" cy="-340.64" rx="33.47" ry="33.47"/>
<text text-anchor="middle" x="305" y="-338.44" font-family="Times,serif" font-size="9.00">18754</text>
</g>
<!-- &#45;2&#45;&gt;18754 -->
<g id="edge36" class="edge">
<title>&#45;2&#45;&gt;18754</title>
<path fill="none" stroke="red" stroke-width="0.27" d="M343.56,-433.88C338.75,-422.37 329.67,-400.65 321.53,-381.18"/>
<polygon fill="red" stroke="red" stroke-width="0.27" points="324.72,-379.73 317.63,-371.86 318.26,-382.43 324.72,-379.73"/>
</g>
<!-- 19401 -->
<g id="node16" class="node">
<title>19401</title>
<ellipse fill="white" stroke="black" cx="221" cy="-340.64" rx="33.47" ry="33.47"/>
<text text-anchor="middle" x="221" y="-338.44" font-family="Times,serif" font-size="9.00">19401</text>
</g>
<!-- &#45;2&#45;&gt;19401 -->
<g id="edge37" class="edge">
<title>&#45;2&#45;&gt;19401</title>
<path fill="none" stroke="green" stroke-width="0.24" stroke-dasharray="1,5" d="M336.69,-433.88C319.01,-419.78 282.15,-390.4 254.77,-368.57"/>
<polygon fill="green" stroke="green" stroke-width="0.24" points="256.61,-365.55 246.61,-362.06 252.24,-371.03 256.61,-365.55"/>
</g>
<!-- 25078 -->
<g id="node25" class="node">
<title>25078</title>
<ellipse fill="white" stroke="black" cx="389" cy="-340.64" rx="33.47" ry="33.47"/>
<text text-anchor="middle" x="389" y="-338.44" font-family="Times,serif" font-size="9.00">25078</text>
</g>
<!-- &#45;2&#45;&gt;25078 -->
<g id="edge51" class="edge">
<title>&#45;2&#45;&gt;25078</title>
<path fill="none" stroke="green" stroke-width="0.39" d="M350.44,-433.88C355.25,-422.37 364.33,-400.65 372.47,-381.18"/>
<polygon fill="green" stroke="green" stroke-width="0.39" points="375.74,-382.43 376.37,-371.86 369.28,-379.73 375.74,-382.43"/>
</g>
<!-- &#45;3 -->
<g id="node3" class="node">
<title>&#45;3</title>
<polygon fill="lightgray" stroke="black" points="771,-554.57 745,-554.57 745,-536.57 771,-536.57 771,-554.57"/>
<text text-anchor="middle" x="758" y="-543.37" font-family="Times,serif" font-size="9.00">&#45;3</text>
</g>
<!-- &#45;3&#45;&gt;0 -->
<g id="edge6" class="edge">
<title>&#45;3&#45;&gt;0</title>
<path fill="none" stroke="green" stroke-width="0.15" d="M744.77,-539.13C705.1,-521.97 587.34,-464.72 545,-373.87 528.38,-338.21 538.66,-291.51 547.75,-263.51"/>
<polygon fill="green" stroke="green" stroke-width="0.15" points="551.16,-264.35 551.11,-253.76 544.54,-262.07 551.16,-264.35"/>
</g>
<!-- &#45;3&#45;&gt;1 -->
<g id="edge7" class="edge">
<title>&#45;3&#45;&gt;1</title>
<path fill="none" stroke="green" stroke-width="0.19" stroke-dasharray="1,5" d="M771.15,-540.6C812.61,-528.01 938.65,-489.01 953,-476.34 977.72,-454.51 967.4,-437.11 986,-409.87 998.68,-391.31 1016.1,-372.58 1029.25,-359.45"/>
<polygon fill="green" stroke="green" stroke-width="0.19" points="1031.74,-361.91 1036.43,-352.41 1026.84,-356.91 1031.74,-361.91"/>
</g>
<!-- &#45;3&#45;&gt;2 -->
<g id="edge8" class="edge">
<title>&#45;3&#45;&gt;2</title>
<path fill="none" stroke="red" stroke-width="0.22" d="M760.52,-536.43C775.39,-488.29 851.94,-240.47 876.45,-161.15"/>
<polygon fill="red" stroke="red" stroke-width="0.22" points="879.81,-162.11 879.42,-151.52 873.13,-160.04 879.81,-162.11"/>
</g>
<!-- 17742 -->
<g id="node17" class="node">
<title>17742</title>
<ellipse fill="white" stroke="black" cx="709" cy="-443.11" rx="33.47" ry="33.47"/>
<text text-anchor="middle" x="709" y="-440.91" font-family="Times,serif" font-size="9.00">17742</text>
</g>
<!-- &#45;3&#45;&gt;17742 -->
<g id="edge33" class="edge">
<title>&#45;3&#45;&gt;17742</title>
<path fill="none" stroke="green" stroke-width="0.63" d="M753.99,-536.35C748.27,-524.62 737.38,-502.31 727.76,-482.56"/>
<polygon fill="green" stroke="green" stroke-width="0.63" points="730.83,-480.88 723.3,-473.43 724.54,-483.95 730.83,-480.88"/>
</g>
<!-- &#45;4 -->
<g id="node4" class="node">
<title>&#45;4</title>
<polygon fill="lightgray" stroke="black" points="944,-452.11 918,-452.11 918,-434.11 944,-434.11 944,-452.11"/>
<text text-anchor="middle" x="931" y="-440.91" font-family="Times,serif" font-size="9.00">&#45;4</text>
</g>
<!-- &#45;4&#45;&gt;1 -->
<g id="edge9" class="edge">
<title>&#45;4&#45;&gt;1</title>
<path fill="none" stroke="red" stroke-width="0.59" d="M936.61,-434.08C941.69,-427.17 949.65,-417.18 958,-409.87 980.56,-390.15 991.49,-392.44 1015,-373.87 1020.07,-369.87 1025.23,-365.18 1029.91,-360.64"/>
<polygon fill="red" stroke="red" stroke-width="0.59" points="1032.66,-362.85 1037.24,-353.29 1027.7,-357.9 1032.66,-362.85"/>
</g>
<!-- &#45;4&#45;&gt;2 -->
<g id="edge10" class="edge">
<title>&#45;4&#45;&gt;2</title>
<path fill="none" stroke="red" stroke-width="0.12" stroke-dasharray="1,5" d="M933.09,-434.03C940.68,-403.21 964.85,-290.39 936,-204.94 929.45,-185.54 914.94,-167.3 902.91,-154.56"/>
<polygon fill="red" stroke="red" stroke-width="0.12" points="905.34,-152.05 895.83,-147.39 900.36,-156.96 905.34,-152.05"/>
</g>
<!-- 8720 -->
<g id="node19" class="node">
<title>8720</title>
<ellipse fill="white" stroke="black" cx="1017" cy="-238.17" rx="28.98" ry="28.98"/>
<text text-anchor="middle" x="1017" y="-235.97" font-family="Times,serif" font-size="9.00">8720</text>
</g>
<!-- &#45;4&#45;&gt;8720 -->
<g id="edge25" class="edge">
<title>&#45;4&#45;&gt;8720</title>
<path fill="none" stroke="red" stroke-width="0.33" d="M937.01,-434.09C946.05,-421.72 963.25,-396.98 974,-373.87 988.74,-342.2 1000.38,-304.11 1007.81,-276.53"/>
<polygon fill="red" stroke="red" stroke-width="0.33" points="1011.29,-277.07 1010.45,-266.51 1004.52,-275.29 1011.29,-277.07"/>
</g>
<!-- &#45;5 -->
<g id="node5" class="node">
<title>&#45;5</title>
<polygon fill="lightgray" stroke="black" points="1190,-632.81 1164,-632.81 1164,-614.81 1190,-614.81 1190,-632.81"/>
<text text-anchor="middle" x="1177" y="-621.61" font-family="Times,serif" font-size="9.00">&#45;5</text>
</g>
<!-- &#45;5&#45;&gt;0 -->
<g id="edge11" class="edge">
<title>&#45;5&#45;&gt;0</title>
<path fill="none" stroke="red" stroke-width="0.47" stroke-dasharray="1,5" d="M1163.65,-622.26C1099.04,-619.5 818.54,-606.13 736,-578.81 651.89,-550.97 620.11,-545.72 565,-476.34 517.42,-416.44 518.64,-382.73 532,-307.4 534.73,-292.02 540.67,-275.54 546.08,-262.64"/>
<polygon fill="red" stroke="red" stroke-width="0.47" points="549.43,-263.71 550.23,-253.14 543.02,-260.9 549.43,-263.71"/>
</g>
<!-- &#45;5&#45;&gt;1 -->
<g id="edge12" class="edge">
<title>&#45;5&#45;&gt;1</title>
<path fill="none" stroke="red" stroke-width="0.11" d="M1179.98,-614.51C1182.94,-605.76 1187.3,-591.52 1189,-578.81 1199.03,-503.92 1214.03,-471.27 1170,-409.87 1146.32,-376.85 1101.43,-357.84 1073.2,-348.63"/>
<polygon fill="red" stroke="red" stroke-width="0.11" points="1074.21,-345.28 1063.62,-345.68 1072.15,-351.97 1074.21,-345.28"/>
</g>
<!-- &#45;5&#45;&gt;2 -->
<g id="edge13" class="edge">
<title>&#45;5&#45;&gt;2</title>
<path fill="none" stroke="green" stroke-width="0.13" d="M1184.93,-614.54C1192.28,-606.26 1202.69,-592.77 1207,-578.81 1215.71,-550.58 1208.29,-541.85 1207,-512.34 1200.87,-372.55 1238.87,-302.94 1139,-204.94 1075.61,-142.74 962.08,-135.6 910.63,-135.81"/>
<polygon fill="green" stroke="green" stroke-width="0.13" points="910.31,-132.32 900.36,-135.96 910.41,-139.32 910.31,-132.32"/>
</g>
<!-- 17199 -->
<g id="node20" class="node">
<title>17199</title>
<ellipse fill="white" stroke="black" cx="1147" cy="-545.57" rx="33.47" ry="33.47"/>
<text text-anchor="middle" x="1147" y="-543.37" font-family="Times,serif" font-size="9.00">17199</text>
</g>
<!-- &#45;5&#45;&gt;17199 -->
<g id="edge31" class="edge">
<title>&#45;5&#45;&gt;17199</title>
<path fill="none" stroke="red" stroke-width="0.11" stroke-dasharray="1,5" d="M1173.79,-614.65C1171.03,-607.64 1166.83,-596.97 1162.58,-586.15"/>
<polygon fill="red" stroke="red" stroke-width="0.11" points="1165.77,-584.71 1158.85,-576.69 1159.26,-587.28 1165.77,-584.71"/>
</g>
<!-- &#45;6 -->
<g id="node6" class="node">
<title>&#45;6</title>
<polygon fill="lightgray" stroke="black" points="739,-632.81 713,-632.81 713,-614.81 739,-614.81 739,-632.81"/>
<text text-anchor="middle" x="726" y="-621.61" font-family="Times,serif" font-size="9.00">&#45;6</text>
</g>
<!-- &#45;6&#45;&gt;1 -->
<g id="edge14" class="edge">
<title>&#45;6&#45;&gt;1</title>
<path fill="none" stroke="green" stroke-width="0.27" d="M739.01,-622.07C770.54,-619.8 852.82,-610.99 912,-578.81 969.85,-547.35 986.88,-533.82 1019,-476.34 1038.26,-441.87 1044.74,-395.84 1046.91,-367.49"/>
<polygon fill="green" stroke="green" stroke-width="0.27" points="1050.43,-367.41 1047.57,-357.21 1043.44,-366.97 1050.43,-367.41"/>
</g>
<!-- &#45;6&#45;&gt;2 -->
<g id="edge15" class="edge">
<title>&#45;6&#45;&gt;2</title>
<path fill="none" stroke="red" stroke-width="0.1" stroke-dasharray="1,5" d="M712.78,-622.49C614.38,-619.81 0,-596.95 0,-444.11 0,-444.11 0,-444.11 0,-339.64 0,-159.12 709.08,-139.17 857.11,-136.97"/>
<polygon fill="red" stroke="red" stroke-width="0.1" points="857.57,-140.47 867.52,-136.84 857.47,-133.47 857.57,-140.47"/>
</g>
<!-- 15535 -->
<g id="node18" class="node">
<title>15535</title>
<ellipse fill="white" stroke="black" cx="1063" cy="-545.57" rx="33.47" ry="33.47"/>
<text text-anchor="middle" x="1063" y="-543.37" font-family="Times,serif" font-size="9.00">15535</text>
</g>
<!-- &#45;6&#45;&gt;15535 -->
<g id="edge29" class="edge">
<title>&#45;6&#45;&gt;15535</title>
<path fill="none" stroke="green" stroke-width="0.12" d="M739.26,-622.87C781.35,-622.64 915.11,-618.62 1016,-578.81 1020.26,-577.13 1024.51,-575 1028.62,-572.65"/>
<polygon fill="green" stroke="green" stroke-width="0.12" points="1030.71,-575.47 1037.34,-567.21 1027,-569.53 1030.71,-575.47"/>
</g>
<!-- 24566 -->
<g id="node24" class="node">
<title>24566</title>
<ellipse fill="white" stroke="black" cx="587" cy="-340.64" rx="33.47" ry="33.47"/>
<text text-anchor="middle" x="587" y="-338.44" font-family="Times,serif" font-size="9.00">24566</text>
</g>
<!-- &#45;6&#45;&gt;24566 -->
<g id="edge56" class="edge">
<title>&#45;6&#45;&gt;24566</title>
<path fill="none" stroke="green" stroke-width="0.39" stroke-dasharray="1,5" d="M721.99,-614.7C705.1,-580.54 639.14,-447.1 606.09,-380.25"/>
<polygon fill="green" stroke="green" stroke-width="0.39" points="609.03,-378.3 601.46,-370.89 602.76,-381.41 609.03,-378.3"/>
</g>
<!-- &#45;7 -->
<g id="node7" class="node">
<title>&#45;7</title>
<polygon fill="lightgray" stroke="black" points="903,-554.57 877,-554.57 877,-536.57 903,-536.57 903,-554.57"/>
<text text-anchor="middle" x="890" y="-543.37" font-family="Times,serif" font-size="9.00">&#45;7</text>
</g>
<!-- &#45;7&#45;&gt;0 -->
<g id="edge16" class="edge">
<title>&#45;7&#45;&gt;0</title>
<path fill="none" stroke="red" stroke-width="0.15" stroke-dasharray="1,5" d="M880.87,-536.5C867.65,-524.45 843.01,-500.55 827,-476.34 815.65,-459.17 766.16,-321.33 751,-307.4 702.73,-263.05 623.92,-247.22 583.2,-241.81"/>
<polygon fill="red" stroke="red" stroke-width="0.15" points="583.59,-238.34 573.24,-240.6 582.74,-245.29 583.59,-238.34"/>
</g>
<!-- &#45;7&#45;&gt;1 -->
<g id="edge17" class="edge">
<title>&#45;7&#45;&gt;1</title>
<path fill="none" stroke="green" stroke-width="0.37" d="M903.14,-538.12C923.32,-527.64 962.12,-505.15 986,-476.34 1013.65,-442.98 1031.75,-395.25 1040.9,-366.47"/>
<polygon fill="green" stroke="green" stroke-width="0.37" points="1044.28,-367.38 1043.86,-356.79 1037.59,-365.33 1044.28,-367.38"/>
</g>
<!-- &#45;7&#45;&gt;2 -->
<g id="edge18" class="edge">
<title>&#45;7&#45;&gt;2</title>
<path fill="none" stroke="green" stroke-width="0.19" d="M889.96,-536.17C889.74,-497.99 888.71,-337 886,-204.94 885.71,-190.91 885.26,-175.28 884.86,-162.51"/>
<polygon fill="green" stroke="green" stroke-width="0.19" points="888.35,-162.03 884.53,-152.15 881.35,-162.25 888.35,-162.03"/>
</g>
<!-- 19968 -->
<g id="node14" class="node">
<title>19968</title>
<ellipse fill="white" stroke="black" cx="1109" cy="-443.11" rx="33.47" ry="33.47"/>
<text text-anchor="middle" x="1109" y="-440.91" font-family="Times,serif" font-size="9.00">19968</text>
</g>
<!-- &#45;7&#45;&gt;19968 -->
<g id="edge39" class="edge">
<title>&#45;7&#45;&gt;19968</title>
<path fill="none" stroke="green" stroke-width="0.2" d="M903.04,-538.59C935.22,-523.83 1019.43,-485.2 1069.65,-462.16"/>
<polygon fill="green" stroke="green" stroke-width="0.2" points="1071.28,-465.26 1078.91,-457.91 1068.36,-458.9 1071.28,-465.26"/>
</g>
<!-- &#45;7&#45;&gt;17742 -->
<g id="edge41" class="edge">
<title>&#45;7&#45;&gt;17742</title>
<path fill="none" stroke="red" stroke-width="0.27" d="M876.76,-538.54C852.36,-527.26 798.87,-501.81 756,-476.34 752.16,-474.06 748.22,-471.59 744.33,-469.05"/>
<polygon fill="red" stroke="red" stroke-width="0.27" points="746.21,-466.1 735.95,-463.47 742.33,-471.93 746.21,-466.1"/>
</g>
<!-- &#45;8 -->
<g id="node8" class="node">
<title>&#45;8</title>
<polygon fill="lightgray" stroke="black" points="862,-452.11 836,-452.11 836,-434.11 862,-434.11 862,-452.11"/>
<text text-anchor="middle" x="849" y="-440.91" font-family="Times,serif" font-size="9.00">&#45;8</text>
</g>
<!-- &#45;8&#45;&gt;0 -->
<g id="edge19" class="edge">
<title>&#45;8&#45;&gt;0</title>
<path fill="none" stroke="green" stroke-width="0.13" stroke-dasharray="1,5" d="M847.48,-434.05C842.64,-410.77 825.47,-342.81 784,-307.4 724.89,-256.94 629.45,-243.8 583.45,-240.38"/>
<polygon fill="green" stroke="green" stroke-width="0.13" points="583.59,-236.88 573.39,-239.73 583.14,-243.86 583.59,-236.88"/>
</g>
<!-- &#45;8&#45;&gt;1 -->
<g id="edge20" class="edge">
<title>&#45;8&#45;&gt;1</title>
<path fill="none" stroke="red" stroke-width="0.18" d="M862.27,-434.8C874.38,-428.17 892.8,-418.19 909,-409.87 949.25,-389.19 996.66,-366.21 1024.42,-352.89"/>
<polygon fill="red" stroke="red" stroke-width="0.18" points="1026.2,-355.92 1033.71,-348.44 1023.18,-349.6 1026.2,-355.92"/>
</g>
<!-- &#45;8&#45;&gt;2 -->
<g id="edge21" class="edge">
<title>&#45;8&#45;&gt;2</title>
<path fill="none" stroke="red" stroke-width="0.24" stroke-dasharray="1,5" d="M849.94,-433.94C854.41,-394.93 873.67,-226.85 881.08,-162.19"/>
<polygon fill="red" stroke="red" stroke-width="0.24" points="884.58,-162.38 882.24,-152.05 877.63,-161.58 884.58,-162.38"/>
</g>
<!-- 0&#45;&gt;0 -->
<g id="edge22" class="edge">
<title>0&#45;&gt;0</title>
<path fill="none" stroke="red" stroke-width="0.4" stroke-dasharray="1,5" d="M566.47,-251.9C577.87,-262.27 591.26,-257.69 591.26,-238.17 591.26,-223.53 583.73,-217.29 575.16,-219.47"/>
<polygon fill="red" stroke="red" stroke-width="0.4" points="573.41,-216.43 566.47,-224.44 576.89,-222.51 573.41,-216.43"/>
</g>
<!-- 1&#45;&gt;1 -->
<g id="edge23" class="edge">
<title>1&#45;&gt;1</title>
<path fill="none" stroke="red" stroke-width="0.44" stroke-dasharray="1,5" d="M1057.47,-354.37C1068.87,-364.74 1082.26,-360.16 1082.26,-340.64 1082.26,-326 1074.73,-319.76 1066.16,-321.93"/>
<polygon fill="red" stroke="red" stroke-width="0.44" points="1064.41,-318.9 1057.47,-326.91 1067.89,-324.98 1064.41,-318.9"/>
</g>
<!-- 1&#45;&gt;8720 -->
<g id="edge42" class="edge">
<title>1&#45;&gt;8720</title>
<path fill="none" stroke="green" stroke-width="0.19" d="M1043.43,-324.81C1039.46,-311.95 1033.54,-292.77 1028.31,-275.83"/>
<polygon fill="green" stroke="green" stroke-width="0.19" points="1031.62,-274.7 1025.33,-266.17 1024.94,-276.76 1031.62,-274.7"/>
</g>
<!-- 26322 -->
<g id="node21" class="node">
<title>26322</title>
<ellipse fill="white" stroke="black" cx="1097" cy="-238.17" rx="33.47" ry="33.47"/>
<text text-anchor="middle" x="1097" y="-235.97" font-family="Times,serif" font-size="9.00">26322</text>
</g>
<!-- 1&#45;&gt;26322 -->
<g id="edge54" class="edge">
<title>1&#45;&gt;26322</title>
<path fill="none" stroke="green" stroke-width="0.22" d="M1054.81,-325.67C1060.89,-313.2 1070.08,-294.36 1078.34,-277.44"/>
<polygon fill="green" stroke="green" stroke-width="0.22" points="1081.56,-278.81 1082.8,-268.29 1075.27,-275.74 1081.56,-278.81"/>
</g>
<!-- 18229 -->
<g id="node22" class="node">
<title>18229</title>
<ellipse fill="white" stroke="black" cx="1191" cy="-135.7" rx="33.47" ry="33.47"/>
<text text-anchor="middle" x="1191" y="-133.5" font-family="Times,serif" font-size="9.00">18229</text>
</g>
<!-- 1&#45;&gt;18229 -->
<g id="edge34" class="edge">
<title>1&#45;&gt;18229</title>
<path fill="none" stroke="red" stroke-width="0.7" stroke-dasharray="1,5" d="M1060.28,-329.75C1078.22,-318.22 1110.34,-297.38 1130,-271.4 1151.52,-242.98 1165.18,-204.56 1174.61,-176.02"/>
<polygon fill="red" stroke="red" stroke-width="0.7" points="1177.98,-176.97 1177.78,-166.38 1171.33,-174.79 1177.98,-176.97"/>
</g>
<!-- 2&#45;&gt;2 -->
<g id="edge24" class="edge">
<title>2&#45;&gt;2</title>
<path fill="none" stroke="red" stroke-width="0.25" stroke-dasharray="1,5" d="M893.47,-149.43C904.87,-159.8 918.26,-155.23 918.26,-135.7 918.26,-121.06 910.73,-114.82 902.16,-117"/>
<polygon fill="red" stroke="red" stroke-width="0.25" points="900.41,-113.97 893.47,-121.97 903.89,-120.04 900.41,-113.97"/>
</g>
<!-- 2&#45;&gt;12738 -->
<g id="edge28" class="edge">
<title>2&#45;&gt;12738</title>
<path fill="none" stroke="green" stroke-width="0.47" d="M868.13,-131.24C804.14,-117.3 563.77,-64.91 465.38,-43.47"/>
<polygon fill="green" stroke="green" stroke-width="0.47" points="466,-40.02 455.48,-41.31 464.51,-46.86 466,-40.02"/>
</g>
<!-- 19968&#45;&gt;1 -->
<g id="edge40" class="edge">
<title>19968&#45;&gt;1</title>
<path fill="none" stroke="red" stroke-width="0.3" stroke-dasharray="1,5" d="M1092.17,-414.39C1082.42,-398.32 1070.31,-378.38 1061.24,-363.44"/>
<polygon fill="red" stroke="red" stroke-width="0.3" points="1064.21,-361.6 1056.03,-354.87 1058.23,-365.23 1064.21,-361.6"/>
</g>
<!-- 22947 -->
<g id="node15" class="node">
<title>22947</title>
<ellipse fill="white" stroke="black" cx="1191" cy="-33.23" rx="33.47" ry="33.47"/>
<text text-anchor="middle" x="1191" y="-31.03" font-family="Times,serif" font-size="9.00">22947</text>
</g>
<!-- 22947&#45;&gt;1 -->
<g id="edge45" class="edge">
<title>22947&#45;&gt;1</title>
<path fill="none" stroke="red" stroke-width="0.35" stroke-dasharray="1,5" d="M1211.44,-59.84C1219.88,-72.01 1228.68,-87.21 1233,-102.47 1241.05,-130.89 1240.2,-140.29 1233,-168.94 1220.4,-219.06 1214.72,-235.03 1178,-271.4 1147.68,-301.44 1101.41,-321.38 1073.02,-331.57"/>
<polygon fill="red" stroke="red" stroke-width="0.35" points="1071.74,-328.31 1063.44,-334.89 1074.03,-334.93 1071.74,-328.31"/>
</g>
<!-- 17742&#45;&gt;0 -->
<g id="edge38" class="edge">
<title>17742&#45;&gt;0</title>
<path fill="none" stroke="red" stroke-width="0.18" stroke-dasharray="1,5" d="M691.63,-414.34C683.98,-402.01 674.95,-387.27 667,-373.87 649.63,-344.61 650.02,-334.16 629,-307.4 613.56,-287.75 592.49,-268.45 577.13,-255.42"/>
<polygon fill="red" stroke="red" stroke-width="0.18" points="579.18,-252.57 569.26,-248.86 574.7,-257.95 579.18,-252.57"/>
</g>
<!-- 23509 -->
<g id="node23" class="node">
<title>23509</title>
<ellipse fill="white" stroke="black" cx="709" cy="-340.64" rx="33.47" ry="33.47"/>
<text text-anchor="middle" x="709" y="-338.44" font-family="Times,serif" font-size="9.00">23509</text>
</g>
<!-- 17742&#45;&gt;23509 -->
<g id="edge46" class="edge">
<title>17742&#45;&gt;23509</title>
<path fill="none" stroke="green" stroke-width="0.25" d="M709,-409.76C709,-401.61 709,-392.73 709,-384.15"/>
<polygon fill="green" stroke="green" stroke-width="0.25" points="712.5,-383.92 709,-373.92 705.5,-383.92 712.5,-383.92"/>
</g>
<!-- 17742&#45;&gt;24566 -->
<g id="edge49" class="edge">
<title>17742&#45;&gt;24566</title>
<path fill="none" stroke="green" stroke-width="0.38" d="M683.72,-421.29C665.32,-406.13 640.22,-385.46 620.2,-368.98"/>
<polygon fill="green" stroke="green" stroke-width="0.38" points="622.19,-366.08 612.25,-362.43 617.74,-371.49 622.19,-366.08"/>
</g>
<!-- 15535&#45;&gt;19968 -->
<g id="edge43" class="edge">
<title>15535&#45;&gt;19968</title>
<path fill="none" stroke="green" stroke-width="0.34" d="M1076.55,-514.97C1081.19,-504.86 1086.44,-493.39 1091.34,-482.67"/>
<polygon fill="green" stroke="green" stroke-width="0.34" points="1094.56,-484.04 1095.54,-473.49 1088.2,-481.13 1094.56,-484.04"/>
</g>
<!-- 8720&#45;&gt;2 -->
<g id="edge26" class="edge">
<title>8720&#45;&gt;2</title>
<path fill="none" stroke="red" stroke-width="0.11" d="M994.14,-219.9C969,-200.91 928.97,-170.67 904.72,-152.36"/>
<polygon fill="red" stroke="red" stroke-width="0.11" points="906.65,-149.42 896.56,-146.19 902.43,-155.01 906.65,-149.42"/>
</g>
<!-- 17199&#45;&gt;1 -->
<g id="edge32" class="edge">
<title>17199&#45;&gt;1</title>
<path fill="none" stroke="red" stroke-width="0.25" stroke-dasharray="1,5" d="M1156.32,-513.41C1163.04,-484.74 1168.21,-441.92 1151,-409.87 1134.59,-379.31 1097.81,-360.13 1072.94,-350.15"/>
<polygon fill="red" stroke="red" stroke-width="0.25" points="1074.02,-346.82 1063.43,-346.54 1071.54,-353.36 1074.02,-346.82"/>
</g>
<!-- 17199&#45;&gt;19968 -->
<g id="edge48" class="edge">
<title>17199&#45;&gt;19968</title>
<path fill="none" stroke="green" stroke-width="0.19" stroke-dasharray="1,5" d="M1135.5,-514.16C1131.89,-504.62 1127.85,-493.94 1124.03,-483.85"/>
<polygon fill="green" stroke="green" stroke-width="0.19" points="1127.28,-482.53 1120.47,-474.42 1120.73,-485.01 1127.28,-482.53"/>
</g>
<!-- 26322&#45;&gt;18229 -->
<g id="edge55" class="edge">
<title>26322&#45;&gt;18229</title>
<path fill="none" stroke="red" stroke-width="0.55" stroke-dasharray="1,5" d="M1119.28,-213.36C1131.94,-199.82 1147.96,-182.7 1161.64,-168.08"/>
<polygon fill="red" stroke="red" stroke-width="0.55" points="1164.28,-170.38 1168.56,-160.69 1159.17,-165.6 1164.28,-170.38"/>
</g>
<!-- 18229&#45;&gt;1 -->
<g id="edge35" class="edge">
<title>18229&#45;&gt;1</title>
<path fill="none" stroke="red" stroke-width="0.34" stroke-dasharray="1,5" d="M1190.95,-169.15C1185.38,-198.13 1171.3,-240.62 1148,-271.4 1127.98,-297.86 1095.04,-318.98 1072.23,-330.37"/>
<polygon fill="red" stroke="red" stroke-width="0.34" points="1070.69,-327.22 1063.13,-334.64 1073.67,-333.56 1070.69,-327.22"/>
</g>
<!-- 18229&#45;&gt;22947 -->
<g id="edge44" class="edge">
<title>18229&#45;&gt;22947</title>
<path fill="none" stroke="green" stroke-width="0.28" stroke-dasharray="1,5" d="M1191,-102.36C1191,-94.2 1191,-85.32 1191,-76.75"/>
<polygon fill="green" stroke="green" stroke-width="0.28" points="1194.5,-76.52 1191,-66.52 1187.5,-76.52 1194.5,-76.52"/>
</g>
<!-- 23509&#45;&gt;0 -->
<g id="edge47" class="edge">
<title>23509&#45;&gt;0</title>
<path fill="none" stroke="green" stroke-width="0.13" stroke-dasharray="1,5" d="M681.74,-320.77C675.29,-316.36 668.42,-311.69 662,-307.4 633.49,-288.37 600.27,-266.9 578.96,-253.21"/>
<polygon fill="green" stroke="green" stroke-width="0.13" points="580.64,-250.13 570.33,-247.68 576.86,-256.03 580.64,-250.13"/>
</g>
<!-- 23509&#45;&gt;22947 -->
<g id="edge53" class="edge">
<title>23509&#45;&gt;22947</title>
<path fill="none" stroke="green" stroke-width="0.29" d="M719.32,-308.93C738.3,-257.46 783.82,-154.36 859,-102.47 905.46,-70.4 1068.8,-48.07 1147.7,-38.9"/>
<polygon fill="green" stroke="green" stroke-width="0.29" points="1148.26,-42.35 1157.8,-37.74 1147.47,-35.4 1148.26,-42.35"/>
</g>
<!-- 24566&#45;&gt;0 -->
<g id="edge50" class="edge">
<title>24566&#45;&gt;0</title>
<path fill="none" stroke="red" stroke-width="0.18" d="M577.75,-308.67C573.42,-294.16 568.33,-277.11 564.27,-263.53"/>
<polygon fill="red" stroke="red" stroke-width="0.18" points="567.62,-262.5 561.4,-253.92 560.91,-264.5 567.62,-262.5"/>
</g>
<!-- 25078&#45;&gt;0 -->
<g id="edge52" class="edge">
<title>25078&#45;&gt;0</title>
<path fill="none" stroke="green" stroke-width="0.28" d="M416.07,-320.48C422.53,-316.07 429.45,-311.49 436,-307.4 469.43,-286.57 509.45,-264.55 534.05,-251.33"/>
<polygon fill="green" stroke="green" stroke-width="0.28" points="535.81,-254.36 542.98,-246.56 532.51,-248.19 535.81,-254.36"/>
</g>
</g>
</svg>
