<?xml version="1.0" encoding="UTF-8" standalone="no"?>
<!DOCTYPE svg PUBLIC "-//W3C//DTD SVG 1.1//EN"
 "http://www.w3.org/Graphics/SVG/1.1/DTD/svg11.dtd">
<!-- Generated by graphviz version 2.43.0 (0)
 -->
<!-- Title: %3 Pages: 1 -->
<svg width="854pt" height="484pt"
 viewBox="0.00 0.00 853.63 484.34" xmlns="http://www.w3.org/2000/svg" xmlns:xlink="http://www.w3.org/1999/xlink">
<g id="graph0" class="graph" transform="scale(1 1) rotate(0) translate(4 480.34)">
<title>%3</title>
<polygon fill="white" stroke="transparent" points="-4,4 -4,-480.34 849.63,-480.34 849.63,4 -4,4"/>
<!-- &#45;1 -->
<g id="node1" class="node">
<title>&#45;1</title>
<polygon fill="lightgray" stroke="black" points="478,-349.64 452,-349.64 452,-331.64 478,-331.64 478,-349.64"/>
<text text-anchor="middle" x="465" y="-338.44" font-family="Times,serif" font-size="9.00">&#45;1</text>
</g>
<!-- 0 -->
<g id="node9" class="node">
<title>0</title>
<ellipse fill="lightblue" stroke="black" cx="665" cy="-135.7" rx="16.03" ry="16.03"/>
<text text-anchor="middle" x="665" y="-133.5" font-family="Times,serif" font-size="9.00">0</text>
</g>
<!-- &#45;1&#45;&gt;0 -->
<g id="edge12" class="edge">
<title>&#45;1&#45;&gt;0</title>
<path fill="none" stroke="red" stroke-width="1" d="M474.17,-331.52C500.91,-307.7 580.65,-235.43 640,-168.94 643.22,-165.33 646.5,-161.36 649.57,-157.47"/>
<polygon fill="red" stroke="red" stroke-width="1" points="652.56,-159.33 655.89,-149.27 647.02,-155.06 652.56,-159.33"/>
</g>
<!-- 1 -->
<g id="node10" class="node">
<title>1</title>
<ellipse fill="lightblue" stroke="black" cx="174" cy="-135.7" rx="16.03" ry="16.03"/>
<text text-anchor="middle" x="174" y="-133.5" font-family="Times,serif" font-size="9.00">1</text>
</g>
<!-- &#45;1&#45;&gt;1 -->
<g id="edge7" class="edge">
<title>&#45;1&#45;&gt;1</title>
<path fill="none" stroke="red" stroke-width="0.17" d="M466,-331.34C468.3,-307.99 471.43,-241.09 437,-204.94 404.23,-170.53 260.16,-148.02 200.26,-139.99"/>
<polygon fill="red" stroke="red" stroke-width="0.17" points="200.47,-136.49 190.1,-138.66 199.56,-143.43 200.47,-136.49"/>
</g>
<!-- 3012 -->
<g id="node12" class="node">
<title>3012</title>
<ellipse fill="red" stroke="black" cx="665" cy="-238.17" rx="28.98" ry="28.98"/>
<text text-anchor="middle" x="665" y="-235.97" font-family="Times,serif" font-size="9.00">3012</text>
</g>
<!-- &#45;1&#45;&gt;3012 -->
<g id="edge5" class="edge">
<title>&#45;1&#45;&gt;3012</title>
<path fill="none" stroke="red" stroke-width="0.32" d="M473.69,-331.46C481.46,-324.44 493.38,-314.38 505,-307.4 544.77,-283.53 594.42,-263.74 627.77,-251.73"/>
<polygon fill="red" stroke="red" stroke-width="0.32" points="629.32,-254.89 637.57,-248.25 626.98,-248.29 629.32,-254.89"/>
</g>
<!-- 12873 -->
<g id="node15" class="node">
<title>12873</title>
<ellipse fill="white" stroke="black" cx="395" cy="-238.17" rx="33.47" ry="33.47"/>
<text text-anchor="middle" x="395" y="-235.97" font-family="Times,serif" font-size="9.00">12873</text>
</g>
<!-- &#45;1&#45;&gt;12873 -->
<g id="edge32" class="edge">
<title>&#45;1&#45;&gt;12873</title>
<path fill="none" stroke="red" stroke-width="0.15" d="M459.27,-331.42C450.6,-318.98 433.65,-294.64 419.33,-274.09"/>
<polygon fill="red" stroke="red" stroke-width="0.15" points="422.18,-272.06 413.59,-265.85 416.44,-276.06 422.18,-272.06"/>
</g>
<!-- &#45;2 -->
<g id="node2" class="node">
<title>&#45;2</title>
<polygon fill="lightgray" stroke="black" points="108,-349.64 82,-349.64 82,-331.64 108,-331.64 108,-349.64"/>
<text text-anchor="middle" x="95" y="-338.44" font-family="Times,serif" font-size="9.00">&#45;2</text>
</g>
<!-- &#45;2&#45;&gt;1 -->
<g id="edge1" class="edge">
<title>&#45;2&#45;&gt;1</title>
<path fill="none" stroke="green" stroke-width="0.18" stroke-dasharray="1,5" d="M95.37,-331.35C96.61,-309.65 101.76,-249.71 122,-204.94 130.35,-186.45 144.53,-168.33 155.98,-155.41"/>
<polygon fill="green" stroke="green" stroke-width="0.18" points="158.84,-157.46 163.01,-147.72 153.68,-152.73 158.84,-157.46"/>
</g>
<!-- 10120 -->
<g id="node14" class="node">
<title>10120</title>
<ellipse fill="white" stroke="black" cx="37" cy="-238.17" rx="33.47" ry="33.47"/>
<text text-anchor="middle" x="37" y="-235.97" font-family="Times,serif" font-size="9.00">10120</text>
</g>
<!-- &#45;2&#45;&gt;10120 -->
<g id="edge24" class="edge">
<title>&#45;2&#45;&gt;10120</title>
<path fill="none" stroke="red" stroke-width="0.8" d="M90.25,-331.42C83.32,-319.41 70,-296.34 58.42,-276.27"/>
<polygon fill="red" stroke="red" stroke-width="0.8" points="61.45,-274.52 53.42,-267.61 55.38,-278.02 61.45,-274.52"/>
</g>
<!-- &#45;3 -->
<g id="node3" class="node">
<title>&#45;3</title>
<polygon fill="lightgray" stroke="black" points="655,-452.11 629,-452.11 629,-434.11 655,-434.11 655,-452.11"/>
<text text-anchor="middle" x="642" y="-440.91" font-family="Times,serif" font-size="9.00">&#45;3</text>
</g>
<!-- &#45;3&#45;&gt;0 -->
<g id="edge17" class="edge">
<title>&#45;3&#45;&gt;0</title>
<path fill="none" stroke="red" stroke-width="0.2" stroke-dasharray="1,5" d="M645.73,-433.83C649.41,-426.56 655.68,-416.17 664,-409.87 704,-379.58 741.72,-414.62 771,-373.87 815.64,-311.75 778.98,-269.53 738,-204.94 724.43,-183.55 702.61,-164.37 686.35,-151.83"/>
<polygon fill="red" stroke="red" stroke-width="0.2" points="688.08,-148.76 677.97,-145.58 683.89,-154.37 688.08,-148.76"/>
</g>
<!-- &#45;3&#45;&gt;1 -->
<g id="edge3" class="edge">
<title>&#45;3&#45;&gt;1</title>
<path fill="none" stroke="red" stroke-width="1.28" d="M628.85,-441.75C564.05,-439.77 279.05,-428.02 213,-373.87 150.02,-322.24 160.4,-211.47 168.89,-161.76"/>
<polygon fill="red" stroke="red" stroke-width="1.28" points="172.35,-162.31 170.7,-151.85 165.46,-161.06 172.35,-162.31"/>
</g>
<!-- 2 -->
<g id="node11" class="node">
<title>2</title>
<ellipse fill="lightblue" stroke="black" cx="778" cy="-33.23" rx="16.03" ry="16.03"/>
<text text-anchor="middle" x="778" y="-31.03" font-family="Times,serif" font-size="9.00">2</text>
</g>
<!-- &#45;3&#45;&gt;2 -->
<g id="edge2" class="edge">
<title>&#45;3&#45;&gt;2</title>
<path fill="none" stroke="green" stroke-width="0.11" stroke-dasharray="1,5" d="M645.51,-434C649.11,-426.64 655.4,-416.01 664,-409.87 713.14,-374.79 756.1,-420.06 795,-373.87 872.91,-281.36 844.74,-219.71 815,-102.47 810.73,-85.65 801.4,-68.49 793.18,-55.59"/>
<polygon fill="green" stroke="green" stroke-width="0.11" points="795.92,-53.4 787.47,-47.01 790.09,-57.27 795.92,-53.4"/>
</g>
<!-- &#45;3&#45;&gt;10120 -->
<g id="edge19" class="edge">
<title>&#45;3&#45;&gt;10120</title>
<path fill="none" stroke="red" stroke-width="0.14" d="M628.82,-441.4C547.56,-436.95 116.55,-411.64 73,-373.87 46.99,-351.31 38.77,-312.24 36.6,-281.97"/>
<polygon fill="red" stroke="red" stroke-width="0.14" points="40.08,-281.48 36.07,-271.67 33.09,-281.84 40.08,-281.48"/>
</g>
<!-- 19252 -->
<g id="node17" class="node">
<title>19252</title>
<ellipse fill="white" stroke="black" cx="729" cy="-340.64" rx="33.47" ry="33.47"/>
<text text-anchor="middle" x="729" y="-338.44" font-family="Times,serif" font-size="9.00">19252</text>
</g>
<!-- &#45;3&#45;&gt;19252 -->
<g id="edge34" class="edge">
<title>&#45;3&#45;&gt;19252</title>
<path fill="none" stroke="red" stroke-width="0.11" d="M647.08,-433.9C651.33,-427.22 657.69,-417.67 664,-409.87 674.55,-396.83 687.08,-383.29 698.3,-371.74"/>
<polygon fill="red" stroke="red" stroke-width="0.11" points="700.94,-374.05 705.46,-364.46 695.95,-369.14 700.94,-374.05"/>
</g>
<!-- 17846 -->
<g id="node18" class="node">
<title>17846</title>
<ellipse fill="white" stroke="black" cx="547" cy="-340.64" rx="33.47" ry="33.47"/>
<text text-anchor="middle" x="547" y="-338.44" font-family="Times,serif" font-size="9.00">17846</text>
</g>
<!-- &#45;3&#45;&gt;17846 -->
<g id="edge29" class="edge">
<title>&#45;3&#45;&gt;17846</title>
<path fill="none" stroke="red" stroke-width="0.42" d="M634.23,-433.88C621.7,-420.64 596.42,-393.9 576.28,-372.61"/>
<polygon fill="red" stroke="red" stroke-width="0.42" points="578.82,-370.19 569.4,-365.33 573.73,-375 578.82,-370.19"/>
</g>
<!-- &#45;4 -->
<g id="node4" class="node">
<title>&#45;4</title>
<polygon fill="lightgray" stroke="black" points="26,-349.64 0,-349.64 0,-331.64 26,-331.64 26,-349.64"/>
<text text-anchor="middle" x="13" y="-338.44" font-family="Times,serif" font-size="9.00">&#45;4</text>
</g>
<!-- &#45;4&#45;&gt;10120 -->
<g id="edge22" class="edge">
<title>&#45;4&#45;&gt;10120</title>
<path fill="none" stroke="red" stroke-width="0.46" d="M14.96,-331.42C17.62,-320.29 22.55,-299.66 27.07,-280.72"/>
<polygon fill="red" stroke="red" stroke-width="0.46" points="30.54,-281.28 29.46,-270.74 23.73,-279.66 30.54,-281.28"/>
</g>
<!-- &#45;5 -->
<g id="node5" class="node">
<title>&#45;5</title>
<polygon fill="lightgray" stroke="black" points="699,-452.11 673,-452.11 673,-434.11 699,-434.11 699,-452.11"/>
<text text-anchor="middle" x="686" y="-440.91" font-family="Times,serif" font-size="9.00">&#45;5</text>
</g>
<!-- &#45;6 -->
<g id="node6" class="node">
<title>&#45;6</title>
<polygon fill="lightgray" stroke="black" points="248,-349.64 222,-349.64 222,-331.64 248,-331.64 248,-349.64"/>
<text text-anchor="middle" x="235" y="-338.44" font-family="Times,serif" font-size="9.00">&#45;6</text>
</g>
<!-- &#45;6&#45;&gt;0 -->
<g id="edge14" class="edge">
<title>&#45;6&#45;&gt;0</title>
<path fill="none" stroke="green" stroke-width="0.43" d="M246.31,-331.54C262.43,-319.62 292.33,-296.1 313,-271.4 335.13,-244.97 324.1,-223.74 353,-204.94 460.75,-134.82 528.31,-232.58 640,-168.94 644.46,-166.4 648.39,-162.71 651.75,-158.74"/>
<polygon fill="green" stroke="green" stroke-width="0.43" points="654.73,-160.58 657.79,-150.44 649.08,-156.46 654.73,-160.58"/>
</g>
<!-- &#45;6&#45;&gt;1 -->
<g id="edge11" class="edge">
<title>&#45;6&#45;&gt;1</title>
<path fill="none" stroke="green" stroke-width="0.26" stroke-dasharray="1,5" d="M228.34,-331.4C218.81,-319.12 201.49,-294.96 193,-271.4 179.85,-234.92 175.75,-189.82 174.5,-162.17"/>
<polygon fill="green" stroke="green" stroke-width="0.26" points="178,-162.01 174.14,-152.14 171.01,-162.26 178,-162.01"/>
</g>
<!-- 18598 -->
<g id="node13" class="node">
<title>18598</title>
<ellipse fill="white" stroke="black" cx="235" cy="-238.17" rx="33.47" ry="33.47"/>
<text text-anchor="middle" x="235" y="-235.97" font-family="Times,serif" font-size="9.00">18598</text>
</g>
<!-- &#45;6&#45;&gt;18598 -->
<g id="edge30" class="edge">
<title>&#45;6&#45;&gt;18598</title>
<path fill="none" stroke="green" stroke-width="0.24" stroke-dasharray="1,5" d="M235,-331.42C235,-320.5 235,-300.43 235,-281.8"/>
<polygon fill="green" stroke="green" stroke-width="0.24" points="238.5,-281.65 235,-271.65 231.5,-281.65 238.5,-281.65"/>
</g>
<!-- &#45;6&#45;&gt;10120 -->
<g id="edge15" class="edge">
<title>&#45;6&#45;&gt;10120</title>
<path fill="none" stroke="red" stroke-width="0.76" stroke-dasharray="1,5" d="M221.7,-332.89C192.24,-317.94 120.52,-281.55 75.62,-258.76"/>
<polygon fill="red" stroke="red" stroke-width="0.76" points="76.97,-255.53 66.47,-254.12 73.8,-261.77 76.97,-255.53"/>
</g>
<!-- 14799 -->
<g id="node16" class="node">
<title>14799</title>
<ellipse fill="red" stroke="black" cx="580" cy="-135.7" rx="33.47" ry="33.47"/>
<text text-anchor="middle" x="580" y="-133.5" font-family="Times,serif" font-size="9.00">14799</text>
</g>
<!-- &#45;6&#45;&gt;14799 -->
<g id="edge25" class="edge">
<title>&#45;6&#45;&gt;14799</title>
<path fill="none" stroke="green" stroke-width="0.19" stroke-dasharray="1,5" d="M240.11,-331.37C258,-302.4 316.97,-207.15 320,-204.94 385.25,-157.13 481.33,-142.78 536.58,-138.5"/>
<polygon fill="green" stroke="green" stroke-width="0.19" points="537.01,-141.98 546.74,-137.79 536.52,-134.99 537.01,-141.98"/>
</g>
<!-- &#45;7 -->
<g id="node7" class="node">
<title>&#45;7</title>
<polygon fill="lightgray" stroke="black" points="624,-349.64 598,-349.64 598,-331.64 624,-331.64 624,-349.64"/>
<text text-anchor="middle" x="611" y="-338.44" font-family="Times,serif" font-size="9.00">&#45;7</text>
</g>
<!-- &#45;7&#45;&gt;0 -->
<g id="edge13" class="edge">
<title>&#45;7&#45;&gt;0</title>
<path fill="none" stroke="red" stroke-width="0.29" d="M610.88,-331.51C610.8,-310.19 612.05,-251.09 627,-204.94 632.38,-188.33 641.96,-171.17 650.15,-158.21"/>
<polygon fill="red" stroke="red" stroke-width="0.29" points="653.25,-159.87 655.8,-149.58 647.39,-156.04 653.25,-159.87"/>
</g>
<!-- &#45;7&#45;&gt;1 -->
<g id="edge4" class="edge">
<title>&#45;7&#45;&gt;1</title>
<path fill="none" stroke="red" stroke-width="0.11" d="M606.34,-331.49C602.24,-324.68 595.86,-314.9 589,-307.4 540.48,-254.43 528.4,-236.76 464,-204.94 373.74,-160.34 253.07,-144.11 200.43,-138.9"/>
<polygon fill="red" stroke="red" stroke-width="0.11" points="200.54,-135.39 190.26,-137.94 199.89,-142.36 200.54,-135.39"/>
</g>
<!-- &#45;7&#45;&gt;3012 -->
<g id="edge9" class="edge">
<title>&#45;7&#45;&gt;3012</title>
<path fill="none" stroke="red" stroke-width="0.55" d="M615.42,-331.42C622.22,-318.76 635.64,-293.79 646.8,-273.02"/>
<polygon fill="red" stroke="red" stroke-width="0.55" points="649.93,-274.6 651.58,-264.13 643.77,-271.28 649.93,-274.6"/>
</g>
<!-- &#45;8 -->
<g id="node8" class="node">
<title>&#45;8</title>
<polygon fill="lightgray" stroke="black" points="678,-349.64 652,-349.64 652,-331.64 678,-331.64 678,-349.64"/>
<text text-anchor="middle" x="665" y="-338.44" font-family="Times,serif" font-size="9.00">&#45;8</text>
</g>
<!-- &#45;8&#45;&gt;0 -->
<g id="edge18" class="edge">
<title>&#45;8&#45;&gt;0</title>
<path fill="none" stroke="red" stroke-width="0.34" stroke-dasharray="1,5" d="M670.09,-331.44C674.34,-324.77 680.71,-315.21 687,-307.4 700.8,-290.26 712.87,-291.85 721,-271.4 731.91,-243.95 730.95,-232.75 721,-204.94 713.82,-184.86 697.9,-166.45 684.87,-153.83"/>
<polygon fill="red" stroke="red" stroke-width="0.34" points="686.94,-150.98 677.23,-146.75 682.19,-156.12 686.94,-150.98"/>
</g>
<!-- &#45;8&#45;&gt;2 -->
<g id="edge8" class="edge">
<title>&#45;8&#45;&gt;2</title>
<path fill="none" stroke="red" stroke-width="0.11" stroke-dasharray="1,5" d="M669.37,-331.63C673.37,-324.73 679.78,-314.74 687,-307.4 706.46,-287.63 723.22,-294.89 738,-271.4 780.32,-204.14 781.82,-105.82 779.81,-59.78"/>
<polygon fill="red" stroke="red" stroke-width="0.11" points="783.29,-59.31 779.26,-49.51 776.3,-59.68 783.29,-59.31"/>
</g>
<!-- &#45;8&#45;&gt;3012 -->
<g id="edge28" class="edge">
<title>&#45;8&#45;&gt;3012</title>
<path fill="none" stroke="green" stroke-width="0.34" stroke-dasharray="1,5" d="M665,-331.42C665,-319.6 665,-297.06 665,-277.22"/>
<polygon fill="green" stroke="green" stroke-width="0.34" points="668.5,-277.16 665,-267.16 661.5,-277.16 668.5,-277.16"/>
</g>
<!-- &#45;8&#45;&gt;14799 -->
<g id="edge20" class="edge">
<title>&#45;8&#45;&gt;14799</title>
<path fill="none" stroke="red" stroke-width="0.31" d="M659.84,-331.47C652.05,-318.91 637.11,-293.92 627,-271.4 613.18,-240.61 600.75,-204.44 592.16,-177.33"/>
<polygon fill="red" stroke="red" stroke-width="0.31" points="595.49,-176.28 589.17,-167.78 588.81,-178.37 595.49,-176.28"/>
</g>
<!-- 15774 -->
<g id="node19" class="node">
<title>15774</title>
<ellipse fill="white" stroke="black" cx="174" cy="-33.23" rx="33.47" ry="33.47"/>
<text text-anchor="middle" x="174" y="-31.03" font-family="Times,serif" font-size="9.00">15774</text>
</g>
<!-- 1&#45;&gt;15774 -->
<g id="edge23" class="edge">
<title>1&#45;&gt;15774</title>
<path fill="none" stroke="red" stroke-width="0.25" d="M174,-119C174,-107.7 174,-91.89 174,-76.97"/>
<polygon fill="red" stroke="red" stroke-width="0.25" points="177.5,-76.85 174,-66.85 170.5,-76.85 177.5,-76.85"/>
</g>
<!-- 3012&#45;&gt;0 -->
<g id="edge33" class="edge">
<title>3012&#45;&gt;0</title>
<path fill="none" stroke="red" stroke-width="0.18" d="M665,-208.92C665,-194.21 665,-176.37 665,-162.1"/>
<polygon fill="red" stroke="red" stroke-width="0.18" points="668.5,-162 665,-152 661.5,-162 668.5,-162"/>
</g>
<!-- 3012&#45;&gt;2 -->
<g id="edge10" class="edge">
<title>3012&#45;&gt;2</title>
<path fill="none" stroke="green" stroke-width="0.18" stroke-dasharray="1,5" d="M678.86,-212.29C701.02,-172.48 744.13,-95.07 765.44,-56.79"/>
<polygon fill="green" stroke="green" stroke-width="0.18" points="768.56,-58.38 770.37,-47.94 762.44,-54.98 768.56,-58.38"/>
</g>
<!-- 3012&#45;&gt;3012 -->
<g id="edge6" class="edge">
<title>3012&#45;&gt;3012</title>
<path fill="none" stroke="red" stroke-width="0.72" d="M687.73,-256.38C700.36,-259.78 711.99,-253.71 711.99,-238.17 711.99,-227 705.98,-220.72 697.91,-219.34"/>
<polygon fill="red" stroke="red" stroke-width="0.72" points="697.49,-215.86 687.73,-219.96 697.92,-222.85 697.49,-215.86"/>
</g>
<!-- 3012&#45;&gt;14799 -->
<g id="edge27" class="edge">
<title>3012&#45;&gt;14799</title>
<path fill="none" stroke="red" stroke-width="0.37" d="M646.56,-215.37C635.16,-201.9 620.33,-184.37 607.56,-169.28"/>
<polygon fill="red" stroke="red" stroke-width="0.37" points="610.23,-167.02 601.1,-161.64 604.89,-171.54 610.23,-167.02"/>
</g>
<!-- 18598&#45;&gt;14799 -->
<g id="edge31" class="edge">
<title>18598&#45;&gt;14799</title>
<path fill="none" stroke="red" stroke-width="0.74" d="M260.82,-216.92C267.44,-212.45 274.75,-208.11 282,-204.94 367.98,-167.25 477.41,-149.06 536.84,-141.43"/>
<polygon fill="red" stroke="red" stroke-width="0.74" points="537.5,-144.87 546.99,-140.16 536.63,-137.93 537.5,-144.87"/>
</g>
<!-- 10120&#45;&gt;1 -->
<g id="edge16" class="edge">
<title>10120&#45;&gt;1</title>
<path fill="none" stroke="red" stroke-width="1.04" d="M63.41,-217.8C89.59,-198.6 129.16,-169.59 153.18,-151.97"/>
<polygon fill="red" stroke="red" stroke-width="1.04" points="155.29,-154.77 161.28,-146.03 151.15,-149.12 155.29,-154.77"/>
</g>
<!-- 12873&#45;&gt;1 -->
<g id="edge36" class="edge">
<title>12873&#45;&gt;1</title>
<path fill="none" stroke="green" stroke-width="0.3" d="M364.73,-223.41C320.27,-203.2 238.2,-165.89 197.77,-147.51"/>
<polygon fill="green" stroke="green" stroke-width="0.3" points="198.99,-144.22 188.44,-143.27 196.1,-150.59 198.99,-144.22"/>
</g>
<!-- 14799&#45;&gt;2 -->
<g id="edge21" class="edge">
<title>14799&#45;&gt;2</title>
<path fill="none" stroke="green" stroke-width="0.32" d="M608.89,-118.93C618.72,-113.63 629.81,-107.72 640,-102.47 679.77,-81.96 726.55,-59.09 754.16,-45.72"/>
<polygon fill="green" stroke="green" stroke-width="0.32" points="755.94,-48.75 763.42,-41.25 752.89,-42.45 755.94,-48.75"/>
</g>
<!-- 14799&#45;&gt;14799 -->
<g id="edge26" class="edge">
<title>14799&#45;&gt;14799</title>
<path fill="none" stroke="green" stroke-width="1.11" d="M607.67,-154.49C620.28,-156.41 631.23,-150.15 631.23,-135.7 631.23,-125.32 625.57,-119.17 617.71,-117.24"/>
<polygon fill="green" stroke="green" stroke-width="1.11" points="617.78,-113.74 607.67,-116.91 617.55,-120.73 617.78,-113.74"/>
</g>
<!-- 19252&#45;&gt;2 -->
<g id="edge35" class="edge">
<title>19252&#45;&gt;2</title>
<path fill="none" stroke="green" stroke-width="0.48" d="M755.19,-319.65C768.98,-307.42 784.54,-290.47 792,-271.4 820.59,-198.3 798.93,-102.82 785.94,-58.63"/>
<polygon fill="green" stroke="green" stroke-width="0.48" points="789.2,-57.33 782.93,-48.79 782.51,-59.37 789.2,-57.33"/>
</g>
<!-- 19252&#45;&gt;3012 -->
<g id="edge37" class="edge">
<title>19252&#45;&gt;3012</title>
<path fill="none" stroke="red" stroke-width="0.22" d="M711.51,-312.18C703.57,-299.72 694.12,-284.89 685.82,-271.85"/>
<polygon fill="red" stroke="red" stroke-width="0.22" points="688.61,-269.72 680.29,-263.17 682.71,-273.49 688.61,-269.72"/>
</g>
<!-- 18943 -->
<g id="node20" class="node">
<title>18943</title>
<ellipse fill="white" stroke="black" cx="750" cy="-443.11" rx="33.47" ry="33.47"/>
<text text-anchor="middle" x="750" y="-440.91" font-family="Times,serif" font-size="9.00">18943</text>
</g>
</g>
</svg>
