<?xml version="1.0" encoding="UTF-8" standalone="no"?>
<!DOCTYPE svg PUBLIC "-//W3C//DTD SVG 1.1//EN"
 "http://www.w3.org/Graphics/SVG/1.1/DTD/svg11.dtd">
<!-- Generated by graphviz version 2.43.0 (0)
 -->
<!-- Title: %3 Pages: 1 -->
<svg width="526pt" height="180pt"
 viewBox="0.00 0.00 526.50 180.02" xmlns="http://www.w3.org/2000/svg" xmlns:xlink="http://www.w3.org/1999/xlink">
<g id="graph0" class="graph" transform="scale(1 1) rotate(0) translate(4 176.02)">
<title>%3</title>
<polygon fill="white" stroke="transparent" points="-4,4 -4,-176.02 522.5,-176.02 522.5,4 -4,4"/>
<!-- &#45;1 -->
<g id="node1" class="node">
<title>&#45;1</title>
<polygon fill="lightgray" stroke="black" points="227.75,-172.02 201.75,-172.02 201.75,-154.02 227.75,-154.02 227.75,-172.02"/>
<text text-anchor="middle" x="214.75" y="-160.82" font-family="Times,serif" font-size="9.00">&#45;1</text>
</g>
<!-- 293 -->
<g id="node15" class="node">
<title>293</title>
<ellipse fill="white" stroke="black" cx="158.75" cy="-93.28" rx="25" ry="25"/>
<text text-anchor="middle" x="158.75" y="-91.08" font-family="Times,serif" font-size="9.00">293</text>
</g>
<!-- &#45;1&#45;&gt;293 -->
<g id="edge1" class="edge">
<title>&#45;1&#45;&gt;293</title>
<path fill="none" stroke="green" stroke-width="0.13" d="M208.1,-153.99C201.33,-145.78 190.43,-132.61 180.6,-120.72"/>
<polygon fill="green" stroke="green" stroke-width="0.13" points="183.1,-118.24 174.03,-112.77 177.71,-122.7 183.1,-118.24"/>
</g>
<!-- 294 -->
<g id="node16" class="node">
<title>294</title>
<ellipse fill="white" stroke="black" cx="225.75" cy="-93.28" rx="25" ry="25"/>
<text text-anchor="middle" x="225.75" y="-91.08" font-family="Times,serif" font-size="9.00">294</text>
</g>
<!-- &#45;1&#45;&gt;294 -->
<g id="edge2" class="edge">
<title>&#45;1&#45;&gt;294</title>
<path fill="none" stroke="red" stroke-width="0.52" d="M216.05,-153.99C217.12,-147.43 218.7,-137.7 220.28,-127.98"/>
<polygon fill="red" stroke="red" stroke-width="0.52" points="223.75,-128.43 221.9,-118 216.84,-127.31 223.75,-128.43"/>
</g>
<!-- 295 -->
<g id="node17" class="node">
<title>295</title>
<ellipse fill="white" stroke="black" cx="292.75" cy="-93.28" rx="25" ry="25"/>
<text text-anchor="middle" x="292.75" y="-91.08" font-family="Times,serif" font-size="9.00">295</text>
</g>
<!-- &#45;1&#45;&gt;295 -->
<g id="edge3" class="edge">
<title>&#45;1&#45;&gt;295</title>
<path fill="none" stroke="green" stroke-width="0.22" d="M224,-153.99C234.42,-144.94 251.81,-129.83 266.5,-117.08"/>
<polygon fill="green" stroke="green" stroke-width="0.22" points="269.06,-119.49 274.31,-110.29 264.47,-114.2 269.06,-119.49"/>
</g>
<!-- 296 -->
<g id="node18" class="node">
<title>296</title>
<ellipse fill="white" stroke="black" cx="359.75" cy="-93.28" rx="25" ry="25"/>
<text text-anchor="middle" x="359.75" y="-91.08" font-family="Times,serif" font-size="9.00">296</text>
</g>
<!-- &#45;1&#45;&gt;296 -->
<g id="edge4" class="edge">
<title>&#45;1&#45;&gt;296</title>
<path fill="none" stroke="red" stroke-width="0.18" d="M227.99,-157.03C255.64,-146.59 317.67,-122.97 326.75,-118.02 328.52,-117.06 330.3,-116.02 332.07,-114.93"/>
<polygon fill="red" stroke="red" stroke-width="0.18" points="334.33,-117.62 340.73,-109.18 330.46,-111.79 334.33,-117.62"/>
</g>
<!-- 297 -->
<g id="node19" class="node">
<title>297</title>
<ellipse fill="white" stroke="black" cx="426.75" cy="-93.28" rx="25" ry="25"/>
<text text-anchor="middle" x="426.75" y="-91.08" font-family="Times,serif" font-size="9.00">297</text>
</g>
<!-- &#45;1&#45;&gt;297 -->
<g id="edge5" class="edge">
<title>&#45;1&#45;&gt;297</title>
<path fill="none" stroke="green" stroke-width="0.27" d="M228.16,-156.85C230.97,-155.85 233.94,-154.85 236.75,-154.02 305.41,-133.75 328.52,-147.52 393.75,-118.02 395.58,-117.2 397.42,-116.26 399.23,-115.24"/>
<polygon fill="green" stroke="green" stroke-width="0.27" points="401.41,-118.01 408,-109.71 397.67,-112.09 401.41,-118.01"/>
</g>
<!-- 298 -->
<g id="node20" class="node">
<title>298</title>
<ellipse fill="white" stroke="black" cx="493.75" cy="-93.28" rx="25" ry="25"/>
<text text-anchor="middle" x="493.75" y="-91.08" font-family="Times,serif" font-size="9.00">298</text>
</g>
<!-- &#45;1&#45;&gt;298 -->
<g id="edge6" class="edge">
<title>&#45;1&#45;&gt;298</title>
<path fill="none" stroke="green" stroke-width="0.37" d="M228.12,-156.71C230.94,-155.71 233.92,-154.76 236.75,-154.02 334.35,-128.68 367.55,-156.51 460.75,-118.02 462.61,-117.26 464.46,-116.37 466.29,-115.39"/>
<polygon fill="green" stroke="green" stroke-width="0.37" points="468.43,-118.18 475.1,-109.95 464.75,-112.22 468.43,-118.18"/>
</g>
<!-- 299 -->
<g id="node21" class="node">
<title>299</title>
<ellipse fill="white" stroke="black" cx="24.75" cy="-93.28" rx="25" ry="25"/>
<text text-anchor="middle" x="24.75" y="-91.08" font-family="Times,serif" font-size="9.00">299</text>
</g>
<!-- &#45;1&#45;&gt;299 -->
<g id="edge7" class="edge">
<title>&#45;1&#45;&gt;299</title>
<path fill="none" stroke="green" stroke-width="0.25" d="M201.32,-156.93C198.5,-155.92 195.54,-154.9 192.75,-154.02 133.51,-135.4 113.87,-144.6 57.75,-118.02 55.93,-117.16 54.11,-116.2 52.31,-115.17"/>
<polygon fill="green" stroke="green" stroke-width="0.25" points="53.87,-112.01 43.56,-109.58 50.1,-117.91 53.87,-112.01"/>
</g>
<!-- 300 -->
<g id="node22" class="node">
<title>300</title>
<ellipse fill="white" stroke="black" cx="91.75" cy="-93.28" rx="25" ry="25"/>
<text text-anchor="middle" x="91.75" y="-91.08" font-family="Times,serif" font-size="9.00">300</text>
</g>
<!-- &#45;1&#45;&gt;300 -->
<g id="edge8" class="edge">
<title>&#45;1&#45;&gt;300</title>
<path fill="none" stroke="green" stroke-width="0.28" d="M201.57,-156.42C183.7,-148.65 151.02,-133.74 124.75,-118.02 123.07,-117.02 121.36,-115.95 119.66,-114.85"/>
<polygon fill="green" stroke="green" stroke-width="0.28" points="121.51,-111.88 111.27,-109.15 117.58,-117.67 121.51,-111.88"/>
</g>
<!-- &#45;2 -->
<g id="node2" class="node">
<title>&#45;2</title>
<polygon fill="lightgray" stroke="black" points="271.75,-172.02 245.75,-172.02 245.75,-154.02 271.75,-154.02 271.75,-172.02"/>
<text text-anchor="middle" x="258.75" y="-160.82" font-family="Times,serif" font-size="9.00">&#45;2</text>
</g>
<!-- &#45;2&#45;&gt;293 -->
<g id="edge9" class="edge">
<title>&#45;2&#45;&gt;293</title>
<path fill="none" stroke="green" stroke-width="0.35" d="M245.8,-153.75C232.22,-145.03 210.32,-130.8 191.75,-118.02 190.13,-116.91 188.48,-115.77 186.82,-114.6"/>
<polygon fill="green" stroke="green" stroke-width="0.35" points="188.73,-111.66 178.54,-108.73 184.68,-117.37 188.73,-111.66"/>
</g>
<!-- &#45;2&#45;&gt;294 -->
<g id="edge10" class="edge">
<title>&#45;2&#45;&gt;294</title>
<path fill="none" stroke="green" stroke-width="0.1" d="M254.83,-153.99C251.32,-146.78 245.94,-135.72 240.75,-125.07"/>
<polygon fill="green" stroke="green" stroke-width="0.1" points="243.82,-123.38 236.29,-115.93 237.53,-126.45 243.82,-123.38"/>
</g>
<!-- &#45;2&#45;&gt;295 -->
<g id="edge11" class="edge">
<title>&#45;2&#45;&gt;295</title>
<path fill="none" stroke="green" stroke-width="0.19" d="M262.78,-153.99C266.43,-146.72 272.03,-135.55 277.41,-124.83"/>
<polygon fill="green" stroke="green" stroke-width="0.19" points="280.67,-126.14 282.03,-115.63 274.42,-123 280.67,-126.14"/>
</g>
<!-- &#45;2&#45;&gt;296 -->
<g id="edge12" class="edge">
<title>&#45;2&#45;&gt;296</title>
<path fill="none" stroke="green" stroke-width="0.32" d="M271.66,-153.94C285.43,-145.25 307.82,-130.95 326.75,-118.02 328.37,-116.92 330.02,-115.78 331.69,-114.61"/>
<polygon fill="green" stroke="green" stroke-width="0.32" points="333.83,-117.39 339.97,-108.75 329.78,-111.67 333.83,-117.39"/>
</g>
<!-- &#45;2&#45;&gt;297 -->
<g id="edge13" class="edge">
<title>&#45;2&#45;&gt;297</title>
<path fill="none" stroke="red" stroke-width="0.2" d="M272.21,-157.03C275.03,-156.01 277.98,-154.97 280.75,-154.02 330.64,-137.01 346.66,-141.71 393.75,-118.02 395.55,-117.12 397.35,-116.12 399.14,-115.06"/>
<polygon fill="red" stroke="red" stroke-width="0.2" points="401.37,-117.79 407.85,-109.41 397.56,-111.92 401.37,-117.79"/>
</g>
<!-- &#45;2&#45;&gt;298 -->
<g id="edge14" class="edge">
<title>&#45;2&#45;&gt;298</title>
<path fill="none" stroke="green" stroke-width="0.35" d="M272.14,-156.79C274.96,-155.79 277.93,-154.81 280.75,-154.02 359.31,-132.02 385.95,-150.59 460.75,-118.02 462.59,-117.22 464.44,-116.3 466.25,-115.3"/>
<polygon fill="green" stroke="green" stroke-width="0.35" points="468.42,-118.08 475.04,-109.81 464.71,-112.14 468.42,-118.08"/>
</g>
<!-- &#45;2&#45;&gt;299 -->
<g id="edge15" class="edge">
<title>&#45;2&#45;&gt;299</title>
<path fill="none" stroke="green" stroke-width="0.11" d="M245.36,-156.79C242.54,-155.79 239.57,-154.82 236.75,-154.02 158.62,-132.1 132.14,-150.46 57.75,-118.02 55.9,-117.22 54.06,-116.3 52.24,-115.3"/>
<polygon fill="green" stroke="green" stroke-width="0.11" points="53.79,-112.14 43.46,-109.81 50.08,-118.08 53.79,-112.14"/>
</g>
<!-- &#45;2&#45;&gt;300 -->
<g id="edge16" class="edge">
<title>&#45;2&#45;&gt;300</title>
<path fill="none" stroke="red" stroke-width="0.22" d="M245.75,-157.2C242.8,-156.14 239.67,-155.02 236.75,-154.02 187.28,-137.09 171.43,-141.58 124.75,-118.02 122.95,-117.12 121.15,-116.12 119.36,-115.06"/>
<polygon fill="red" stroke="red" stroke-width="0.22" points="120.94,-111.91 110.65,-109.4 117.13,-117.78 120.94,-111.91"/>
</g>
<!-- &#45;3 -->
<g id="node3" class="node">
<title>&#45;3</title>
<polygon fill="lightgray" stroke="black" points="315.75,-172.02 289.75,-172.02 289.75,-154.02 315.75,-154.02 315.75,-172.02"/>
<text text-anchor="middle" x="302.75" y="-160.82" font-family="Times,serif" font-size="9.00">&#45;3</text>
</g>
<!-- &#45;3&#45;&gt;293 -->
<g id="edge17" class="edge">
<title>&#45;3&#45;&gt;293</title>
<path fill="none" stroke="red" stroke-width="0.14" d="M289.62,-157.03C262.23,-146.58 200.75,-122.95 191.75,-118.02 189.98,-117.06 188.2,-116.01 186.43,-114.92"/>
<polygon fill="red" stroke="red" stroke-width="0.14" points="188.04,-111.78 177.77,-109.17 184.17,-117.62 188.04,-111.78"/>
</g>
<!-- &#45;3&#45;&gt;294 -->
<g id="edge18" class="edge">
<title>&#45;3&#45;&gt;294</title>
<path fill="none" stroke="green" stroke-width="0.18" d="M293.61,-153.99C283.33,-144.94 266.16,-129.83 251.66,-117.08"/>
<polygon fill="green" stroke="green" stroke-width="0.18" points="253.77,-114.26 243.95,-110.29 249.14,-119.52 253.77,-114.26"/>
</g>
<!-- &#45;3&#45;&gt;295 -->
<g id="edge19" class="edge">
<title>&#45;3&#45;&gt;295</title>
<path fill="none" stroke="green" stroke-width="0.14" d="M301.56,-153.99C300.59,-147.43 299.16,-137.7 297.72,-127.98"/>
<polygon fill="green" stroke="green" stroke-width="0.14" points="301.17,-127.38 296.25,-118 294.25,-128.4 301.17,-127.38"/>
</g>
<!-- &#45;3&#45;&gt;296 -->
<g id="edge20" class="edge">
<title>&#45;3&#45;&gt;296</title>
<path fill="none" stroke="red" stroke-width="0.42" d="M309.51,-153.99C316.41,-145.78 327.5,-132.61 337.5,-120.72"/>
<polygon fill="red" stroke="red" stroke-width="0.42" points="340.43,-122.67 344.19,-112.77 335.08,-118.16 340.43,-122.67"/>
</g>
<!-- &#45;3&#45;&gt;297 -->
<g id="edge21" class="edge">
<title>&#45;3&#45;&gt;297</title>
<path fill="none" stroke="green" stroke-width="0.4" d="M315.77,-156.58C333.78,-148.87 367.06,-133.92 393.75,-118.02 395.43,-117.02 397.14,-115.96 398.84,-114.86"/>
<polygon fill="green" stroke="green" stroke-width="0.4" points="400.92,-117.68 407.23,-109.17 396.99,-111.88 400.92,-117.68"/>
</g>
<!-- &#45;3&#45;&gt;298 -->
<g id="edge22" class="edge">
<title>&#45;3&#45;&gt;298</title>
<path fill="none" stroke="green" stroke-width="0.13" d="M316.18,-156.92C318.99,-155.92 321.96,-154.9 324.75,-154.02 384.41,-135.32 404.21,-144.73 460.75,-118.02 462.57,-117.17 464.39,-116.2 466.19,-115.17"/>
<polygon fill="green" stroke="green" stroke-width="0.13" points="468.39,-117.92 474.94,-109.59 464.63,-112.02 468.39,-117.92"/>
</g>
<!-- &#45;3&#45;&gt;299 -->
<g id="edge23" class="edge">
<title>&#45;3&#45;&gt;299</title>
<path fill="none" stroke="red" stroke-width="0.12" d="M289.38,-156.71C286.56,-155.72 283.58,-154.76 280.75,-154.02 183.59,-128.76 150.53,-156.37 57.75,-118.02 55.89,-117.26 54.04,-116.36 52.21,-115.39"/>
<polygon fill="red" stroke="red" stroke-width="0.12" points="53.75,-112.22 43.4,-109.95 50.07,-118.18 53.75,-112.22"/>
</g>
<!-- &#45;3&#45;&gt;300 -->
<g id="edge24" class="edge">
<title>&#45;3&#45;&gt;300</title>
<path fill="none" stroke="green" stroke-width="0.31" d="M289.34,-156.85C286.52,-155.85 283.55,-154.85 280.75,-154.02 212.52,-133.83 189.57,-147.38 124.75,-118.02 122.92,-117.19 121.08,-116.25 119.27,-115.24"/>
<polygon fill="green" stroke="green" stroke-width="0.31" points="120.83,-112.08 110.5,-109.71 117.09,-118 120.83,-112.08"/>
</g>
<!-- &#45;4 -->
<g id="node4" class="node">
<title>&#45;4</title>
<polygon fill="lightgray" stroke="black" points="359.75,-172.02 333.75,-172.02 333.75,-154.02 359.75,-154.02 359.75,-172.02"/>
<text text-anchor="middle" x="346.75" y="-160.82" font-family="Times,serif" font-size="9.00">&#45;4</text>
</g>
<!-- &#45;4&#45;&gt;293 -->
<g id="edge25" class="edge">
<title>&#45;4&#45;&gt;293</title>
<path fill="none" stroke="red" stroke-width="0.54" d="M333.31,-156.94C330.5,-155.93 327.54,-154.91 324.75,-154.02 266.37,-135.54 247.05,-144.33 191.75,-118.02 189.93,-117.16 188.11,-116.19 186.31,-115.16"/>
<polygon fill="red" stroke="red" stroke-width="0.54" points="187.88,-112.01 177.57,-109.57 184.11,-117.9 187.88,-112.01"/>
</g>
<!-- &#45;4&#45;&gt;294 -->
<g id="edge26" class="edge">
<title>&#45;4&#45;&gt;294</title>
<path fill="none" stroke="green" stroke-width="0.48" d="M333.58,-156.24C316.06,-148.37 284.33,-133.49 258.75,-118.02 257.07,-117.01 255.37,-115.94 253.67,-114.83"/>
<polygon fill="green" stroke="green" stroke-width="0.48" points="255.53,-111.86 245.29,-109.12 251.59,-117.64 255.53,-111.86"/>
</g>
<!-- &#45;4&#45;&gt;295 -->
<g id="edge27" class="edge">
<title>&#45;4&#45;&gt;295</title>
<path fill="none" stroke="red" stroke-width="0.2" d="M340.34,-153.99C333.85,-145.84 323.45,-132.79 314.02,-120.96"/>
<polygon fill="red" stroke="red" stroke-width="0.2" points="316.68,-118.69 307.71,-113.05 311.21,-123.05 316.68,-118.69"/>
</g>
<!-- &#45;4&#45;&gt;296 -->
<g id="edge28" class="edge">
<title>&#45;4&#45;&gt;296</title>
<path fill="none" stroke="green" stroke-width="0.16" d="M348.29,-153.99C349.56,-147.38 351.45,-137.54 353.33,-127.75"/>
<polygon fill="green" stroke="green" stroke-width="0.16" points="356.81,-128.18 355.25,-117.7 349.93,-126.86 356.81,-128.18"/>
</g>
<!-- &#45;4&#45;&gt;297 -->
<g id="edge29" class="edge">
<title>&#45;4&#45;&gt;297</title>
<path fill="none" stroke="red" stroke-width="0.32" d="M356.24,-153.99C367,-144.88 385,-129.63 400.12,-116.83"/>
<polygon fill="red" stroke="red" stroke-width="0.32" points="402.79,-119.15 408.16,-110.02 398.27,-113.81 402.79,-119.15"/>
</g>
<!-- &#45;4&#45;&gt;298 -->
<g id="edge30" class="edge">
<title>&#45;4&#45;&gt;298</title>
<path fill="none" stroke="red" stroke-width="0.13" d="M359.81,-157.2C387.73,-146.85 451.47,-123.05 460.75,-118.02 462.52,-117.07 464.3,-116.03 466.08,-114.94"/>
<polygon fill="red" stroke="red" stroke-width="0.13" points="468.34,-117.64 474.74,-109.2 464.47,-111.8 468.34,-117.64"/>
</g>
<!-- &#45;4&#45;&gt;299 -->
<g id="edge31" class="edge">
<title>&#45;4&#45;&gt;299</title>
<path fill="none" stroke="red" stroke-width="0.26" d="M333.39,-156.65C330.57,-155.66 327.59,-154.72 324.75,-154.02 208.48,-125.4 169,-162.32 57.75,-118.02 55.88,-117.28 54.02,-116.41 52.18,-115.44"/>
<polygon fill="red" stroke="red" stroke-width="0.26" points="53.72,-112.28 43.36,-110.04 50.06,-118.25 53.72,-112.28"/>
</g>
<!-- &#45;4&#45;&gt;300 -->
<g id="edge32" class="edge">
<title>&#45;4&#45;&gt;300</title>
<path fill="none" stroke="green" stroke-width="0.14" d="M333.37,-156.75C330.55,-155.75 327.57,-154.79 324.75,-154.02 237.55,-130.51 207.9,-153.27 124.75,-118.02 122.9,-117.24 121.05,-116.33 119.22,-115.35"/>
<polygon fill="green" stroke="green" stroke-width="0.14" points="120.77,-112.18 110.42,-109.88 117.07,-118.13 120.77,-112.18"/>
</g>
<!-- &#45;5 -->
<g id="node5" class="node">
<title>&#45;5</title>
<polygon fill="lightgray" stroke="black" points="403.75,-172.02 377.75,-172.02 377.75,-154.02 403.75,-154.02 403.75,-172.02"/>
<text text-anchor="middle" x="390.75" y="-160.82" font-family="Times,serif" font-size="9.00">&#45;5</text>
</g>
<!-- &#45;5&#45;&gt;293 -->
<g id="edge33" class="edge">
<title>&#45;5&#45;&gt;293</title>
<path fill="none" stroke="green" stroke-width="0.19" d="M377.36,-156.8C374.54,-155.8 371.57,-154.82 368.75,-154.02 291.48,-132.25 265.3,-150.19 191.75,-118.02 189.91,-117.22 188.06,-116.3 186.25,-115.3"/>
<polygon fill="green" stroke="green" stroke-width="0.19" points="187.79,-112.14 177.46,-109.8 184.08,-118.07 187.79,-112.14"/>
</g>
<!-- &#45;5&#45;&gt;294 -->
<g id="edge34" class="edge">
<title>&#45;5&#45;&gt;294</title>
<path fill="none" stroke="red" stroke-width="0.3" d="M377.74,-157.22C374.79,-156.15 371.67,-155.03 368.75,-154.02 320.13,-137.23 304.61,-141.32 258.75,-118.02 256.96,-117.11 255.15,-116.11 253.36,-115.05"/>
<polygon fill="red" stroke="red" stroke-width="0.3" points="254.95,-111.9 244.66,-109.38 251.13,-117.77 254.95,-111.9"/>
</g>
<!-- &#45;5&#45;&gt;295 -->
<g id="edge35" class="edge">
<title>&#45;5&#45;&gt;295</title>
<path fill="none" stroke="green" stroke-width="0.24" d="M378.7,-154.02C365.6,-145.28 344.07,-130.82 325.75,-118.02 324.14,-116.9 322.5,-115.75 320.84,-114.57"/>
<polygon fill="green" stroke="green" stroke-width="0.24" points="322.75,-111.64 312.58,-108.68 318.69,-117.34 322.75,-111.64"/>
</g>
<!-- &#45;5&#45;&gt;296 -->
<g id="edge36" class="edge">
<title>&#45;5&#45;&gt;296</title>
<path fill="none" stroke="green" stroke-width="0.24" d="M387.07,-153.99C383.83,-146.9 378.89,-136.11 374.1,-125.63"/>
<polygon fill="green" stroke="green" stroke-width="0.24" points="377.13,-123.86 369.79,-116.22 370.77,-126.77 377.13,-123.86"/>
</g>
<!-- &#45;5&#45;&gt;297 -->
<g id="edge37" class="edge">
<title>&#45;5&#45;&gt;297</title>
<path fill="none" stroke="red" stroke-width="0.14" d="M395.02,-153.99C398.92,-146.65 404.94,-135.33 410.69,-124.51"/>
<polygon fill="red" stroke="red" stroke-width="0.14" points="413.8,-126.11 415.4,-115.63 407.62,-122.82 413.8,-126.11"/>
</g>
<!-- &#45;5&#45;&gt;298 -->
<g id="edge38" class="edge">
<title>&#45;5&#45;&gt;298</title>
<path fill="none" stroke="red" stroke-width="0.28" d="M403.81,-154.15C417.98,-145.53 441.22,-131.17 460.75,-118.02 462.37,-116.93 464.03,-115.79 465.7,-114.64"/>
<polygon fill="red" stroke="red" stroke-width="0.28" points="467.84,-117.42 474,-108.8 463.81,-111.69 467.84,-117.42"/>
</g>
<!-- &#45;5&#45;&gt;299 -->
<g id="edge39" class="edge">
<title>&#45;5&#45;&gt;299</title>
<path fill="none" stroke="red" stroke-width="0.26" d="M377.4,-156.61C374.58,-155.62 371.6,-154.7 368.75,-154.02 233.33,-122.03 187.5,-168.28 57.75,-118.02 55.87,-117.3 54.01,-116.44 52.17,-115.49"/>
<polygon fill="red" stroke="red" stroke-width="0.26" points="53.69,-112.32 43.33,-110.11 50.06,-118.3 53.69,-112.32"/>
</g>
<!-- &#45;5&#45;&gt;300 -->
<g id="edge40" class="edge">
<title>&#45;5&#45;&gt;300</title>
<path fill="none" stroke="red" stroke-width="0.25" d="M377.39,-156.68C374.57,-155.69 371.59,-154.74 368.75,-154.02 262.47,-127.16 226.34,-159.21 124.75,-118.02 122.88,-117.27 121.03,-116.39 119.2,-115.42"/>
<polygon fill="red" stroke="red" stroke-width="0.25" points="120.73,-112.25 110.38,-110 117.07,-118.22 120.73,-112.25"/>
</g>
<!-- &#45;6 -->
<g id="node6" class="node">
<title>&#45;6</title>
<polygon fill="lightgray" stroke="black" points="447.75,-172.02 421.75,-172.02 421.75,-154.02 447.75,-154.02 447.75,-172.02"/>
<text text-anchor="middle" x="434.75" y="-160.82" font-family="Times,serif" font-size="9.00">&#45;6</text>
</g>
<!-- &#45;6&#45;&gt;293 -->
<g id="edge41" class="edge">
<title>&#45;6&#45;&gt;293</title>
<path fill="none" stroke="green" stroke-width="0.62" d="M421.38,-156.71C418.56,-155.72 415.58,-154.76 412.75,-154.02 316.45,-128.91 283.69,-156.1 191.75,-118.02 189.89,-117.25 188.04,-116.36 186.21,-115.38"/>
<polygon fill="green" stroke="green" stroke-width="0.62" points="187.75,-112.22 177.4,-109.94 184.07,-118.18 187.75,-112.22"/>
</g>
<!-- &#45;6&#45;&gt;294 -->
<g id="edge42" class="edge">
<title>&#45;6&#45;&gt;294</title>
<path fill="none" stroke="green" stroke-width="0.27" d="M421.34,-156.86C418.52,-155.86 415.55,-154.86 412.75,-154.02 345.38,-133.98 322.74,-147.12 258.75,-118.02 256.92,-117.19 255.08,-116.25 253.27,-115.23"/>
<polygon fill="green" stroke="green" stroke-width="0.27" points="254.83,-112.08 244.51,-109.69 251.09,-118 254.83,-112.08"/>
</g>
<!-- &#45;6&#45;&gt;295 -->
<g id="edge43" class="edge">
<title>&#45;6&#45;&gt;295</title>
<path fill="none" stroke="red" stroke-width="0.12" d="M421.72,-157.21C396.74,-147.92 343.08,-127.58 325.75,-118.02 323.99,-117.05 322.21,-116 320.44,-114.91"/>
<polygon fill="red" stroke="red" stroke-width="0.12" points="322.05,-111.77 311.78,-109.15 318.17,-117.6 322.05,-111.77"/>
</g>
<!-- &#45;6&#45;&gt;296 -->
<g id="edge44" class="edge">
<title>&#45;6&#45;&gt;296</title>
<path fill="none" stroke="green" stroke-width="0.59" d="M425.85,-153.99C415.9,-145 399.33,-130.03 385.27,-117.33"/>
<polygon fill="green" stroke="green" stroke-width="0.59" points="387.54,-114.66 377.77,-110.56 382.85,-119.86 387.54,-114.66"/>
</g>
<!-- &#45;6&#45;&gt;297 -->
<g id="edge45" class="edge">
<title>&#45;6&#45;&gt;297</title>
<path fill="none" stroke="green" stroke-width="0.48" d="M433.8,-153.99C433.03,-147.43 431.88,-137.7 430.73,-127.98"/>
<polygon fill="green" stroke="green" stroke-width="0.48" points="434.2,-127.52 429.55,-118 427.25,-128.34 434.2,-127.52"/>
</g>
<!-- &#45;6&#45;&gt;298 -->
<g id="edge46" class="edge">
<title>&#45;6&#45;&gt;298</title>
<path fill="none" stroke="red" stroke-width="0.2" d="M441.75,-153.99C449.01,-145.65 460.75,-132.17 471.24,-120.12"/>
<polygon fill="red" stroke="red" stroke-width="0.2" points="473.96,-122.33 477.89,-112.49 468.68,-117.73 473.96,-122.33"/>
</g>
<!-- &#45;6&#45;&gt;299 -->
<g id="edge47" class="edge">
<title>&#45;6&#45;&gt;299</title>
<path fill="none" stroke="green" stroke-width="0.13" d="M421.41,-156.58C418.59,-155.6 415.6,-154.68 412.75,-154.02 258.16,-118.66 206.03,-174.25 57.75,-118.02 55.87,-117.31 54,-116.46 52.16,-115.52"/>
<polygon fill="green" stroke="green" stroke-width="0.13" points="53.68,-112.35 43.31,-110.17 50.06,-118.34 53.68,-112.35"/>
</g>
<!-- &#45;6&#45;&gt;300 -->
<g id="edge48" class="edge">
<title>&#45;6&#45;&gt;300</title>
<path fill="none" stroke="green" stroke-width="0.26" d="M421.4,-156.63C418.58,-155.64 415.59,-154.71 412.75,-154.02 287.35,-123.79 244.82,-165.16 124.75,-118.02 122.88,-117.29 121.01,-116.42 119.18,-115.47"/>
<polygon fill="green" stroke="green" stroke-width="0.26" points="120.7,-112.3 110.34,-110.08 117.06,-118.27 120.7,-112.3"/>
</g>
<!-- &#45;7 -->
<g id="node7" class="node">
<title>&#45;7</title>
<polygon fill="lightgray" stroke="black" points="95.75,-172.02 69.75,-172.02 69.75,-154.02 95.75,-154.02 95.75,-172.02"/>
<text text-anchor="middle" x="82.75" y="-160.82" font-family="Times,serif" font-size="9.00">&#45;7</text>
</g>
<!-- &#45;7&#45;&gt;293 -->
<g id="edge49" class="edge">
<title>&#45;7&#45;&gt;293</title>
<path fill="none" stroke="red" stroke-width="0.21" d="M91.77,-153.99C101.85,-145 118.64,-130.03 132.89,-117.33"/>
<polygon fill="red" stroke="red" stroke-width="0.21" points="135.35,-119.82 140.48,-110.56 130.69,-114.6 135.35,-119.82"/>
</g>
<!-- &#45;7&#45;&gt;294 -->
<g id="edge50" class="edge">
<title>&#45;7&#45;&gt;294</title>
<path fill="none" stroke="green" stroke-width="0.2" d="M95.9,-157.22C121.11,-147.94 175.26,-127.63 192.75,-118.02 194.51,-117.06 196.29,-116.01 198.06,-114.91"/>
<polygon fill="green" stroke="green" stroke-width="0.2" points="200.33,-117.61 206.72,-109.16 196.46,-111.78 200.33,-117.61"/>
</g>
<!-- &#45;7&#45;&gt;295 -->
<g id="edge51" class="edge">
<title>&#45;7&#45;&gt;295</title>
<path fill="none" stroke="green" stroke-width="0.52" d="M96.16,-156.86C98.98,-155.85 101.94,-154.86 104.75,-154.02 172.55,-133.9 195.35,-147.25 259.75,-118.02 261.58,-117.19 263.41,-116.25 265.22,-115.24"/>
<polygon fill="green" stroke="green" stroke-width="0.52" points="267.41,-118 273.99,-109.7 263.67,-112.08 267.41,-118"/>
</g>
<!-- &#45;7&#45;&gt;296 -->
<g id="edge52" class="edge">
<title>&#45;7&#45;&gt;296</title>
<path fill="none" stroke="green" stroke-width="0.24" d="M96.12,-156.71C98.94,-155.72 101.92,-154.76 104.75,-154.02 201.48,-128.83 234.39,-156.24 326.75,-118.02 328.61,-117.26 330.46,-116.36 332.29,-115.38"/>
<polygon fill="green" stroke="green" stroke-width="0.24" points="334.43,-118.18 341.1,-109.95 330.75,-112.22 334.43,-118.18"/>
</g>
<!-- &#45;7&#45;&gt;297 -->
<g id="edge53" class="edge">
<title>&#45;7&#45;&gt;297</title>
<path fill="none" stroke="red" stroke-width="0.11" d="M96.1,-156.63C98.92,-155.64 101.9,-154.71 104.75,-154.02 230.59,-123.72 273.25,-165.3 393.75,-118.02 395.62,-117.29 397.49,-116.42 399.32,-115.47"/>
<polygon fill="red" stroke="red" stroke-width="0.11" points="401.44,-118.28 408.15,-110.08 397.79,-112.3 401.44,-118.28"/>
</g>
<!-- &#45;7&#45;&gt;298 -->
<g id="edge54" class="edge">
<title>&#45;7&#45;&gt;298</title>
<path fill="none" stroke="green" stroke-width="0.18" d="M96.09,-156.58C98.91,-155.59 101.9,-154.68 104.75,-154.02 259.78,-118.58 312.04,-174.39 460.75,-118.02 462.63,-117.31 464.5,-116.46 466.34,-115.52"/>
<polygon fill="green" stroke="green" stroke-width="0.18" points="468.44,-118.34 475.19,-110.17 464.82,-112.35 468.44,-118.34"/>
</g>
<!-- &#45;7&#45;&gt;299 -->
<g id="edge55" class="edge">
<title>&#45;7&#45;&gt;299</title>
<path fill="none" stroke="red" stroke-width="0.16" d="M75.87,-153.99C68.78,-145.71 57.35,-132.35 47.09,-120.37"/>
<polygon fill="red" stroke="red" stroke-width="0.16" points="49.74,-118.09 40.58,-112.77 44.42,-122.64 49.74,-118.09"/>
</g>
<!-- &#45;7&#45;&gt;300 -->
<g id="edge56" class="edge">
<title>&#45;7&#45;&gt;300</title>
<path fill="none" stroke="red" stroke-width="0.15" d="M83.82,-153.99C84.69,-147.43 85.98,-137.7 87.27,-127.98"/>
<polygon fill="red" stroke="red" stroke-width="0.15" points="90.75,-128.37 88.6,-118 83.81,-127.45 90.75,-128.37"/>
</g>
<!-- &#45;8 -->
<g id="node8" class="node">
<title>&#45;8</title>
<polygon fill="lightgray" stroke="black" points="139.75,-172.02 113.75,-172.02 113.75,-154.02 139.75,-154.02 139.75,-172.02"/>
<text text-anchor="middle" x="126.75" y="-160.82" font-family="Times,serif" font-size="9.00">&#45;8</text>
</g>
<!-- &#45;8&#45;&gt;293 -->
<g id="edge57" class="edge">
<title>&#45;8&#45;&gt;293</title>
<path fill="none" stroke="red" stroke-width="0.17" d="M130.55,-153.99C133.95,-146.78 139.17,-135.72 144.2,-125.07"/>
<polygon fill="red" stroke="red" stroke-width="0.17" points="147.42,-126.46 148.52,-115.93 141.09,-123.47 147.42,-126.46"/>
</g>
<!-- &#45;8&#45;&gt;294 -->
<g id="edge58" class="edge">
<title>&#45;8&#45;&gt;294</title>
<path fill="none" stroke="green" stroke-width="0.24" d="M139.49,-153.72C152.85,-144.97 174.41,-130.73 192.75,-118.02 194.36,-116.91 196.01,-115.76 197.67,-114.59"/>
<polygon fill="green" stroke="green" stroke-width="0.24" points="199.82,-117.36 205.94,-108.71 195.76,-111.65 199.82,-117.36"/>
</g>
<!-- &#45;8&#45;&gt;295 -->
<g id="edge59" class="edge">
<title>&#45;8&#45;&gt;295</title>
<path fill="none" stroke="green" stroke-width="0.21" d="M139.75,-157.21C142.7,-156.14 145.83,-155.03 148.75,-154.02 197.79,-137.16 213.48,-141.45 259.75,-118.02 261.54,-117.12 263.35,-116.11 265.14,-115.05"/>
<polygon fill="green" stroke="green" stroke-width="0.21" points="267.37,-117.78 273.85,-109.39 263.55,-111.91 267.37,-117.78"/>
</g>
<!-- &#45;8&#45;&gt;296 -->
<g id="edge60" class="edge">
<title>&#45;8&#45;&gt;296</title>
<path fill="none" stroke="green" stroke-width="0.41" d="M140.14,-156.79C142.96,-155.8 145.93,-154.82 148.75,-154.02 226.45,-132.17 252.78,-150.32 326.75,-118.02 328.59,-117.22 330.43,-116.3 332.25,-115.3"/>
<polygon fill="green" stroke="green" stroke-width="0.41" points="334.42,-118.07 341.04,-109.8 330.7,-112.14 334.42,-118.07"/>
</g>
<!-- &#45;8&#45;&gt;297 -->
<g id="edge61" class="edge">
<title>&#45;8&#45;&gt;297</title>
<path fill="none" stroke="green" stroke-width="0.28" d="M140.11,-156.68C142.93,-155.69 145.91,-154.74 148.75,-154.02 255.46,-127.08 291.74,-159.34 393.75,-118.02 395.61,-117.27 397.47,-116.39 399.3,-115.42"/>
<polygon fill="green" stroke="green" stroke-width="0.28" points="401.43,-118.22 408.12,-110 397.77,-112.25 401.43,-118.22"/>
</g>
<!-- &#45;8&#45;&gt;298 -->
<g id="edge62" class="edge">
<title>&#45;8&#45;&gt;298</title>
<path fill="none" stroke="red" stroke-width="0.35" d="M140.09,-156.61C142.91,-155.62 145.9,-154.7 148.75,-154.02 284.6,-121.95 330.57,-168.41 460.75,-118.02 462.62,-117.3 464.49,-116.44 466.33,-115.49"/>
<polygon fill="red" stroke="red" stroke-width="0.35" points="468.44,-118.3 475.17,-110.12 464.8,-112.32 468.44,-118.3"/>
</g>
<!-- &#45;8&#45;&gt;299 -->
<g id="edge63" class="edge">
<title>&#45;8&#45;&gt;299</title>
<path fill="none" stroke="red" stroke-width="0.18" d="M113.64,-153.97C99.65,-145.3 76.92,-131.02 57.75,-118.02 56.13,-116.93 54.47,-115.79 52.8,-114.63"/>
<polygon fill="red" stroke="red" stroke-width="0.18" points="54.7,-111.68 44.51,-108.77 50.66,-117.4 54.7,-111.68"/>
</g>
<!-- &#45;8&#45;&gt;300 -->
<g id="edge64" class="edge">
<title>&#45;8&#45;&gt;300</title>
<path fill="none" stroke="green" stroke-width="0.14" d="M122.6,-153.99C118.84,-146.72 113.07,-135.55 107.53,-124.83"/>
<polygon fill="green" stroke="green" stroke-width="0.14" points="110.48,-122.91 102.78,-115.63 104.26,-126.12 110.48,-122.91"/>
</g>
<!-- &#45;9 -->
<g id="node9" class="node">
<title>&#45;9</title>
<polygon fill="lightgray" stroke="black" points="183.75,-172.02 157.75,-172.02 157.75,-154.02 183.75,-154.02 183.75,-172.02"/>
<text text-anchor="middle" x="170.75" y="-160.82" font-family="Times,serif" font-size="9.00">&#45;9</text>
</g>
<!-- &#45;9&#45;&gt;293 -->
<g id="edge65" class="edge">
<title>&#45;9&#45;&gt;293</title>
<path fill="none" stroke="green" stroke-width="0.33" d="M169.33,-153.99C168.15,-147.38 166.41,-137.54 164.68,-127.75"/>
<polygon fill="green" stroke="green" stroke-width="0.33" points="168.09,-126.94 162.9,-117.7 161.2,-128.16 168.09,-126.94"/>
</g>
<!-- &#45;9&#45;&gt;294 -->
<g id="edge66" class="edge">
<title>&#45;9&#45;&gt;294</title>
<path fill="none" stroke="red" stroke-width="0.18" d="M177.27,-153.99C183.89,-145.84 194.48,-132.79 204.08,-120.96"/>
<polygon fill="red" stroke="red" stroke-width="0.18" points="206.92,-123.02 210.51,-113.05 201.49,-118.61 206.92,-123.02"/>
</g>
<!-- &#45;9&#45;&gt;295 -->
<g id="edge67" class="edge">
<title>&#45;9&#45;&gt;295</title>
<path fill="none" stroke="red" stroke-width="0.12" d="M183.77,-156.4C201.43,-148.59 233.75,-133.66 259.75,-118.02 261.43,-117.01 263.13,-115.95 264.83,-114.84"/>
<polygon fill="red" stroke="red" stroke-width="0.12" points="266.92,-117.66 273.21,-109.14 262.98,-111.87 266.92,-117.66"/>
</g>
<!-- &#45;9&#45;&gt;296 -->
<g id="edge68" class="edge">
<title>&#45;9&#45;&gt;296</title>
<path fill="none" stroke="green" stroke-width="0.19" d="M184.18,-156.93C187,-155.92 189.96,-154.9 192.75,-154.02 251.56,-135.47 271.04,-144.47 326.75,-118.02 328.57,-117.16 330.39,-116.2 332.19,-115.16"/>
<polygon fill="green" stroke="green" stroke-width="0.19" points="334.39,-117.91 340.94,-109.58 330.62,-112.01 334.39,-117.91"/>
</g>
<!-- &#45;9&#45;&gt;297 -->
<g id="edge69" class="edge">
<title>&#45;9&#45;&gt;297</title>
<path fill="none" stroke="red" stroke-width="0.16" d="M184.13,-156.75C186.95,-155.75 189.92,-154.79 192.75,-154.02 280.38,-130.43 310.18,-153.41 393.75,-118.02 395.6,-117.24 397.45,-116.34 399.27,-115.35"/>
<polygon fill="red" stroke="red" stroke-width="0.16" points="401.42,-118.13 408.07,-109.89 397.73,-112.19 401.42,-118.13"/>
</g>
<!-- &#45;9&#45;&gt;298 -->
<g id="edge70" class="edge">
<title>&#45;9&#45;&gt;298</title>
<path fill="none" stroke="green" stroke-width="0.28" d="M184.1,-156.65C186.92,-155.66 189.91,-154.72 192.75,-154.02 309.45,-125.32 349.08,-162.45 460.75,-118.02 462.62,-117.28 464.48,-116.41 466.31,-115.44"/>
<polygon fill="green" stroke="green" stroke-width="0.28" points="468.44,-118.25 475.14,-110.05 464.78,-112.28 468.44,-118.25"/>
</g>
<!-- &#45;9&#45;&gt;299 -->
<g id="edge71" class="edge">
<title>&#45;9&#45;&gt;299</title>
<path fill="none" stroke="green" stroke-width="0.24" d="M157.39,-157.04C129.5,-146.6 66.91,-123 57.75,-118.02 55.98,-117.06 54.2,-116.02 52.42,-114.93"/>
<polygon fill="green" stroke="green" stroke-width="0.24" points="54.03,-111.8 43.76,-109.19 50.16,-117.63 54.03,-111.8"/>
</g>
<!-- &#45;9&#45;&gt;300 -->
<g id="edge72" class="edge">
<title>&#45;9&#45;&gt;300</title>
<path fill="none" stroke="red" stroke-width="0.16" d="M161.38,-153.99C150.75,-144.88 132.98,-129.63 118.05,-116.83"/>
<polygon fill="red" stroke="red" stroke-width="0.16" points="119.98,-113.87 110.11,-110.02 115.42,-119.18 119.98,-113.87"/>
</g>
<!-- 0 -->
<g id="node10" class="node">
<title>0</title>
<ellipse fill="lightblue" stroke="black" cx="360.75" cy="-16.26" rx="16.03" ry="16.03"/>
<text text-anchor="middle" x="360.75" y="-14.06" font-family="Times,serif" font-size="9.00">0</text>
</g>
<!-- 1 -->
<g id="node11" class="node">
<title>1</title>
<ellipse fill="lightblue" stroke="black" cx="156.75" cy="-16.26" rx="16.03" ry="16.03"/>
<text text-anchor="middle" x="156.75" y="-14.06" font-family="Times,serif" font-size="9.00">1</text>
</g>
<!-- 2 -->
<g id="node12" class="node">
<title>2</title>
<ellipse fill="lightblue" stroke="black" cx="207.75" cy="-16.26" rx="16.03" ry="16.03"/>
<text text-anchor="middle" x="207.75" y="-14.06" font-family="Times,serif" font-size="9.00">2</text>
</g>
<!-- 3 -->
<g id="node13" class="node">
<title>3</title>
<ellipse fill="lightblue" stroke="black" cx="258.75" cy="-16.26" rx="16.03" ry="16.03"/>
<text text-anchor="middle" x="258.75" y="-14.06" font-family="Times,serif" font-size="9.00">3</text>
</g>
<!-- 4 -->
<g id="node14" class="node">
<title>4</title>
<ellipse fill="lightblue" stroke="black" cx="309.75" cy="-16.26" rx="16.03" ry="16.03"/>
<text text-anchor="middle" x="309.75" y="-14.06" font-family="Times,serif" font-size="9.00">4</text>
</g>
<!-- 293&#45;&gt;0 -->
<g id="edge73" class="edge">
<title>293&#45;&gt;0</title>
<path fill="none" stroke="red" stroke-width="0.19" d="M177.54,-76.92C182,-73.8 186.88,-70.79 191.75,-68.53 251.18,-40.9 274.1,-57.37 334.75,-32.53 335.97,-32.02 337.21,-31.47 338.45,-30.89"/>
<polygon fill="red" stroke="red" stroke-width="0.19" points="340.48,-33.76 347.63,-25.94 337.16,-27.6 340.48,-33.76"/>
</g>
<!-- 293&#45;&gt;1 -->
<g id="edge74" class="edge">
<title>293&#45;&gt;1</title>
<path fill="none" stroke="green" stroke-width="0.41" d="M158.1,-68.13C157.89,-60.03 157.65,-50.97 157.43,-42.77"/>
<polygon fill="green" stroke="green" stroke-width="0.41" points="160.92,-42.54 157.16,-32.64 153.93,-42.73 160.92,-42.54"/>
</g>
<!-- 293&#45;&gt;2 -->
<g id="edge75" class="edge">
<title>293&#45;&gt;2</title>
<path fill="none" stroke="red" stroke-width="0.62" d="M171.88,-72.17C178.55,-61.97 186.65,-49.56 193.47,-39.12"/>
<polygon fill="red" stroke="red" stroke-width="0.62" points="196.53,-40.84 199.07,-30.56 190.67,-37.01 196.53,-40.84"/>
</g>
<!-- 293&#45;&gt;3 -->
<g id="edge76" class="edge">
<title>293&#45;&gt;3</title>
<path fill="none" stroke="green" stroke-width="0.28" d="M178.51,-77.46C195.57,-64.66 220.15,-46.21 237.61,-33.12"/>
<polygon fill="green" stroke="green" stroke-width="0.28" points="240.11,-35.62 246.01,-26.82 235.91,-30.02 240.11,-35.62"/>
</g>
<!-- 293&#45;&gt;4 -->
<g id="edge77" class="edge">
<title>293&#45;&gt;4</title>
<path fill="none" stroke="red" stroke-width="0.21" d="M177.76,-77.37C182.21,-74.23 187.04,-71.09 191.75,-68.53 230.32,-47.54 244.25,-51.7 283.75,-32.53 284.91,-31.96 286.1,-31.36 287.28,-30.74"/>
<polygon fill="red" stroke="red" stroke-width="0.21" points="289.18,-33.69 296.21,-25.76 285.77,-27.58 289.18,-33.69"/>
</g>
<!-- 294&#45;&gt;0 -->
<g id="edge78" class="edge">
<title>294&#45;&gt;0</title>
<path fill="none" stroke="green" stroke-width="0.2" d="M245.25,-77.36C249.59,-74.29 254.25,-71.18 258.75,-68.53 290.94,-49.53 301.71,-50 334.75,-32.53 335.89,-31.92 337.06,-31.29 338.23,-30.64"/>
<polygon fill="green" stroke="green" stroke-width="0.2" points="340.17,-33.57 347.11,-25.57 336.69,-27.49 340.17,-33.57"/>
</g>
<!-- 294&#45;&gt;1 -->
<g id="edge79" class="edge">
<title>294&#45;&gt;1</title>
<path fill="none" stroke="green" stroke-width="0.11" d="M209.4,-74.5C198.91,-63.09 185.28,-48.29 174.53,-36.59"/>
<polygon fill="green" stroke="green" stroke-width="0.11" points="176.95,-34.06 167.61,-29.07 171.8,-38.8 176.95,-34.06"/>
</g>
<!-- 294&#45;&gt;2 -->
<g id="edge80" class="edge">
<title>294&#45;&gt;2</title>
<path fill="none" stroke="green" stroke-width="0.64" d="M220.15,-68.95C218.13,-60.51 215.83,-50.95 213.77,-42.37"/>
<polygon fill="green" stroke="green" stroke-width="0.64" points="217.15,-41.43 211.41,-32.52 210.34,-43.06 217.15,-41.43"/>
</g>
<!-- 294&#45;&gt;3 -->
<g id="edge81" class="edge">
<title>294&#45;&gt;3</title>
<path fill="none" stroke="green" stroke-width="0.5" d="M235.47,-70.18C239.54,-60.94 244.26,-50.19 248.39,-40.81"/>
<polygon fill="green" stroke="green" stroke-width="0.5" points="251.6,-42.2 252.43,-31.64 245.19,-39.38 251.6,-42.2"/>
</g>
<!-- 294&#45;&gt;4 -->
<g id="edge82" class="edge">
<title>294&#45;&gt;4</title>
<path fill="none" stroke="red" stroke-width="0.3" d="M243.98,-76C257.69,-63.75 276.45,-47 290.42,-34.52"/>
<polygon fill="red" stroke="red" stroke-width="0.3" points="292.89,-37.01 298.02,-27.74 288.23,-31.79 292.89,-37.01"/>
</g>
<!-- 295&#45;&gt;0 -->
<g id="edge83" class="edge">
<title>295&#45;&gt;0</title>
<path fill="none" stroke="green" stroke-width="0.37" d="M309.21,-74.12C319.56,-62.7 332.89,-48 343.4,-36.4"/>
<polygon fill="green" stroke="green" stroke-width="0.37" points="346.03,-38.71 350.16,-28.95 340.85,-34.01 346.03,-38.71"/>
</g>
<!-- 295&#45;&gt;1 -->
<g id="edge84" class="edge">
<title>295&#45;&gt;1</title>
<path fill="none" stroke="green" stroke-width="0.16" d="M273.26,-77.34C268.91,-74.27 264.25,-71.17 259.75,-68.53 227.16,-49.41 216.19,-50.11 182.75,-32.53 181.6,-31.92 180.43,-31.29 179.26,-30.65"/>
<polygon fill="green" stroke="green" stroke-width="0.16" points="180.8,-27.5 170.38,-25.59 177.33,-33.58 180.8,-27.5"/>
</g>
<!-- 295&#45;&gt;2 -->
<g id="edge85" class="edge">
<title>295&#45;&gt;2</title>
<path fill="none" stroke="red" stroke-width="0.13" d="M274.31,-76C260.43,-63.75 241.45,-47 227.31,-34.52"/>
<polygon fill="red" stroke="red" stroke-width="0.13" points="229.43,-31.73 219.62,-27.74 224.8,-36.98 229.43,-31.73"/>
</g>
<!-- 295&#45;&gt;3 -->
<g id="edge86" class="edge">
<title>295&#45;&gt;3</title>
<path fill="none" stroke="red" stroke-width="0.32" d="M282.73,-70.18C278.54,-60.94 273.67,-50.19 269.42,-40.81"/>
<polygon fill="red" stroke="red" stroke-width="0.32" points="272.58,-39.3 265.26,-31.64 266.2,-42.19 272.58,-39.3"/>
</g>
<!-- 295&#45;&gt;4 -->
<g id="edge87" class="edge">
<title>295&#45;&gt;4</title>
<path fill="none" stroke="red" stroke-width="0.11" d="M298.03,-68.95C299.95,-60.51 302.11,-50.95 304.06,-42.37"/>
<polygon fill="red" stroke="red" stroke-width="0.11" points="307.49,-43.05 306.29,-32.52 300.67,-41.5 307.49,-43.05"/>
</g>
<!-- 296&#45;&gt;0 -->
<g id="edge88" class="edge">
<title>296&#45;&gt;0</title>
<path fill="none" stroke="green" stroke-width="0.24" d="M360.07,-68.13C360.18,-60.03 360.3,-50.97 360.41,-42.77"/>
<polygon fill="green" stroke="green" stroke-width="0.24" points="363.91,-42.68 360.54,-32.64 356.91,-42.59 363.91,-42.68"/>
</g>
<!-- 296&#45;&gt;1 -->
<g id="edge89" class="edge">
<title>296&#45;&gt;1</title>
<path fill="none" stroke="green" stroke-width="0.24" d="M340.96,-76.91C336.5,-73.79 331.62,-70.78 326.75,-68.53 266.91,-40.76 243.82,-57.48 182.75,-32.53 181.52,-32.03 180.28,-31.47 179.05,-30.89"/>
<polygon fill="green" stroke="green" stroke-width="0.24" points="180.33,-27.6 169.87,-25.95 177.01,-33.77 180.33,-27.6"/>
</g>
<!-- 296&#45;&gt;2 -->
<g id="edge90" class="edge">
<title>296&#45;&gt;2</title>
<path fill="none" stroke="red" stroke-width="0.33" d="M340.74,-77.35C336.29,-74.21 331.47,-71.08 326.75,-68.53 287.78,-47.41 273.66,-51.81 233.75,-32.53 232.58,-31.96 231.4,-31.37 230.21,-30.75"/>
<polygon fill="red" stroke="red" stroke-width="0.33" points="231.72,-27.58 221.29,-25.77 228.31,-33.7 231.72,-27.58"/>
</g>
<!-- 296&#45;&gt;3 -->
<g id="edge91" class="edge">
<title>296&#45;&gt;3</title>
<path fill="none" stroke="red" stroke-width="0.21" d="M340.27,-77.81C322.84,-64.86 297.34,-45.92 279.52,-32.69"/>
<polygon fill="red" stroke="red" stroke-width="0.21" points="281.57,-29.85 271.45,-26.7 277.39,-35.47 281.57,-29.85"/>
</g>
<!-- 296&#45;&gt;4 -->
<g id="edge92" class="edge">
<title>296&#45;&gt;4</title>
<path fill="none" stroke="green" stroke-width="0.14" d="M346.35,-72.17C339.46,-61.84 331.06,-49.23 324.04,-38.71"/>
<polygon fill="green" stroke="green" stroke-width="0.14" points="326.77,-36.48 318.31,-30.1 320.94,-40.36 326.77,-36.48"/>
</g>
<!-- 297&#45;&gt;0 -->
<g id="edge93" class="edge">
<title>297&#45;&gt;0</title>
<path fill="none" stroke="red" stroke-width="0.11" d="M410.77,-74.12C400.83,-62.81 388.04,-48.28 377.88,-36.74"/>
<polygon fill="red" stroke="red" stroke-width="0.11" points="380.26,-34.14 371.03,-28.95 375.01,-38.77 380.26,-34.14"/>
</g>
<!-- 297&#45;&gt;1 -->
<g id="edge94" class="edge">
<title>297&#45;&gt;1</title>
<path fill="none" stroke="red" stroke-width="0.21" d="M408.09,-76.64C403.62,-73.53 398.7,-70.6 393.75,-68.53 305.99,-31.8 272.12,-65.14 182.75,-32.53 181.5,-32.07 180.25,-31.56 179,-31"/>
<polygon fill="red" stroke="red" stroke-width="0.21" points="180.27,-27.71 169.79,-26.16 177.01,-33.91 180.27,-27.71"/>
</g>
<!-- 297&#45;&gt;2 -->
<g id="edge95" class="edge">
<title>297&#45;&gt;2</title>
<path fill="none" stroke="green" stroke-width="0.37" d="M408,-76.83C403.54,-73.71 398.64,-70.73 393.75,-68.53 327.27,-38.64 301.54,-59.3 233.75,-32.53 232.52,-32.04 231.27,-31.5 230.03,-30.92"/>
<polygon fill="green" stroke="green" stroke-width="0.37" points="231.31,-27.64 220.84,-26.01 228.01,-33.81 231.31,-27.64"/>
</g>
<!-- 297&#45;&gt;3 -->
<g id="edge96" class="edge">
<title>297&#45;&gt;3</title>
<path fill="none" stroke="green" stroke-width="0.19" d="M407.84,-77.18C403.38,-74.05 398.53,-70.96 393.75,-68.53 348.29,-45.36 331.23,-53.56 284.75,-32.53 283.57,-31.99 282.37,-31.42 281.18,-30.82"/>
<polygon fill="green" stroke="green" stroke-width="0.19" points="282.67,-27.65 272.22,-25.9 279.3,-33.78 282.67,-27.65"/>
</g>
<!-- 297&#45;&gt;4 -->
<g id="edge97" class="edge">
<title>297&#45;&gt;4</title>
<path fill="none" stroke="red" stroke-width="0.1" d="M407.03,-77.71C402.69,-74.62 398.1,-71.42 393.75,-68.53 382.46,-61.04 352.94,-43.16 332.1,-30.64"/>
<polygon fill="red" stroke="red" stroke-width="0.1" points="333.88,-27.63 323.5,-25.48 330.27,-33.63 333.88,-27.63"/>
</g>
<!-- 298&#45;&gt;0 -->
<g id="edge98" class="edge">
<title>298&#45;&gt;0</title>
<path fill="none" stroke="green" stroke-width="0.34" d="M474.18,-77.46C469.84,-74.39 465.21,-71.25 460.75,-68.53 435.57,-53.13 405.24,-38.04 384.63,-28.26"/>
<polygon fill="green" stroke="green" stroke-width="0.34" points="385.9,-24.99 375.36,-23.91 382.92,-31.32 385.9,-24.99"/>
</g>
<!-- 298&#45;&gt;1 -->
<g id="edge99" class="edge">
<title>298&#45;&gt;1</title>
<path fill="none" stroke="green" stroke-width="0.31" d="M475.15,-76.49C470.67,-73.39 465.74,-70.5 460.75,-68.53 344.88,-22.74 300.62,-72.88 182.75,-32.53 181.5,-32.1 180.24,-31.6 178.98,-31.06"/>
<polygon fill="green" stroke="green" stroke-width="0.31" points="180.23,-27.77 169.75,-26.27 177.01,-33.98 180.23,-27.77"/>
</g>
<!-- 298&#45;&gt;2 -->
<g id="edge100" class="edge">
<title>298&#45;&gt;2</title>
<path fill="none" stroke="red" stroke-width="0.36" d="M475.1,-76.59C470.63,-73.49 465.71,-70.57 460.75,-68.53 366.29,-29.64 329.91,-66.98 233.75,-32.53 232.5,-32.08 231.25,-31.57 230,-31.02"/>
<polygon fill="red" stroke="red" stroke-width="0.36" points="231.26,-27.73 220.77,-26.19 228.01,-33.93 231.26,-27.73"/>
</g>
<!-- 298&#45;&gt;3 -->
<g id="edge101" class="edge">
<title>298&#45;&gt;3</title>
<path fill="none" stroke="red" stroke-width="0.22" d="M475.04,-76.76C470.57,-73.65 465.66,-70.68 460.75,-68.53 387.61,-36.5 359.29,-61.12 284.75,-32.53 283.51,-32.05 282.27,-31.52 281.02,-30.95"/>
<polygon fill="red" stroke="red" stroke-width="0.22" points="282.29,-27.66 271.82,-26.07 279.01,-33.85 282.29,-27.66"/>
</g>
<!-- 298&#45;&gt;4 -->
<g id="edge102" class="edge">
<title>298&#45;&gt;4</title>
<path fill="none" stroke="green" stroke-width="0.24" d="M474.9,-77.04C470.44,-73.92 465.57,-70.87 460.75,-68.53 408.74,-43.27 388.87,-55.34 335.75,-32.53 334.53,-32 333.3,-31.44 332.07,-30.84"/>
<polygon fill="green" stroke="green" stroke-width="0.24" points="333.36,-27.55 322.91,-25.85 330.02,-33.7 333.36,-27.55"/>
</g>
<!-- 299&#45;&gt;0 -->
<g id="edge103" class="edge">
<title>299&#45;&gt;0</title>
<path fill="none" stroke="red" stroke-width="0.3" d="M43.35,-76.49C47.82,-73.39 52.76,-70.5 57.75,-68.53 173.2,-22.88 217.3,-72.76 334.75,-32.53 336,-32.1 337.26,-31.6 338.51,-31.06"/>
<polygon fill="red" stroke="red" stroke-width="0.3" points="340.49,-33.98 347.75,-26.27 337.26,-27.77 340.49,-33.98"/>
</g>
<!-- 299&#45;&gt;1 -->
<g id="edge104" class="edge">
<title>299&#45;&gt;1</title>
<path fill="none" stroke="red" stroke-width="0.14" d="M44.32,-77.48C48.66,-74.4 53.3,-71.26 57.75,-68.53 82.69,-53.21 112.72,-38.09 133.12,-28.29"/>
<polygon fill="red" stroke="red" stroke-width="0.14" points="134.76,-31.39 142.29,-23.93 131.76,-25.06 134.76,-31.39"/>
</g>
<!-- 299&#45;&gt;2 -->
<g id="edge105" class="edge">
<title>299&#45;&gt;2</title>
<path fill="none" stroke="green" stroke-width="0.18" d="M43.6,-77.05C48.06,-73.92 52.93,-70.88 57.75,-68.53 109.34,-43.4 129.04,-55.23 181.75,-32.53 182.97,-32 184.2,-31.43 185.43,-30.83"/>
<polygon fill="green" stroke="green" stroke-width="0.18" points="187.48,-33.7 194.59,-25.84 184.13,-27.55 187.48,-33.7"/>
</g>
<!-- 299&#45;&gt;3 -->
<g id="edge106" class="edge">
<title>299&#45;&gt;3</title>
<path fill="none" stroke="red" stroke-width="0.27" d="M43.46,-76.76C47.93,-73.65 52.84,-70.68 57.75,-68.53 130.47,-36.63 158.63,-61.01 232.75,-32.53 233.99,-32.05 235.23,-31.52 236.47,-30.95"/>
<polygon fill="red" stroke="red" stroke-width="0.27" points="238.49,-33.84 245.68,-26.06 235.2,-27.66 238.49,-33.84"/>
</g>
<!-- 299&#45;&gt;4 -->
<g id="edge107" class="edge">
<title>299&#45;&gt;4</title>
<path fill="none" stroke="red" stroke-width="0.22" d="M43.39,-76.59C47.87,-73.49 52.79,-70.57 57.75,-68.53 151.79,-29.77 188.01,-66.87 283.75,-32.53 285,-32.08 286.25,-31.57 287.5,-31.02"/>
<polygon fill="red" stroke="red" stroke-width="0.22" points="289.49,-33.93 296.72,-26.19 286.24,-27.73 289.49,-33.93"/>
</g>
<!-- 300&#45;&gt;0 -->
<g id="edge108" class="edge">
<title>300&#45;&gt;0</title>
<path fill="none" stroke="green" stroke-width="0.31" d="M110.41,-76.64C114.88,-73.54 119.8,-70.6 124.75,-68.53 212.09,-31.93 245.81,-65.03 334.75,-32.53 335.99,-32.07 337.25,-31.56 338.49,-31"/>
<polygon fill="green" stroke="green" stroke-width="0.31" points="340.49,-33.91 347.71,-26.15 337.23,-27.71 340.49,-33.91"/>
</g>
<!-- 300&#45;&gt;1 -->
<g id="edge109" class="edge">
<title>300&#45;&gt;1</title>
<path fill="none" stroke="red" stroke-width="0.34" d="M107.48,-74.12C117.16,-62.95 129.56,-48.64 139.5,-37.16"/>
<polygon fill="red" stroke="red" stroke-width="0.34" points="142.33,-39.25 146.23,-29.4 137.04,-34.66 142.33,-39.25"/>
</g>
<!-- 300&#45;&gt;2 -->
<g id="edge110" class="edge">
<title>300&#45;&gt;2</title>
<path fill="none" stroke="green" stroke-width="0.27" d="M111.48,-77.73C115.81,-74.63 120.4,-71.43 124.75,-68.53 144.95,-55.04 168.57,-40.57 185.44,-30.46"/>
<polygon fill="green" stroke="green" stroke-width="0.27" points="187.26,-33.45 194.05,-25.32 183.67,-27.44 187.26,-33.45"/>
</g>
<!-- 300&#45;&gt;3 -->
<g id="edge111" class="edge">
<title>300&#45;&gt;3</title>
<path fill="none" stroke="green" stroke-width="0.48" d="M110.67,-77.19C115.12,-74.06 119.97,-70.97 124.75,-68.53 169.8,-45.49 186.68,-53.45 232.75,-32.53 233.93,-31.99 235.12,-31.42 236.32,-30.82"/>
<polygon fill="green" stroke="green" stroke-width="0.48" points="238.19,-33.78 245.27,-25.9 234.82,-27.64 238.19,-33.78"/>
</g>
<!-- 300&#45;&gt;4 -->
<g id="edge112" class="edge">
<title>300&#45;&gt;4</title>
<path fill="none" stroke="green" stroke-width="0.26" d="M110.5,-76.83C114.96,-73.72 119.86,-70.73 124.75,-68.53 190.81,-38.77 216.38,-59.18 283.75,-32.53 284.98,-32.04 286.22,-31.5 287.46,-30.92"/>
<polygon fill="green" stroke="green" stroke-width="0.26" points="289.49,-33.81 296.66,-26.01 286.19,-27.63 289.49,-33.81"/>
</g>
</g>
</svg>
