<?xml version="1.0" encoding="UTF-8" standalone="no"?>
<!DOCTYPE svg PUBLIC "-//W3C//DTD SVG 1.1//EN"
 "http://www.w3.org/Graphics/SVG/1.1/DTD/svg11.dtd">
<!-- Generated by graphviz version 2.43.0 (0)
 -->
<!-- Title: %3 Pages: 1 -->
<svg width="966pt" height="1219pt"
 viewBox="0.00 0.00 966.47 1219.23" xmlns="http://www.w3.org/2000/svg" xmlns:xlink="http://www.w3.org/1999/xlink">
<g id="graph0" class="graph" transform="scale(1 1) rotate(0) translate(4 1215.23)">
<title>%3</title>
<polygon fill="white" stroke="transparent" points="-4,4 -4,-1215.23 962.47,-1215.23 962.47,4 -4,4"/>
<!-- &#45;1 -->
<g id="node1" class="node">
<title>&#45;1</title>
<polygon fill="lightgray" stroke="black" points="267.99,-1191.24 241.99,-1191.24 241.99,-1173.24 267.99,-1173.24 267.99,-1191.24"/>
<text text-anchor="middle" x="254.99" y="-1180.04" font-family="Times,serif" font-size="9.00">&#45;1</text>
</g>
<!-- 2824 -->
<g id="node7" class="node">
<title>2824</title>
<ellipse fill="white" stroke="black" cx="28.99" cy="-1084.01" rx="28.98" ry="28.98"/>
<text text-anchor="middle" x="28.99" y="-1081.81" font-family="Times,serif" font-size="9.00">2824</text>
</g>
<!-- &#45;1&#45;&gt;2824 -->
<g id="edge23" class="edge">
<title>&#45;1&#45;&gt;2824</title>
<path fill="none" stroke="green" stroke-width="0.42" stroke-dasharray="1,5" d="M241.55,-1178.06C210.46,-1170.37 131.69,-1149.08 71.99,-1117.25 67.69,-1114.96 63.35,-1112.26 59.17,-1109.41"/>
<polygon fill="green" stroke="green" stroke-width="0.42" points="61.04,-1106.44 50.88,-1103.45 56.96,-1112.13 61.04,-1106.44"/>
</g>
<!-- 5770 -->
<g id="node8" class="node">
<title>5770</title>
<ellipse fill="white" stroke="black" cx="176.99" cy="-981.55" rx="28.98" ry="28.98"/>
<text text-anchor="middle" x="176.99" y="-979.35" font-family="Times,serif" font-size="9.00">5770</text>
</g>
<!-- &#45;1&#45;&gt;5770 -->
<g id="edge29" class="edge">
<title>&#45;1&#45;&gt;5770</title>
<path fill="none" stroke="green" stroke-width="0.12" stroke-dasharray="1,5" d="M241.54,-1180.22C210.94,-1177.1 136.36,-1164.73 104.99,-1117.25 88.71,-1092.6 93.32,-1077.92 104.99,-1050.78 113.14,-1031.83 129.44,-1015.67 144.46,-1003.84"/>
<polygon fill="green" stroke="green" stroke-width="0.12" points="146.72,-1006.52 152.62,-997.72 142.52,-1000.92 146.72,-1006.52"/>
</g>
<!-- 2969 -->
<g id="node13" class="node">
<title>2969</title>
<ellipse fill="white" stroke="black" cx="309.99" cy="-592.89" rx="28.98" ry="28.98"/>
<text text-anchor="middle" x="309.99" y="-590.69" font-family="Times,serif" font-size="9.00">2969</text>
</g>
<!-- &#45;1&#45;&gt;2969 -->
<g id="edge24" class="edge">
<title>&#45;1&#45;&gt;2969</title>
<path fill="none" stroke="red" stroke-width="0.18" d="M256.48,-1172.98C258.62,-1160.82 262.59,-1137.35 264.99,-1117.25 289.27,-913.83 283.41,-861.8 302.99,-657.88 303.8,-649.5 304.73,-640.5 305.66,-631.99"/>
<polygon fill="red" stroke="red" stroke-width="0.18" points="309.15,-632.23 306.76,-621.91 302.19,-631.46 309.15,-632.23"/>
</g>
<!-- 13216 -->
<g id="node14" class="node">
<title>13216</title>
<ellipse fill="white" stroke="black" cx="146.99" cy="-1084.01" rx="33.47" ry="33.47"/>
<text text-anchor="middle" x="146.99" y="-1081.81" font-family="Times,serif" font-size="9.00">13216</text>
</g>
<!-- &#45;1&#45;&gt;13216 -->
<g id="edge58" class="edge">
<title>&#45;1&#45;&gt;13216</title>
<path fill="none" stroke="green" stroke-width="0.37" d="M245.78,-1173.04C231.12,-1159.97 201.77,-1133.82 178.86,-1113.41"/>
<polygon fill="green" stroke="green" stroke-width="0.37" points="181.16,-1110.77 171.36,-1106.73 176.5,-1116 181.16,-1110.77"/>
</g>
<!-- 6841 -->
<g id="node17" class="node">
<title>6841</title>
<ellipse fill="white" stroke="black" cx="226.99" cy="-1084.01" rx="28.98" ry="28.98"/>
<text text-anchor="middle" x="226.99" y="-1081.81" font-family="Times,serif" font-size="9.00">6841</text>
</g>
<!-- &#45;1&#45;&gt;6841 -->
<g id="edge38" class="edge">
<title>&#45;1&#45;&gt;6841</title>
<path fill="none" stroke="red" stroke-width="0.4" d="M252.6,-1173.04C249.31,-1161.71 243.15,-1140.56 237.7,-1121.82"/>
<polygon fill="red" stroke="red" stroke-width="0.4" points="241.01,-1120.65 234.85,-1112.03 234.29,-1122.61 241.01,-1120.65"/>
</g>
<!-- 6494 -->
<g id="node22" class="node">
<title>6494</title>
<ellipse fill="white" stroke="black" cx="465.99" cy="-1084.01" rx="28.98" ry="28.98"/>
<text text-anchor="middle" x="465.99" y="-1081.81" font-family="Times,serif" font-size="9.00">6494</text>
</g>
<!-- &#45;1&#45;&gt;6494 -->
<g id="edge33" class="edge">
<title>&#45;1&#45;&gt;6494</title>
<path fill="none" stroke="red" stroke-width="0.24" stroke-dasharray="1,5" d="M259.34,-1173.16C263.17,-1166.81 269.32,-1158.24 276.99,-1153.25 331.58,-1117.76 359.67,-1144.08 418.99,-1117.25 424.42,-1114.79 429.9,-1111.71 435.1,-1108.43"/>
<polygon fill="red" stroke="red" stroke-width="0.24" points="437.16,-1111.26 443.53,-1102.8 433.27,-1105.44 437.16,-1111.26"/>
</g>
<!-- 487 -->
<g id="node25" class="node">
<title>487</title>
<ellipse fill="white" stroke="black" cx="545.99" cy="-887.56" rx="25" ry="25"/>
<text text-anchor="middle" x="545.99" y="-885.36" font-family="Times,serif" font-size="9.00">487</text>
</g>
<!-- &#45;1&#45;&gt;487 -->
<g id="edge1" class="edge">
<title>&#45;1&#45;&gt;487</title>
<path fill="none" stroke="green" stroke-width="0.3" d="M259.07,-1173.23C262.82,-1166.75 269,-1157.94 276.99,-1153.25 365.08,-1101.52 427.61,-1185.07 503.99,-1117.25 559.08,-1068.33 556.97,-972.92 551.21,-922.18"/>
<polygon fill="green" stroke="green" stroke-width="0.3" points="554.66,-921.55 549.95,-912.06 547.72,-922.42 554.66,-921.55"/>
</g>
<!-- 488 -->
<g id="node26" class="node">
<title>488</title>
<ellipse fill="white" stroke="black" cx="366.99" cy="-498.91" rx="25" ry="25"/>
<text text-anchor="middle" x="366.99" y="-496.71" font-family="Times,serif" font-size="9.00">488</text>
</g>
<!-- &#45;1&#45;&gt;488 -->
<g id="edge2" class="edge">
<title>&#45;1&#45;&gt;488</title>
<path fill="none" stroke="red" stroke-width="0.17" d="M261.44,-1172.99C290.15,-1136.18 404.99,-988.6 404.99,-982.55 404.99,-982.55 404.99,-982.55 404.99,-690.11 404.99,-633.94 388.86,-570.21 377.61,-532.62"/>
<polygon fill="red" stroke="red" stroke-width="0.17" points="380.86,-531.28 374.59,-522.74 374.17,-533.33 380.86,-531.28"/>
</g>
<!-- &#45;2 -->
<g id="node2" class="node">
<title>&#45;2</title>
<polygon fill="lightgray" stroke="black" points="341.99,-990.55 315.99,-990.55 315.99,-972.55 341.99,-972.55 341.99,-990.55"/>
<text text-anchor="middle" x="328.99" y="-979.35" font-family="Times,serif" font-size="9.00">&#45;2</text>
</g>
<!-- &#45;2&#45;&gt;2969 -->
<g id="edge37" class="edge">
<title>&#45;2&#45;&gt;2969</title>
<path fill="none" stroke="red" stroke-width="0.32" stroke-dasharray="1,5" d="M326.76,-972.22C323.45,-959.45 317.39,-934.19 314.99,-912.31 303.98,-811.73 306.16,-692.22 308.29,-632.25"/>
<polygon fill="red" stroke="red" stroke-width="0.32" points="311.8,-632.24 308.68,-622.11 304.8,-631.97 311.8,-632.24"/>
</g>
<!-- &#45;2&#45;&gt;487 -->
<g id="edge3" class="edge">
<title>&#45;2&#45;&gt;487</title>
<path fill="none" stroke="green" stroke-width="0.42" d="M342.24,-974.93C375.9,-960.66 465.47,-922.7 513.87,-902.18"/>
<polygon fill="green" stroke="green" stroke-width="0.42" points="515.42,-905.33 523.26,-898.2 512.69,-898.88 515.42,-905.33"/>
</g>
<!-- &#45;2&#45;&gt;488 -->
<g id="edge4" class="edge">
<title>&#45;2&#45;&gt;488</title>
<path fill="none" stroke="green" stroke-width="0.49" d="M329.65,-972.2C333.81,-919.64 356.44,-633.35 364.3,-533.94"/>
<polygon fill="green" stroke="green" stroke-width="0.49" points="367.8,-534.08 365.1,-523.83 360.82,-533.53 367.8,-534.08"/>
</g>
<!-- 0 -->
<g id="node3" class="node">
<title>0</title>
<ellipse fill="lightblue" stroke="black" cx="380.99" cy="-204.23" rx="16.03" ry="16.03"/>
<text text-anchor="middle" x="380.99" y="-202.03" font-family="Times,serif" font-size="9.00">0</text>
</g>
<!-- 0&#45;&gt;0 -->
<g id="edge11" class="edge">
<title>0&#45;&gt;0</title>
<path fill="none" stroke="red" stroke-width="0.15" stroke-dasharray="1,5" d="M390.81,-217.72C402.14,-227.29 415.25,-222.8 415.25,-204.23 415.25,-190.59 408.18,-184.55 399.94,-186.09"/>
<polygon fill="red" stroke="red" stroke-width="0.15" points="398.13,-183.08 390.81,-190.74 401.31,-189.32 398.13,-183.08"/>
</g>
<!-- 1 -->
<g id="node4" class="node">
<title>1</title>
<ellipse fill="lightblue" stroke="black" cx="246.99" cy="-400.68" rx="16.03" ry="16.03"/>
<text text-anchor="middle" x="246.99" y="-398.48" font-family="Times,serif" font-size="9.00">1</text>
</g>
<!-- 2677 -->
<g id="node30" class="node">
<title>2677</title>
<ellipse fill="white" stroke="black" cx="385.99" cy="-302.45" rx="28.98" ry="28.98"/>
<text text-anchor="middle" x="385.99" y="-300.25" font-family="Times,serif" font-size="9.00">2677</text>
</g>
<!-- 1&#45;&gt;2677 -->
<g id="edge43" class="edge">
<title>1&#45;&gt;2677</title>
<path fill="none" stroke="red" stroke-width="0.58" stroke-dasharray="1,5" d="M260.07,-390.63C281.41,-375.85 324.34,-346.14 354.1,-325.53"/>
<polygon fill="red" stroke="red" stroke-width="0.58" points="356.26,-328.29 362.49,-319.72 352.28,-322.54 356.26,-328.29"/>
</g>
<!-- 2 -->
<g id="node5" class="node">
<title>2</title>
<ellipse fill="lightblue" stroke="black" cx="656.99" cy="-16.26" rx="16.03" ry="16.03"/>
<text text-anchor="middle" x="656.99" y="-14.06" font-family="Times,serif" font-size="9.00">2</text>
</g>
<!-- 2&#45;&gt;2 -->
<g id="edge12" class="edge">
<title>2&#45;&gt;2</title>
<path fill="none" stroke="green" stroke-width="0.49" d="M667.87,-28.55C678.94,-35.78 691.25,-31.69 691.25,-16.26 691.25,-5.42 685.16,-0.18 677.7,-0.53"/>
<polygon fill="green" stroke="green" stroke-width="0.49" points="676.15,2.63 667.87,-3.97 678.46,-3.97 676.15,2.63"/>
</g>
<!-- 8837 -->
<g id="node6" class="node">
<title>8837</title>
<ellipse fill="white" stroke="black" cx="631.99" cy="-691.11" rx="28.98" ry="28.98"/>
<text text-anchor="middle" x="631.99" y="-688.91" font-family="Times,serif" font-size="9.00">8837</text>
</g>
<!-- 6668 -->
<g id="node10" class="node">
<title>6668</title>
<ellipse fill="white" stroke="black" cx="593.99" cy="-592.89" rx="28.98" ry="28.98"/>
<text text-anchor="middle" x="593.99" y="-590.69" font-family="Times,serif" font-size="9.00">6668</text>
</g>
<!-- 8837&#45;&gt;6668 -->
<g id="edge45" class="edge">
<title>8837&#45;&gt;6668</title>
<path fill="none" stroke="green" stroke-width="0.34" stroke-dasharray="1,5" d="M621.61,-663.82C617.46,-653.32 612.62,-641.06 608.16,-629.76"/>
<polygon fill="green" stroke="green" stroke-width="0.34" points="611.29,-628.17 604.36,-620.15 604.78,-630.74 611.29,-628.17"/>
</g>
<!-- 8837&#45;&gt;2969 -->
<g id="edge50" class="edge">
<title>8837&#45;&gt;2969</title>
<path fill="none" stroke="red" stroke-width="0.16" d="M604.26,-681.83C546.48,-664.56 413.16,-624.72 347.68,-605.15"/>
<polygon fill="red" stroke="red" stroke-width="0.16" points="348.35,-601.7 337.77,-602.19 346.35,-608.41 348.35,-601.7"/>
</g>
<!-- 6335 -->
<g id="node19" class="node">
<title>6335</title>
<ellipse fill="white" stroke="black" cx="744.99" cy="-101.76" rx="28.98" ry="28.98"/>
<text text-anchor="middle" x="744.99" y="-99.56" font-family="Times,serif" font-size="9.00">6335</text>
</g>
<!-- 8837&#45;&gt;6335 -->
<g id="edge53" class="edge">
<title>8837&#45;&gt;6335</title>
<path fill="none" stroke="green" stroke-width="0.33" stroke-dasharray="1,5" d="M643.72,-664.22C663.72,-618.71 704.02,-520.94 721.99,-433.91 743.52,-329.61 745.95,-203.32 745.64,-141.15"/>
<polygon fill="green" stroke="green" stroke-width="0.33" points="749.14,-140.99 745.56,-131.02 742.14,-141.04 749.14,-140.99"/>
</g>
<!-- 12899 -->
<g id="node24" class="node">
<title>12899</title>
<ellipse fill="white" stroke="black" cx="626.99" cy="-204.23" rx="33.47" ry="33.47"/>
<text text-anchor="middle" x="626.99" y="-202.03" font-family="Times,serif" font-size="9.00">12899</text>
</g>
<!-- 8837&#45;&gt;12899 -->
<g id="edge54" class="edge">
<title>8837&#45;&gt;12899</title>
<path fill="none" stroke="green" stroke-width="0.27" d="M632.1,-662.04C632.18,-636.46 632.23,-597.64 631.99,-563.9 631.2,-449.81 628.98,-315.33 627.78,-248.07"/>
<polygon fill="green" stroke="green" stroke-width="0.27" points="631.28,-247.8 627.6,-237.87 624.28,-247.93 631.28,-247.8"/>
</g>
<!-- 5770&#45;&gt;1 -->
<g id="edge47" class="edge">
<title>5770&#45;&gt;1</title>
<path fill="none" stroke="red" stroke-width="0.16" d="M176.99,-952.51C176.99,-916.1 176.99,-850.6 176.99,-794.58 176.99,-794.58 176.99,-794.58 176.99,-591.89 176.99,-536.64 179.8,-520.94 200.99,-469.91 208.21,-452.55 220.16,-435 230.08,-422.05"/>
<polygon fill="red" stroke="red" stroke-width="0.16" points="233.08,-423.89 236.53,-413.88 227.59,-419.56 233.08,-423.89"/>
</g>
<!-- 3259 -->
<g id="node18" class="node">
<title>3259</title>
<ellipse fill="white" stroke="black" cx="119.99" cy="-498.91" rx="28.98" ry="28.98"/>
<text text-anchor="middle" x="119.99" y="-496.71" font-family="Times,serif" font-size="9.00">3259</text>
</g>
<!-- 5770&#45;&gt;3259 -->
<g id="edge35" class="edge">
<title>5770&#45;&gt;3259</title>
<path fill="none" stroke="green" stroke-width="0.46" d="M166.09,-954.59C152.21,-919.11 129.99,-853.19 129.99,-794.58 129.99,-794.58 129.99,-794.58 129.99,-690.11 129.99,-637.37 126.11,-576.51 123.18,-538.12"/>
<polygon fill="green" stroke="green" stroke-width="0.46" points="126.65,-537.62 122.39,-527.92 119.68,-538.16 126.65,-537.62"/>
</g>
<!-- 5770&#45;&gt;487 -->
<g id="edge30" class="edge">
<title>5770&#45;&gt;487</title>
<path fill="none" stroke="red" stroke-width="0.3" d="M205.03,-973.56C271.72,-956.93 439.6,-915.09 511.95,-897.05"/>
<polygon fill="red" stroke="red" stroke-width="0.3" points="513.05,-900.38 521.9,-894.57 511.36,-893.59 513.05,-900.38"/>
</g>
<!-- 1547 -->
<g id="node9" class="node">
<title>1547</title>
<ellipse fill="white" stroke="black" cx="593.99" cy="-793.58" rx="28.98" ry="28.98"/>
<text text-anchor="middle" x="593.99" y="-791.38" font-family="Times,serif" font-size="9.00">1547</text>
</g>
<!-- 1547&#45;&gt;8837 -->
<g id="edge44" class="edge">
<title>1547&#45;&gt;8837</title>
<path fill="none" stroke="green" stroke-width="0.26" stroke-dasharray="1,5" d="M603.98,-766.18C608.35,-754.62 613.55,-740.87 618.28,-728.37"/>
<polygon fill="green" stroke="green" stroke-width="0.26" points="621.68,-729.27 621.94,-718.68 615.13,-726.8 621.68,-729.27"/>
</g>
<!-- 1547&#45;&gt;6668 -->
<g id="edge36" class="edge">
<title>1547&#45;&gt;6668</title>
<path fill="none" stroke="green" stroke-width="0.19" stroke-dasharray="1,5" d="M593.99,-764.53C593.99,-730.02 593.99,-671.23 593.99,-632.48"/>
<polygon fill="green" stroke="green" stroke-width="0.19" points="597.49,-632.11 593.99,-622.11 590.49,-632.11 597.49,-632.11"/>
</g>
<!-- 15923 -->
<g id="node16" class="node">
<title>15923</title>
<ellipse fill="white" stroke="black" cx="711.99" cy="-691.11" rx="33.47" ry="33.47"/>
<text text-anchor="middle" x="711.99" y="-688.91" font-family="Times,serif" font-size="9.00">15923</text>
</g>
<!-- 1547&#45;&gt;15923 -->
<g id="edge68" class="edge">
<title>1547&#45;&gt;15923</title>
<path fill="none" stroke="green" stroke-width="0.3" d="M615.63,-774.15C633.37,-759.05 658.77,-737.43 679.03,-720.18"/>
<polygon fill="green" stroke="green" stroke-width="0.3" points="681.45,-722.71 686.8,-713.56 676.92,-717.38 681.45,-722.71"/>
</g>
<!-- 1547&#45;&gt;487 -->
<g id="edge19" class="edge">
<title>1547&#45;&gt;487</title>
<path fill="none" stroke="green" stroke-width="0.44" stroke-dasharray="1,5" d="M586.13,-821.54C580.65,-833.43 573.37,-847.37 566.45,-859.29"/>
<polygon fill="green" stroke="green" stroke-width="0.44" points="563.4,-857.57 561.25,-867.95 569.4,-861.18 563.4,-857.57"/>
</g>
<!-- 7134 -->
<g id="node21" class="node">
<title>7134</title>
<ellipse fill="white" stroke="black" cx="423.99" cy="-400.68" rx="28.98" ry="28.98"/>
<text text-anchor="middle" x="423.99" y="-398.48" font-family="Times,serif" font-size="9.00">7134</text>
</g>
<!-- 6668&#45;&gt;7134 -->
<g id="edge67" class="edge">
<title>6668&#45;&gt;7134</title>
<path fill="none" stroke="green" stroke-width="0.26" d="M575.15,-570.81C544.64,-536.67 484.38,-469.24 449.87,-430.64"/>
<polygon fill="green" stroke="green" stroke-width="0.26" points="452.19,-427.98 442.92,-422.86 446.97,-432.64 452.19,-427.98"/>
</g>
<!-- 12434 -->
<g id="node11" class="node">
<title>12434</title>
<ellipse fill="white" stroke="black" cx="858.99" cy="-204.23" rx="33.47" ry="33.47"/>
<text text-anchor="middle" x="858.99" y="-202.03" font-family="Times,serif" font-size="9.00">12434</text>
</g>
<!-- 12434&#45;&gt;2 -->
<g id="edge52" class="edge">
<title>12434&#45;&gt;2</title>
<path fill="none" stroke="green" stroke-width="0.26" d="M848.55,-172.58C836.87,-142.43 815.24,-96.91 782.99,-68.53 754.04,-43.04 710.75,-29.21 683.19,-22.54"/>
<polygon fill="green" stroke="green" stroke-width="0.26" points="683.65,-19.05 673.12,-20.24 682.1,-25.88 683.65,-19.05"/>
</g>
<!-- 12434&#45;&gt;487 -->
<g id="edge64" class="edge">
<title>12434&#45;&gt;487</title>
<path fill="none" stroke="green" stroke-width="0.17" d="M865.09,-237.09C871.91,-275.5 881.99,-342.06 881.99,-399.68 881.99,-692.11 881.99,-692.11 881.99,-692.11 881.99,-752.57 904.74,-783.09 862.99,-826.82 824.65,-866.97 655.58,-880.76 581.26,-884.94"/>
<polygon fill="green" stroke="green" stroke-width="0.17" points="580.8,-881.46 571,-885.49 581.18,-888.45 580.8,-881.46"/>
</g>
<!-- 13075 -->
<g id="node12" class="node">
<title>13075</title>
<ellipse fill="white" stroke="black" cx="465.99" cy="-981.55" rx="33.47" ry="33.47"/>
<text text-anchor="middle" x="465.99" y="-979.35" font-family="Times,serif" font-size="9.00">13075</text>
</g>
<!-- 13075&#45;&gt;487 -->
<g id="edge57" class="edge">
<title>13075&#45;&gt;487</title>
<path fill="none" stroke="green" stroke-width="0.1" d="M487.43,-955.9C498.55,-943.12 512.12,-927.51 523.4,-914.54"/>
<polygon fill="green" stroke="green" stroke-width="0.1" points="526.16,-916.7 530.08,-906.86 520.88,-912.11 526.16,-916.7"/>
</g>
<!-- 2969&#45;&gt;488 -->
<g id="edge25" class="edge">
<title>2969&#45;&gt;488</title>
<path fill="none" stroke="green" stroke-width="0.14" stroke-dasharray="1,5" d="M324.97,-567.72C332.29,-555.9 341.17,-541.57 348.88,-529.14"/>
<polygon fill="green" stroke="green" stroke-width="0.14" points="351.95,-530.83 354.24,-520.48 346,-527.14 351.95,-530.83"/>
</g>
<!-- 13216&#45;&gt;5770 -->
<g id="edge59" class="edge">
<title>13216&#45;&gt;5770</title>
<path fill="none" stroke="green" stroke-width="0.19" stroke-dasharray="1,5" d="M156.24,-1052.05C159.35,-1041.63 162.85,-1029.91 166.07,-1019.11"/>
<polygon fill="green" stroke="green" stroke-width="0.19" points="169.44,-1020.08 168.94,-1009.5 162.73,-1018.08 169.44,-1020.08"/>
</g>
<!-- 1191 -->
<g id="node15" class="node">
<title>1191</title>
<ellipse fill="white" stroke="black" cx="537.99" cy="-400.68" rx="28.98" ry="28.98"/>
<text text-anchor="middle" x="537.99" y="-398.48" font-family="Times,serif" font-size="9.00">1191</text>
</g>
<!-- 1191&#45;&gt;2 -->
<g id="edge16" class="edge">
<title>1191&#45;&gt;2</title>
<path fill="none" stroke="green" stroke-width="0.45" stroke-dasharray="1,5" d="M532.18,-372.02C521.05,-311.4 503.07,-164.57 565.99,-68.53 581.11,-45.45 610.39,-31.7 631.66,-24.34"/>
<polygon fill="green" stroke="green" stroke-width="0.45" points="632.91,-27.61 641.37,-21.23 630.78,-20.95 632.91,-27.61"/>
</g>
<!-- 5723 -->
<g id="node20" class="node">
<title>5723</title>
<ellipse fill="white" stroke="black" cx="786.99" cy="-302.45" rx="28.98" ry="28.98"/>
<text text-anchor="middle" x="786.99" y="-300.25" font-family="Times,serif" font-size="9.00">5723</text>
</g>
<!-- 1191&#45;&gt;5723 -->
<g id="edge26" class="edge">
<title>1191&#45;&gt;5723</title>
<path fill="none" stroke="red" stroke-width="0.32" stroke-dasharray="1,5" d="M565.11,-389.2C610.13,-371.8 700.33,-336.95 750.75,-317.46"/>
<polygon fill="red" stroke="red" stroke-width="0.32" points="752.21,-320.65 760.28,-313.78 749.69,-314.12 752.21,-320.65"/>
</g>
<!-- 14943 -->
<g id="node23" class="node">
<title>14943</title>
<ellipse fill="white" stroke="black" cx="607.99" cy="-101.76" rx="33.47" ry="33.47"/>
<text text-anchor="middle" x="607.99" y="-99.56" font-family="Times,serif" font-size="9.00">14943</text>
</g>
<!-- 1191&#45;&gt;14943 -->
<g id="edge65" class="edge">
<title>1191&#45;&gt;14943</title>
<path fill="none" stroke="green" stroke-width="0.32" stroke-dasharray="1,5" d="M542.56,-371.97C549.94,-328.69 565.64,-242.6 584.99,-170.99 587.48,-161.78 590.53,-151.99 593.59,-142.79"/>
<polygon fill="green" stroke="green" stroke-width="0.32" points="596.98,-143.68 596.88,-133.09 590.35,-141.43 596.98,-143.68"/>
</g>
<!-- 1191&#45;&gt;487 -->
<g id="edge18" class="edge">
<title>1191&#45;&gt;487</title>
<path fill="none" stroke="green" stroke-width="0.23" stroke-dasharray="1,5" d="M541.75,-429.69C541.64,-466.77 536.99,-534.18 536.99,-591.89 536.99,-692.11 536.99,-692.11 536.99,-692.11 536.99,-748.51 544.59,-813.73 547.45,-852.48"/>
<polygon fill="green" stroke="green" stroke-width="0.23" points="543.97,-852.93 548.11,-862.68 550.95,-852.47 543.97,-852.93"/>
</g>
<!-- 15923&#45;&gt;487 -->
<g id="edge69" class="edge">
<title>15923&#45;&gt;487</title>
<path fill="none" stroke="green" stroke-width="0.45" d="M698.93,-721.84C685.19,-750.87 661.46,-795.17 631.99,-826.82 615.96,-844.04 594.15,-859.12 576.51,-869.82"/>
<polygon fill="green" stroke="green" stroke-width="0.45" points="574.55,-866.91 567.72,-875.01 578.11,-872.94 574.55,-866.91"/>
</g>
<!-- 6841&#45;&gt;5770 -->
<g id="edge39" class="edge">
<title>6841&#45;&gt;5770</title>
<path fill="none" stroke="red" stroke-width="0.13" d="M214.37,-1057.66C208.28,-1045.41 200.86,-1030.51 194.25,-1017.22"/>
<polygon fill="red" stroke="red" stroke-width="0.13" points="197.19,-1015.28 189.6,-1007.89 190.93,-1018.4 197.19,-1015.28"/>
</g>
<!-- 3259&#45;&gt;1 -->
<g id="edge28" class="edge">
<title>3259&#45;&gt;1</title>
<path fill="none" stroke="green" stroke-width="0.17" d="M142.7,-480.7C166.48,-462.68 203.52,-434.62 226.46,-417.24"/>
<polygon fill="green" stroke="green" stroke-width="0.17" points="228.65,-419.97 234.5,-411.14 224.42,-414.39 228.65,-419.97"/>
</g>
<!-- 6335&#45;&gt;2 -->
<g id="edge32" class="edge">
<title>6335&#45;&gt;2</title>
<path fill="none" stroke="red" stroke-width="0.29" d="M724.14,-80.97C709.38,-66.98 689.78,-48.37 675.57,-34.89"/>
<polygon fill="red" stroke="red" stroke-width="0.29" points="677.95,-32.33 668.29,-27.98 673.13,-37.4 677.95,-32.33"/>
</g>
<!-- 5723&#45;&gt;2 -->
<g id="edge27" class="edge">
<title>5723&#45;&gt;2</title>
<path fill="none" stroke="green" stroke-width="0.26" d="M774.43,-276.24C758.35,-243.79 729.85,-185.53 706.99,-134.99 692.34,-102.6 676.45,-64.67 666.61,-40.8"/>
<polygon fill="green" stroke="green" stroke-width="0.26" points="669.82,-39.41 662.78,-31.49 663.35,-42.07 669.82,-39.41"/>
</g>
<!-- 5723&#45;&gt;8837 -->
<g id="edge63" class="edge">
<title>5723&#45;&gt;8837</title>
<path fill="none" stroke="red" stroke-width="0.46" d="M791.34,-331.3C799.04,-390.84 808.72,-532.38 743.99,-621.88 722.56,-651.52 700.62,-637.89 669.99,-657.88 666.91,-659.89 663.81,-662.12 660.77,-664.44"/>
<polygon fill="red" stroke="red" stroke-width="0.46" points="658.56,-661.73 652.96,-670.72 662.95,-667.18 658.56,-661.73"/>
</g>
<!-- 5723&#45;&gt;12434 -->
<g id="edge51" class="edge">
<title>5723&#45;&gt;12434</title>
<path fill="none" stroke="green" stroke-width="0.33" d="M804.05,-278.65C812.79,-266.98 823.6,-252.53 833.31,-239.55"/>
<polygon fill="green" stroke="green" stroke-width="0.33" points="836.32,-241.37 839.51,-231.27 830.71,-237.18 836.32,-241.37"/>
</g>
<!-- 7134&#45;&gt;2 -->
<g id="edge42" class="edge">
<title>7134&#45;&gt;2</title>
<path fill="none" stroke="green" stroke-width="0.1" d="M425.57,-371.34C430.53,-308.69 450.83,-157.01 532.99,-68.53 559.13,-40.37 603.06,-27.22 631,-21.42"/>
<polygon fill="green" stroke="green" stroke-width="0.1" points="631.69,-24.85 640.86,-19.54 630.38,-17.98 631.69,-24.85"/>
</g>
<!-- 7134&#45;&gt;5770 -->
<g id="edge46" class="edge">
<title>7134&#45;&gt;5770</title>
<path fill="none" stroke="green" stroke-width="0.37" stroke-dasharray="1,5" d="M396.67,-411.59C340.02,-434.09 214.99,-494.75 214.99,-591.89 214.99,-794.58 214.99,-794.58 214.99,-794.58 214.99,-847.29 200.15,-906.74 189.02,-943.92"/>
<polygon fill="green" stroke="green" stroke-width="0.37" points="185.58,-943.21 186,-953.8 192.27,-945.26 185.58,-943.21"/>
</g>
<!-- 6494&#45;&gt;13075 -->
<g id="edge56" class="edge">
<title>6494&#45;&gt;13075</title>
<path fill="none" stroke="red" stroke-width="0.41" d="M465.99,-1054.76C465.99,-1045.54 465.99,-1035.1 465.99,-1025.07"/>
<polygon fill="red" stroke="red" stroke-width="0.41" points="469.49,-1024.84 465.99,-1014.84 462.49,-1024.84 469.49,-1024.84"/>
</g>
<!-- 6494&#45;&gt;487 -->
<g id="edge34" class="edge">
<title>6494&#45;&gt;487</title>
<path fill="none" stroke="red" stroke-width="0.22" d="M482.34,-1059.85C490.85,-1047.02 500.92,-1030.52 507.99,-1014.78 521.65,-984.37 532.07,-947.7 538.51,-921.75"/>
<polygon fill="red" stroke="red" stroke-width="0.22" points="541.91,-922.56 540.86,-912.01 535.11,-920.91 541.91,-922.56"/>
</g>
<!-- 14943&#45;&gt;2 -->
<g id="edge66" class="edge">
<title>14943&#45;&gt;2</title>
<path fill="none" stroke="red" stroke-width="0.2" stroke-dasharray="1,5" d="M624.58,-72.49C630.87,-61.77 637.94,-49.72 643.87,-39.62"/>
<polygon fill="red" stroke="red" stroke-width="0.2" points="646.9,-41.38 648.94,-30.98 640.86,-37.83 646.9,-41.38"/>
</g>
<!-- 12899&#45;&gt;6335 -->
<g id="edge55" class="edge">
<title>12899&#45;&gt;6335</title>
<path fill="none" stroke="green" stroke-width="0.13" d="M652.02,-181.92C670.57,-166.13 695.92,-144.54 715.46,-127.9"/>
<polygon fill="green" stroke="green" stroke-width="0.13" points="717.83,-130.48 723.18,-121.33 713.29,-125.15 717.83,-130.48"/>
</g>
<!-- 487&#45;&gt;0 -->
<g id="edge5" class="edge">
<title>487&#45;&gt;0</title>
<path fill="none" stroke="green" stroke-width="0.29" stroke-dasharray="1,5" d="M534.07,-865.75C515.3,-830.97 480.99,-758.32 480.99,-692.11 480.99,-692.11 480.99,-692.11 480.99,-399.68 480.99,-328.64 427.55,-257.55 398.8,-224.45"/>
<polygon fill="green" stroke="green" stroke-width="0.29" points="401.33,-222.02 392.08,-216.87 396.1,-226.67 401.33,-222.02"/>
</g>
<!-- 487&#45;&gt;1 -->
<g id="edge6" class="edge">
<title>487&#45;&gt;1</title>
<path fill="none" stroke="red" stroke-width="0.25" d="M523.31,-877.45C499.87,-867.33 462.99,-849.41 435.99,-826.82 346.52,-751.95 316.77,-729.6 271.99,-621.88 244.54,-555.84 243.77,-469.6 245.41,-427.32"/>
<polygon fill="red" stroke="red" stroke-width="0.25" points="248.92,-427.24 245.89,-417.09 241.93,-426.91 248.92,-427.24"/>
</g>
<!-- 487&#45;&gt;2 -->
<g id="edge7" class="edge">
<title>487&#45;&gt;2</title>
<path fill="none" stroke="red" stroke-width="0.12" stroke-dasharray="1,5" d="M570.91,-885.95C645.81,-883.59 866.97,-872.8 918.99,-826.82 965.69,-785.54 957.99,-754.44 957.99,-692.11 957.99,-692.11 957.99,-692.11 957.99,-203.23 957.99,-74.69 756.87,-32.03 683.43,-20.74"/>
<polygon fill="red" stroke="red" stroke-width="0.12" points="683.58,-17.23 673.17,-19.24 682.56,-24.15 683.58,-17.23"/>
</g>
<!-- 487&#45;&gt;1547 -->
<g id="edge31" class="edge">
<title>487&#45;&gt;1547</title>
<path fill="none" stroke="red" stroke-width="0.5" stroke-dasharray="1,5" d="M552.15,-863.35C557.27,-851.88 564.42,-837.87 571.44,-825.49"/>
<polygon fill="red" stroke="red" stroke-width="0.5" points="574.48,-827.23 576.5,-816.83 568.44,-823.7 574.48,-827.23"/>
</g>
<!-- 487&#45;&gt;1191 -->
<g id="edge17" class="edge">
<title>487&#45;&gt;1191</title>
<path fill="none" stroke="green" stroke-width="0.16" stroke-dasharray="1,5" d="M537,-864.46C528.39,-828.45 518.99,-754.83 518.99,-692.11 518.99,-692.11 518.99,-692.11 518.99,-591.89 518.99,-538.69 522.94,-477.24 528.11,-438.91"/>
<polygon fill="green" stroke="green" stroke-width="0.16" points="531.61,-439.15 529.6,-428.74 524.69,-438.13 531.61,-439.15"/>
</g>
<!-- 487&#45;&gt;6335 -->
<g id="edge40" class="edge">
<title>487&#45;&gt;6335</title>
<path fill="none" stroke="red" stroke-width="0.11" d="M570.77,-885.7C641.63,-882.71 842.92,-870.47 888.99,-826.82 933.58,-784.56 919.99,-753.55 919.99,-692.11 919.99,-692.11 919.99,-692.11 919.99,-301.45 919.99,-242.86 936.52,-217.59 900.99,-170.99 872.77,-133.98 820.25,-116.69 783.99,-108.86"/>
<polygon fill="red" stroke="red" stroke-width="0.11" points="784.27,-105.34 773.77,-106.8 782.89,-112.2 784.27,-105.34"/>
</g>
<!-- 487&#45;&gt;487 -->
<g id="edge13" class="edge">
<title>487&#45;&gt;487</title>
<path fill="none" stroke="red" stroke-width="0.2" stroke-dasharray="1,5" d="M565.34,-903.6C577.33,-907.46 588.74,-902.12 588.74,-887.56 588.74,-877.22 582.97,-871.52 575.33,-870.49"/>
<polygon fill="red" stroke="red" stroke-width="0.2" points="574.92,-867.01 565.34,-871.53 575.65,-873.97 574.92,-867.01"/>
</g>
<!-- 13547 -->
<g id="node28" class="node">
<title>13547</title>
<ellipse fill="white" stroke="black" cx="820.99" cy="-793.58" rx="33.47" ry="33.47"/>
<text text-anchor="middle" x="820.99" y="-791.38" font-family="Times,serif" font-size="9.00">13547</text>
</g>
<!-- 487&#45;&gt;13547 -->
<g id="edge61" class="edge">
<title>487&#45;&gt;13547</title>
<path fill="none" stroke="green" stroke-width="0.45" stroke-dasharray="1,5" d="M570.55,-882.98C613.38,-876.12 703.84,-858.88 773.99,-826.82 778.15,-824.91 782.35,-822.65 786.42,-820.21"/>
<polygon fill="green" stroke="green" stroke-width="0.45" points="788.55,-823 795.1,-814.67 784.79,-817.1 788.55,-823"/>
</g>
<!-- 488&#45;&gt;0 -->
<g id="edge8" class="edge">
<title>488&#45;&gt;0</title>
<path fill="none" stroke="green" stroke-width="0.2" d="M360.46,-474.96C349.8,-433.97 331.44,-345.7 347.99,-273.46 351.78,-256.95 360.1,-239.79 367.44,-226.81"/>
<polygon fill="green" stroke="green" stroke-width="0.2" points="370.47,-228.55 372.53,-218.16 364.44,-225 370.47,-228.55"/>
</g>
<!-- 488&#45;&gt;1 -->
<g id="edge9" class="edge">
<title>488&#45;&gt;1</title>
<path fill="none" stroke="red" stroke-width="0.26" d="M346.45,-485.03C327.62,-472.83 299.34,-453.5 276.99,-433.91 272.54,-430.01 268.03,-425.51 263.91,-421.14"/>
<polygon fill="red" stroke="red" stroke-width="0.26" points="266.33,-418.6 257.01,-413.57 261.16,-423.32 266.33,-418.6"/>
</g>
<!-- 488&#45;&gt;2 -->
<g id="edge10" class="edge">
<title>488&#45;&gt;2</title>
<path fill="none" stroke="red" stroke-width="0.1" stroke-dasharray="1,5" d="M353.4,-477.91C331.54,-443.75 290.99,-371.23 290.99,-303.45 290.99,-303.45 290.99,-303.45 290.99,-203.23 290.99,-50.62 547.02,-23.2 630.8,-18.31"/>
<polygon fill="red" stroke="red" stroke-width="0.1" points="630.99,-21.81 640.79,-17.79 630.62,-14.82 630.99,-21.81"/>
</g>
<!-- 488&#45;&gt;1191 -->
<g id="edge15" class="edge">
<title>488&#45;&gt;1191</title>
<path fill="none" stroke="green" stroke-width="0.26" d="M388.3,-485.91C417.4,-469.54 469.86,-440.02 504.31,-420.64"/>
<polygon fill="green" stroke="green" stroke-width="0.26" points="506.08,-423.65 513.08,-415.7 502.65,-417.55 506.08,-423.65"/>
</g>
<!-- 488&#45;&gt;7134 -->
<g id="edge41" class="edge">
<title>488&#45;&gt;7134</title>
<path fill="none" stroke="green" stroke-width="0.28" stroke-dasharray="1,5" d="M379.36,-477.03C386.67,-464.69 396.08,-448.8 404.38,-434.79"/>
<polygon fill="green" stroke="green" stroke-width="0.28" points="407.55,-436.3 409.64,-425.91 401.53,-432.73 407.55,-436.3"/>
</g>
<!-- 488&#45;&gt;487 -->
<g id="edge22" class="edge">
<title>488&#45;&gt;487</title>
<path fill="none" stroke="red" stroke-width="0.25" stroke-dasharray="1,5" d="M384.68,-516.72C396.26,-528.76 410.73,-545.95 418.99,-563.9 468.67,-671.79 404.71,-725.67 466.99,-826.82 478.48,-845.47 498.1,-860.36 514.91,-870.6"/>
<polygon fill="red" stroke="red" stroke-width="0.25" points="513.49,-873.82 523.89,-875.81 517,-867.77 513.49,-873.82"/>
</g>
<!-- 488&#45;&gt;488 -->
<g id="edge14" class="edge">
<title>488&#45;&gt;488</title>
<path fill="none" stroke="green" stroke-width="0.2" stroke-dasharray="1,5" d="M386.34,-514.94C398.33,-518.8 409.74,-513.46 409.74,-498.91 409.74,-488.56 403.97,-482.87 396.33,-481.83"/>
<polygon fill="green" stroke="green" stroke-width="0.2" points="395.92,-478.35 386.34,-482.87 396.65,-485.31 395.92,-478.35"/>
</g>
<!-- 11882 -->
<g id="node27" class="node">
<title>11882</title>
<ellipse fill="white" stroke="black" cx="679.99" cy="-400.68" rx="33.47" ry="33.47"/>
<text text-anchor="middle" x="679.99" y="-398.48" font-family="Times,serif" font-size="9.00">11882</text>
</g>
<!-- 488&#45;&gt;11882 -->
<g id="edge48" class="edge">
<title>488&#45;&gt;11882</title>
<path fill="none" stroke="green" stroke-width="0.31" d="M390.51,-490.73C429.2,-478.93 508.72,-454.64 575.99,-433.91 596.61,-427.56 619.51,-420.47 638.56,-414.56"/>
<polygon fill="green" stroke="green" stroke-width="0.31" points="639.63,-417.89 648.14,-411.58 637.55,-411.21 639.63,-417.89"/>
</g>
<!-- 488&#45;&gt;2677 -->
<g id="edge20" class="edge">
<title>488&#45;&gt;2677</title>
<path fill="none" stroke="green" stroke-width="0.51" stroke-dasharray="1,5" d="M369.32,-474.06C372.55,-441.01 378.42,-380.92 382.26,-341.6"/>
<polygon fill="green" stroke="green" stroke-width="0.51" points="385.75,-341.88 383.24,-331.59 378.79,-341.2 385.75,-341.88"/>
</g>
<!-- 11882&#45;&gt;487 -->
<g id="edge49" class="edge">
<title>11882&#45;&gt;487</title>
<path fill="none" stroke="green" stroke-width="0.19" stroke-dasharray="1,5" d="M696.83,-429.52C728.86,-486.21 792.12,-618.66 753.99,-724.35 733.91,-780.01 715.54,-790.29 668.99,-826.82 641.5,-848.39 604.96,-864.9 578.86,-875.05"/>
<polygon fill="green" stroke="green" stroke-width="0.19" points="577.53,-871.81 569.41,-878.62 580,-878.36 577.53,-871.81"/>
</g>
<!-- 13547&#45;&gt;6335 -->
<g id="edge62" class="edge">
<title>13547&#45;&gt;6335</title>
<path fill="none" stroke="green" stroke-width="0.22" stroke-dasharray="1,5" d="M826.97,-760.71C833.79,-721.57 843.99,-653.1 843.99,-593.89 843.99,-593.89 843.99,-593.89 843.99,-399.68 843.99,-342.95 841.42,-327.76 824.99,-273.46 809.92,-223.64 782.69,-169.84 764.24,-136.23"/>
<polygon fill="green" stroke="green" stroke-width="0.22" points="767.2,-134.35 759.28,-127.31 761.08,-137.75 767.2,-134.35"/>
</g>
<!-- 9460 -->
<g id="node29" class="node">
<title>9460</title>
<ellipse fill="white" stroke="black" cx="314.99" cy="-1182.24" rx="28.98" ry="28.98"/>
<text text-anchor="middle" x="314.99" y="-1180.04" font-family="Times,serif" font-size="9.00">9460</text>
</g>
<!-- 2677&#45;&gt;0 -->
<g id="edge21" class="edge">
<title>2677&#45;&gt;0</title>
<path fill="none" stroke="red" stroke-width="0.14" stroke-dasharray="1,5" d="M384.53,-273.36C383.83,-259.93 383,-243.96 382.32,-230.86"/>
<polygon fill="red" stroke="red" stroke-width="0.14" points="385.81,-230.45 381.79,-220.65 378.82,-230.81 385.81,-230.45"/>
</g>
<!-- 2677&#45;&gt;12899 -->
<g id="edge60" class="edge">
<title>2677&#45;&gt;12899</title>
<path fill="none" stroke="green" stroke-width="0.45" d="M412.7,-290.79C454.98,-273.91 537.58,-240.93 586.96,-221.21"/>
<polygon fill="green" stroke="green" stroke-width="0.45" points="588.39,-224.41 596.38,-217.45 585.79,-217.91 588.39,-224.41"/>
</g>
</g>
</svg>
