<?xml version="1.0" encoding="UTF-8" standalone="no"?>
<!DOCTYPE svg PUBLIC "-//W3C//DTD SVG 1.1//EN"
 "http://www.w3.org/Graphics/SVG/1.1/DTD/svg11.dtd">
<!-- Generated by graphviz version 2.43.0 (0)
 -->
<!-- Title: G Pages: 1 -->
<svg width="1278pt" height="467pt"
 viewBox="0.00 0.00 1277.54 466.89" xmlns="http://www.w3.org/2000/svg" xmlns:xlink="http://www.w3.org/1999/xlink">
<g id="graph0" class="graph" transform="scale(1 1) rotate(0) translate(4 462.89)">
<title>G</title>
<polygon fill="white" stroke="transparent" points="-4,4 -4,-462.89 1273.54,-462.89 1273.54,4 -4,4"/>
<!-- nn_1 -->
<g id="node1" class="node">
<title>nn_1</title>
<polygon fill="red" stroke="black" points="419,-36 365,-36 365,0 419,0 419,-36"/>
<text text-anchor="middle" x="392" y="-14.3" font-family="Times,serif" font-size="14.00">I_n_1</text>
</g>
<!-- nn0 -->
<g id="node9" class="node">
<title>nn0</title>
<ellipse fill="green" stroke="black" cx="256" cy="-424.45" rx="34.39" ry="34.39"/>
<text text-anchor="middle" x="256" y="-420.75" font-family="Times,serif" font-size="14.00">O_n0</text>
</g>
<!-- nn_1&#45;&gt;nn0 -->
<g id="edge22" class="edge">
<title>nn_1&#45;&gt;nn0</title>
<path fill="none" stroke="red" stroke-width="2.19" stroke-dasharray="5,2" d="M364.74,-34.35C327.91,-56.85 263.89,-102.64 238,-162 206.48,-234.29 225.89,-328.54 241.72,-381.88"/>
<polygon fill="red" stroke="red" stroke-width="2.19" points="238.44,-383.13 244.72,-391.66 245.13,-381.08 238.44,-383.13"/>
<text text-anchor="middle" x="241.5" y="-230.3" font-family="Times,serif" font-size="14.00">&#45;3.98</text>
</g>
<!-- nn1 -->
<g id="node10" class="node">
<title>nn1</title>
<ellipse fill="green" stroke="black" cx="959" cy="-424.45" rx="34.39" ry="34.39"/>
<text text-anchor="middle" x="959" y="-420.75" font-family="Times,serif" font-size="14.00">O_n1</text>
</g>
<!-- nn_1&#45;&gt;nn1 -->
<g id="edge23" class="edge">
<title>nn_1&#45;&gt;nn1</title>
<path fill="none" stroke="blue" stroke-width="1.24" d="M395.37,-36.17C404.4,-78.09 432.8,-186.95 495,-252 611.72,-374.07 822.96,-409.77 914.59,-419.76"/>
<polygon fill="blue" stroke="blue" stroke-width="1.24" points="914.34,-423.25 924.64,-420.8 915.06,-416.29 914.34,-423.25"/>
<text text-anchor="middle" x="511" y="-230.3" font-family="Times,serif" font-size="14.00">0.79</text>
</g>
<!-- nn2 -->
<g id="node11" class="node">
<title>nn2</title>
<polygon fill="yellow" stroke="black" points="708.55,-321 689.77,-339 652.23,-339 633.45,-321 652.23,-303 689.77,-303 708.55,-321"/>
<text text-anchor="middle" x="671" y="-317.3" font-family="Times,serif" font-size="14.00">h_n2</text>
</g>
<!-- nn_1&#45;&gt;nn2 -->
<g id="edge11" class="edge">
<title>nn_1&#45;&gt;nn2</title>
<path fill="none" stroke="blue" stroke-width="2.5" d="M388.13,-36.3C379.15,-81.55 362.65,-203.28 432,-252 491.45,-293.76 576.1,-310 627.08,-316.23"/>
<polygon fill="blue" stroke="blue" stroke-width="2.5" points="626.78,-319.72 637.11,-317.38 627.58,-312.77 626.78,-319.72"/>
<text text-anchor="middle" x="412.5" y="-176.3" font-family="Times,serif" font-size="14.00">13.06</text>
</g>
<!-- nn57627 -->
<g id="node17" class="node">
<title>nn57627</title>
<polygon fill="orange" stroke="black" points="236.58,-126 204.29,-144 139.71,-144 107.42,-126 139.71,-108 204.29,-108 236.58,-126"/>
<text text-anchor="middle" x="172" y="-122.3" font-family="Times,serif" font-size="14.00">h_n57627</text>
</g>
<!-- nn_1&#45;&gt;nn57627 -->
<g id="edge28" class="edge">
<title>nn_1&#45;&gt;nn57627</title>
<path fill="none" stroke="red" stroke-width="1.46" stroke-dasharray="5,2" d="M364.74,-19.11C331.85,-20.51 276.24,-27.11 238,-54 222.47,-64.92 227.63,-75.83 215,-90 211.57,-93.85 207.68,-97.63 203.69,-101.19"/>
<polygon fill="red" stroke="red" stroke-width="1.46" points="201.33,-98.6 195.97,-107.73 205.86,-103.94 201.33,-98.6"/>
<text text-anchor="middle" x="256.5" y="-68.3" font-family="Times,serif" font-size="14.00">&#45;1.54</text>
</g>
<!-- nn59699 -->
<g id="node20" class="node">
<title>nn59699</title>
<polygon fill="orange" stroke="black" points="587.58,-126 555.29,-144 490.71,-144 458.42,-126 490.71,-108 555.29,-108 587.58,-126"/>
<text text-anchor="middle" x="523" y="-122.3" font-family="Times,serif" font-size="14.00">h_n59699</text>
</g>
<!-- nn_1&#45;&gt;nn59699 -->
<g id="edge30" class="edge">
<title>nn_1&#45;&gt;nn59699</title>
<path fill="none" stroke="blue" stroke-width="1.1" d="M418.96,-36.11C427.17,-41.59 436.1,-47.84 444,-54 462.82,-68.68 482.81,-86.66 497.97,-100.86"/>
<polygon fill="blue" stroke="blue" stroke-width="1.1" points="495.75,-103.58 505.42,-107.9 500.56,-98.49 495.75,-103.58"/>
<text text-anchor="middle" x="501" y="-68.3" font-family="Times,serif" font-size="14.00">0.34</text>
</g>
<!-- nn_2 -->
<g id="node2" class="node">
<title>nn_2</title>
<polygon fill="red" stroke="black" points="165,-36 111,-36 111,0 165,0 165,-36"/>
<text text-anchor="middle" x="138" y="-14.3" font-family="Times,serif" font-size="14.00">I_n_2</text>
</g>
<!-- nn_2&#45;&gt;nn0 -->
<g id="edge8" class="edge">
<title>nn_2&#45;&gt;nn0</title>
<path fill="none" stroke="red" stroke-width="1.13" stroke-dasharray="5,2" d="M121.25,-36.13C103.81,-55.85 79,-90.04 79,-125 79,-125 79,-125 79,-322 79,-383.1 159.37,-407.92 211.79,-417.61"/>
<polygon fill="red" stroke="red" stroke-width="1.13" points="211.42,-421.1 221.87,-419.35 212.62,-414.2 211.42,-421.1"/>
<text text-anchor="middle" x="97.5" y="-230.3" font-family="Times,serif" font-size="14.00">&#45;0.44</text>
</g>
<!-- nn58668 -->
<g id="node18" class="node">
<title>nn58668</title>
<polygon fill="orange" stroke="black" points="368.58,-180 336.29,-198 271.71,-198 239.42,-180 271.71,-162 336.29,-162 368.58,-180"/>
<text text-anchor="middle" x="304" y="-176.3" font-family="Times,serif" font-size="14.00">h_n58668</text>
</g>
<!-- nn_2&#45;&gt;nn58668 -->
<g id="edge29" class="edge">
<title>nn_2&#45;&gt;nn58668</title>
<path fill="none" stroke="red" stroke-width="1.2" stroke-dasharray="5,2" d="M142.28,-36.26C147.22,-52.53 156.93,-76.38 174,-90 199.79,-110.57 218.15,-90.33 246,-108 263.86,-119.33 278.81,-138.04 289.06,-153.4"/>
<polygon fill="red" stroke="red" stroke-width="1.2" points="286.2,-155.44 294.53,-161.98 292.1,-151.67 286.2,-155.44"/>
<text text-anchor="middle" x="192.5" y="-68.3" font-family="Times,serif" font-size="14.00">&#45;0.67</text>
</g>
<!-- nn_3 -->
<g id="node3" class="node">
<title>nn_3</title>
<polygon fill="red" stroke="black" points="1152,-36 1098,-36 1098,0 1152,0 1152,-36"/>
<text text-anchor="middle" x="1125" y="-14.3" font-family="Times,serif" font-size="14.00">I_n_3</text>
</g>
<!-- nn_3&#45;&gt;nn1 -->
<g id="edge21" class="edge">
<title>nn_3&#45;&gt;nn1</title>
<path fill="none" stroke="red" stroke-width="2.13" stroke-dasharray="5,2" d="M1125,-36.26C1125,-57.24 1125,-93.72 1125,-125 1125,-125 1125,-125 1125,-322 1125,-379.35 1051.97,-405.25 1002.79,-416.19"/>
<polygon fill="red" stroke="red" stroke-width="2.13" points="1002.06,-412.77 992.99,-418.25 1003.5,-419.62 1002.06,-412.77"/>
<text text-anchor="middle" x="1143.5" y="-230.3" font-family="Times,serif" font-size="14.00">&#45;3.77</text>
</g>
<!-- nn_4 -->
<g id="node4" class="node">
<title>nn_4</title>
<polygon fill="red" stroke="black" points="976,-36 922,-36 922,0 976,0 976,-36"/>
<text text-anchor="middle" x="949" y="-14.3" font-family="Times,serif" font-size="14.00">I_n_4</text>
</g>
<!-- nn44299 -->
<g id="node13" class="node">
<title>nn44299</title>
<polygon fill="yellow" stroke="black" points="861.58,-234 829.29,-252 764.71,-252 732.42,-234 764.71,-216 829.29,-216 861.58,-234"/>
<text text-anchor="middle" x="797" y="-230.3" font-family="Times,serif" font-size="14.00">h_n44299</text>
</g>
<!-- nn_4&#45;&gt;nn44299 -->
<g id="edge13" class="edge">
<title>nn_4&#45;&gt;nn44299</title>
<path fill="none" stroke="red" stroke-width="1.25" stroke-dasharray="5,2" d="M944.6,-36.17C937.67,-61.23 922.64,-108.68 900,-144 882.81,-170.82 855.17,-194.07 832.85,-210.07"/>
<polygon fill="red" stroke="red" stroke-width="1.25" points="830.78,-207.25 824.59,-215.84 834.79,-212.98 830.78,-207.25"/>
<text text-anchor="middle" x="936.5" y="-122.3" font-family="Times,serif" font-size="14.00">&#45;0.85</text>
</g>
<!-- nn_5 -->
<g id="node5" class="node">
<title>nn_5</title>
<polygon fill="red" stroke="black" points="1048,-36 994,-36 994,0 1048,0 1048,-36"/>
<text text-anchor="middle" x="1021" y="-14.3" font-family="Times,serif" font-size="14.00">I_n_5</text>
</g>
<!-- nn_5&#45;&gt;nn1 -->
<g id="edge16" class="edge">
<title>nn_5&#45;&gt;nn1</title>
<path fill="none" stroke="red" stroke-width="1.39" stroke-dasharray="5,2" d="M1029.31,-36.18C1038.49,-56.78 1052,-92.6 1052,-125 1052,-125 1052,-125 1052,-322 1052,-356.13 1023.04,-383.76 997.44,-401.51"/>
<polygon fill="red" stroke="red" stroke-width="1.39" points="995.34,-398.71 988.94,-407.15 999.21,-404.55 995.34,-398.71"/>
<text text-anchor="middle" x="1070.5" y="-230.3" font-family="Times,serif" font-size="14.00">&#45;1.31</text>
</g>
<!-- nn_5&#45;&gt;nn2 -->
<g id="edge32" class="edge">
<title>nn_5&#45;&gt;nn2</title>
<path fill="none" stroke="blue" stroke-width="1.15" d="M1019.19,-36.01C1013.69,-79 993.2,-192.81 926,-252 894.41,-279.83 776.77,-302.74 712.9,-313.46"/>
<polygon fill="blue" stroke="blue" stroke-width="1.15" points="712.05,-310.05 702.76,-315.14 713.19,-316.96 712.05,-310.05"/>
<text text-anchor="middle" x="1001" y="-176.3" font-family="Times,serif" font-size="14.00">0.51</text>
</g>
<!-- nn50638 -->
<g id="node14" class="node">
<title>nn50638</title>
<polygon fill="orange" stroke="black" points="844.58,-126 812.29,-144 747.71,-144 715.42,-126 747.71,-108 812.29,-108 844.58,-126"/>
<text text-anchor="middle" x="780" y="-122.3" font-family="Times,serif" font-size="14.00">h_n50638</text>
</g>
<!-- nn_5&#45;&gt;nn50638 -->
<g id="edge6" class="edge">
<title>nn_5&#45;&gt;nn50638</title>
<path fill="none" stroke="blue" stroke-width="1.09" d="M993.92,-31.9C990.91,-33.3 987.9,-34.69 985,-36 930.41,-60.73 867.06,-88.02 825.4,-105.78"/>
<polygon fill="blue" stroke="blue" stroke-width="1.09" points="823.9,-102.61 816.07,-109.75 826.64,-109.05 823.9,-102.61"/>
<text text-anchor="middle" x="956" y="-68.3" font-family="Times,serif" font-size="14.00">0.30</text>
</g>
<!-- nn_6 -->
<g id="node6" class="node">
<title>nn_6</title>
<polygon fill="red" stroke="black" points="855,-36 801,-36 801,0 855,0 855,-36"/>
<text text-anchor="middle" x="828" y="-14.3" font-family="Times,serif" font-size="14.00">I_n_6</text>
</g>
<!-- nn_6&#45;&gt;nn44299 -->
<g id="edge18" class="edge">
<title>nn_6&#45;&gt;nn44299</title>
<path fill="none" stroke="blue" stroke-width="1.17" d="M853.35,-36.09C858.87,-41.15 863.96,-47.19 867,-54 873.52,-68.61 868.89,-74.11 867,-90 864.09,-114.51 863.68,-121.29 854,-144 844.26,-166.85 828.88,-190.43 816.55,-207.57"/>
<polygon fill="blue" stroke="blue" stroke-width="1.17" points="813.52,-205.78 810.42,-215.91 819.16,-209.92 813.52,-205.78"/>
<text text-anchor="middle" x="880" y="-122.3" font-family="Times,serif" font-size="14.00">0.56</text>
</g>
<!-- nn_6&#45;&gt;nn50638 -->
<g id="edge17" class="edge">
<title>nn_6&#45;&gt;nn50638</title>
<path fill="none" stroke="blue" stroke-width="1.88" d="M800.95,-32.24C792.69,-37.75 784.58,-44.99 780,-54 773.19,-67.4 772.87,-84.14 774.39,-98"/>
<polygon fill="blue" stroke="blue" stroke-width="1.88" points="770.94,-98.54 775.85,-107.93 777.86,-97.53 770.94,-98.54"/>
<text text-anchor="middle" x="796" y="-68.3" font-family="Times,serif" font-size="14.00">2.95</text>
</g>
<!-- nn_7 -->
<g id="node7" class="node">
<title>nn_7</title>
<polygon fill="red" stroke="black" points="640,-36 586,-36 586,0 640,0 640,-36"/>
<text text-anchor="middle" x="613" y="-14.3" font-family="Times,serif" font-size="14.00">I_n_7</text>
</g>
<!-- nn44297 -->
<g id="node12" class="node">
<title>nn44297</title>
<polygon fill="orange" stroke="black" points="592.58,-180 560.29,-198 495.71,-198 463.42,-180 495.71,-162 560.29,-162 592.58,-180"/>
<text text-anchor="middle" x="528" y="-176.3" font-family="Times,serif" font-size="14.00">h_n44297</text>
</g>
<!-- nn_7&#45;&gt;nn44297 -->
<g id="edge5" class="edge">
<title>nn_7&#45;&gt;nn44297</title>
<path fill="none" stroke="red" stroke-width="1.25" stroke-dasharray="5,2" d="M612.75,-36.25C611.99,-66.39 608.98,-127.02 597,-144 591.99,-151.1 585.11,-156.85 577.62,-161.47"/>
<polygon fill="red" stroke="red" stroke-width="1.25" points="575.71,-158.52 568.62,-166.4 579.07,-164.66 575.71,-158.52"/>
<text text-anchor="middle" x="630.5" y="-68.3" font-family="Times,serif" font-size="14.00">&#45;0.84</text>
</g>
<!-- nn_7&#45;&gt;nn44299 -->
<g id="edge9" class="edge">
<title>nn_7&#45;&gt;nn44299</title>
<path fill="none" stroke="blue" stroke-width="1.13" d="M635.78,-36.04C641.46,-41.25 647.05,-47.38 651,-54 672.17,-89.45 650.78,-109.86 674,-144 694.04,-173.47 727.23,-196.64 754.08,-211.94"/>
<polygon fill="blue" stroke="blue" stroke-width="1.13" points="752.47,-215.05 762.92,-216.82 755.86,-208.92 752.47,-215.05"/>
<text text-anchor="middle" x="690" y="-122.3" font-family="Times,serif" font-size="14.00">0.43</text>
</g>
<!-- nn_7&#45;&gt;nn58668 -->
<g id="edge24" class="edge">
<title>nn_7&#45;&gt;nn58668</title>
<path fill="none" stroke="blue" stroke-width="1.72" d="M585.84,-21.29C537.28,-25.77 437.87,-36.78 408,-54 366.95,-77.66 335.03,-124.03 317.9,-153.15"/>
<polygon fill="blue" stroke="blue" stroke-width="1.72" points="314.8,-151.54 312.87,-161.96 320.87,-155.01 314.8,-151.54"/>
<text text-anchor="middle" x="424" y="-68.3" font-family="Times,serif" font-size="14.00">2.39</text>
</g>
<!-- nn_8 -->
<g id="node8" class="node">
<title>nn_8</title>
<polygon fill="red" stroke="black" points="54,-36 0,-36 0,0 54,0 54,-36"/>
<text text-anchor="middle" x="27" y="-14.3" font-family="Times,serif" font-size="14.00">I_n_8</text>
</g>
<!-- nn_8&#45;&gt;nn57627 -->
<g id="edge19" class="edge">
<title>nn_8&#45;&gt;nn57627</title>
<path fill="none" stroke="red" stroke-width="1.13" stroke-dasharray="5,2" d="M47.93,-36.18C66.12,-50.9 93.35,-72.45 118,-90 123.69,-94.05 129.81,-98.21 135.83,-102.18"/>
<polygon fill="red" stroke="red" stroke-width="1.13" points="134.21,-105.3 144.5,-107.83 138.03,-99.44 134.21,-105.3"/>
<text text-anchor="middle" x="136.5" y="-68.3" font-family="Times,serif" font-size="14.00">&#45;0.42</text>
</g>
<!-- nn0&#45;&gt;nn0 -->
<g id="edge3" class="edge">
<title>nn0&#45;&gt;nn0</title>
<path fill="none" stroke="purple" stroke-width="1.23" d="M288.78,-413.57C299.71,-413.57 308.45,-417.2 308.45,-424.45 308.45,-429.2 304.68,-432.4 299.01,-434.04"/>
<polygon fill="purple" stroke="purple" stroke-width="1.23" points="298.26,-430.6 288.78,-435.32 299.14,-437.55 298.26,-430.6"/>
<text text-anchor="middle" x="324.45" y="-420.75" font-family="Times,serif" font-size="14.00">0.76</text>
</g>
<!-- nn2&#45;&gt;nn2 -->
<g id="edge1" class="edge">
<title>nn2&#45;&gt;nn2</title>
<path fill="none" stroke="purple" stroke-width="1.98" d="M700.7,-313.28C714.48,-312.44 726.52,-315.01 726.52,-321 726.52,-325.44 719.89,-328.01 710.84,-328.69"/>
<polygon fill="purple" stroke="purple" stroke-width="1.98" points="710.69,-325.19 700.7,-328.72 710.71,-332.19 710.69,-325.19"/>
<text text-anchor="middle" x="742.52" y="-317.3" font-family="Times,serif" font-size="14.00">3.25</text>
</g>
<!-- nn44297&#45;&gt;nn2 -->
<g id="edge2" class="edge">
<title>nn44297&#45;&gt;nn2</title>
<path fill="none" stroke="red" stroke-width="1.35" stroke-dasharray="5,2" d="M529.13,-198.21C531.56,-221.11 539.16,-261.42 563,-285 580.12,-301.93 605.49,-310.67 627.34,-315.18"/>
<polygon fill="red" stroke="red" stroke-width="1.35" points="626.95,-318.67 637.41,-317.03 628.21,-311.78 626.95,-318.67"/>
<text text-anchor="middle" x="559.5" y="-230.3" font-family="Times,serif" font-size="14.00">&#45;1.16</text>
</g>
<!-- nn44299&#45;&gt;nn1 -->
<g id="edge12" class="edge">
<title>nn44299&#45;&gt;nn1</title>
<path fill="none" stroke="blue" stroke-width="1.1" d="M803.67,-252.12C812.68,-273.85 830.25,-311.78 853,-339 872.71,-362.59 899.91,-384.1 921.83,-399.5"/>
<polygon fill="blue" stroke="blue" stroke-width="1.1" points="920.02,-402.51 930.24,-405.31 924,-396.75 920.02,-402.51"/>
<text text-anchor="middle" x="869" y="-317.3" font-family="Times,serif" font-size="14.00">0.34</text>
</g>
<!-- nn44299&#45;&gt;nn2 -->
<g id="edge4" class="edge">
<title>nn44299&#45;&gt;nn2</title>
<path fill="none" stroke="blue" stroke-width="1.65" d="M771.5,-252.2C751.15,-265.93 722.59,-285.2 701.12,-299.68"/>
<polygon fill="blue" stroke="blue" stroke-width="1.65" points="699.02,-296.88 692.68,-305.37 702.93,-302.68 699.02,-296.88"/>
<text text-anchor="middle" x="757" y="-273.8" font-family="Times,serif" font-size="14.00">2.18</text>
</g>
<!-- nn44299&#45;&gt;nn44299 -->
<g id="edge10" class="edge">
<title>nn44299&#45;&gt;nn44299</title>
<path fill="none" stroke="purple" stroke-width="2.5" d="M847.78,-226.13C865.35,-226.04 879.54,-228.67 879.54,-234 879.54,-238.25 870.53,-240.78 857.98,-241.59"/>
<polygon fill="purple" stroke="purple" stroke-width="2.5" points="857.68,-238.1 847.78,-241.87 857.87,-245.09 857.68,-238.1"/>
<text text-anchor="middle" x="898.04" y="-230.3" font-family="Times,serif" font-size="14.00">&#45;5.51</text>
</g>
<!-- nn56775 -->
<g id="node15" class="node">
<title>nn56775</title>
<polygon fill="orange" stroke="black" points="1023.58,-321 991.29,-339 926.71,-339 894.42,-321 926.71,-303 991.29,-303 1023.58,-321"/>
<text text-anchor="middle" x="959" y="-317.3" font-family="Times,serif" font-size="14.00">h_n56775</text>
</g>
<!-- nn44299&#45;&gt;nn56775 -->
<g id="edge14" class="edge">
<title>nn44299&#45;&gt;nn56775</title>
<path fill="none" stroke="red" stroke-width="1.5" stroke-dasharray="5,2" d="M829.39,-252C854.7,-265.27 890.04,-283.82 917.43,-298.19"/>
<polygon fill="red" stroke="red" stroke-width="1.5" points="915.9,-301.34 926.39,-302.89 919.16,-295.14 915.9,-301.34"/>
<text text-anchor="middle" x="905.5" y="-273.8" font-family="Times,serif" font-size="14.00">&#45;1.67</text>
</g>
<!-- nn59267 -->
<g id="node19" class="node">
<title>nn59267</title>
<polygon fill="orange" stroke="black" points="445.58,-321 413.29,-339 348.71,-339 316.42,-321 348.71,-303 413.29,-303 445.58,-321"/>
<text text-anchor="middle" x="381" y="-317.3" font-family="Times,serif" font-size="14.00">h_n59267</text>
</g>
<!-- nn44299&#45;&gt;nn59267 -->
<g id="edge33" class="edge">
<title>nn44299&#45;&gt;nn59267</title>
<path fill="none" stroke="red" stroke-width="1.76" stroke-dasharray="5,2" d="M757.19,-247.94C721.76,-259.06 668.37,-274.86 621,-285 561.42,-297.75 492.51,-307.27 443.86,-313.14"/>
<polygon fill="red" stroke="red" stroke-width="1.76" points="443.31,-309.68 433.79,-314.33 444.14,-316.63 443.31,-309.68"/>
<text text-anchor="middle" x="697.5" y="-273.8" font-family="Times,serif" font-size="14.00">&#45;2.54</text>
</g>
<!-- nn50638&#45;&gt;nn0 -->
<g id="edge7" class="edge">
<title>nn50638&#45;&gt;nn0</title>
<path fill="none" stroke="blue" stroke-width="1.2" d="M736.37,-137.86C727.65,-139.95 718.54,-142.09 710,-144 671.04,-152.71 653.11,-136.99 622,-162 587.89,-189.43 610,-218.36 582,-252 514.7,-332.85 474.8,-330.85 378,-372 351.04,-383.46 320.69,-396.26 297,-406.23"/>
<polygon fill="blue" stroke="blue" stroke-width="1.2" points="295.48,-403.07 287.62,-410.17 298.19,-409.52 295.48,-403.07"/>
<text text-anchor="middle" x="581" y="-273.8" font-family="Times,serif" font-size="14.00">0.65</text>
</g>
<!-- nn56775&#45;&gt;nn1 -->
<g id="edge15" class="edge">
<title>nn56775&#45;&gt;nn1</title>
<path fill="none" stroke="red" stroke-width="1.18" stroke-dasharray="5,2" d="M959,-339.21C959,-350.31 959,-365.28 959,-379.53"/>
<polygon fill="red" stroke="red" stroke-width="1.18" points="955.5,-379.71 959,-389.71 962.5,-379.71 955.5,-379.71"/>
<text text-anchor="middle" x="977.5" y="-360.8" font-family="Times,serif" font-size="14.00">&#45;0.62</text>
</g>
<!-- nn57034 -->
<g id="node16" class="node">
<title>nn57034</title>
<polygon fill="orange" stroke="black" points="1269.58,-72 1237.29,-90 1172.71,-90 1140.42,-72 1172.71,-54 1237.29,-54 1269.58,-72"/>
<text text-anchor="middle" x="1205" y="-68.3" font-family="Times,serif" font-size="14.00">h_n57034</text>
</g>
<!-- nn57627&#45;&gt;nn0 -->
<g id="edge20" class="edge">
<title>nn57627&#45;&gt;nn0</title>
<path fill="none" stroke="red" stroke-width="1.15" stroke-dasharray="5,2" d="M169.91,-144.3C166.86,-173.62 162.6,-234.77 173,-285 181.52,-326.15 187.47,-336.53 210,-372 214.34,-378.83 219.58,-385.63 224.96,-391.95"/>
<polygon fill="red" stroke="red" stroke-width="1.15" points="222.53,-394.49 231.78,-399.66 227.78,-389.85 222.53,-394.49"/>
<text text-anchor="middle" x="191.5" y="-273.8" font-family="Times,serif" font-size="14.00">&#45;0.48</text>
</g>
<!-- nn58668&#45;&gt;nn0 -->
<g id="edge25" class="edge">
<title>nn58668&#45;&gt;nn0</title>
<path fill="none" stroke="blue" stroke-width="1.06" d="M300.62,-198.05C293.21,-235.51 275.29,-326 264.55,-380.24"/>
<polygon fill="blue" stroke="blue" stroke-width="1.06" points="261.08,-379.76 262.57,-390.25 267.95,-381.12 261.08,-379.76"/>
<text text-anchor="middle" x="301" y="-273.8" font-family="Times,serif" font-size="14.00">0.20</text>
</g>
<!-- nn58668&#45;&gt;nn59267 -->
<g id="edge26" class="edge">
<title>nn58668&#45;&gt;nn59267</title>
<path fill="none" stroke="blue" stroke-width="1.11" d="M313.44,-198.04C326.72,-222.01 351.02,-265.88 366.57,-293.95"/>
<polygon fill="blue" stroke="blue" stroke-width="1.11" points="363.57,-295.76 371.48,-302.82 369.7,-292.37 363.57,-295.76"/>
<text text-anchor="middle" x="358" y="-230.3" font-family="Times,serif" font-size="14.00">0.38</text>
</g>
<!-- nn59267&#45;&gt;nn0 -->
<g id="edge27" class="edge">
<title>nn59267&#45;&gt;nn0</title>
<path fill="none" stroke="red" stroke-width="1.39" stroke-dasharray="5,2" d="M359.8,-339.21C340.81,-354.62 312.63,-377.49 290.42,-395.51"/>
<polygon fill="red" stroke="red" stroke-width="1.39" points="288.09,-392.89 282.54,-401.91 292.51,-398.33 288.09,-392.89"/>
<text text-anchor="middle" x="355.5" y="-360.8" font-family="Times,serif" font-size="14.00">&#45;1.29</text>
</g>
<!-- nn59699&#45;&gt;nn44299 -->
<g id="edge31" class="edge">
<title>nn59699&#45;&gt;nn44299</title>
<path fill="none" stroke="blue" stroke-width="1.38" d="M561.23,-141.06C574.6,-146.72 589.41,-153.84 602,-162 622.07,-175.01 620.76,-187.01 642,-198 670.16,-212.57 704.29,-221.11 733.34,-226.1"/>
<polygon fill="blue" stroke="blue" stroke-width="1.38" points="732.95,-229.59 743.38,-227.72 734.07,-222.68 732.95,-229.59"/>
<text text-anchor="middle" x="658" y="-176.3" font-family="Times,serif" font-size="14.00">1.26</text>
</g>
</g>
</svg>
